<svg version="1.2" xmlns="http://www.w3.org/2000/svg" viewBox="0 0 65 67" width="65" height="67">
	<title>artificial_intelligencepana_2_x2-svg</title>
	<style>
		.s0 { fill: #f4f4f4 } 
		.s1 { fill: #ff5904 } 
		.s2 { fill: #263238 } 
		.s3 { fill: #455a64 } 
		.s4 { fill: #353537 } 
	</style>
	<path id="Layer" class="s0" d="m34.3 61.6q0 0 0 0 0 0 0.1 0 0 0 0 0 0 0 0 0 0 0 0 0.1 0 0 0 0 0 0-0.1 0 0 0 0 0 0 0 0 0 0 0 0-0.1 0 0 0 0 0 0 0 0z"/>
	<path id="Layer" class="s1" d="m47.2 18.2l2.3 1c0 0-3.5 5-4.3 5.8-0.7 0.8-7.8 1.8-7.8 1.8l-0.3-2.9 6-1.1z"/>
	<path id="Layer" class="s0" d="m44.9 25.2c0 0 0-0.1-0.1-0.4q-0.1-0.2-0.2-0.5-0.1-0.3-0.3-0.5-0.2-0.3-0.4-0.5-0.2-0.1-0.4-0.3c-0.2-0.1-0.4-0.2-0.4-0.2q0 0 0.1 0 0.2 0.1 0.4 0.2 0.2 0.1 0.4 0.3 0.2 0.2 0.4 0.4 0.2 0.3 0.3 0.6 0.1 0.2 0.2 0.5 0 0.1 0 0.3 0 0.1 0 0.1z"/>
	<path id="Layer" class="s0" d="m44.5 24.1q-0.2 0.1-0.3 0.1-0.2 0.1-0.6 0.2c-0.5 0.1-1.3 0.3-2.1 0.5-0.8 0.1-1.6 0.3-2.1 0.4q-0.4 0-0.7 0-0.1 0.1-0.2 0.1 0.1-0.1 0.2-0.1l0.7-0.1c0.5-0.1 1.3-0.2 2.1-0.4 0.8-0.2 1.5-0.3 2.1-0.5l0.6-0.1q0.1-0.1 0.3-0.1z"/>
	<path id="Layer" class="s0" d="m47.8 18.5c0 0-0.9 1.1-2 2.4-1.2 1.3-2.1 2.3-2.1 2.3 0 0 0.9-1.1 2-2.4 1.2-1.3 2.1-2.3 2.1-2.3z"/>
	<path id="Layer" class="s0" d="m45 22.1q0 0 0 0 0 0 0 0 0 0 0 0 0 0 0 0 0 0 0 0 0 0.1 0 0.1 0 0 0 0 0 0 0 0-0.1 0-0.1 0 0-0.1 0-0.1 0 0 0 0 0 0 0 0z"/>
	<path id="Layer" class="s0" d="m41.3 24.5q0 0 0 0 0 0 0 0 0 0 0 0 0 0 0 0 0 0 0 0 0 0.1 0 0.1 0 0 0 0 0 0 0 0-0.1 0-0.1 0 0-0.1 0-0.1 0 0 0 0 0 0 0 0z"/>
	<path id="Layer" class="s0" d="m43 24.1q0 0 0.1 0 0 0 0 0 0 0 0 0 0 0 0 0 0 0 0 0 0 0.1 0 0.1 0 0 0 0-0.1 0-0.1 0 0 0 0 0 0-0.1 0-0.1 0 0 0 0 0 0 0 0z"/>
	<path id="Layer" class="s0" d="m46 20.9q0 0 0 0 0 0 0 0 0 0 0 0.1 0.1 0 0.1 0 0 0 0 0-0.1 0-0.1 0 0 0 0 0.1 0 0 0-0.1 0 0-0.1 0 0 0 0 0 0 0 0 0 0 0 0.1-0.1z"/>
	<path id="Layer" class="s0" d="m47 19.8q0-0.1 0-0.1 0.1 0 0.1 0 0 0.1 0 0.1 0 0 0 0 0 0 0 0 0 0 0 0.1 0 0 0 0-0.1 0-0.1 0 0 0 0-0.1 0 0 0 0 0 0 0 0 0 0 0 0z"/>
	<g id="Layer" style="opacity: .3">
		<path id="Layer" class="s0" d="m42.8 23.1c0 0.1-0.9 0.4-2.1 0.6-1.1 0.1-2.1 0.2-2.1 0.1 0-0.1 0.9-0.3 2.1-0.5 1.1-0.2 2.1-0.3 2.1-0.2z"/>
	</g>
	<path id="Layer" class="s0" d="m39.7 24.7q0 0 0 0 0.1 0 0.1 0 0 0 0 0.1 0 0 0 0 0 0 0 0 0 0 0 0 0 0 0 0.1-0.1 0-0.1-0.1 0 0 0 0 0 0 0 0 0 0 0 0 0-0.1 0-0.1z"/>
	<path id="Layer" class="s2" d="m36.4 23.4q0.5-0.1 1 0 0.4 0.2 0.8 0.5 0.3 0.4 0.3 0.9 0.1 0.5 0 1c-0.2 0.6-1 1.4-1.6 1.7z"/>
	<path id="Layer" class="s1" d="m50.1 18.5q0.3-0.4 0.5-0.8 0.2-0.4 0.1-0.9 0-0.3-0.2-0.5-0.1-0.1-0.3-0.2-0.3-0.1-0.5-0.1-0.2 0.1-0.4 0.3l0.6-1.1c0.1-0.2 0.2-0.4 0.1-0.5q-0.1-0.1-0.2-0.1-0.1 0-0.2 0.1-0.2 0.1-0.3 0.3l-0.9 1.7-0.8-1.3c0-0.1-0.1-0.2-0.3-0.2q-0.1 0-0.1 0.1-0.1 0.1-0.1 0.2 0 0.1 0.1 0.3c0.2 0.5 0.7 1.6 0.7 1.6z"/>
	<path id="Layer" class="s3" d="m36.9 27.4c0 0 0.2-0.2 0.5-0.5q0.2-0.3 0.3-0.7 0.2-0.4 0.1-0.9 0-0.8-0.5-1.5-0.1-0.2-0.3-0.4-0.1 0-0.2-0.1 0 0 0.1 0 0 0.1 0.1 0.1 0.2 0.1 0.4 0.3 0.4 0.8 0.5 1.6 0.1 0.5-0.1 0.9-0.1 0.4-0.4 0.7-0.1 0.2-0.3 0.4-0.1 0-0.2 0.1z"/>
	<path id="Layer" class="s2" d="m47.2 18.2q1 0.6 2 1c0.2 0.1 0.5 0.2 0.8 0.1q0.1-0.1 0.2-0.3 0-0.1 0-0.3-0.1-0.3-0.4-0.5c-0.4-0.5-0.9-0.9-1.6-1q-0.3-0.2-0.7-0.1-0.1 0-0.3 0.1-0.1 0.2-0.2 0.3 0 0.2 0 0.4 0.1 0.2 0.2 0.3z"/>
	<path id="Layer" class="s3" d="m50.1 19c0 0-0.1-0.2-0.3-0.4q-0.4-0.5-1-0.8-0.5-0.3-1.2-0.3c-0.3 0-0.5 0-0.5 0q0.1 0 0.1 0 0.2 0 0.4 0 0.7-0.1 1.3 0.2 0.5 0.3 0.9 0.8 0.1 0.2 0.2 0.4 0.1 0 0.1 0.1z"/>
	<path id="Layer" class="s2" d="m35.5 34.3c0 0.1-0.2 0.3-0.8 0.5q-0.4 0.2-0.9 0.3-1.2 0.3-2.4 0.2-0.5-0.1-1-0.2c-0.5-0.1-0.8-0.3-0.8-0.3 0-0.1 0.4 0 0.9 0.1q0.4 0 0.9 0 0.6 0.1 1.2 0 0.6 0 1.1-0.1 0.6-0.1 1-0.3c0.5-0.1 0.8-0.2 0.8-0.2z"/>
	<path id="Layer" class="s2" d="m35.3 35.1c0 0.1-0.2 0.2-0.7 0.4-1.2 0.4-2.6 0.5-3.9 0.3-0.4-0.1-0.7-0.2-0.7-0.3 0-0.1 1.2 0.1 2.7 0 1.4-0.1 2.6-0.5 2.6-0.4z"/>
	<path id="Layer" class="s1" d="m30 13.5c0 0-4.9 0.9-4.8 5.2 0.1 4.4 4.2 3.7 5.4 3.5 0.5-0.1 1.6-0.2 2.6-0.4 2.2-0.3 3.8-1.3 3.9-3.5q0-0.4 0-0.8c-0.3-2.3-2.5-5-7.1-4z"/>
	<path id="Layer" class="s2" d="m35.2 17.9l-6.2 1.3c-0.3 0-0.6 0-0.9-0.2-0.2-0.2-0.4-0.4-0.5-0.8-0.1-0.3 0-0.6 0.2-0.9 0.1-0.2 0.4-0.4 0.7-0.5l6.2-1.3c0.3-0.1 0.7 0 0.9 0.2 0.3 0.1 0.5 0.4 0.6 0.7q0 0.3 0 0.5-0.1 0.2-0.2 0.4-0.1 0.2-0.3 0.4-0.2 0.1-0.5 0.2z"/>
	<path id="Layer" class="s0" d="m29.9 18.3c0.2 0 0.4-0.2 0.4-0.4 0-0.2-0.2-0.4-0.4-0.4-0.2 0-0.4 0.2-0.4 0.4 0 0.2 0.2 0.4 0.4 0.4z"/>
	<path id="Layer" class="s0" d="m34.2 17.3c0.2 0 0.4-0.2 0.4-0.4 0-0.2-0.2-0.3-0.4-0.3-0.2 0-0.4 0.1-0.4 0.3 0 0.2 0.2 0.4 0.4 0.4z"/>
	<path id="Layer" class="s0" d="m31.9 15.8q-0.1-0.2-0.2-0.5-0.3-0.5-0.6-0.9-0.4-0.5-0.9-0.7-0.3-0.1-0.5-0.1 0.1-0.1 0.1 0 0.2 0 0.4 0 0.6 0.2 0.9 0.7 0.4 0.5 0.6 1 0.1 0.2 0.2 0.4 0 0 0 0.1z"/>
	<path id="Layer" class="s0" d="m32 22c0 0 0.2-0.1 0.3-0.4q0.4-0.5 0.5-1.1 0-0.6 0-1.2-0.1-0.2-0.1-0.5 0 0.1 0 0.1 0.1 0.2 0.1 0.4 0.1 0.6 0 1.2-0.1 0.6-0.4 1.1-0.1 0.2-0.3 0.3 0 0.1-0.1 0.1z"/>
	<g id="Layer" style="opacity: .3">
		<path id="Layer" class="s4" d="m36.6 20.1c-0.6-0.3-1.3-0.5-1.9-0.6q-1 0-2 0.2c-1.5 0.2-3.1 0.6-4.3 1.5q-0.6 0.4-0.9 1c0 0 0.7 0.2 2 0.1 1.3 0 4-0.5 4-0.5 0 0 1.4-0.2 2.1-0.8 0.8-0.6 1-0.9 1-0.9z"/>
	</g>
	<path id="Layer" class="s0" d="m36.5 16.3q0.1 0.1 0.1 0.2 0 0.4-0.1 0.7c-0.1 0.3-0.3 0.6-0.6 0.8-0.4 0.2-0.8 0.3-1.3 0.4l-3.5 0.8-1.1 0.2c-0.3 0.1-0.6 0.2-1 0.2-0.4 0.1-0.8 0-1.1-0.2-0.4-0.2-0.6-0.5-0.7-0.9-0.1-0.4-0.1-0.8 0.1-1.1 0.2-0.4 0.5-0.6 0.9-0.8q0.2-0.1 0.5-0.1l0.5-0.2 1-0.2 1.9-0.4c0.6-0.2 1.1-0.3 1.6-0.4q0.4-0.1 0.7-0.1 0.4-0.1 0.7 0 0.5 0.1 1 0.4 0.2 0.2 0.4 0.5 0 0.1 0 0.2 0 0 0 0 0 0 0-0.2-0.2-0.3-0.5-0.5-0.4-0.3-0.9-0.4-0.3 0-0.7 0-0.3 0-0.7 0.1c-0.5 0.1-1 0.3-1.6 0.4l-1.9 0.5-1 0.2-0.5 0.1q-0.3 0.1-0.5 0.2-0.5 0.2-0.8 0.7c-0.2 0.3-0.2 0.7-0.1 1.1 0.1 0.3 0.3 0.7 0.6 0.9 0.3 0.1 0.7 0.2 1.1 0.1 0.3 0 0.7-0.1 1-0.2l1.1-0.2 3.5-0.7q0.6-0.1 1.3-0.5c0.3-0.1 0.5-0.4 0.6-0.7q0.1-0.3 0.1-0.7-0.1-0.2-0.1-0.2z"/>
	<path id="Layer" class="s0" d="m25.3 19.5q0.1-0.2 0.2-0.2 0.6-0.5 1.4-0.7 0.1-0.1 0.3-0.1c0 0.1-0.5 0.2-1 0.4-0.5 0.3-0.9 0.6-0.9 0.6z"/>
	<path id="Layer" class="s0" d="m30.3 14.1q0 0 0 0 0.1 0 0.1 0 0 0 0 0 0 0 0 0.1 0 0 0 0 0 0 0 0 0 0 0 0-0.1 0-0.1 0 0 0 0 0 0 0 0 0 0 0 0-0.1 0 0 0 0z"/>
	<path id="Layer" class="s0" d="m31.1 15.2q0 0 0 0 0 0 0.1 0 0 0 0 0 0 0.1 0 0.1 0 0 0 0 0 0 0 0-0.1 0-0.1 0 0 0 0 0 0 0 0 0 0 0 0 0 0 0 0 0 0-0.1 0-0.1z"/>
	<path id="Layer" class="s0" d="m26.4 18.4q0 0 0.1 0 0 0 0 0 0 0 0 0 0 0 0 0 0 0 0 0 0 0.1 0 0.1 0 0 0 0-0.1 0-0.1 0 0 0 0 0 0-0.1 0-0.1 0 0 0 0 0 0 0 0z"/>
	<path id="Layer" class="s0" d="m25.5 18.9q0 0 0 0 0 0 0 0 0 0 0 0 0.1 0 0.1 0 0 0.1-0.1 0.1 0 0 0 0 0 0 0 0 0 0 0 0 0 0-0.1 0 0 0 0 0 0-0.1 0-0.1 0 0 0.1 0z"/>
	<g id="Layer" style="opacity: .3">
		<path id="Layer" class="s0" d="m31.3 13.6c0 0-0.4 0.1-1.1 0.4-0.7 0.2-1.6 0.5-2.5 1.1q-0.6 0.5-1.1 1.1-0.4 0.5-0.6 1.1c-0.2 0.6-0.2 1.1-0.3 1.1q0 0 0-0.3-0.1-0.5 0-0.9 0.2-0.7 0.6-1.2 0.5-0.7 1.1-1.2 0.7-0.4 1.5-0.7 0.6-0.3 1.2-0.4c0.7-0.2 1.2-0.2 1.2-0.1z"/>
	</g>
	<g id="Layer" style="opacity: .3">
		<path id="Layer" class="s0" d="m26.6 20.5c-0.1 0.1-0.3 0-0.5-0.3-0.3-0.3-0.3-0.6-0.2-0.6 0.1 0 0.3 0.2 0.5 0.4 0.2 0.2 0.3 0.5 0.2 0.5z"/>
	</g>
	<path id="Layer" class="s1" d="m36.7 22.9c0.3 0.1 0.3 4.3 0.2 6.5 0 1.2-0.1 2.4-0.7 3.4-0.7 1.1-1.9 1.8-3.2 1.9-1.6 0.1-3.1-0.6-4.2-1.8-1.1-1.1-1.7-2.6-2-4.1-0.4-1.6-0.5-3.1-0.5-4.7 0 0 5-2.7 10.4-1.2z"/>
	<g id="Layer" style="opacity: .2">
		<path id="Layer" class="s4" d="m26.5 26.2c0 1.3 0.2 2.9 0.7 4.1 0.4 1.2 1.1 2.3 2.3 3.3q0.5 0.3 1 0.6 0.5 0.2 1 0.4c0.5 0.1 0.9-0.6 1-1.1 0.1-0.6-0.1-1.2-0.5-1.6q-0.5-0.7-1.3-1.1-0.7-0.5-1.4-1c-0.7-0.6-1.3-1.4-1.7-2.3q-0.6-1.4-1-2.8z"/>
	</g>
	<path id="Layer" class="s0" d="m30.1 32q0 0 0 0 0.1 0 0.1 0 0 0 0 0 0 0 0 0 0 0 0 0.1 0 0 0 0 0 0 0 0-0.1 0-0.1 0 0 0 0 0 0 0 0-0.1 0 0 0 0 0 0 0 0z"/>
	<path id="Layer" class="s0" d="m32 31.9q0 0 0 0 0.1 0 0.1 0 0 0 0 0 0 0 0 0 0 0.1 0 0.1 0 0 0 0 0 0 0 0-0.1 0-0.1 0 0 0 0 0 0 0 0 0 0-0.1 0-0.1 0 0 0 0z"/>
	<path id="Layer" class="s0" d="m34.1 30q0 0 0 0 0 0 0 0 0.1 0 0.1 0 0 0 0 0 0 0 0 0 0 0.1-0.1 0.1 0 0 0 0 0 0 0 0 0 0 0 0 0-0.1-0.1-0.1 0 0 0.1 0 0 0 0 0z"/>
	<path id="Layer" class="s0" d="m33.1 25.1q0 0 0.1 0 0 0 0 0 0 0 0 0.1 0 0 0 0 0 0 0 0 0 0 0 0 0 0 0 0.1-0.1 0-0.1-0.1 0 0 0 0 0 0 0 0 0 0 0 0 0 0 0-0.1z"/>
	<path id="Layer" class="s0" d="m35.1 25.9q0 0 0 0 0 0 0 0 0 0 0 0 0.1 0.1 0.1 0.1 0 0-0.1 0 0 0 0 0 0 0 0 0 0 0 0 0 0 0-0.1 0 0 0 0 0 0 0 0 0 0-0.1 0.1-0.1z"/>
	<path id="Layer" class="s0" d="m28 31.4q0 0 0 0 0 0 0 0 0.1 0 0.1 0 0 0.1 0 0.1 0 0 0 0 0 0-0.1 0 0 0 0 0 0 0 0 0 0 0 0 0 0 0 0 0 0 0 0 0 0-0.1 0-0.1z"/>
	<path id="Layer" class="s0" d="m27.7 29.8q0 0 0 0 0 0 0 0 0 0 0.1 0 0 0.1 0 0.1 0 0 0 0 0 0-0.1 0 0 0 0 0 0 0 0 0 0 0 0 0-0.1 0-0.1 0 0 0 0.1-0.1 0 0 0 0z"/>
	<path id="Layer" class="s0" d="m27.5 28.4q0 0 0.1 0 0 0 0 0 0 0 0 0 0 0 0 0 0 0 0 0.1 0 0 0 0 0 0 0 0-0.1 0-0.1 0 0 0 0 0 0-0.1 0-0.1 0 0 0 0 0 0 0 0z"/>
	<path id="Layer" class="s0" d="m27.4 26.8q0 0 0 0 0 0 0.1 0 0 0.1 0 0.1 0 0 0 0 0 0 0 0 0 0 0 0 0 0.1-0.1 0.1 0 0 0 0 0-0.1 0-0.1 0 0 0 0 0 0 0 0 0 0 0-0.1z"/>
	<path id="Layer" class="s0" d="m36.2 25.6q0 0 0-0.1 0.1 0 0.1 0.1 0 0 0 0 0 0 0 0 0 0 0 0 0 0.1 0 0.1 0 0 0 0-0.1 0-0.1 0 0 0 0-0.1 0 0 0 0 0 0 0 0 0 0 0 0z"/>
	<path id="Layer" class="s0" d="m34.4 31.8q0-0.1 0-0.1 0 0 0.1 0.1 0 0 0 0 0 0 0 0 0 0 0 0 0 0 0 0.1 0 0-0.1 0 0 0 0 0 0 0 0-0.1 0 0 0 0 0 0 0 0 0 0 0 0z"/>
	<path id="Layer" class="s0" d="m34.6 33.3q0 0 0 0 0 0 0.1 0 0 0 0 0 0 0 0 0 0 0 0 0.1 0 0 0 0 0 0-0.1 0 0 0 0 0 0 0 0 0 0 0 0-0.1 0 0 0 0 0 0 0 0z"/>
	<g id="Layer" style="opacity: .3">
		<path id="Layer" class="s0" d="m35.5 24c0 0.1-0.4 0.3-1.2 0.5q-0.7 0.2-1.4 0.3-1.7 0.3-3.5 0.1-0.7-0.1-1.4-0.2c-0.8-0.1-1.2-0.3-1.2-0.4 0-0.1 2 0.4 4.4 0.3 2.4-0.1 4.3-0.7 4.3-0.6z"/>
	</g>
	<path id="Layer" class="s0" d="m29.9 33.9q0 0 0-0.1-0.1 0-0.3-0.2-0.3-0.4-0.6-0.9-0.1-0.3-0.2-0.7-0.1-0.3-0.3-0.8-0.2-0.9-0.4-1.9-0.3-1.7-0.5-3.5 0-0.7 0-1.1v-0.3q0 0 0-0.1 0 0.1 0 0.1 0 0.1 0 0.3 0 0.4 0.1 1.1c0.1 0.9 0.2 2.1 0.5 3.5q0.2 1 0.4 1.9 0.1 0.4 0.3 0.8 0 0.4 0.2 0.7 0.2 0.5 0.6 0.9 0.1 0.1 0.2 0.2 0 0 0 0.1z"/>
	<path id="Layer" class="s0" d="m33.4 29.2c0 0 0.2 1.2 0.3 2.6 0.2 1.5 0.3 2.6 0.3 2.6 0 0-0.2-1.1-0.3-2.6-0.2-1.4-0.3-2.6-0.3-2.6z"/>
	<path id="Layer" class="s0" d="m31.2 22.6q0 0 0.1 0.1 0 0.1 0.2 0.3c0.2 0.3 0.5 0.6 0.9 1l0.1 0.2q0 0 0 0 0 0 0 0.1 0.1 0 0.1 0.1 0 0.2 0 0.3 0 0.4 0 0.6 0 0.3 0 0.4 0 0.1 0 0.2 0-0.3-0.1-0.6 0-0.2 0-0.6 0-0.1 0-0.3 0-0.1 0-0.1 0 0-0.1-0.1l-0.1-0.1c-0.3-0.4-0.6-0.8-0.8-1.1q-0.2-0.2-0.3-0.3 0 0 0-0.1z"/>
	<path id="Layer" class="s0" d="m33.5 31.4q-0.1 0-0.2 0.1-0.2 0-0.5 0c-0.4 0.1-1 0.1-1.7 0.2-0.6 0-1.2 0-1.7 0q-0.3 0-0.5 0-0.1 0-0.2 0 0.1-0.1 0.2-0.1h0.5c0.5 0 1.1 0 1.7 0 0.7 0 1.3-0.1 1.7-0.1l0.5-0.1q0.1 0 0.2 0z"/>
	<path id="Layer" class="s0" d="m36.9 25.7q0 0-0.1 0.1-0.1 0.1-0.3 0.2-0.5 0.2-1 0.4-0.5 0.1-1.1 0.2-0.2 0.1-0.5 0.1 0.3-0.1 0.5-0.1c0.3-0.1 0.7-0.2 1.1-0.3q0.5-0.2 1-0.4c0.3-0.1 0.4-0.2 0.4-0.2z"/>
	<path id="Layer" class="s2" d="m32.9 29.2c-1 0-1.7-0.7-1.7-1.7 0-0.9 0.7-1.7 1.7-1.7 0.9 0 1.7 0.8 1.7 1.7 0 1-0.8 1.7-1.7 1.7z"/>
	<path id="Layer" class="s0" d="m33.7 28.4c0.5-0.4 0.6-1.2 0.1-1.7-0.5-0.5-1.3-0.6-1.8-0.1-0.5 0.5-0.5 1.3 0 1.8 0.4 0.5 1.2 0.5 1.7 0z"/>
	<path id="Layer" class="s1" d="m33.5 27.8q0-0.1 0-0.2 0-0.2 0-0.5l-0.7-0.4h0.1l-0.7 0.5c0 0 0-0.1 0-0.1v0.1 0.1q0 0.1 0.1 0.2 0 0.2 0 0.4v-0.1l0.6 0.4q0.3-0.2 0.4-0.3 0.1-0.1 0.2-0.1 0 0.1-0.1 0.1-0.2 0.1-0.5 0.3l-0.7-0.3q0-0.2 0-0.4 0-0.1 0-0.2v-0.1-0.1c0 0 0 0 0 0l0.6-0.4 0.7 0.3q0 0.4 0 0.6 0.1 0.1 0 0.2z"/>
	<g id="Layer" style="opacity: .2">
		<path id="Layer" class="s4" d="m26.3 24.1c0 0 5-2.8 10.4-1.2 0 0-2.3 2.2-10.4 1.2z"/>
	</g>
	<path id="Layer" class="s0" d="m34.4 58q0 0 0.1 0 0 0 0 0 0 0 0 0 0 0.1 0 0.1 0 0 0 0 0 0 0 0 0 0 0 0 0 0-0.1 0 0 0 0 0 0 0 0 0 0 0 0 0 0-0.1 0-0.1z"/>
	<path id="Layer" class="s1" d="m32.2 39.1c0.1 3.6 0.5 7.2 1.4 10.7 0.2 0.6 0.3 1.2 0.8 1.7 0.4 0.4 1.2 0.6 1.6 0.2 0.5-0.3 0.6-0.9 0.6-1.4q0.7-5.8 0.8-11.6c0 0 0.1-2.9-2-2.9-2.1 0-3.2 1.1-3.2 3.3z"/>
	<g id="Layer" style="opacity: .2">
		<path id="Layer" class="s4" d="m33.7 36.1c0.3-0.3 0.8-0.3 1.1 0 0.3 0.2 0.5 0.6 0.5 1 0.2 1.3-0.5 2.6-0.7 3.8-0.2 1.3-0.1 2.5-0.1 3.8-0.1 1.2-0.3 2.5-1.3 3.3 0 0-1-4.8-0.8-6.7 0.1-1.3 1.3-5.2 1.3-5.2z"/>
	</g>
	<path id="Layer" class="s0" d="m34 40.9q0 0.1 0 0.1v0.4q0.1 0.4 0.1 1.1c0.2 1 0.3 2.4 0.5 3.9 0.2 1.5 0.4 2.9 0.6 3.9q0.1 0.7 0.1 1.2 0.1 0.2 0.1 0.3 0 0.1 0 0.1 0 0 0-0.1-0.1-0.1-0.1-0.3-0.1-0.4-0.2-1.2c-0.2-1-0.4-2.3-0.6-3.9-0.2-1.5-0.3-2.9-0.4-3.9q-0.1-0.7-0.1-1.1 0-0.2 0-0.4 0 0 0-0.1z"/>
	<path id="Layer" class="s2" d="m30.9 41.7c1 0.5 2.4 0.1 3-0.9 0.7-0.9 0.9-2.2 1.1-3.3 0.1-0.4 0.1-0.9-0.1-1.2-0.3-0.4-0.8-0.4-1.3-0.4l-4.3 0.2c0 0-1.6 0.4-1.6 1.4 0 1 1.9 3.6 3.2 4.2z"/>
	<path id="Layer" class="s1" d="m34.6 52.3c-0.4 0-0.8 0.4-1 0.8-0.2 0.4-0.2 0.9-0.2 1.4-0.1 2.8-0.2 5.7-0.1 8.5 0.1 0.7 0.1 1.3 0.5 1.8 0.4 0.5 1.2 0.7 1.6 0.3 0.3-0.3 0.3-0.7 0.4-1l1.1-10.2c0-0.4 0-0.8-0.1-1.2q-0.2-0.2-0.5-0.4-0.2-0.1-0.5-0.1-0.5-0.1-1.1 0.1z"/>
	<path id="Layer" class="s0" d="m34.1 65.7q0 0 0 0v-0.1q-0.1-0.2-0.1-0.4 0-0.5-0.1-1.5c0-1.2 0-2.8 0-4.7 0.1-1.9 0.1-3.5 0.2-4.7q0-0.8 0.2-1.5 0.1-0.1 0.2-0.3l0.1-0.1q0 0 0 0 0 0 0 0l-0.1 0.1q-0.1 0.2-0.2 0.3-0.2 0.7-0.2 1.5c0 1.2-0.1 2.9-0.1 4.7-0.1 1.9-0.1 3.5 0 4.7q0 1 0 1.5 0.1 0.2 0.1 0.4v0.1q0 0 0 0z"/>
	<path id="Layer" class="s2" d="m33.6 65.9q-0.1-0.4 0-0.8c0-0.3 0.1-0.6 0.3-0.8q0.3-0.2 0.7-0.2 0.3-0.1 0.7 0.1 0.2 0.1 0.3 0.3 0.2 0.3 0.2 0.5l0.2 1.1z"/>
	<path id="Layer" class="s1" d="m33.5 65.9h2.5c0 0 1.9 0.4 1.9 0.6-0.1 0.1-4.5-0.1-4.5-0.1z"/>
	<path id="Layer" class="s3" d="m32.9 36.1q0 0.1 0.1 0.2 0 0.1 0 0.3 0.1 0.2 0.1 0.3 0.1 0.3 0.1 0.5 0 0.3 0 0.5 0.1 0.6 0 1.2-0.1 0.6-0.3 1.2-0.1 0.3-0.2 0.5-0.1 0.1-0.1 0.2l-0.1 0.2q-0.1 0.2-0.3 0.3 0 0.2-0.1 0.3-0.1 0.1-0.2 0.1 0.1-0.1 0.2-0.2 0-0.1 0.1-0.2 0.1-0.1 0.2-0.3 0.1-0.1 0.1-0.2 0.1-0.1 0.1-0.2 0.1-0.3 0.2-0.5 0.2-0.6 0.3-1.2 0.1-0.6 0.1-1.2 0-0.2-0.1-0.5 0-0.2 0-0.4-0.1-0.2-0.1-0.4 0-0.2-0.1-0.3 0-0.1 0-0.2z"/>
	<path id="Layer" class="s0" d="m34.9 44.6q0 0 0 0 0 0 0 0 0 0 0 0 0.1 0.1 0.1 0.1 0 0-0.1 0 0 0 0 0 0 0 0 0 0 0 0 0 0 0-0.1 0 0 0 0 0 0 0 0 0 0-0.1 0.1-0.1z"/>
	<path id="Layer" class="s0" d="m35.2 47.8q0.1 0 0.1 0 0 0 0 0 0 0 0 0 0 0 0 0 0 0 0 0 0 0.1 0 0.1 0 0 0 0 0 0-0.1 0 0 0 0 0 0-0.1 0-0.1 0 0 0 0 0 0 0 0z"/>
	<path id="Layer" class="s0" d="m34.5 41.4q0 0 0 0 0 0 0.1 0 0 0 0 0 0 0.1 0 0.1 0 0 0 0 0 0 0 0-0.1 0-0.1 0 0 0 0 0 0 0 0 0 0 0 0 0 0 0 0-0.1 0 0 0 0z"/>
	<path id="Layer" class="s0" d="m34.5 55q0 0 0 0 0 0 0 0 0.1 0 0.1 0 0 0.1 0 0.1 0 0 0 0 0 0 0 0-0.1 0-0.1 0 0 0 0 0 0 0 0 0 0 0 0 0 0 0 0-0.1 0 0 0 0z"/>
	<path id="Layer" class="s3" d="m35.9 65.1q-0.2 0-0.4 0.1-0.4 0.1-0.8 0.1-0.4 0-0.9 0-0.1 0-0.3-0.1 0.6 0.1 1.2 0 0.6 0 1.2-0.1z"/>
	<g id="Layer" style="opacity: .2">
		<path id="Layer" class="s4" d="m33.2 60.9c0.7-0.5 1.2-1.3 1.4-2.1 0.2-0.8 0.3-1.6 0.4-2.5 0-0.8 0.1-1.6 0.3-2.4q0.1-0.3 0.1-0.6c0-0.2-0.3-0.4-0.6-0.5-0.3-0.2-0.7-0.3-1-0.1-0.2 0.2-0.3 0.5-0.3 0.8-0.3 2.5-0.3 5-0.2 7.5z"/>
	</g>
	<path id="Layer" class="s2" d="m35.4 53.6c-1 0-1.8-0.8-1.8-1.8 0-1 0.8-1.8 1.8-1.8 1 0 1.8 0.8 1.8 1.8 0 1-0.8 1.8-1.8 1.8z"/>
	<path id="Layer" class="s3" d="m37.1 51.6q0 0 0 0.1-0.2 0.1-0.4 0.2-0.6 0.3-1.2 0.3-0.7 0-1.3-0.3-0.3 0-0.4-0.1-0.1 0-0.1-0.1 0.2 0.1 0.5 0.2 0.6 0.2 1.3 0.2 0.6 0 1.2-0.2 0.2-0.2 0.4-0.3z"/>
	<path id="Layer" class="s1" d="m16.7 22.7c0 0-0.4-1.4-0.6-1.5-0.2-0.1-2.5 0.2-2.5 0.2 0 0-0.7-1-0.8-1.1-0.1-0.2-0.4 0.2-0.3 0.3 0.1 0.2 0.6 1.7 1 1.7q0.6 0.1 1.2 0l0.2 1z"/>
	<path id="Layer" class="s1" d="m26.5 28.3c-1.4 0.5-2.4 0.8-3.8 1.3-0.8 0.3-1.8 0.7-2.6 0.9-0.5 0.1-1 0.1-1.5-0.1-0.4-0.2-0.7-0.5-1-0.9-1.3-1.7-2-3.8-2.5-5.9l1.7-0.3 3.2 4.4 5.6-2 1 2.3q0 0.1 0 0.1 0 0 0 0.1 0 0 0 0.1-0.1 0-0.1 0z"/>
	<path id="Layer" class="s2" d="m26.6 24.7q-0.6 0.1-0.9 0.5-0.4 0.5-0.5 1-0.1 0.5 0.1 1.1 0.1 0.5 0.6 0.9c0.2 0.1 0.5 0.3 0.8 0q0.1-0.1 0.2-0.3c0.3-1.1 0.2-2.2-0.3-3.2z"/>
	<path id="Layer" class="s3" d="m25.7 25.2q0 0 0 0 0 0 0.1-0.1 0 0 0.1 0 0 0 0.1 0 0 0 0.1 0.1v0.1q0.4 0.5 0.6 1.2 0.1 0.7-0.1 1.3 0 0.2-0.2 0.4 0 0-0.1 0.1 0 0 0.1-0.1 0.1-0.2 0.2-0.4 0.1-0.6 0-1.3-0.1-0.6-0.5-1.2c-0.1-0.1-0.1-0.1-0.2-0.1q0-0.1 0-0.1-0.1 0-0.1 0.1-0.1 0-0.1 0z"/>
	<path id="Layer" class="s0" d="m20 27.7q0 0 0 0.1 0 0.2 0 0.4 0 0.2-0.1 0.5c-0.1 0.6-0.5 1.1-1 1.4q-0.2 0.1-0.3 0.2-0.1 0-0.1 0c0 0 0.1 0 0.4-0.2q0.4-0.4 0.7-0.9 0.2-0.2 0.3-0.5 0-0.3 0-0.5c0.1-0.3 0-0.5 0.1-0.5z"/>
	<path id="Layer" class="s0" d="m25.4 26.3c0 0-1.2 0.5-2.7 1-1.5 0.6-2.7 1-2.8 1 0 0 1.2-0.5 2.7-1 1.5-0.6 2.7-1.1 2.8-1z"/>
	<path id="Layer" class="s0" d="m15.7 23.6q0 0 0 0.1l0.1 0.2q0.1 0.2 0.2 0.7c0.3 0.6 0.6 1.4 1.1 2.4q0.3 0.6 0.7 1.2 0.3 0.6 0.6 1 0.1 0.2 0.2 0.3 0.1 0.2 0.2 0.3l0.1 0.2q0.1 0 0.1 0.1-0.1-0.1-0.1-0.1l-0.1-0.2q-0.1-0.1-0.2-0.2-0.1-0.2-0.3-0.4-0.3-0.4-0.6-1-0.3-0.5-0.7-1.2-0.6-1.2-1-2.4-0.2-0.4-0.3-0.7 0-0.1 0-0.2 0-0.1 0-0.1z"/>
	<path id="Layer" class="s0" d="m21.1 28.2q0 0 0 0 0 0 0 0 0-0.1 0-0.1 0 0 0 0-0.1 0-0.1 0 0 0 0 0 0 0 0 0 0 0 0 0.1 0 0 0 0 0 0 0 0 0 0 0 0 0 0 0.1 0z"/>
	<path id="Layer" class="s0" d="m18.7 28.9q0 0 0 0 0 0 0 0 0 0 0-0.1 0 0 0 0 0 0-0.1 0 0 0 0 0 0 0 0 0 0 0 0 0.1 0 0 0 0 0 0 0 0 0 0 0 0 0.1 0 0.1 0z"/>
	<path id="Layer" class="s0" d="m17.6 27.2q0 0 0 0 0 0 0 0 0-0.1 0-0.1 0 0 0 0 0 0-0.1 0 0 0 0 0 0 0 0 0 0 0 0 0.1 0 0 0 0 0 0 0 0 0 0 0 0 0.1 0 0.1 0z"/>
	<path id="Layer" class="s0" d="m22.5 27.7q0 0 0 0 0 0 0 0 0-0.1 0-0.1 0 0 0 0 0 0-0.1 0 0 0 0 0 0 0 0 0 0 0 0 0.1 0 0 0 0 0 0 0 0 0 0 0 0 0.1 0 0.1 0z"/>
	<path id="Layer" class="s0" d="m24.1 27.2q0 0 0 0 0 0 0 0 0.1 0 0.1 0 0 0 0 0 0 0 0 0 0 0.1-0.1 0.1 0 0 0 0 0 0 0 0 0 0 0 0 0-0.1 0-0.1-0.1 0 0 0 0 0 0 0z"/>
	<path id="Layer" class="s2" d="m15.1 23.7q0.9-0.1 1.7-0.3c0.3 0 0.5-0.1 0.6-0.4q0-0.1 0-0.2-0.1-0.1-0.2-0.2-0.2-0.2-0.4-0.2c-0.5-0.1-1.1-0.1-1.6 0.1q-0.2 0.1-0.4 0.3-0.1 0.1-0.2 0.2 0 0.2 0 0.3 0.1 0.2 0.2 0.3 0.1 0 0.3 0.1z"/>
	<path id="Layer" class="s3" d="m17.3 22.8c0 0-0.1 0-0.4-0.1q-0.5-0.1-1 0-0.5 0-0.9 0.3c-0.2 0.2-0.3 0.3-0.3 0.3q0 0 0-0.1 0.1-0.1 0.3-0.2 0.4-0.3 0.9-0.4 0.5-0.1 1 0 0.2 0.1 0.3 0.2 0.1 0 0.1 0z"/>
	<path id="Layer" class="s1" d="m29.3 52.1c-0.5 0.1-0.9 0.5-1 0.9-0.2 0.4-0.2 0.9-0.2 1.4 0.1 2.9 0.2 5.7 0.5 8.6 0.1 0.6 0.2 1.2 0.6 1.7 0.4 0.5 1.2 0.6 1.6 0.1 0.2-0.2 0.3-0.6 0.3-1q0.2-5.1 0.5-10.2c0-0.4 0-0.8-0.2-1.2q-0.2-0.2-0.4-0.3-0.3-0.1-0.6-0.1-0.5 0-1.1 0.1z"/>
	<path id="Layer" class="s1" d="m26.8 39.2c0.1 3.6 0.5 7.2 1.4 10.6 0.2 0.6 0.3 1.2 0.8 1.7 0.4 0.4 1.2 0.6 1.7 0.3 0.4-0.3 0.5-0.9 0.5-1.5q0.7-5.7 0.8-11.5c0 0 0.1-3-2-3-2.1 0-3.2 1.2-3.2 3.4z"/>
	<g id="Layer" style="opacity: .3">
		<path id="Layer" class="s0" d="m28.6 50.4c-0.1 0-0.2-0.8-0.5-2-0.2-1.3-0.5-3-0.7-4.9q-0.2-1.4-0.3-2.7c0-0.8-0.1-1.5 0-2.2q0.1-0.8 0.5-1.4l0.1-0.2q0.1-0.1 0.1-0.1 0.2-0.1 0.2-0.1 0 0-0.1 0.1 0 0.1-0.1 0.2 0 0.1-0.1 0.2-0.3 0.6-0.3 1.3c-0.1 0.7 0 1.4 0.1 2.2q0.1 1.3 0.3 2.7c0.2 1.9 0.5 3.6 0.6 4.8 0.2 1.3 0.2 2 0.2 2.1z"/>
	</g>
	<path id="Layer" class="s0" d="m29.7 51.9q0 0 0 0v-0.1l-0.1-0.5q-0.2-0.6-0.4-1.7c-0.2-1.5-0.5-3.5-0.7-5.8q-0.2-1.7-0.3-3.2 0-0.7-0.1-1.4 0-0.6 0-1.2 0-0.5 0.2-1 0.1-0.4 0.4-0.7 0.1-0.2 0.3-0.3 0.1 0 0.2-0.1-0.3 0.2-0.5 0.5-0.2 0.3-0.4 0.6-0.1 0.5-0.1 1 0 0.6 0 1.2 0.1 0.7 0.1 1.4 0.1 1.5 0.3 3.2c0.2 2.3 0.4 4.3 0.7 5.8q0.2 1.1 0.3 1.7 0.1 0.3 0.1 0.5 0 0 0 0.1 0 0 0 0z"/>
	<path id="Layer" class="s0" d="m29.3 64.7q0-0.1 0-0.1 0-0.2 0-0.4-0.1-0.5-0.2-1.3c-0.1-1.1-0.2-2.6-0.3-4.3-0.1-1.7-0.1-3.2-0.1-4.3q0-0.9 0-1.3 0-0.2 0-0.4 0 0 0-0.1 0 0.1 0 0.1 0 0.1 0 0.4 0 0.5 0 1.3c0 1.1 0.1 2.6 0.2 4.3 0.1 1.7 0.2 3.2 0.3 4.3q0 0.8 0.1 1.3 0 0.2 0 0.3 0 0.1 0 0.2z"/>
	<path id="Layer" class="s2" d="m29.8 53.7c-1 0-1.8-0.8-1.8-1.8 0-1 0.8-1.8 1.8-1.8 1 0 1.8 0.8 1.8 1.8 0 1-0.8 1.8-1.8 1.8z"/>
	<path id="Layer" class="s2" d="m28.7 66.3c0-0.3 0-1.1 0.1-1.4 0.1-0.3 0.3-0.5 0.5-0.7q0.3-0.2 0.7-0.1 0.3 0 0.6 0.2 0.2 0.1 0.4 0.4 0.1 0.2 0.1 0.5v1.1z"/>
	<path id="Layer" class="s1" d="m28.8 65.9h2.5c0 0 1.9 0.4 1.9 0.5-0.1 0.2-4.5 0.1-4.5 0.1z"/>
	<path id="Layer" class="s0" d="m28.8 42.2q0 0 0.1 0 0 0 0 0 0 0 0 0 0 0 0 0 0 0 0 0.1 0 0 0 0 0 0 0 0 0 0-0.1 0 0 0 0 0 0-0.1 0-0.1 0 0 0 0 0 0 0 0z"/>
	<path id="Layer" class="s0" d="m28.7 39.5q0 0 0-0.1 0 0 0 0.1 0 0 0 0 0 0 0.1 0 0 0-0.1 0 0 0.1 0 0.1 0 0 0 0 0 0 0 0-0.1 0-0.1-0.1 0 0 0 0 0 0 0 0 0 0 0.1 0z"/>
	<path id="Layer" class="s0" d="m29.1 45.5q0 0 0 0 0 0 0 0 0 0 0 0 0 0 0 0 0 0.1 0 0.1 0 0 0 0 0 0 0 0 0 0 0 0-0.1 0-0.1 0 0 0 0 0 0-0.1 0-0.1 0 0 0 0z"/>
	<path id="Layer" class="s0" d="m29.5 49.2q0 0 0.1 0 0 0 0 0 0 0.1 0 0.1 0 0 0 0 0 0 0 0 0 0 0 0 0 0.1 0 0.1 0 0-0.1 0 0-0.1 0-0.1 0 0 0 0 0 0 0 0 0 0 0-0.1z"/>
	<path id="Layer" class="s0" d="m29 55q0-0.1 0-0.1 0.1 0 0.1 0.1 0 0 0 0 0 0 0 0 0 0 0 0 0 0 0 0.1 0 0 0 0-0.1 0-0.1 0 0 0 0-0.1 0 0 0 0 0 0 0 0 0 0 0 0z"/>
	<path id="Layer" class="s0" d="m29.3 57.9q0 0 0 0 0 0 0.1 0 0 0 0 0 0 0 0 0.1 0 0 0 0 0 0 0 0 0 0-0.1 0 0 0 0 0 0 0 0 0 0 0 0 0 0-0.1 0-0.1 0 0 0 0z"/>
	<path id="Layer" class="s0" d="m29.3 61.2q0 0 0.1 0 0 0 0 0 0 0 0 0 0 0 0 0.1 0 0 0 0 0 0 0 0 0 0 0 0-0.1 0-0.1 0 0 0 0 0 0 0 0 0 0 0 0-0.1 0 0 0 0z"/>
	<path id="Layer" class="s3" d="m31.6 51.5q0 0-0.1 0.1-0.2 0.1-0.4 0.2-0.6 0.4-1.3 0.4-0.7 0-1.3-0.3-0.2-0.1-0.3-0.2-0.1-0.1-0.1-0.1c0 0 0.1 0.1 0.4 0.3q0.6 0.3 1.3 0.2 0.7 0 1.3-0.3c0.3-0.2 0.4-0.3 0.5-0.3z"/>
	<path id="Layer" class="s3" d="m31 65.1q-0.1 0.1-0.3 0.2-0.4 0.1-0.8 0.1-0.4 0-0.8-0.1-0.2 0-0.3 0 0.5 0 1.1 0 0.6 0 1.1-0.2z"/>
	<path id="Layer" class="s0" d="m32.9 17.3q0.1 0.1 0 0.3 0 0.2-0.2 0.3-0.1 0.1-0.2 0.2-0.2 0-0.3 0-0.2 0-0.3 0-0.2-0.1-0.3-0.2-0.1-0.1-0.1-0.3 0.1 0.1 0.2 0.3 0.1 0.1 0.2 0.1 0.2 0.1 0.4 0 0.2 0 0.4-0.1 0.1-0.2 0.2-0.3 0-0.2 0-0.3z"/>
	<path id="Layer" class="s1" d="m57.3 8.2c-0.5-1.8-2.4-3.4-4.2-3.4-1.6-0.5-3.6 0.4-4.5 1.3-1 1.2-1.7 2.8-1.3 4.4 0.5 1.5 1.7 2.8 3.2 3.4 1.7 0.6 3.8 0.4 5.2-0.8 1.4-1.1 2.1-3.2 1.6-4.9z"/>
	<g id="Layer" style="opacity: .8">
		<path id="Layer" class="s0" d="m57.3 8.2c-0.5-1.8-2.4-3.4-4.2-3.4-1.6-0.5-3.6 0.4-4.5 1.3-1 1.2-1.7 2.8-1.3 4.4 0.5 1.5 1.7 2.8 3.2 3.4 1.7 0.6 3.8 0.4 5.2-0.8 1.4-1.1 2.1-3.2 1.6-4.9z"/>
	</g>
	<path id="Layer" class="s1" d="m54.7 10.8q0 0 0-0.1 0 0 0-0.1 0-0.2 0-0.5 0-0.8 0-2l-2.4-1.3h0.1l-2.4 1.3c0 0 0 0 0 0v1.4q0 0.7 0 1.3l2.4 1.3h-0.1l1.8-0.9 0.4-0.3 0.2-0.1q0 0 0 0l-0.2 0.1-0.4 0.3-1.7 1h-0.1l-2.3-1.4q0-0.6 0-1.3 0-0.3 0-0.7v-0.7c0 0 0-0.1 0 0l2.3-1.4h0.1l2.3 1.4q0 1.3 0 2 0 0.3 0 0.5 0 0.1 0 0.2 0 0 0 0z"/>
	<path id="Layer" class="s1" d="m54.7 8.1q-0.1 0.1-0.2 0.1l-0.5 0.3c-0.4 0.2-1 0.6-1.6 1h-0.1v-0.1h-0.1l-0.1-0.1-0.2-0.1-0.5-0.3-0.7-0.4-0.5-0.3q-0.1 0-0.2-0.1 0.1 0 0.2 0.1l0.5 0.3 0.8 0.4 0.4 0.2 0.2 0.2h0.1l0.1 0.1h0.1-0.1c0.7-0.4 1.3-0.7 1.7-0.9l0.5-0.3q0.1-0.1 0.2-0.1z"/>
	<path id="Layer" class="s1" d="m52.3 12.1q0-0.7 0-1.3 0-0.7 0-1.4 0.1 0.7 0.1 1.4 0 0.6-0.1 1.3z"/>
	<path id="Layer" fill-rule="evenodd" class="s1" d="m19 33.3q0.1-0.2 0.3-0.5l-0.2-0.5 0.8-0.5 0.5 0.4q0.3-0.1 0.6-0.1l0.2-0.6 1 0.2v0.6q0.2 0.2 0.5 0.4l0.5-0.2 0.6 0.8-0.5 0.4q0.1 0.3 0.2 0.6l0.5 0.3-0.2 0.9h-0.6q-0.2 0.3-0.4 0.5l0.2 0.6-0.8 0.5-0.4-0.4q-0.3 0.1-0.6 0.1l-0.3 0.5-0.9-0.2v-0.6q-0.3-0.1-0.5-0.3l-0.6 0.2-0.5-0.8 0.4-0.5q-0.1-0.3-0.1-0.6l-0.5-0.2 0.2-1h0.6zm1.1 0.9q-0.1 0.3 0 0.6 0.2 0.2 0.4 0.4 0.3 0.2 0.6 0.2 0.3 0 0.6-0.2 0.2-0.1 0.3-0.4 0.2-0.3 0.1-0.6 0-0.3-0.3-0.5-0.2-0.3-0.5-0.3-0.2-0.1-0.4 0-0.2 0-0.4 0.1-0.1 0.1-0.3 0.3-0.1 0.2-0.1 0.4z"/>
	<g id="Layer" style="opacity: .5">
		<path id="Layer" fill-rule="evenodd" class="s0" d="m19 33.3q0.1-0.2 0.3-0.5l-0.2-0.5 0.8-0.5 0.5 0.4q0.3-0.1 0.6-0.1l0.2-0.6 1 0.2v0.6q0.2 0.2 0.5 0.4l0.5-0.2 0.6 0.8-0.5 0.4q0.1 0.3 0.2 0.6l0.5 0.3-0.2 0.9h-0.6q-0.2 0.3-0.4 0.5l0.2 0.6-0.8 0.5-0.4-0.4q-0.3 0.1-0.6 0.1l-0.3 0.5-0.9-0.2v-0.6q-0.3-0.1-0.5-0.3l-0.6 0.2-0.5-0.8 0.4-0.5q-0.1-0.3-0.1-0.6l-0.5-0.2 0.2-1h0.6zm1.1 0.9q-0.1 0.3 0 0.6 0.2 0.2 0.4 0.4 0.3 0.2 0.6 0.2 0.3 0 0.6-0.2 0.2-0.1 0.3-0.4 0.2-0.3 0.1-0.6 0-0.3-0.3-0.5-0.2-0.3-0.5-0.3-0.2-0.1-0.4 0-0.2 0-0.4 0.1-0.1 0.1-0.3 0.3-0.1 0.2-0.1 0.4z"/>
	</g>
	<path id="Layer" class="s2" d="m13.8 34.9q0 0 0-0.1 0.1 0 0.1-0.1 0.1-0.2 0.3-0.4 0.2-0.1 0.4 0 0.2 0 0.4 0.1 0.2 0.1 0.3 0.3 0.1 0.3 0 0.5 0 0.2-0.2 0.4-0.2 0.2-0.4 0.2-0.2 0-0.4 0-0.2-0.1-0.3-0.3-0.2-0.2-0.2-0.4 0-0.1 0-0.2 0 0 0 0 0 0 0 0.2 0.1 0.2 0.2 0.4 0.2 0.2 0.4 0.2 0.2 0.1 0.3 0 0.2 0 0.4-0.2 0.1-0.1 0.2-0.3 0-0.2-0.1-0.4 0-0.2-0.2-0.3-0.1-0.2-0.3-0.2-0.2 0-0.4 0.1-0.3 0.1-0.4 0.3-0.1 0.2-0.1 0.2z"/>
	<path id="Layer" class="s2" d="m13 34.3q0 0-0.1 0h-0.3q0 0.3-0.1 0.7l0.4 0.1q0 0.3 0.1 0.5h-0.1l-0.3 0.3q0.2 0.2 0.4 0.6l0.4-0.2q0.2 0.2 0.4 0.3 0 0.2 0 0.4l0.7 0.1-0.1 0.1 0.2-0.4q0.3-0.1 0.5-0.1 0.2 0.1 0.3 0.3l0.6-0.4h-0.1l-0.1-0.4q0.1-0.2 0.3-0.4h0.2 0.2q0.1-0.3 0.1-0.6h0.1l-0.4-0.2h-0.1q0-0.2 0-0.4v-0.1l0.3-0.3v0.1q-0.2-0.3-0.4-0.6l-0.4 0.1q-0.2-0.1-0.4-0.2v-0.1q0-0.2 0-0.4v0.1l-0.6-0.2-0.2 0.4q-0.2 0-0.4 0.1h-0.1l-0.3-0.3h0.1l-0.6 0.3 0.1 0.4q-0.1 0.1-0.2 0.3 0 0 0 0.1 0-0.1 0-0.1 0.1-0.2 0.2-0.3-0.1-0.1-0.1-0.4l0.6-0.4 0.3 0.3q0.2-0.1 0.4-0.1l0.2-0.3v-0.1l0.7 0.2q0 0.2 0 0.4 0.2 0.1 0.4 0.3h-0.1l0.4-0.2h0.1q0.2 0.3 0.4 0.6v0.1l-0.3 0.3v-0.1q0 0.3 0.1 0.5h-0.1l0.4 0.1v0.1q0 0.3-0.1 0.7h-0.2-0.3 0.1q-0.1 0.2-0.3 0.3l0.2 0.4v0.1l-0.6 0.3h-0.1l-0.3-0.3h0.1q-0.3 0.1-0.5 0.1-0.1 0.2-0.1 0.4h-0.1l-0.7-0.1v-0.1q0-0.2 0-0.4-0.2-0.1-0.4-0.2h0.1l-0.4 0.1h-0.1l-0.3-0.6 0.3-0.3q-0.1-0.2-0.1-0.4l-0.4-0.2q0.1-0.4 0.1-0.7h0.3 0.1z"/>
	<path id="Layer" class="s2" d="m13.8 34.9q0-0.1 0.1-0.1 0-0.1 0.1-0.2 0.1-0.2 0.3-0.3 0.2 0 0.3 0 0.2 0 0.4 0.1 0.1 0.1 0.2 0.3 0.1 0.2 0.1 0.4 0 0.1-0.1 0.3-0.1 0.2-0.2 0.3-0.2 0.1-0.4 0.1-0.2 0-0.4-0.1-0.2-0.1-0.3-0.3-0.1-0.2-0.1-0.3 0 0 0-0.1 0 0 0-0.1 0 0 0 0h0.1q0 0 0 0.1-0.1 0.2 0.1 0.4 0.1 0.2 0.3 0.3 0.2 0.1 0.4 0.1 0.2-0.1 0.3-0.2 0.2-0.1 0.3-0.3 0-0.2 0-0.4-0.1-0.2-0.2-0.3-0.1-0.2-0.2-0.2-0.2-0.1-0.5-0.1-0.2 0.1-0.4 0.3-0.1 0.1-0.2 0.3 0-0.1 0.1-0.1 0-0.2 0.1-0.3 0.1-0.1 0.3-0.2 0.3-0.1 0.6 0 0.2 0.1 0.3 0.3 0.2 0.2 0.2 0.4 0 0.2-0.1 0.4-0.1 0.2-0.3 0.3-0.2 0.1-0.4 0.1-0.3 0-0.4-0.1-0.2-0.1-0.3-0.3-0.1-0.2-0.1-0.4 0-0.1 0-0.1v-0.1q0.1 0 0.1 0 0 0.1 0 0.1 0 0.1 0 0.1 0 0 0 0.1 0 0.2 0.1 0.3 0.1 0.2 0.3 0.3 0.2 0 0.3 0 0.2 0 0.4-0.1 0.1-0.1 0.2-0.3 0.1-0.1 0.1-0.3 0-0.2-0.1-0.4-0.1-0.1-0.3-0.2-0.3-0.1-0.5 0-0.2 0-0.4 0.2-0.1 0.1-0.2 0.3z"/>
	<path id="Layer" class="s2" d="m13 34.3h-0.4q-0.1 0.3-0.1 0.7h-0.1l0.4 0.2q0.1 0.2 0.1 0.4l-0.3 0.3q0.2 0.3 0.4 0.6l0.4-0.2v0.1q0.2 0.1 0.4 0.2h-0.1 0.1q0 0.2 0 0.5v-0.1l0.7 0.2h-0.1q0.1-0.2 0.2-0.4h0.1-0.1q0.3 0 0.5-0.1v0.1-0.1l0.3 0.3 0.6-0.4v0.1q-0.1-0.2-0.2-0.5h0.1v0.1l-0.1-0.1q0.2-0.1 0.3-0.3h0.4l0.1-0.7h0.1l-0.4-0.2q-0.1-0.2-0.1-0.4l0.3-0.4v0.1l-0.4-0.6-0.4 0.1q-0.2-0.1-0.4-0.2l0.1-0.1-0.1 0.1q0-0.2 0-0.5v0.1l-0.7-0.2h0.1l-0.2 0.4-0.1-0.1h0.1v0.1q-0.2 0-0.5 0.1v-0.1h0.1l-0.1 0.1-0.3-0.3h0.1l-0.6 0.4v-0.1l0.1 0.4h-0.1l0.1 0.1q-0.1 0.1-0.2 0.3c0 0-0.1 0-0.1 0v-0.1q0.1 0 0.1-0.1 0.1-0.1 0.2-0.2v0.1q-0.1-0.2-0.2-0.4h0.1l-0.1-0.1 0.6-0.4 0.1 0.1h-0.1 0.1q0.1 0.1 0.3 0.2h-0.1q0.3 0 0.5 0l0.2-0.4 0.7 0.1-0.1 0.1 0.1-0.1q0 0.3 0 0.5v-0.1q0.2 0.1 0.4 0.3h-0.1l0.4-0.1 0.4 0.6v-0.1 0.1l-0.3 0.3v-0.1q0.1 0.3 0.1 0.5l0.4 0.2h-0.1 0.1q-0.1 0.3-0.2 0.7v-0.1 0.1h-0.4q-0.1 0.2-0.2 0.4v-0.1q0 0.2 0.1 0.4h-0.1 0.1l-0.6 0.4-0.3-0.3q-0.2 0.1-0.5 0.1h0.1l-0.2 0.4v-0.1 0.1l-0.7-0.2q0-0.2 0-0.4-0.2-0.1-0.4-0.2l-0.4 0.1-0.4-0.6h0.1-0.1l0.3-0.3q0-0.2-0.1-0.5l0.1 0.1-0.4-0.2q0.1-0.5 0.1-0.7h0.4q0 0-0.1 0h-0.3q0 0.2-0.1 0.7v-0.1 0.1l0.4 0.1q0 0.3 0.1 0.5l-0.3 0.3v0.1-0.1-0.1 0.1l0.4 0.6h-0.1l0.4-0.2h0.1q0.1 0.2 0.3 0.3 0 0.2 0.1 0.4v0.1l-0.1-0.1h-0.1 0.1l0.7 0.1 0.1 0.1h-0.1-0.1q0.1-0.2 0.2-0.4h0.1q0.2-0.1 0.4-0.1l0.4 0.3h-0.1-0.1 0.1l0.6-0.4 0.1-0.1-0.1 0.1v0.1l-0.2-0.4v-0.1q0.2-0.2 0.3-0.4h0.5v0.1l-0.1 0.1v-0.1q0.1-0.4 0.1-0.7l0.1-0.1v0.1l0.1 0.1-0.1-0.1-0.4-0.1v-0.1q0-0.2-0.1-0.4v-0.1l0.3-0.3h0.1v0.1 0.1l-0.1-0.1-0.4-0.6v-0.1l0.1 0.1h0.1-0.1l-0.4 0.2h-0.1q-0.1-0.2-0.3-0.3h-0.1q0-0.2 0-0.5v-0.1l0.1 0.1 0.1 0.1h-0.1l-0.7-0.1-0.1-0.1h0.1l0.1-0.1v0.1q-0.1 0.2-0.2 0.4h-0.1q-0.2 0-0.4 0.1l-0.4-0.3v-0.1h0.1l0.1 0.1h-0.1l-0.6 0.4h-0.1l0.1-0.1v-0.1 0.1q0.1 0.2 0.2 0.4v0.1q-0.1 0.1-0.2 0.2 0 0-0.1 0.1c0 0.1-0.1 0 0 0q0 0 0 0v-0.1q0.1-0.1 0.2-0.3l0.1-0.1v0.1 0.2l-0.1-0.2-0.1-0.4 0.6-0.4q0.2 0.2 0.3 0.3l0.1 0.1h-0.1l-0.1-0.1h0.1q0.2-0.1 0.4-0.1h0.2l-0.1 0.1-0.2 0.1 0.1-0.1q0.1-0.3 0.2-0.4v-0.1l0.7 0.2h0.1q0 0.2 0 0.5v0.1l-0.1-0.1-0.1-0.2 0.1 0.1q0.2 0.1 0.4 0.3l0.1 0.1-0.1-0.1h-0.2 0.2l0.4-0.2 0.4 0.6v0.1l-0.3 0.3-0.1 0.1v-0.1-0.1l0.1-0.1v0.1q0.1 0.3 0.1 0.5v0.1l-0.1-0.1-0.1-0.1 0.2 0.1 0.3 0.1h0.1v0.1q-0.1 0.4-0.2 0.7h-0.5-0.1 0.1l0.1-0.1h0.1l-0.1 0.1q-0.1 0.2-0.3 0.4v0.1-0.2-0.1 0.1l0.2 0.4v0.1l-0.6 0.4h-0.1l-0.3-0.3-0.1-0.1h0.1 0.1l-0.1 0.1q-0.2 0-0.5 0h-0.1 0.1l0.1-0.1v0.1l-0.2 0.4-0.7-0.1h-0.1v-0.1q0-0.2 0-0.4v-0.1l0.1 0.1v0.1-0.1q-0.2-0.1-0.4-0.2l-0.1-0.1h0.1l0.1 0.1h-0.1l-0.4 0.1-0.4-0.6 0.3-0.3 0.1-0.1-0.1 0.1v0.1-0.1q-0.1-0.2-0.1-0.5h0.1v0.1h-0.1l-0.4-0.2 0.2-0.7h0.3 0.1z"/>
	<path id="Layer" class="s1" d="m21.3 17v1.3h-21.4v-14.3h1.4z"/>
	<g id="Layer" style="opacity: .8">
		<path id="Layer" class="s0" d="m21.3 17v1.3h-21.4v-14.3h1.4z"/>
	</g>
	<path id="Layer" class="s0" d="m1.4 2.7h21.4v14.3h-21.4z"/>
	<path id="Layer" class="s1" d="m22.8 17q0 0 0-0.3 0-0.3 0-0.8 0-1 0-2.8c0-2.5 0-6.1 0-10.4h-21.4 0.1c0 5.1 0 9.9 0 14.3l-0.1-0.1h15.4 4.4 1.2 0.3 0.1-0.1-0.3-1.1l-4.4 0.1h-15.5v-0.1c0-4.3 0-9.2 0-14.3h21.4 0.1c0 4.4-0.1 8-0.1 10.5q0 1.8 0 2.8 0 0.5 0 0.8c0 0.2 0 0.3 0 0.3z"/>
	<path id="Layer" class="s1" d="m12.1 4c-5.9 0-10.7 0-10.7-0.1 0 0 4.8 0 10.7 0 5.9 0 10.7 0 10.7 0 0 0.1-4.8 0.1-10.7 0.1z"/>
	<path id="Layer" class="s1" d="m2.3 3.3q0 0-0.1 0.1 0 0-0.1 0 0 0.1-0.1 0.1 0-0.1 0-0.1-0.1 0-0.1-0.1 0 0 0-0.1 0 0 0.1-0.1 0 0 0.1 0 0 0 0 0 0.1 0 0.1 0.1 0 0 0 0 0.1 0.1 0.1 0.1z"/>
	<path id="Layer" class="s1" d="m2.8 3.3q0 0 0 0.1 0 0-0.1 0 0 0.1-0.1 0.1 0-0.1-0.1-0.1 0 0 0-0.1 0 0 0-0.1 0 0 0.1-0.1 0 0 0.1 0 0 0 0 0 0.1 0 0.1 0.1 0 0 0 0 0 0.1 0 0.1z"/>
	<path id="Layer" class="s1" d="m3.4 3.3q0 0 0 0.1 0 0-0.1 0 0 0.1-0.1 0.1 0-0.1-0.1-0.1 0 0 0-0.1 0 0 0-0.1 0 0 0.1-0.1 0 0 0.1 0 0 0 0 0 0.1 0 0.1 0.1 0 0 0 0 0 0.1 0 0.1z"/>
	<g id="Layer" style="opacity: .6">
		<path id="Layer" class="s0" d="m2.3 3.3q0 0-0.1 0.1 0 0 0 0-0.1 0.1-0.1 0.1-0.1-0.1-0.1-0.1-0.1 0-0.1-0.1 0 0 0-0.1 0 0 0.1-0.1 0 0 0.1 0 0 0 0.1 0 0 0 0 0.1 0 0 0 0 0.1 0.1 0.1 0.1z"/>
		<path id="Layer" class="s0" d="m2.8 3.3q0 0 0 0.1 0 0-0.1 0 0 0.1-0.1 0.1 0-0.1-0.1-0.1 0 0 0-0.1 0 0 0-0.1 0 0 0.1-0.1 0 0 0.1 0 0 0 0 0 0.1 0 0.1 0.1 0 0 0 0 0 0.1 0 0.1z"/>
		<path id="Layer" class="s0" d="m3.4 3.3q0 0 0 0.1 0 0-0.1 0 0 0.1-0.1 0.1 0-0.1-0.1-0.1 0 0 0-0.1 0 0 0-0.1 0 0 0.1-0.1 0 0 0.1 0 0 0 0 0 0.1 0 0.1 0.1 0 0 0 0 0 0.1 0 0.1z"/>
	</g>
	<g id="Layer" style="opacity: .3">
		<path id="Layer" class="s1" d="m3.2 5.4h5.8v5.7h-5.8z"/>
	</g>
	<path id="Layer" class="s1" d="m19.9 7c0 0.1-2.3 0.1-5 0.1-2.7 0-5 0-5-0.1 0 0 2.3 0 5 0 2.7 0 5 0 5 0z"/>
	<path id="Layer" class="s1" d="m19.9 8.1c0 0-2.3 0-5 0-2.7 0-5 0-5 0 0 0 2.3 0 5 0 2.7 0 5 0 5 0z"/>
	<path id="Layer" class="s1" d="m19.9 9.1c0 0.1-2.3 0.1-5 0.1-2.7 0-5 0-5-0.1 0 0 2.3 0 5 0 2.7 0 5 0 5 0z"/>
	<path id="Layer" class="s1" d="m15.8 10.2q-0.1 0-0.2 0h-0.7c-0.5 0-1.2 0.1-2 0.1-0.8 0-1.6 0-2.1-0.1h-0.6q-0.2 0-0.3 0 0.1 0 0.3 0h0.6c0.5 0 1.3 0 2.1 0 0.8 0 1.5 0 2 0h0.7q0.1 0 0.2 0z"/>
	<path id="Layer" class="s1" d="m3.6 13h2.7v2.7h-2.7z"/>
	<g id="Layer" style="opacity: .6">
		<path id="Layer" class="s0" d="m3.6 13h2.7v2.7h-2.7z"/>
	</g>
	<path id="Layer" class="s1" d="m8.5 13h2.6v2.7h-2.6z"/>
	<g id="Layer" style="opacity: .6">
		<path id="Layer" class="s0" d="m8.5 13h2.6v2.7h-2.6z"/>
	</g>
	<path id="Layer" class="s1" d="m13.3 13h2.7v2.7h-2.7z"/>
	<g id="Layer" style="opacity: .6">
		<path id="Layer" class="s0" d="m13.3 13h2.7v2.7h-2.7z"/>
	</g>
	<path id="Layer" class="s1" d="m18.2 13h2.7v2.7h-2.7z"/>
	<g id="Layer" style="opacity: .6">
		<path id="Layer" class="s0" d="m18.2 13h2.7v2.7h-2.7z"/>
	</g>
	<path id="Layer" class="s0" d="m39.9 31.9h24.2v9.8h-24.2z"/>
	<path id="Layer" class="s1" d="m64.1 41.7q0 0 0-0.2 0-0.2 0-0.5 0-0.7 0-2c0-1.7 0-4.1 0-7.1h-24.2c0 3.4 0 6.7 0 9.8v-0.1l17.4 0.1h5 1.3 0.4 0.1-0.1-0.4-1.3-5-17.4c0-3.1 0-6.4 0-9.8v-0.1h24.2v0.1c0 3 0 5.5 0 7.2q0 1.2 0 1.9 0 0.3 0 0.5 0 0.2 0 0.2z"/>
	<path id="Layer" class="s1" d="m52 33.2c-6.7 0-12.1 0-12.1 0 0 0 5.4-0.1 12.1-0.1 6.7 0 12.1 0.1 12.1 0.1 0 0-5.4 0-12.1 0z"/>
	<path id="Layer" class="s1" d="m40.9 32.6q0 0 0 0.1-0.1 0-0.1 0 0 0.1-0.1 0.1-0.1-0.1-0.1-0.1 0 0 0-0.1 0 0 0-0.1 0 0 0-0.1 0.1 0 0.1 0 0.1 0 0.2 0.1 0 0 0 0.1z"/>
	<path id="Layer" class="s1" d="m41.5 32.6q0 0 0 0.1 0 0-0.1 0 0 0.1-0.1 0.1 0-0.1-0.1-0.1 0 0 0-0.1 0 0 0-0.1 0 0 0-0.1 0.1 0 0.1 0 0.1 0 0.1 0 0 0 0.1 0.1 0 0 0 0 0 0.1 0 0.1z"/>
	<path id="Layer" class="s1" d="m42.1 32.6q0 0 0 0.1-0.1 0-0.1 0-0.1 0.1-0.1 0.1-0.1-0.1-0.1-0.1 0 0 0-0.1-0.1 0 0-0.1 0 0 0-0.1 0.1 0 0.1 0 0.1 0 0.1 0 0 0 0 0.1 0.1 0 0.1 0 0 0.1 0 0.1z"/>
	<g id="Layer" style="opacity: .6">
		<path id="Layer" class="s0" d="m40.9 32.6q0 0.1 0 0.1 0 0-0.1 0.1 0 0-0.1 0 0 0-0.1-0.1 0 0 0-0.1 0 0 0-0.1 0 0 0 0 0.1-0.1 0.1-0.1 0.1 0 0.2 0.1 0 0 0 0.1z"/>
		<path id="Layer" class="s0" d="m41.5 32.6q0 0.1 0 0.1 0 0-0.1 0.1 0 0-0.1 0 0 0-0.1-0.1 0 0 0-0.1 0 0 0-0.1 0 0 0.1-0.1 0 0 0 0 0.1 0 0.1 0 0.1 0 0.1 0.1 0 0 0 0 0 0.1 0 0.1z"/>
		<path id="Layer" class="s0" d="m42.1 32.6q0 0.1 0 0.1-0.1 0-0.1 0.1-0.1 0-0.1 0-0.1 0-0.1-0.1 0 0 0-0.1 0 0 0-0.1 0 0 0 0 0.1-0.1 0.1-0.1 0.1 0 0.1 0 0 0 0.1 0.1 0 0 0 0 0 0.1 0 0.1z"/>
	</g>
	<path id="Layer" class="s1" d="m41.9 34.8h5.9v5.8h-5.9z"/>
	<g id="Layer" style="opacity: .6">
		<path id="Layer" class="s0" d="m41.9 34.8h5.9v5.8h-5.9z"/>
	</g>
	<path id="Layer" class="s1" d="m62.4 36.3c0 0.1-3 0.1-6.7 0.1-3.7 0-6.7 0-6.7-0.1 0 0 3 0 6.7 0 3.7 0 6.7 0 6.7 0z"/>
	<path id="Layer" class="s1" d="m62.4 37.5c0 0-3 0.1-6.7 0.1-3.7 0-6.7-0.1-6.7-0.1 0 0 3 0 6.7 0 3.7 0 6.7 0 6.7 0z"/>
	<path id="Layer" class="s1" d="m57.6 38.7q0 0-0.1 0h-0.2-0.9l-3.1 0.1-3.1-0.1h-0.9-0.2q-0.1 0-0.1 0 0 0 0.1 0h0.2 0.9 3.1 3.1 0.9 0.2q0.1 0 0.1 0z"/>
</svg>