<svg version="1.2" xmlns="http://www.w3.org/2000/svg" viewBox="0 0 44 50" width="44" height="50">
	<title>character_2_x2-svg</title>
	<style>
		.s0 { fill: #263238 } 
		.s1 { fill: #ffffff } 
		.s2 { fill: #455a64 } 
		.s3 { fill: #ff5904 } 
		.s4 { fill: #353537 } 
		.s5 { fill: #e0e0e0 } 
		.s6 { fill: #b77153 } 
		.s7 { fill: #995037 } 
		.s8 { fill: #fafafa } 
	</style>
	<path id="Layer" class="s0" d="m8.9 10.3c0-0.6 0.5-1 1-1h26.4c0.5 0 1 0.4 1 1v38.5c0 0.6-0.5 1-1 1h-26.4c-0.5 0-1-0.4-1-1z"/>
	<path id="Layer" class="s1" d="m9.2 46.5h26.6v-33.9h-26.6z"/>
	<path id="Layer" class="s2" d="m41.9 28.6c-0.6-0.3-1.2 0-1.5 0.5-0.2 0.5 0 1.2 0.5 1.4 0.6 0.3 1.2 0.1 1.5-0.4 0.2-0.6 0-1.2-0.5-1.5z"/>
	<path id="Layer" class="s2" d="m0 29.8h8.3c0.1 0 0.1-0.1 0.1-0.1v-0.2c0-0.1 0-0.2-0.1-0.2h-8.3c-0.1 0-0.1 0.1-0.1 0.2v0.2c0 0 0 0.1 0.1 0.1z"/>
	<path id="Layer" class="s3" d="m15.4 29.3c-0.6-1.4-2.2-2-3.6-1.5-1.4 0.6-2 2.3-1.4 3.6 0.6 1.4 2.2 2.1 3.6 1.5 1.4-0.6 2-2.2 1.4-3.6z"/>
	<g id="Layer" style="opacity: .3">
		<path id="Layer" class="s1" d="m15.4 29.3c-0.6-1.4-2.2-2-3.6-1.5-1.4 0.6-2 2.3-1.4 3.6 0.6 1.4 2.2 2.1 3.6 1.5 1.4-0.6 2-2.2 1.4-3.6z"/>
	</g>
	<path id="Layer" class="s0" d="m11.9 29.7c0.1 0 0.2 0.1 0.2 0.2 0.1 0.2 0 0.3-0.1 0.3-0.1 0-0.2-0.1-0.2-0.2 0-0.2 0-0.3 0.1-0.3z"/>
	<path id="Layer" class="s0" d="m13.7 29.6c-0.1 0-0.2 0.1-0.2 0.3 0 0.2 0 0.3 0.2 0.3 0.1 0 0.1-0.1 0.2-0.3 0-0.1-0.1-0.3-0.2-0.3z"/>
	<path id="Layer" class="s0" d="m14 30.9c0 0-0.5 0.1-1.2 0.1-0.6 0-1.1-0.1-1.1-0.1 0 0 0.5-0.1 1.1-0.1 0.7 0 1.2 0.1 1.2 0.1z"/>
	<path id="Layer" class="s0" d="m12.1 29.4c0 0-0.1 0-0.2 0-0.2 0-0.3 0.1-0.3 0-0.1 0 0.1-0.1 0.2-0.1 0.2 0 0.3 0 0.3 0.1z"/>
	<path id="Layer" class="s0" d="m14.2 29.5c0 0-0.2 0-0.3-0.1-0.2 0-0.3-0.1-0.3-0.1 0 0 0.1-0.1 0.3 0 0.2 0.1 0.3 0.2 0.3 0.2z"/>
	<path id="Layer" class="s3" d="m33.6 27.4c-1.5-0.4-3.1 0.4-3.5 1.9-0.5 1.4 0.3 3 1.8 3.5 1.5 0.5 3.1-0.3 3.6-1.8 0.4-1.5-0.4-3.1-1.9-3.6z"/>
	<g id="Layer" style="opacity: .3">
		<path id="Layer" class="s4" d="m33.6 27.4c-1.5-0.4-3.1 0.4-3.5 1.9-0.5 1.4 0.3 3 1.8 3.5 1.5 0.5 3.1-0.3 3.6-1.8 0.4-1.5-0.4-3.1-1.9-3.6z"/>
	</g>
	<path id="Layer" class="s0" d="m31.8 29.4c0.1 0 0.2 0.1 0.2 0.3 0 0.1-0.1 0.3-0.2 0.3-0.1 0-0.2-0.1-0.2-0.3 0-0.1 0.1-0.3 0.2-0.3z"/>
	<path id="Layer" class="s0" d="m33.6 29.4c-0.1 0-0.2 0.1-0.2 0.3 0 0.1 0.1 0.2 0.2 0.2 0.1 0 0.2-0.1 0.2-0.2 0-0.2-0.1-0.3-0.2-0.3z"/>
	<path id="Layer" class="s0" d="m33.9 30.7c0 0-0.1-0.1-0.3-0.2q-0.4-0.2-0.9-0.2-0.4 0-0.8 0.2c-0.2 0.1-0.4 0.2-0.4 0.2q0 0 0.3-0.2 0.4-0.3 0.9-0.3 0.5 0 0.9 0.3c0.2 0.1 0.3 0.2 0.3 0.2z"/>
	<path id="Layer" class="s0" d="m32 29.1q0 0-0.1 0.1-0.1 0.1-0.2 0.1-0.1 0-0.2 0-0.1-0.1-0.1-0.1c0 0 0.1 0 0.3 0 0.2-0.1 0.3-0.1 0.3-0.1z"/>
	<path id="Layer" class="s0" d="m34.1 29.2q0 0.1-0.1 0.1-0.1 0-0.2 0-0.2-0.1-0.3-0.2 0 0 0 0c0-0.1 0.1 0 0.3 0.1 0.1 0 0.3 0 0.3 0z"/>
	<path id="Layer" class="s5" d="m27.3 38l0.7-0.3 0.6 0.3-0.1-0.7 0.5-0.5-0.7-0.1-0.3-0.7-0.3 0.7-0.8 0.1 0.5 0.5z"/>
	<path id="Layer" class="s3" d="m24.6 38l0.7-0.3 0.6 0.3-0.1-0.7 0.5-0.5-0.7-0.1-0.3-0.7-0.3 0.7-0.8 0.1 0.6 0.5z"/>
	<path id="Layer" class="s3" d="m21.9 38l0.7-0.3 0.6 0.3-0.1-0.7 0.6-0.5-0.8-0.1-0.3-0.7-0.3 0.7-0.8 0.1 0.6 0.5z"/>
	<path id="Layer" class="s3" d="m19.2 38l0.7-0.3 0.6 0.3-0.1-0.7 0.6-0.5-0.8-0.1-0.3-0.7-0.3 0.7-0.7 0.1 0.5 0.5z"/>
	<path id="Layer" class="s3" d="m16.5 38l0.7-0.3 0.6 0.3-0.1-0.7 0.6-0.5-0.7-0.1-0.4-0.7-0.3 0.7-0.7 0.1 0.5 0.5z"/>
	<path id="Layer" class="s0" d="m29.1 21.9c0 0-3 0-6.6 0-3.7 0-6.6 0-6.6 0 0 0 2.9-0.1 6.6-0.1 3.6 0 6.6 0.1 6.6 0.1z"/>
	<path id="Layer" class="s0" d="m25.8 21.1c0 0-1.4 0-3.2 0-1.8 0-3.3 0-3.3 0 0 0 1.5 0 3.3 0 1.8 0 3.2 0 3.2 0z"/>
	<path id="Layer" class="s3" d="m25.2 26.5c-1.6-1.3-4-0.9-5.2 0.8-1.2 1.7-0.8 4 0.9 5.2 1.6 1.2 4 0.8 5.2-0.8 1.2-1.7 0.8-4-0.9-5.2z"/>
	<path id="Layer" class="s0" d="m21.7 28.5c0.2 0 0.3 0.2 0.3 0.4 0.1 0.2-0.1 0.4-0.2 0.4-0.1 0-0.3-0.2-0.3-0.4 0-0.2 0.1-0.3 0.2-0.4z"/>
	<path id="Layer" class="s0" d="m24.1 28.5c-0.1 0-0.2 0.2-0.2 0.4 0 0.2 0.1 0.3 0.2 0.3 0.1 0 0.3-0.1 0.3-0.3 0-0.2-0.1-0.4-0.3-0.4z"/>
	<path id="Layer" class="s0" d="m24.5 29.7q0 0 0 0.1-0.2 0.2-0.3 0.3-0.3 0.1-0.5 0.2-0.4 0.2-0.7 0.2-0.4-0.1-0.7-0.2-0.2-0.1-0.5-0.3c-0.2-0.1-0.4-0.3-0.4-0.3 0 0 0.2 0.1 0.5 0.3q0.2 0.1 0.5 0.2 0.3 0.1 0.6 0.1 0.3 0.1 0.6-0.1 0.3 0 0.5-0.2 0.2-0.1 0.3-0.2 0.1-0.1 0.1-0.1z"/>
	<path id="Layer" class="s0" d="m21.9 27.7c0 0-0.2 0-0.4 0.1-0.2 0-0.4 0.1-0.4 0 0 0 0.2-0.1 0.4-0.2 0.2 0 0.4 0.1 0.4 0.1z"/>
	<path id="Layer" class="s0" d="m24.9 27.9c0 0-0.1-0.1-0.4-0.2-0.2 0-0.4 0-0.4-0.1 0 0 0.2 0 0.5 0 0.2 0.1 0.4 0.2 0.3 0.3z"/>
	<path id="Layer" class="s0" d="m21.5 29.4q0 0 0 0.2 0 0.1-0.1 0.2 0 0.1-0.2 0.2-0.1 0-0.1 0c0-0.1 0.1-0.1 0.2-0.2 0.1-0.2 0.1-0.3 0.2-0.4z"/>
	<path id="Layer" class="s0" d="m24.9 29.8q0 0-0.1 0-0.2 0-0.2 0-0.1-0.1-0.2-0.2 0-0.1 0-0.1c0.1 0 0.1 0.1 0.2 0.2 0.1 0 0.2 0.1 0.3 0.1z"/>
	<path id="Layer" class="s3" d="m27.6 29.5q0 0 0-0.1v-0.2q0-0.1 0-0.2 0-0.1 0-0.2-0.1-0.1-0.1-0.2 0-0.2 0-0.3-0.2-0.6-0.5-1.2-0.5-0.8-1.2-1.3l-0.2-0.2q-0.1 0-0.2-0.1-0.2-0.1-0.3-0.1l-0.2-0.1-0.1-0.1-0.2-0.1h-0.2q-0.2-0.1-0.3-0.1-0.1-0.1-0.3-0.1-0.3 0-0.6-0.1-0.1 0-0.3 0l-0.3 0.1q-0.1 0-0.1 0h-0.2q-0.1 0-0.3 0-0.3 0.1-0.6 0.2-0.3 0.1-0.6 0.3-0.2 0.1-0.3 0.2-0.1 0-0.1 0l-0.2 0.1q-0.3 0.2-0.5 0.5l-0.2 0.2-0.1 0.1-0.1 0.1-0.1 0.1-0.1 0.2-0.1 0.1-0.1 0.2v0.1l-0.2 0.4-0.1 0.3c-0.3 0.9-0.3 2 0 2.9q0 0.2 0.1 0.3 0.1 0.2 0.2 0.4v0.1l0.1 0.2 0.1 0.1 0.1 0.2 0.1 0.1 0.1 0.1 0.1 0.1 0.2 0.2q0.2 0.3 0.5 0.5l0.2 0.1q0 0 0.1 0.1 0.1 0 0.3 0.1 0.6 0.3 1.2 0.5 0.2 0 0.3 0h0.2q0.1 0.1 0.1 0.1h0.3q0.2 0 0.3 0 0.3-0.1 0.6-0.1 0.2 0 0.3-0.1 0.1 0 0.3 0l0.2-0.1 0.2-0.1h0.1l0.2-0.2q0.1 0 0.3-0.1 0.1-0.1 0.2-0.1l0.2-0.2q0.7-0.5 1.2-1.3 0.3-0.6 0.5-1.2 0-0.1 0-0.3 0-0.1 0.1-0.2 0-0.1 0-0.2 0-0.1 0-0.2 0-0.1 0-0.2 0-0.1 0-0.1 0 0 0 0.1 0 0.1 0 0.2 0 0.1 0 0.2 0 0.1 0 0.2 0 0.1-0.1 0.2 0 0.2 0 0.3-0.2 0.6-0.5 1.2-0.5 0.8-1.2 1.4l-0.2 0.1q-0.1 0.1-0.2 0.1-0.1 0.1-0.3 0.2l-0.2 0.1-0.1 0.1h-0.1l-0.3 0.1q-0.1 0-0.3 0.1-0.1 0-0.3 0-0.3 0.1-0.6 0.1-0.1 0-0.3 0h-0.3q-0.1 0-0.1 0h-0.2q-0.1-0.1-0.3-0.1-0.3-0.1-0.6-0.2-0.3-0.1-0.6-0.2-0.2-0.1-0.3-0.2-0.1 0-0.2-0.1l-0.1-0.1q-0.3-0.2-0.5-0.4l-0.3-0.3v-0.1h-0.1l-0.1-0.2-0.1-0.1-0.1-0.2-0.1-0.1-0.1-0.1v-0.1l-0.2-0.3q0-0.2-0.1-0.4c-0.3-0.9-0.3-2 0-2.9l0.1-0.4 0.2-0.3v-0.1l0.1-0.1 0.1-0.1 0.1-0.2 0.1-0.1 0.1-0.1 0.1-0.1v-0.1q0.1-0.1 0.3-0.2 0.2-0.3 0.5-0.5l0.1-0.1q0.1 0 0.2-0.1 0.1-0.1 0.3-0.2 0.3-0.1 0.6-0.2 0.3-0.1 0.6-0.2 0.2 0 0.3-0.1h0.2q0 0 0.1 0h0.3q0.2 0 0.3 0 0.3 0 0.6 0.1 0.2 0 0.3 0 0.2 0.1 0.3 0.1l0.3 0.1 0.1 0.1h0.1l0.2 0.1q0.2 0.1 0.3 0.2 0.1 0 0.2 0.1l0.2 0.2q0.7 0.5 1.2 1.3 0.3 0.6 0.5 1.2 0 0.2 0 0.3 0.1 0.1 0.1 0.2 0 0.1 0 0.2 0 0.1 0 0.2 0 0.1 0 0.2 0 0 0 0.1z"/>
	<path id="Layer" class="s5" d="m5.5 16.3h34v1.7h-34z"/>
	<path id="Layer" class="s1" d="m6.6 17.1q0 0.1 0 0.2 0 0-0.1 0-0.1 0.1-0.1 0.1-0.1-0.1-0.2-0.1 0-0.1 0-0.1 0-0.1 0-0.2 0 0 0.1-0.1 0 0 0.1 0 0.1 0 0.2 0.1 0 0 0 0.1z"/>
	<path id="Layer" class="s1" d="m7.4 17.1q0 0.1 0 0.2-0.1 0-0.1 0-0.1 0.1-0.2 0.1 0-0.1-0.1-0.1 0-0.1-0.1-0.1 0-0.1 0.1-0.2 0 0 0-0.1 0.1 0 0.2 0 0.1 0 0.1 0.1 0.1 0 0.1 0.1z"/>
	<path id="Layer" class="s1" d="m8.2 17.1q0 0.1-0.1 0.2 0 0-0.1 0-0.1 0.1-0.1 0.1-0.1-0.1-0.1-0.1-0.1-0.1-0.1-0.1 0-0.1 0-0.2 0 0 0.1-0.1 0.1 0 0.1 0 0.1 0 0.2 0.1 0.1 0 0.1 0.1z"/>
	<path id="Layer" class="s5" d="m35.8 23.2c0 0-5.9 0-13.2 0-7.3 0-13.2 0-13.2 0 0 0 5.9 0 13.2 0 7.3 0 13.2 0 13.2 0z"/>
	<path id="Layer" class="s5" d="m35.8 23.9c0 0-5.9 0-13.2 0-7.3 0-13.2 0-13.2 0 0-0.1 5.9-0.1 13.2-0.1 7.3 0 13.2 0 13.2 0.1z"/>
	<path id="Layer" class="s2" d="m18.5 15.6c0 0-0.2-0.5-0.3-0.6-0.1-0.3-0.9-2.4-0.7-2.8 0.9-1.4 1.5-2.5 3.2-2.5h2.9c0 0 2.8-0.6 4.8 5.7z"/>
	<path id="Layer" class="s2" d="m12.3 16.1l3.8-0.8 4.6-2.3v-3.3c-0.7-0.2-2 0.3-4.3 1.5l-3.5 1.8q-0.4 0.2-0.7 0.6-0.3 0.4-0.4 0.8-0.1 0.5 0.1 0.9 0.1 0.5 0.4 0.9z"/>
	<path id="Layer" class="s6" d="m20.9 22.4c0-0.2 0-0.3 0.3-0.2 0.6 0.2 1.1 0.1 1.2 0 0.2-0.1 0-0.3-0.1-0.3q-0.4 0-0.7-0.1-0.2 0-0.4-0.2-0.2-0.1-0.3-0.2c0 0-0.6-0.4-0.8-0.7l-1.8 0.8 0.3 0.9q0 0.3 0.2 0.5 0.2 0.1 0.4 0.2c0.5 0.2 1.4 0.1 1.4 0.1 0.1-0.1 0.7 0.8 0.9 1.1 0.2 0.3 0.4 0.3 0.5 0.2 0-0.2-0.5-1.1-0.7-1.4q-0.2-0.3-0.4-0.7z"/>
	<path id="Layer" class="s7" d="m19.7 23.2q0 0.1-0.1 0-0.2 0-0.2-0.2-0.1-0.1-0.1-0.2 0-0.1 0.1-0.1-0.1 0.1 0 0.3 0.1 0.2 0.3 0.2z"/>
	<path id="Layer" class="s7" d="m20.3 23.3q0 0-0.1-0.1-0.1 0-0.2-0.1-0.1-0.2-0.1-0.3 0.1-0.1 0.1-0.1 0 0.2 0 0.3 0.1 0.2 0.3 0.3z"/>
	<path id="Layer" class="s2" d="m12.2 16c0 0 5.9 6.8 5.9 6.7 0-0.2 2.6-2.1 2.6-2.1l-5.8-6.9z"/>
	<path id="Layer" class="s0" d="m15.8 14.7q0 0 0 0l0.1 0.2 0.4 0.4c0.3 0.4 0.8 0.9 1.3 1.5 0.5 0.6 0.9 1.2 1.3 1.6l0.4 0.4 0.1 0.2q0 0 0 0 0 0-0.1 0l-0.1-0.2q-0.1-0.1-0.4-0.4c-0.3-0.4-0.7-0.9-1.2-1.5-0.6-0.6-1-1.2-1.3-1.6l-0.4-0.4q-0.1-0.1-0.1-0.2 0 0 0 0z"/>
	<path id="Layer" class="s0" d="m26.2 15.5q0-0.2 0-0.5 0.1-0.2 0-0.5-0.1-0.2-0.3-0.4-0.3-0.2-0.5-0.4-0.1-0.2-0.2-0.4-0.1-0.2-0.1-0.4 0 0 0.1-0.1-0.1 0.2 0 0.4 0.1 0.3 0.3 0.4 0.2 0.2 0.4 0.4 0.2 0.3 0.3 0.6 0.1 0.2 0.1 0.4 0 0.2-0.1 0.4 0 0 0 0.1z"/>
	<path id="Layer" class="s0" d="m18.2 10.3q0 0 0.1-0.1 0.1 0 0.3 0 0.2-0.1 0.4-0.1 0.3-0.1 0.6 0 0.3 0.1 0.5 0.4 0.3 0.3 0.4 0.7 0.1 0.4 0.1 0.9-0.1 0.5-0.4 0.9-0.3 0.3-0.7 0.6-0.4 0.2-0.7 0.4l-1.4 0.7-0.8 0.4-0.3 0.2q0 0-0.1 0 0.1 0 0.1 0l0.3-0.2 0.8-0.5 1.3-0.6q0.4-0.2 0.8-0.5 0.4-0.2 0.7-0.6 0.3-0.4 0.3-0.8 0-0.5 0-0.9-0.1-0.4-0.4-0.7-0.2-0.2-0.5-0.3-0.3-0.1-0.6-0.1-0.2 0-0.4 0.1-0.2 0-0.3 0.1 0 0-0.1 0z"/>
	<path id="Layer" class="s0" d="m16.4 15.3c0 0-0.1-0.4-0.3-0.8-0.3-0.4-0.6-0.6-0.6-0.6q0.1 0.1 0.2 0.1c0.3 0.3 0.6 0.7 0.7 1.1q0 0.1 0 0.2z"/>
	<path id="Layer" class="s8" d="m25.1 14.6q-0.1 0-0.2 0-0.1 0.1-0.3 0-0.3 0-0.6-0.1-0.3-0.3-0.5-0.6-0.2-0.5-0.1-1 0.1-0.2 0.3-0.4 0.2-0.1 0.3 0 0.2 0 0.3 0.1 0.1 0.3 0.2 0.6 0 0.3-0.1 0.6-0.1 0.3-0.3 0.5-0.3 0.3-0.6 0.4-0.3 0.1-0.7 0-0.3-0.1-0.5-0.3-0.3-0.2-0.4-0.5-0.1-0.3 0-0.6 0-0.3 0.2-0.6 0.1-0.1 0.2-0.1 0.2-0.1 0.3 0 0.1 0 0.2 0.1 0.1 0.1 0.1 0.3 0 0.2-0.1 0.4-0.2 0.4-0.5 0.6-0.2 0.2-0.5 0.4-0.1 0.1-0.3 0.1-0.1 0-0.1 0 0 0.1 0 0.1 0-0.1 0-0.1 0 0 0.1 0 0.2 0 0.3-0.1 0.3-0.2 0.5-0.4 0.3-0.2 0.5-0.6 0.1-0.2 0-0.4 0-0.1 0-0.2-0.1-0.1-0.2-0.2-0.1 0-0.3 0-0.1 0.1-0.2 0.2-0.1 0.2-0.2 0.5 0 0.3 0.1 0.5 0.1 0.3 0.3 0.5 0.2 0.2 0.5 0.3 0.4 0.1 0.7 0 0.3-0.1 0.5-0.3 0.2-0.2 0.3-0.5 0.1-0.3 0.1-0.6 0-0.2-0.1-0.3 0-0.1-0.1-0.2-0.1-0.2-0.2-0.2-0.1 0-0.2 0.1-0.3 0.1-0.3 0.4-0.2 0.4 0 0.9 0.2 0.3 0.5 0.5 0.3 0.2 0.6 0.2 0.2 0 0.5 0z"/>
	<path id="Layer" class="s7" d="m25.5 8q-0.2-0.2-0.3-0.5 0-0.1 0-0.2 0.1 0 0.1-0.1 0 0 0.1 0c0 0 0.1 0.1 0.1 0.1q0.2 0.3 0.3 0.5 0 0.1 0 0.2 0 0 0 0.1 0 0 0 0-0.1 0-0.1 0-0.1 0-0.1 0-0.1-0.1-0.1-0.1z"/>
	<path id="Layer" class="s7" d="m25.8 7.9l-0.3-0.6q-0.1-0.1-0.1-0.2 0-0.1 0.1-0.1 0 0 0-0.1 0.1 0 0.1 0 0.1 0 0.1 0.1 0.1 0 0.1 0.1l0.1 0.3q0.1 0.1 0.1 0.2 0 0.1 0 0.1 0 0.1 0 0.1-0.1 0.1-0.1 0.1-0.1 0-0.1 0z"/>
	<path id="Layer" class="s6" d="m24.5 9.8c0 0-0.4-0.6-0.4-0.8-0.1-0.3 0.3-0.8 1-0.9q0.4 0 0.7-0.3 0.1 0 0.1-0.1 0.1-0.1 0-0.1c-0.1-0.3-0.2-0.7-0.2-0.8 0-0.1 0.1-0.1 0.3 0.3 0.3 0.3 0.6 0.7 0.5 0.9 0 0.1-0.9 0.7-0.9 0.7l0.2 0.3z"/>
	<path id="Layer" class="s2" d="m26.9 15.1l-2.8-5.4 1.8-1 3.8 5.9c0 0 0.2 0.4 0.5 0.9h-3.2z"/>
	<path id="Layer" class="s0" d="m25.9 8.7q0 0 0 0l-0.1 0.1-0.4 0.2-1.3 0.7c0.3 0.5 0.6 1.2 1 1.9 0.5 1 1 1.9 1.3 2.6q0.2 0.5 0.4 0.8 0 0.2 0.1 0.2 0 0.1 0 0.1 0 0 0-0.1-0.1 0-0.2-0.2l-0.3-0.8c-0.4-0.7-0.8-1.6-1.4-2.6-0.3-0.7-0.7-1.3-0.9-1.9l1.3-0.8 0.4-0.2h0.1q0 0 0 0z"/>
	<path id="Layer" class="s0" d="m18.5 15.6q-0.4-0.6-0.5-1.3c0 0 0.1 0.3 0.2 0.7 0.2 0.3 0.3 0.6 0.3 0.6z"/>
	<path id="Layer" class="s0" d="m24.6 7.6q0.4 0.1 0.7 0 0.4-0.1 0.6-0.3 0.2-0.3 0.2-0.7 0-0.4-0.2-0.7c0.7-0.1 1.1-0.8 0.9-1.5-0.1-0.6-0.7-1.1-1.3-1.2q-0.4-0.1-0.7 0-0.2 0-0.4 0.1-0.1 0.2-0.2 0.3z"/>
	<path id="Layer" class="s3" d="m24.5 6.2q0 0-0.2 0.1-0.3 0.1-0.4 0.4-0.1 0.2-0.1 0.5 0 0.2 0.2 0.4 0 0.1 0.1 0.2 0.2 0.1 0.3 0.1 0.3 0.2 0.6 0.1 0.2-0.1 0.4-0.3 0.1-0.1 0.2-0.2 0-0.2 0.1-0.3 0-0.2-0.1-0.4 0-0.2-0.2-0.3-0.1-0.2-0.3-0.2-0.1-0.1-0.3-0.1-0.3 0-0.3 0 0.1 0 0.1 0 0.1-0.1 0.2-0.1 0.3 0 0.5 0.2 0.2 0.2 0.3 0.4 0.2 0.3 0.1 0.5 0 0.2 0 0.3-0.1 0.1-0.2 0.2-0.2 0.3-0.5 0.4-0.3 0-0.6-0.1-0.2-0.1-0.3-0.2-0.1 0-0.2-0.2-0.1-0.2-0.1-0.5 0-0.2 0.1-0.5 0.2-0.2 0.4-0.4 0.1 0 0.2 0 0 0 0 0z"/>
	<path id="Layer" class="s0" d="m25 4.5q0.4-0.1 0.6-0.3 0.3-0.2 0.4-0.6 0.1-0.3 0-0.6-0.2-0.3-0.5-0.5 0.2-0.4 0-0.9-0.1-0.4-0.4-0.6-0.4-0.3-0.8-0.3-0.4 0-0.8 0.2-0.3-0.5-0.8-0.7-0.5-0.3-1-0.2-0.6 0.1-1 0.5-0.4 0.4-0.5 0.9-0.5-0.2-1-0.1-0.5 0.1-0.9 0.5-0.3 0.4-0.4 0.9-0.1 0.6 0.1 1.1c-0.3 0-0.7 0.2-0.9 0.4-0.2 0.3-0.3 0.6-0.3 1 0 0.3 0.2 0.7 0.5 0.9 0.2 0.2 0.6 0.3 0.9 0.3q-0.1 0.4 0 0.7 0.2 0.4 0.5 0.6 0.3 0.2 0.6 0.2 0.4 0 0.7-0.2 0.2 0.3 0.6 0.5 0.3 0.2 0.7 0.1 0.3 0 0.6-0.3 0.3-0.2 0.4-0.6z"/>
	<path id="Layer" class="s6" d="m23.7 9.6c0-0.5 0-1 0-1 0 0 1.2-0.2 1.3-1.4 0-1.2-0.1-4-0.1-4l-2.2-1.1-2.3 1.9 0.3 5.6c0 0.4 0.2 0.8 0.5 1 0.3 0.3 0.7 0.4 1.1 0.4 0.3 0 0.7-0.2 1-0.4 0.2-0.3 0.4-0.6 0.4-1z"/>
	<path id="Layer" class="s0" d="m24.9 5.3c-0.1 0-0.2-0.1-0.3-0.1-0.2 0-0.3 0.1-0.3 0.1q-0.1-0.1 0-0.1 0.1-0.1 0.3-0.1 0.1 0 0.2 0.1 0.1 0.1 0.1 0.1z"/>
	<path id="Layer" class="s0" d="m23.1 5.3c-0.1 0-0.2-0.1-0.3-0.1-0.2 0-0.3 0.1-0.3 0.1q-0.1-0.1 0-0.1 0.1-0.1 0.3-0.1 0.1 0 0.2 0.1 0.1 0.1 0.1 0.1z"/>
	<path id="Layer" class="s0" d="m23.7 6.5q0.1 0 0.2 0 0.1 0 0.1-0.1 0-0.1 0-0.1-0.1-0.2-0.1-0.4c-0.2-0.5-0.3-0.9-0.3-0.9 0 0 0.2 0.4 0.3 0.9l0.2 0.4q0 0 0 0.1 0 0.1-0.1 0.1 0 0 0 0 0 0-0.1 0-0.1 0-0.2 0z"/>
	<path id="Layer" class="s7" d="m23.7 8.6c-0.5 0-1.1-0.2-1.5-0.5 0 0 0.3 0.8 1.5 0.8z"/>
	<path id="Layer" class="s0" d="m22.1 2.2q-0.3 0.4-0.3 0.9 0 0.5 0.3 1c0.2 0.2 0.4 0.4 0.7 0.4 0.3 0 0.6-0.3 0.5-0.6q0 0.1 0 0.3 0 0.1 0.1 0.2 0.1 0.2 0.2 0.2 0.1 0.1 0.3 0.1 0.1 0 0.3-0.1 0.1 0 0.2-0.1 0.1-0.2 0.1-0.3 0-0.1 0-0.3 0 0.2 0.1 0.4 0.1 0.1 0.2 0.1 0.1 0.1 0.2 0.1c0.1-0.1 0.3-0.2 0.3-0.4q0.1-0.4 0-0.8-0.2-0.5-0.5-0.7-0.3-0.3-0.7-0.5-0.4-0.1-0.8-0.1c-0.6 0.1-1.1 0.3-1.5 0.7z"/>
	<path id="Layer" class="s0" d="m22.2 2.6q0.2 0.6 0.2 1.1c0.1 0.4-0.1 0.8-0.4 1.1q-0.2 0.2-0.4 0.2-0.3 0.1-0.6 0 0.1 0.3 0 0.5 0 0.3-0.1 0.5c-0.2 0.2-0.6 0.4-0.9 0.2-0.3-0.1-0.4-0.5-0.5-0.8q0-0.5 0.1-1.1 0.2-0.5 0.6-0.9 0.4-0.4 1-0.6 0.5-0.2 1-0.1z"/>
	<path id="Layer" class="s6" d="m20.7 5.5c-0.2-0.1-0.4 0-0.5 0.2q-0.2 0.1-0.2 0.4 0 0.2 0.1 0.4 0.1 0.2 0.3 0.3 0.2 0.1 0.5 0z"/>
	<path id="Layer" class="s7" d="m20.7 6.4q-0.1 0.1-0.2 0-0.1 0-0.1 0-0.1-0.1-0.1-0.2-0.1-0.1 0-0.2 0-0.1 0.1-0.1 0.1-0.1 0.1 0 0 0-0.1 0-0.1 0.1-0.1 0.2 0 0 0 0.1 0 0.1 0.1 0.1 0.1 0.1 0.1 0.1 0.2 0 0.2 0z"/>
	<path id="Layer" class="s0" d="m23.2 4.8c-0.1 0-0.2 0-0.5 0-0.2 0-0.3 0-0.4 0 0-0.1 0.2-0.2 0.4-0.2 0.3 0 0.5 0.1 0.5 0.2z"/>
	<path id="Layer" class="s0" d="m24.9 4.7q-0.1 0-0.1 0-0.1 0-0.2 0-0.1 0-0.2 0-0.1 0-0.1 0 0 0 0.1-0.1 0.1 0 0.2-0.1 0.1 0 0.1 0.1 0.1 0 0.1 0 0.1 0.1 0.1 0.1z"/>
	<path id="Layer" class="s7" d="m23.4 6.8q0.1 0 0.1 0 0.1-0.1 0.2 0 0.1 0 0.1 0.1 0.1 0 0 0.1 0 0.1-0.1 0.2 0 0-0.1 0 0 0-0.1 0-0.1 0-0.1 0-0.1-0.1-0.1-0.2 0 0 0-0.1 0 0 0.1-0.1z"/>
	<path id="Layer" class="s0" d="m24 6.9q0 0.1-0.1 0.1-0.2 0-0.3 0-0.2-0.1-0.3-0.2 0-0.1 0-0.2 0 0 0 0.1 0.1 0.2 0.3 0.2 0.1 0.1 0.3 0.1 0.1-0.1 0.1-0.1z"/>
	<path id="Layer" class="s3" d="m21.5 7.5c0 0 0-0.1 0-0.2q-0.1-0.3-0.4-0.5-0.2-0.2-0.4-0.2-0.2 0-0.5 0.1-0.1 0-0.2 0.1-0.1 0.1-0.2 0.2-0.2 0.2-0.2 0.5 0 0.3 0.2 0.6 0.1 0.1 0.2 0.2 0.1 0 0.2 0.1 0.2 0.1 0.4 0 0.2 0 0.4-0.1 0.2-0.1 0.3-0.2 0.1-0.2 0.2-0.4 0-0.2 0-0.2 0 0 0 0.1 0 0.1 0 0.2-0.1 0.3-0.4 0.5-0.1 0.1-0.4 0.2-0.2 0-0.5-0.1-0.1 0-0.2-0.1-0.2-0.1-0.2-0.2-0.2-0.3-0.2-0.6 0-0.3 0.2-0.6 0-0.1 0.2-0.2 0.1-0.1 0.2-0.1 0.2-0.1 0.5 0 0.2 0 0.4 0.1 0.3 0.3 0.4 0.6 0 0.1 0 0.2 0 0 0 0z"/>
	<path id="Layer" class="s2" d="m24.9 2.1q0 0 0 0 0 0 0.1 0 0 0.1 0.1 0.2 0 0.1 0 0.2-0.1 0.1-0.2 0.2-0.1 0.1-0.2 0.1-0.4 0-0.7-0.2l-0.2-0.1 0.3 0.1q0 0 0.1 0.1 0 0 0 0.1 0 0 0 0.1 0 0.1 0 0.1-0.1 0.2-0.2 0.2-0.2 0-0.3 0-0.3-0.1-0.5-0.4l-0.1-0.2 0.2 0.2q0 0 0.1 0.1 0 0.2 0 0.3-0.1 0.1-0.1 0.1-0.1 0.1-0.2 0.2-0.1 0-0.3 0-0.2 0-0.3-0.1-0.2-0.1-0.2-0.4-0.1 0-0.1-0.1 0 0 0 0 0 0 0.1 0.1 0 0.2 0.2 0.4 0.1 0.1 0.3 0.1 0.2 0 0.3-0.1 0.1 0 0.1-0.1 0.1-0.1 0.1-0.2 0 0 0-0.1 0-0.1-0.1-0.2h0.1q0.1 0.2 0.4 0.3 0.1 0.1 0.2 0 0.2 0 0.2-0.1c0.1-0.1 0.1-0.3-0.1-0.4h0.1q0.2 0.2 0.6 0.1 0.1 0 0.2 0 0.1-0.1 0.1-0.3 0 0 0-0.1 0-0.1 0-0.2-0.1 0-0.1 0z"/>
	<path id="Layer" class="s2" d="m21.9 4q0 0 0 0.1 0 0 0 0-0.1 0.1-0.3 0.2-0.2 0-0.4 0-0.2-0.1-0.3-0.2-0.1-0.1-0.2-0.2h0.1q0 0.1-0.1 0.3-0.1 0.1-0.3 0.2-0.2 0.1-0.3 0.1-0.2 0-0.4-0.1-0.1-0.1-0.2-0.2-0.1-0.2-0.1-0.3 0-0.2 0-0.4 0.1-0.1 0.2-0.2-0.2 0.2-0.4 0.2-0.3 0-0.5-0.2-0.1-0.1-0.2-0.3-0.1-0.1-0.1-0.3 0-0.2 0.2-0.4 0.1-0.1 0.1-0.1 0-0.1-0.1 0.1-0.1 0.2-0.2 0.4 0 0.2 0.1 0.3 0.1 0.2 0.3 0.3 0.1 0.1 0.4 0.1 0.2 0 0.4-0.1-0.1 0.2-0.2 0.4 0 0.2 0.1 0.3 0.1 0.2 0.3 0.4 0.2 0.1 0.4 0 0.2 0 0.4-0.2 0.1-0.1 0.1-0.3v-0.1l0.1 0.1q0 0.1 0.1 0.2 0.2 0.1 0.3 0.1 0.2 0.1 0.4 0 0.1 0 0.3-0.1 0-0.1 0-0.1z"/>
	<path id="Layer" class="s2" d="m19.8 6q-0.1 0-0.1 0-0.2 0.1-0.3 0.1-0.3 0-0.5-0.2-0.1-0.1-0.1-0.3-0.1-0.1 0-0.3-0.1 0.3-0.4 0.4-0.2 0.1-0.4 0.1-0.2 0-0.4-0.1-0.1-0.1-0.2-0.3-0.1-0.1-0.1-0.3 0-0.2 0.1-0.4 0 0 0.1 0 0-0.1 0-0.1 0 0-0.1 0.1-0.1 0.2-0.1 0.4 0 0.2 0.1 0.3 0.1 0.2 0.3 0.2 0.1 0.1 0.3 0.1 0.2 0 0.4-0.1 0.2-0.1 0.4-0.3v-0.1 0.1q0 0.2 0 0.3 0.1 0.1 0.2 0.2 0.1 0.2 0.4 0.3 0.1 0 0.3-0.1 0.1 0 0.1 0z"/>
	<path id="Layer" class="s2" d="m26 3.6q0 0.1 0 0.2 0 0.3-0.2 0.5-0.2 0.1-0.4 0.2-0.1 0-0.2 0c0 0 0 0 0.1-0.1q0.3 0 0.5-0.2 0.1-0.2 0.2-0.4c0-0.1 0-0.2 0-0.2z"/>
	<path id="Layer" class="s2" d="m26.7 4.8q0 0 0 0 0 0.2 0 0.3-0.1 0.1-0.1 0.1-0.1 0.1-0.2 0.1-0.1 0-0.2 0-0.1 0-0.1-0.1-0.1 0-0.1-0.1h0.1q0 0.1 0 0.1 0 0.2-0.1 0.3-0.1 0.1-0.2 0.1-0.1 0.1-0.2 0-0.1 0-0.2-0.1-0.1-0.1-0.1-0.2 0-0.1 0-0.1 0 0 0 0.1 0 0.1 0.1 0.2 0.1 0.1 0.2 0.1 0.1 0 0.2 0 0.1-0.1 0.1-0.2 0.1-0.1 0.1-0.2 0 0 0-0.1h0.1q0 0.1 0.1 0.2 0.1 0 0.2 0 0.1 0 0.1-0.1 0.1-0.1 0.1-0.1 0.1-0.1 0.1-0.3-0.1 0 0 0z"/>
	<path id="Layer" class="s0" d="m23.3 6.4q0 0 0 0 0 0.1-0.1 0.2 0 0-0.1 0-0.1 0-0.1 0c0 0 0.1 0 0.2-0.1 0 0 0.1-0.1 0.1-0.1z"/>
</svg>