<svg width="110" height="122" viewBox="0 0 110 122" fill="none" xmlns="http://www.w3.org/2000/svg" xmlns:xlink="http://www.w3.org/1999/xlink">
<path d="M18.958,114.867L28.443,109.385L25.281,107.563L15.797,113.037L18.958,114.867Z" fill="#FF5904"/>
<path d="M37.927,103.898L47.419,98.416L44.25,96.594L34.766,102.068L37.927,103.898Z" fill="#FF5904"/>
<path d="M34.039,101.665C34.039,106.243 30.831,111.788 26.867,114.124C24.757,115.346 22.857,115.385 21.549,114.466C21.021,114.052 20.588,113.53 20.278,112.935C19.968,112.34 19.788,111.686 19.75,111.017C20.016,110.892 20.276,110.754 20.529,110.604C24.492,108.322 27.7,102.755 27.7,98.145C27.704,97.804 27.683,97.463 27.638,97.125C28.232,96.811 28.885,96.623 29.555,96.575C30.226,96.527 30.899,96.618 31.532,96.844C33.089,97.499 34.039,99.188 34.039,101.665Z" fill="#263238"/>
<path d="M34.672,92.26L34.54,92.182C32.546,91.123 29.868,91.318 26.854,93.047C20.742,96.574 15.781,105.155 15.781,112.218C15.781,115.769 17.035,118.253 19.06,119.405C21.084,120.558 23.817,120.363 26.846,118.627C32.959,115.099 37.912,106.51 37.912,99.448C37.919,95.897 36.689,93.413 34.672,92.26ZM26.885,114.11C24.767,115.333 22.867,115.372 21.559,114.445C20.407,113.666 19.706,112.109 19.706,109.968C19.706,105.397 22.922,99.845 26.885,97.509C28.692,96.465 30.335,96.286 31.558,96.823C33.068,97.47 34.018,99.159 34.018,101.651C34.026,106.261 30.818,111.829 26.854,114.126L26.885,114.11Z" fill="#353537"/>
<path d="M31.936,97.035L31.851,96.988C30.558,96.295 28.806,96.427 26.867,97.541C22.903,99.83 19.688,105.398 19.688,110C19.688,112.336 20.466,113.893 21.813,114.672C23.16,115.451 24.928,115.295 26.867,114.158C30.831,111.869 34.039,106.301 34.039,101.699C34.039,99.394 33.237,97.774 31.936,97.035ZM26.867,112.492C25.169,113.473 23.643,113.504 22.584,112.756C21.665,112.11 21.097,110.872 21.097,109.159C21.206,107.157 21.785,105.21 22.788,103.474C23.79,101.738 25.188,100.263 26.867,99.168C27.413,98.787 28.039,98.539 28.698,98.443C29.356,98.347 30.028,98.406 30.659,98.615C31.874,99.137 32.637,100.492 32.637,102.509C32.529,104.51 31.95,106.456 30.947,108.191C29.944,109.926 28.546,111.399 26.867,112.492Z" fill="#FF5904"/>
<path d="M56.911,92.945L66.404,87.471L63.242,85.641L53.75,91.123L56.911,92.945Z" fill="#FF5904"/>
<path d="M75.904,81.976L85.388,76.502L82.227,74.672L72.734,80.154L75.904,81.976Z" fill="#FF5904"/>
<path d="M94.872,71.023L104.357,65.549L101.195,63.719L91.703,69.201L94.872,71.023Z" fill="#FF5904"/>
<path d="M47.64,20.078C47.739,19.945 47.878,19.848 48.037,19.799C48.195,19.751 48.365,19.755 48.521,19.809C48.677,19.864 48.812,19.967 48.905,20.104C48.999,20.24 49.047,20.403 49.042,20.568C49.103,21.011 49.058,21.463 48.91,21.885C48.762,22.307 48.517,22.689 48.193,22.998C47.57,23.535 46.939,23.317 46.791,22.507C46.731,22.064 46.777,21.613 46.924,21.19C47.072,20.768 47.317,20.387 47.64,20.078Z" fill="#FF5904"/>
<path d="M54.959,23.511L48.613,19.844L47.219,23.2L53.588,26.875L54.959,23.511Z" fill="#FF5904"/>
<path d="M53.973,23.726C54.596,23.197 55.219,23.415 55.375,24.224C55.432,24.667 55.385,25.117 55.236,25.538C55.087,25.958 54.841,26.338 54.519,26.646C53.896,27.184 53.265,26.965 53.117,26.156C53.06,25.712 53.108,25.261 53.257,24.839C53.406,24.417 53.651,24.036 53.973,23.726Z" fill="#FF5904"/>
<path d="M102.763,54.429C102.763,54.584 102.763,54.724 102.763,54.88C102.763,55.192 102.763,55.511 102.763,55.83C101.502,55.293 99.859,55.472 98.052,56.515C94.089,58.805 90.873,64.372 90.873,68.974C90.873,71.108 91.573,72.65 92.726,73.452C92.402,73.682 92.067,73.895 91.721,74.09L91.355,74.277L90.257,78.412L83.903,74.869C81.894,73.709 80.656,71.233 80.656,67.697C80.656,60.635 85.609,52.053 91.721,48.518C94.743,46.774 97.476,46.595 99.508,47.74L105.738,51.228L105.87,51.306L102.763,54.429Z" fill="#353537"/>
<path d="M105.86,51.229L105.727,51.151C103.734,50.092 101.055,50.287 98.042,52.016C91.929,55.543 86.969,64.124 86.969,71.187C86.969,74.738 88.222,77.222 90.247,78.374C92.272,79.527 95.005,79.332 98.034,77.595C104.147,74.068 109.099,65.479 109.099,58.416C109.123,54.866 107.869,52.382 105.86,51.229ZM98.073,73.079C95.955,74.302 94.055,74.341 92.747,73.414C91.594,72.635 90.893,71.078 90.893,68.936C90.893,64.366 94.109,58.813 98.073,56.477C99.879,55.434 101.522,55.255 102.784,55.792C104.295,56.438 105.245,58.128 105.245,60.62C105.229,65.23 102.005,70.798 98.042,73.079L98.073,73.079Z" fill="#353537"/>
<path d="M105.226,60.665C105.226,65.243 102.018,70.788 98.055,73.124C95.944,74.346 94.044,74.385 92.736,73.466C92.209,73.052 91.776,72.53 91.466,71.935C91.155,71.34 90.975,70.686 90.938,70.017C91.204,69.892 91.464,69.754 91.716,69.604C95.68,67.322 98.888,61.755 98.888,57.145C98.892,56.804 98.871,56.463 98.826,56.125C99.42,55.81 100.073,55.623 100.743,55.575C101.413,55.527 102.086,55.618 102.719,55.844C104.261,56.499 105.226,58.173 105.226,60.665Z" fill="#263238"/>
<path d="M103.108,56.007L103.023,55.953C101.73,55.268 99.97,55.392 98.039,56.514C94.075,58.803 90.859,64.363 90.859,68.973C90.859,71.309 91.638,72.866 92.985,73.645C94.332,74.423 96.1,74.26 98.039,73.123C102.002,70.841 105.211,65.274 105.211,60.664C105.226,58.367 104.448,56.755 103.108,56.007ZM98.039,71.457C96.334,72.446 94.807,72.477 93.756,71.729C92.829,71.083 92.269,69.845 92.269,68.132C92.378,66.13 92.957,64.182 93.96,62.447C94.962,60.711 96.36,59.236 98.039,58.141C99.487,57.3 100.811,57.152 101.823,57.588C103.038,58.11 103.801,59.465 103.801,61.482C103.693,63.48 103.115,65.425 102.114,67.159C101.112,68.892 99.716,70.364 98.039,71.457Z" fill="#FF5904"/>
<path d="M91.695,62.991L109.605,52.65C111.684,51.443 104.933,44.396 99.91,43.921C97.145,43.587 94.341,43.853 91.688,44.7C91.688,44.7 95.511,49.598 94.857,52.378C94.203,55.158 91.695,62.991 91.695,62.991Z" fill="#FF5904"/>
<path d="M66.409,33.781C66.409,33.781 92.371,46.879 93.492,47.665C94.613,48.452 93.492,57.586 91.709,63.005C89.926,68.425 87.185,76.757 86.087,79.093C84.989,81.429 83.556,82.301 80.924,83.82L62.235,94.62L36.936,97.704L26.891,92.253L29.507,75.815C29.507,75.815 56.395,61.51 60.078,59.385C63.762,57.259 74.655,47.284 66.409,33.781Z" fill="#FF5904"/>
<g opacity="0.2">
<path d="M66.409,33.781C66.409,33.781 92.371,46.879 93.492,47.665C94.613,48.452 93.492,57.586 91.709,63.005C89.926,68.425 87.185,76.757 86.087,79.093C84.989,81.429 83.556,82.301 80.924,83.82L62.235,94.62L36.936,97.704L26.891,92.253L29.507,75.815C29.507,75.815 56.395,61.51 60.078,59.385C63.762,57.259 74.655,47.284 66.409,33.781Z" fill="#000000"/>
</g>
<path d="M93.982,59.86C96.318,53.584 98.063,48.382 97.767,44.87C97.409,40.704 95.851,37.301 88.983,35.588C82.115,33.875 72.514,33.906 72.514,33.906L69.594,35.596C69.594,35.596 89.341,47.043 91.584,48.289C92.954,49.067 94.418,52.501 91.732,62.99L92.191,63.255C92.417,63.395 93.235,61.877 93.982,59.86Z" fill="#FF5904"/>
<g opacity="0.3">
<path d="M93.982,59.86C96.318,53.584 98.063,48.382 97.767,44.87C97.409,40.704 95.851,37.301 88.983,35.588C82.115,33.875 72.514,33.906 72.514,33.906L69.594,35.596C69.594,35.596 89.341,47.043 91.584,48.289C92.954,49.067 94.418,52.501 91.732,62.99L92.191,63.255C92.417,63.395 93.235,61.877 93.982,59.86Z" fill="#F4F4F4"/>
</g>
<path d="M79.026,41.07L82.219,39.248C82.219,39.248 82.032,28.183 77.375,25.496C72.719,22.81 56.911,24.64 56.911,24.64L53.75,26.462L79.026,41.07Z" fill="#FF5904"/>
<path d="M68.67,28.044C67.152,28.924 67.152,30.342 68.67,31.214C69.522,31.647 70.463,31.873 71.419,31.873C72.374,31.873 73.316,31.647 74.168,31.214C75.678,30.342 75.678,28.917 74.168,28.044C73.315,27.615 72.374,27.391 71.419,27.391C70.464,27.391 69.523,27.615 68.67,28.044Z" fill="#F0F0F0"/>
<path d="M73.534,33.323C72.468,33.946 72.468,34.95 73.534,35.565C74.137,35.874 74.804,36.034 75.481,36.034C76.158,36.034 76.825,35.874 77.428,35.565C78.503,34.95 78.503,33.946 77.428,33.323C76.824,33.018 76.157,32.859 75.481,32.859C74.805,32.859 74.138,33.018 73.534,33.323Z" fill="#F0F0F0"/>
<path d="M61.306,26.625C60.231,27.24 60.231,28.245 61.306,28.868C61.91,29.172 62.576,29.331 63.253,29.331C63.929,29.331 64.596,29.172 65.199,28.868C66.274,28.245 66.274,27.24 65.199,26.625C64.597,26.317 63.93,26.156 63.253,26.156C62.576,26.156 61.909,26.317 61.306,26.625Z" fill="#F0F0F0"/>
<path d="M79.523,37.857C80.146,37.32 80.769,37.538 80.924,38.348C80.982,38.791 80.934,39.242 80.785,39.664C80.636,40.086 80.391,40.467 80.068,40.777C79.968,40.91 79.83,41.007 79.671,41.055C79.513,41.103 79.343,41.1 79.187,41.045C79.031,40.991 78.896,40.888 78.802,40.751C78.709,40.615 78.661,40.452 78.666,40.286C78.606,39.843 78.653,39.391 78.801,38.968C78.95,38.546 79.198,38.165 79.523,37.857Z" fill="#FF5904"/>
<path d="M86.787,41.293L80.433,37.625L79.047,40.981L85.409,44.649L86.787,41.293Z" fill="#FF5904"/>
<path d="M85.818,41.515C85.917,41.383 86.056,41.285 86.215,41.237C86.373,41.189 86.542,41.192 86.699,41.247C86.855,41.302 86.99,41.405 87.083,41.541C87.177,41.677 87.225,41.84 87.22,42.006C87.279,42.449 87.232,42.901 87.083,43.323C86.935,43.746 86.688,44.127 86.363,44.435C85.74,44.972 85.117,44.747 84.962,43.945C84.904,43.501 84.951,43.05 85.1,42.628C85.248,42.205 85.495,41.824 85.818,41.515Z" fill="#FF5904"/>
<path d="M85.818,41.515C85.917,41.383 86.056,41.285 86.215,41.237C86.373,41.189 86.542,41.192 86.699,41.247C86.855,41.302 86.99,41.405 87.083,41.541C87.177,41.677 87.225,41.84 87.22,42.006C87.279,42.449 87.232,42.901 87.083,43.323C86.935,43.746 86.688,44.127 86.363,44.435C85.74,44.972 85.117,44.747 84.962,43.945C84.904,43.501 84.951,43.05 85.1,42.628C85.248,42.205 85.495,41.824 85.818,41.515Z" fill="#000000"/>
<path d="M31.584,95.428C31.584,95.584 31.584,95.724 31.584,95.88C31.584,96.192 31.584,96.511 31.584,96.83C30.322,96.293 28.679,96.472 26.912,97.515C22.948,99.805 19.732,105.372 19.732,109.974C19.732,112.108 20.433,113.65 21.585,114.452C21.262,114.682 20.926,114.895 20.581,115.09L20.215,115.277L19.117,119.412L12.763,115.869C10.754,114.709 9.516,112.233 9.516,108.697C9.516,101.635 14.468,93.053 20.581,89.518C23.602,87.774 26.335,87.595 28.368,88.74L34.597,92.228L34.73,92.306L31.584,95.428Z" fill="#353537"/>
<path d="M12.633,83.078L7.891,99.516L17.383,104.998L22.296,88.661L12.633,83.078Z" fill="#FF5904"/>
<g opacity="0.2">
<path d="M12.633,83.078L7.891,99.516L17.383,104.998L22.296,88.661L12.633,83.078Z" fill="#000000"/>
</g>
<path d="M12.625,83.081C12.625,83.081 18.006,87.652 22.289,88.664C27.911,90.027 36.85,90.175 40.019,90.393C44.863,90.728 48.523,90.72 50.236,90.105C52.455,89.326 58.42,85.861 60.071,84.911C63.232,83.089 64.579,75.917 55.866,73.955C49.974,72.734 43.973,72.121 37.956,72.125L12.625,83.081Z" fill="#FF5904"/>
<path d="M66.289,80.971C66.019,81.649 65.836,82.358 65.744,83.082C65.494,83.834 65.435,84.637 65.573,85.418C66.167,86.399 67.101,87.128 68.197,87.466C68.987,87.641 69.805,87.652 70.599,87.498C71.394,87.344 72.148,87.028 72.815,86.57C74.427,85.605 75.642,84.437 77.931,83.782C79.567,83.436 81.109,82.737 82.447,81.734C83.717,80.714 85.414,77.896 82.985,77.241C80.555,76.587 75.276,78.892 70.463,79.103L66.289,80.971Z" fill="#353537"/>
<path d="M66.297,77.969L66.297,81.566C66.444,81.971 66.7,82.326 67.037,82.594C67.374,82.862 67.778,83.032 68.205,83.085C68.596,83.142 68.995,83.099 69.365,82.96C69.948,82.737 70.454,82.349 70.819,81.843C71.184,81.336 71.393,80.734 71.421,80.11L71.561,77.969L66.297,77.969Z" fill="#FFA8A7"/>
<path d="M73.144,55.719C73.144,60.196 71.883,79.554 71.883,79.554C71.883,79.554 70.053,81.891 66.074,79.554L64.734,57.922L73.144,55.719Z" fill="#353537"/>
<path d="M52.259,74.788L64.718,67.609C65.229,67.341 65.656,66.938 65.954,66.445C66.253,65.952 66.41,65.386 66.41,64.81C66.41,64.233 66.253,63.667 65.954,63.174C65.656,62.68 65.229,62.278 64.718,62.01L55.436,56.653C54.914,56.388 54.336,56.25 53.75,56.25C53.164,56.25 52.587,56.388 52.064,56.653L39.605,63.832C39.097,64.102 38.672,64.505 38.375,64.998C38.079,65.492 37.922,66.056 37.922,66.632C37.922,67.207 38.079,67.772 38.375,68.265C38.672,68.758 39.097,69.161 39.605,69.431L48.887,74.788C49.41,75.053 49.987,75.191 50.573,75.191C51.159,75.191 51.736,75.053 52.259,74.788Z" fill="#FF5904"/>
<path d="M52.259,74.788L64.718,67.609C65.229,67.341 65.656,66.938 65.954,66.445C66.253,65.952 66.41,65.386 66.41,64.81C66.41,64.233 66.253,63.667 65.954,63.174C65.656,62.68 65.229,62.278 64.718,62.01L55.436,56.653C54.914,56.388 54.336,56.25 53.75,56.25C53.164,56.25 52.587,56.388 52.064,56.653L39.605,63.832C39.097,64.102 38.672,64.505 38.375,64.998C38.079,65.492 37.922,66.056 37.922,66.632C37.922,67.207 38.079,67.772 38.375,68.265C38.672,68.758 39.097,69.161 39.605,69.431L48.887,74.788C49.41,75.053 49.987,75.191 50.573,75.191C51.159,75.191 51.736,75.053 52.259,74.788Z" fill="#F4F4F4"/>
<path d="M39.619,65.779L48.901,71.136C49.424,71.401 50.002,71.539 50.587,71.539C51.173,71.539 51.751,71.401 52.273,71.136L64.732,63.957C64.936,63.888 65.112,63.757 65.237,63.582C65.362,63.408 65.43,63.198 65.43,62.983C65.43,62.769 65.362,62.559 65.237,62.385C65.112,62.21 64.936,62.079 64.732,62.01L55.45,56.653C54.928,56.388 54.35,56.25 53.764,56.25C53.179,56.25 52.601,56.388 52.079,56.653L39.619,63.832C39.416,63.901 39.239,64.032 39.114,64.207C38.989,64.381 38.922,64.591 38.922,64.806C38.922,65.02 38.989,65.23 39.114,65.404C39.239,65.579 39.416,65.71 39.619,65.779Z" fill="#FF5904"/>
<path d="M47.215,18.134L45.634,24.651L38.844,25.064L40.308,16.031L47.215,18.134Z" fill="#FFA8A7"/>
<path d="M53.833,13.219C53.833,13.219 54.611,15.975 54.292,16.131C53.802,16.206 53.303,16.206 52.813,16.131L53.833,13.219Z" fill="#F28F8F"/>
<path d="M52.53,4.427C53.62,5.712 54.617,7.822 53.846,12.993C53.005,18.646 51.961,19.3 51.12,19.845C50.023,20.562 45.631,20.18 44.393,19.277C42.905,18.195 40.608,14.761 40.063,11.373C39.425,7.394 40.756,2.979 43.684,2.224C47.803,1.157 51.603,3.337 52.53,4.427Z" fill="#FFA8A7"/>
<path d="M39.609,17.861C40.66,18.952 42.817,19.247 44.172,19.497C45.527,19.746 49.693,20.018 50.923,17.052C52.154,14.085 51.313,11.951 52.823,11.235C54.334,10.518 55.845,10.051 56.242,9.677C56.639,9.304 56.647,4.421 52.59,1.89C48.533,-0.64 42.319,-1.224 38.231,3.907C35.132,7.871 36.401,14.513 39.609,17.861Z" fill="#353537"/>
<path d="M43.719,19.552C44.77,19.646 48.095,19.124 49.1,17.753C50.104,16.383 50.509,13.93 50.657,12.645C50.67,12.139 50.856,11.653 51.183,11.266C51.51,10.88 51.959,10.616 52.456,10.519C53.46,10.2 55.679,9.11 55.679,9.11L55.679,8.502C56.395,8.458 57.113,8.458 57.829,8.502C58.296,8.588 58.039,9.281 56.855,9.881C55.672,10.48 52.424,11.641 51.926,12.038C51.428,12.435 51.194,14.109 50.797,15.892C50.4,17.675 49.17,20.339 43.719,19.552Z" fill="#353537"/>
<path d="M53.053,26.904L56.946,24.669C57.32,23.54 56.721,22.971 55.662,23.042C54.603,23.112 54.93,22.084 54.283,21.796C53.435,21.406 52.952,21.624 52.57,21.445C52.189,21.266 52.025,20.815 51.527,20.76C49.3,20.55 47.781,23.727 47.781,23.727L53.053,26.904Z" fill="#F28F8F"/>
<path d="M26.625,55.503C26.625,55.503 43.826,46.977 46.824,45.598C49.822,44.22 54.525,42.219 57.025,42.219C58.002,42.299 58.917,42.73 59.602,43.431C60.287,44.131 60.696,45.056 60.755,46.034C60.787,47.536 60.701,49.039 60.498,50.527C55.772,52.078 50.943,53.293 46.046,54.164C38.889,55.41 26.625,55.503 26.625,55.503Z" fill="#353537"/>
<path d="M28.486,50.579C28.486,54.114 28.151,57.79 29.623,60.375C31.094,62.96 39.068,68.941 46.575,67.687C51.481,66.861 66.042,60.157 66.042,60.157C66.042,60.157 73.105,57.564 73.136,55.718C73.183,53.001 72.996,49.17 66.836,49.333C61.222,49.481 44.659,52.939 44.659,52.939L28.486,50.579Z" fill="#353537"/>
<path d="M33.284,22.558C35.948,19.778 37.746,19.545 39.023,19.887C41.958,20.727 44.8,21.865 47.503,23.282C47.503,23.282 46.476,33.234 51.342,36.099L51.342,51.611C51.342,51.611 51.194,53.293 49.076,54.967C47.207,56.439 42.979,57.926 37.933,57.506C31.937,57.007 28.48,50.567 28.48,50.567C28.48,50.567 28.324,37.883 29.173,32.845C30.17,26.965 32.366,23.524 33.284,22.558Z" fill="#353537"/>
<path d="M51.355,36.873C51.355,36.873 48.411,34.537 47.516,31.5C47.516,31.5 47.866,36.266 51.355,38.68L51.355,36.873Z" fill="#353537"/>
<path d="M78.605,44.169C80.003,44.226 81.378,43.8 82.498,42.962C82.498,42.962 83.853,40.33 85.52,40.556C85.52,40.556 85.816,39.434 85.13,39.068C84.445,38.702 84.149,38.804 83.869,38.414C83.588,38.025 83.557,37.301 82.311,37.301C81.797,37.301 81.868,36.935 80.622,36.787C79.376,36.639 78.145,39.512 77.234,39.512L78.605,44.169Z" fill="#FFA8A7"/>
<path d="M47.518,23.281C51.793,23.943 53.342,25.212 54.9,26.653C56.457,28.094 65.988,37.656 65.988,37.656L77.528,39.314C78.135,39.806 78.58,40.467 78.806,41.214C79.273,42.569 78.852,44.049 78.408,44.399C78.408,44.399 66.962,45.085 64.711,44.656C62.461,44.228 51.318,36.83 51.318,36.83C50.253,36.027 49.359,35.019 48.691,33.865C48.022,32.71 47.591,31.434 47.424,30.11C46.7,25.415 47.518,23.281 47.518,23.281Z" fill="#353537"/>
<path d="M37.253,64.408L19.568,85.993C19.372,86.018 19.175,86.031 18.977,86.032C18.275,86.043 17.582,85.88 16.96,85.557L2.025,76.929L1.012,76.345C0.459,76.026 0,74.717 0,73.425L0,69.788C-0.001,66.053 0.982,62.383 2.849,59.148C4.716,55.912 7.402,53.225 10.637,51.357L28.469,41.063L47.446,52.019L37.253,64.408Z" fill="#FF5904"/>
<g opacity="0.1">
<path d="M37.253,64.408L19.568,85.993C19.372,86.018 19.175,86.031 18.977,86.032C18.275,86.043 17.582,85.88 16.96,85.557L2.025,76.929L1.012,76.345C0.459,76.026 0,74.717 0,73.425L0,69.788C-0.001,66.053 0.982,62.383 2.849,59.148C4.716,55.912 7.402,53.225 10.637,51.357L28.469,41.063L47.446,52.019L37.253,64.408Z" fill="#000000"/>
</g>
<path d="M31.155,71.86L47.422,52.034L28.445,41.078L10.621,51.365C8.315,52.699 6.281,54.456 4.625,56.543L31.155,71.86Z" fill="#FF5904"/>
<path d="M47.422,67.955C47.422,69.248 46.97,70.556 46.41,70.876L45.398,71.46L20.978,85.562C20.533,85.801 20.047,85.952 19.545,86.005C19.349,86.03 19.151,86.043 18.953,86.044L18.953,80.757C18.953,77.021 19.936,73.35 21.805,70.114C23.673,66.879 26.361,64.192 29.598,62.326L31.615,61.165L47.422,52.031L47.422,67.955Z" fill="#FF5904"/>
<g opacity="0.2">
<path d="M47.422,67.971C47.422,69.264 46.97,70.572 46.41,70.891L45.398,71.475L20.978,85.577C20.533,85.817 20.047,85.967 19.545,86.021C19.349,86.046 19.151,86.059 18.953,86.06L18.953,80.773C18.953,77.036 19.936,73.366 21.805,70.13C23.673,66.894 26.361,64.208 29.598,62.341L31.615,61.181L47.422,52.047L47.422,67.971Z" fill="#000000"/>
</g>
<path d="M52.655,94.661L62.21,94.63L75.884,86.734L62.49,96.414L52.406,96.554L52.655,94.661Z" fill="#E0E0E0"/>
<path d="M29.468,108.25C29.468,108.25 46.692,101.756 48.156,100.993C49.874,99.94 51.505,98.75 53.031,97.434C53.342,97.022 53.489,96.509 53.441,95.994C53.393,95.48 53.156,95.002 52.774,94.654C52.774,94.654 45.766,94.335 43.967,94.888C42.962,95.191 26.75,100.393 26.75,100.393L29.468,108.25Z" fill="#E0E0E0"/>
<path d="M28.702,100.995C27.277,99.773 25.844,100.279 25.493,102.117C25.36,103.131 25.467,104.162 25.806,105.126C26.146,106.091 26.708,106.962 27.448,107.669C28.873,108.891 30.306,108.393 30.656,106.547C30.789,105.533 30.682,104.502 30.342,103.538C30.003,102.573 29.441,101.702 28.702,100.995Z" fill="#353537"/>
</svg>
