<svg width="58" height="64" viewBox="0 0 58 64" fill="none" xmlns="http://www.w3.org/2000/svg" xmlns:xlink="http://www.w3.org/1999/xlink">
<path d="M9.995,59.82L14.995,56.929L13.329,55.969L8.328,58.855L9.995,59.82Z" fill="#1D7430"/>
<path d="M19.979,54.038L24.984,51.148L23.313,50.188L18.313,53.074L19.979,54.038Z" fill="#1D7430"/>
<path d="M17.955,52.862C17.955,55.276 16.264,58.199 14.174,59.431C13.062,60.075 12.06,60.096 11.37,59.611C11.092,59.393 10.864,59.117 10.7,58.804C10.537,58.49 10.442,58.146 10.422,57.792C10.562,57.727 10.699,57.654 10.832,57.575C12.922,56.372 14.614,53.437 14.614,51.006C14.616,50.826 14.605,50.647 14.581,50.468C14.894,50.303 15.238,50.204 15.592,50.178C15.945,50.153 16.3,50.201 16.633,50.321C17.455,50.665 17.955,51.556 17.955,52.862Z" fill="#263238"/>
<path d="M18.272,47.916L18.203,47.875C17.152,47.316 15.739,47.419 14.15,48.33C10.928,50.19 8.313,54.714 8.313,58.438C8.313,60.31 8.973,61.62 10.041,62.227C11.108,62.835 12.549,62.732 14.146,61.817C17.369,59.957 19.98,55.429 19.98,51.705C19.984,49.833 19.336,48.523 18.272,47.916ZM14.167,59.436C13.05,60.08 12.048,60.101 11.359,59.612C10.751,59.202 10.382,58.38 10.382,57.251C10.382,54.842 12.077,51.914 14.167,50.683C15.119,50.133 15.986,50.038 16.63,50.321C17.427,50.662 17.927,51.553 17.927,52.867C17.932,55.297 16.24,58.233 14.15,59.444L14.167,59.436Z" fill="#353537"/>
<path d="M16.849,50.421L16.803,50.396C16.122,50.031 15.198,50.101 14.176,50.688C12.086,51.895 10.391,54.83 10.391,57.256C10.391,58.488 10.801,59.309 11.511,59.72C12.222,60.13 13.154,60.048 14.176,59.449C16.266,58.242 17.957,55.306 17.957,52.88C17.957,51.665 17.534,50.811 16.849,50.421ZM14.176,58.57C13.281,59.087 12.476,59.104 11.918,58.71C11.433,58.369 11.134,57.716 11.134,56.813C11.191,55.758 11.497,54.731 12.025,53.816C12.554,52.901 13.291,52.123 14.176,51.546C14.463,51.345 14.794,51.214 15.141,51.163C15.488,51.113 15.842,51.144 16.175,51.254C16.816,51.529 17.218,52.244 17.218,53.307C17.161,54.362 16.856,55.388 16.327,56.303C15.798,57.217 15.061,57.994 14.176,58.57Z" fill="#1D7430"/>
<path d="M30.011,48.257L35.015,45.371L33.348,44.406L28.344,47.296L30.011,48.257Z" fill="#1D7430"/>
<path d="M40.015,42.492L45.015,39.605L43.348,38.641L38.344,41.531L40.015,42.492Z" fill="#1D7430"/>
<path d="M50.015,36.695L55.015,33.809L53.348,32.844L48.344,35.734L50.015,36.695Z" fill="#1D7430"/>
<path d="M25.117,9.852C25.17,9.782 25.243,9.731 25.326,9.705C25.41,9.68 25.499,9.682 25.582,9.711C25.664,9.739 25.735,9.794 25.784,9.866C25.834,9.938 25.859,10.023 25.856,10.111C25.888,10.344 25.865,10.582 25.787,10.805C25.709,11.028 25.579,11.229 25.409,11.392C25.08,11.675 24.748,11.56 24.67,11.133C24.638,10.899 24.662,10.661 24.74,10.439C24.818,10.216 24.947,10.015 25.117,9.852Z" fill="#1D7430"/>
<path d="M28.987,11.668L25.641,9.734L24.906,11.504L28.265,13.442L28.987,11.668Z" fill="#1D7430"/>
<path d="M28.464,11.777C28.792,11.498 29.121,11.613 29.203,12.04C29.233,12.273 29.208,12.51 29.129,12.732C29.051,12.954 28.921,13.154 28.751,13.317C28.423,13.6 28.09,13.485 28.012,13.058C27.982,12.824 28.008,12.586 28.086,12.364C28.164,12.142 28.294,11.941 28.464,11.777Z" fill="#1D7430"/>
<path d="M54.155,27.955C54.155,28.037 54.155,28.111 54.155,28.193C54.155,28.357 54.155,28.526 54.155,28.694C53.49,28.411 52.624,28.505 51.672,29.055C49.582,30.262 47.886,33.198 47.886,35.624C47.886,36.749 48.256,37.562 48.863,37.985C48.693,38.106 48.516,38.218 48.334,38.321L48.141,38.42L47.562,40.6L44.212,38.732C43.153,38.12 42.5,36.815 42.5,34.951C42.5,31.227 45.111,26.703 48.334,24.839C49.927,23.919 51.368,23.825 52.439,24.429L55.724,26.268L55.793,26.309L54.155,27.955Z" fill="#353537"/>
<path d="M55.819,26.259L55.749,26.218C54.698,25.66 53.286,25.763 51.697,26.674C48.475,28.534 45.859,33.058 45.859,36.782C45.859,38.654 46.52,39.963 47.588,40.571C48.655,41.179 50.096,41.076 51.693,40.16C54.916,38.301 57.527,33.772 57.527,30.049C57.539,28.177 56.878,26.867 55.819,26.259ZM51.714,37.779C50.597,38.424 49.595,38.444 48.906,37.956C48.298,37.545 47.929,36.724 47.929,35.595C47.929,33.185 49.624,30.258 51.714,29.026C52.666,28.476 53.532,28.382 54.198,28.665C54.994,29.006 55.495,29.897 55.495,31.211C55.487,33.641 53.787,36.576 51.697,37.779L51.714,37.779Z" fill="#353537"/>
<path d="M55.455,31.237C55.455,33.651 53.764,36.574 51.674,37.806C50.562,38.45 49.56,38.471 48.87,37.986C48.592,37.768 48.364,37.492 48.2,37.179C48.037,36.865 47.942,36.521 47.922,36.167C48.062,36.102 48.199,36.029 48.332,35.95C50.422,34.747 52.114,31.812 52.114,29.381C52.116,29.201 52.105,29.022 52.081,28.843C52.394,28.678 52.738,28.579 53.092,28.553C53.445,28.528 53.8,28.576 54.133,28.696C54.946,29.04 55.455,29.923 55.455,31.237Z" fill="#263238"/>
<path d="M54.349,28.798L54.303,28.769C53.622,28.408 52.694,28.474 51.676,29.065C49.586,30.272 47.891,33.203 47.891,35.634C47.891,36.865 48.301,37.686 49.011,38.097C49.722,38.507 50.654,38.421 51.676,37.822C53.766,36.619 55.457,33.683 55.457,31.253C55.465,30.042 55.055,29.192 54.349,28.798ZM51.676,36.943C50.777,37.465 49.972,37.481 49.418,37.087C48.929,36.746 48.634,36.093 48.634,35.19C48.691,34.135 48.997,33.108 49.525,32.193C50.054,31.278 50.791,30.5 51.676,29.923C52.439,29.479 53.137,29.401 53.671,29.631C54.312,29.906 54.714,30.621 54.714,31.684C54.657,32.738 54.352,33.763 53.824,34.677C53.296,35.591 52.56,36.367 51.676,36.943Z" fill="#1D7430"/>
<path d="M48.348,32.487L57.79,27.035C58.887,26.399 55.327,22.684 52.679,22.433C51.221,22.257 49.743,22.397 48.344,22.844C48.344,22.844 50.36,25.426 50.015,26.892C49.67,28.357 48.348,32.487 48.348,32.487Z" fill="#1D7430"/>
<path d="M35.007,17.078C35.007,17.078 48.695,23.984 49.286,24.398C49.877,24.813 49.286,29.629 48.346,32.486C47.405,35.343 45.96,39.736 45.382,40.968C44.803,42.199 44.047,42.659 42.66,43.46L32.807,49.154L19.468,50.78L14.172,47.906L15.551,39.239C15.551,39.239 29.727,31.698 31.669,30.577C33.611,29.456 39.355,24.197 35.007,17.078Z" fill="#1D7430"/>
<g opacity="0.2">
<path d="M35.007,17.078C35.007,17.078 48.695,23.984 49.286,24.398C49.877,24.813 49.286,29.629 48.346,32.486C47.405,35.343 45.96,39.736 45.382,40.968C44.803,42.199 44.047,42.659 42.66,43.46L32.807,49.154L19.468,50.78L14.172,47.906L15.551,39.239C15.551,39.239 29.727,31.698 31.669,30.577C33.611,29.456 39.355,24.197 35.007,17.078Z" fill="#000000"/>
</g>
<path d="M49.546,30.809C50.777,27.5 51.697,24.757 51.541,22.905C51.352,20.709 50.531,18.915 46.91,18.012C43.289,17.109 38.227,17.125 38.227,17.125L36.688,18.016C36.688,18.016 47.099,24.051 48.281,24.708C49.004,25.118 49.776,26.929 48.359,32.459L48.602,32.598C48.721,32.672 49.152,31.872 49.546,30.809Z" fill="#1D7430"/>
<g opacity="0.3">
<path d="M49.546,30.809C50.777,27.5 51.697,24.757 51.541,22.905C51.352,20.709 50.531,18.915 46.91,18.012C43.289,17.109 38.227,17.125 38.227,17.125L36.688,18.016C36.688,18.016 47.099,24.051 48.281,24.708C49.004,25.118 49.776,26.929 48.359,32.459L48.602,32.598C48.721,32.672 49.152,31.872 49.546,30.809Z" fill="#F4F4F4"/>
</g>
<path d="M41.67,20.921L43.353,19.96C43.353,19.96 43.255,14.126 40.8,12.71C38.345,11.294 30.011,12.258 30.011,12.258L28.344,13.219L41.67,20.921Z" fill="#1D7430"/>
<path d="M36.21,14.063C35.409,14.527 35.409,15.275 36.21,15.734C36.659,15.963 37.155,16.082 37.659,16.082C38.163,16.082 38.659,15.963 39.108,15.734C39.905,15.275 39.905,14.523 39.108,14.063C38.659,13.837 38.162,13.719 37.659,13.719C37.156,13.719 36.659,13.837 36.21,14.063Z" fill="#F0F0F0"/>
<path d="M38.766,16.838C38.203,17.166 38.203,17.696 38.766,18.02C39.083,18.183 39.435,18.268 39.792,18.268C40.149,18.268 40.501,18.183 40.818,18.02C41.385,17.696 41.385,17.166 40.818,16.838C40.5,16.677 40.148,16.594 39.792,16.594C39.435,16.594 39.084,16.677 38.766,16.838Z" fill="#F0F0F0"/>
<path d="M32.316,13.294C31.749,13.618 31.749,14.148 32.316,14.476C32.634,14.637 32.985,14.721 33.342,14.721C33.698,14.721 34.05,14.637 34.368,14.476C34.935,14.148 34.935,13.618 34.368,13.294C34.051,13.132 33.699,13.047 33.342,13.047C32.985,13.047 32.633,13.132 32.316,13.294Z" fill="#F0F0F0"/>
<path d="M41.934,19.202C42.262,18.919 42.591,19.034 42.673,19.461C42.703,19.695 42.678,19.933 42.599,20.155C42.521,20.377 42.391,20.578 42.221,20.742C42.169,20.812 42.096,20.863 42.012,20.888C41.929,20.914 41.839,20.912 41.757,20.883C41.675,20.854 41.603,20.8 41.554,20.728C41.505,20.656 41.479,20.57 41.482,20.483C41.451,20.249 41.475,20.011 41.554,19.788C41.632,19.565 41.762,19.365 41.934,19.202Z" fill="#1D7430"/>
<path d="M45.768,21.043L42.418,19.109L41.688,20.879L45.042,22.812L45.768,21.043Z" fill="#1D7430"/>
<path d="M45.23,21.164C45.282,21.095 45.355,21.043 45.439,21.018C45.522,20.992 45.612,20.994 45.694,21.023C45.777,21.052 45.848,21.106 45.897,21.178C45.946,21.25 45.972,21.336 45.969,21.423C46,21.657 45.976,21.895 45.897,22.118C45.819,22.34 45.688,22.541 45.517,22.704C45.189,22.987 44.86,22.868 44.778,22.445C44.748,22.211 44.773,21.974 44.851,21.751C44.93,21.528 45.059,21.328 45.23,21.164Z" fill="#1D7430"/>
<path d="M45.23,21.164C45.282,21.095 45.355,21.043 45.439,21.018C45.522,20.992 45.612,20.994 45.694,21.023C45.777,21.052 45.848,21.106 45.897,21.178C45.946,21.25 45.972,21.336 45.969,21.423C46,21.657 45.976,21.895 45.897,22.118C45.819,22.34 45.688,22.541 45.517,22.704C45.189,22.987 44.86,22.868 44.778,22.445C44.748,22.211 44.773,21.974 44.851,21.751C44.93,21.528 45.059,21.328 45.23,21.164Z" fill="#000000"/>
<path d="M16.65,49.58C16.65,49.662 16.65,49.736 16.65,49.818C16.65,49.982 16.65,50.151 16.65,50.319C15.985,50.036 15.119,50.13 14.187,50.68C12.098,51.887 10.402,54.823 10.402,57.249C10.402,58.374 10.771,59.187 11.379,59.61C11.209,59.731 11.032,59.843 10.849,59.946L10.657,60.045L10.078,62.225L6.728,60.357C5.668,59.745 5.016,58.44 5.016,56.576C5.016,52.852 7.627,48.328 10.849,46.464C12.442,45.544 13.883,45.45 14.955,46.054L18.239,47.893L18.309,47.934L16.65,49.58Z" fill="#353537"/>
<path d="M6.672,43.063L4.172,51.729L9.176,54.619L11.767,46.006L6.672,43.063Z" fill="#1D7430"/>
<g opacity="0.2">
<path d="M6.672,43.063L4.172,51.729L9.176,54.619L11.767,46.006L6.672,43.063Z" fill="#000000"/>
</g>
<path d="M6.672,43.073C6.672,43.073 9.509,45.483 11.767,46.017C14.731,46.735 19.444,46.813 21.115,46.928C23.668,47.105 25.598,47.101 26.501,46.776C27.671,46.366 30.816,44.539 31.686,44.038C33.353,43.077 34.063,39.296 29.469,38.262C26.363,37.618 23.199,37.295 20.027,37.297L6.672,43.073Z" fill="#1D7430"/>
<path d="M34.963,41.95C34.82,42.307 34.724,42.681 34.676,43.062C34.543,43.459 34.512,43.882 34.585,44.294C34.898,44.812 35.391,45.196 35.969,45.374C36.385,45.466 36.816,45.472 37.235,45.391C37.654,45.31 38.052,45.143 38.403,44.902C39.253,44.393 39.894,43.777 41.101,43.432C41.964,43.249 42.776,42.881 43.482,42.352C44.151,41.814 45.046,40.328 43.765,39.983C42.484,39.638 39.701,40.854 37.164,40.964L34.963,41.95Z" fill="#353537"/>
<path d="M34.953,40.359L34.953,42.256C35.031,42.469 35.166,42.657 35.343,42.798C35.521,42.939 35.734,43.029 35.959,43.057C36.165,43.087 36.376,43.064 36.571,42.991C36.878,42.874 37.145,42.669 37.337,42.402C37.53,42.135 37.64,41.817 37.655,41.488L37.728,40.359L34.953,40.359Z" fill="#FFA8A7"/>
<path d="M38.559,28.641C38.559,31.001 37.894,41.207 37.894,41.207C37.894,41.207 36.929,42.439 34.831,41.207L34.125,29.802L38.559,28.641Z" fill="#353537"/>
<path d="M27.559,38.68L34.128,34.895C34.397,34.754 34.622,34.542 34.78,34.281C34.937,34.021 35.02,33.723 35.02,33.419C35.02,33.115 34.937,32.817 34.78,32.557C34.622,32.297 34.397,32.084 34.128,31.943L29.234,29.119C28.958,28.979 28.654,28.906 28.345,28.906C28.036,28.906 27.732,28.979 27.456,29.119L20.888,32.904C20.62,33.046 20.395,33.259 20.239,33.519C20.083,33.779 20,34.076 20,34.38C20,34.683 20.083,34.981 20.239,35.241C20.395,35.501 20.62,35.713 20.888,35.856L25.781,38.68C26.057,38.82 26.361,38.893 26.67,38.893C26.979,38.893 27.283,38.82 27.559,38.68Z" fill="#1D7430"/>
<path d="M27.559,38.68L34.128,34.895C34.397,34.754 34.622,34.542 34.78,34.281C34.937,34.021 35.02,33.723 35.02,33.419C35.02,33.115 34.937,32.817 34.78,32.557C34.622,32.297 34.397,32.084 34.128,31.943L29.234,29.119C28.958,28.979 28.654,28.906 28.345,28.906C28.036,28.906 27.732,28.979 27.456,29.119L20.888,32.904C20.62,33.046 20.395,33.259 20.239,33.519C20.083,33.779 20,34.076 20,34.38C20,34.683 20.083,34.981 20.239,35.241C20.395,35.501 20.62,35.713 20.888,35.856L25.781,38.68C26.057,38.82 26.361,38.893 26.67,38.893C26.979,38.893 27.283,38.82 27.559,38.68Z" fill="#F4F4F4"/>
<path d="M20.883,33.93L25.777,36.755C26.053,36.894 26.357,36.967 26.666,36.967C26.975,36.967 27.279,36.894 27.555,36.755L34.124,32.969C34.231,32.933 34.324,32.864 34.39,32.772C34.456,32.68 34.491,32.57 34.491,32.456C34.491,32.343 34.456,32.233 34.39,32.141C34.324,32.049 34.231,31.98 34.124,31.943L29.23,29.119C28.954,28.979 28.65,28.906 28.341,28.906C28.032,28.906 27.728,28.979 27.452,29.119L20.883,32.904C20.776,32.94 20.683,33.009 20.617,33.101C20.551,33.193 20.516,33.304 20.516,33.417C20.516,33.53 20.551,33.641 20.617,33.733C20.683,33.825 20.776,33.894 20.883,33.93Z" fill="#1D7430"/>
<path d="M24.898,8.827L24.064,12.263L20.484,12.481L21.256,7.719L24.898,8.827Z" fill="#FFA8A7"/>
<path d="M28.382,6.234C28.382,6.234 28.792,7.688 28.624,7.77C28.365,7.809 28.102,7.809 27.844,7.77L28.382,6.234Z" fill="#F28F8F"/>
<path d="M27.687,1.61C28.262,2.287 28.787,3.4 28.381,6.126C27.937,9.106 27.387,9.451 26.944,9.738C26.365,10.116 24.049,9.915 23.397,9.439C22.612,8.868 21.401,7.058 21.114,5.272C20.777,3.174 21.479,0.846 23.023,0.448C25.195,-0.115 27.198,1.035 27.687,1.61Z" fill="#FFA8A7"/>
<path d="M20.883,8.683C21.437,9.257 22.574,9.413 23.288,9.545C24.003,9.676 26.199,9.82 26.848,8.256C27.497,6.691 27.053,5.567 27.85,5.189C28.646,4.811 29.443,4.565 29.652,4.368C29.861,4.171 29.865,1.597 27.726,0.262C25.588,-1.072 22.311,-1.38 20.156,1.326C18.522,3.415 19.191,6.917 20.883,8.683Z" fill="#353537"/>
<path d="M23.063,9.578C23.617,9.627 25.37,9.352 25.899,8.629C26.429,7.907 26.642,6.614 26.72,5.936C26.728,5.669 26.825,5.413 26.998,5.209C27.17,5.006 27.407,4.867 27.669,4.815C28.198,4.647 29.368,4.072 29.368,4.072L29.368,3.752C29.746,3.728 30.124,3.728 30.502,3.752C30.748,3.797 30.612,4.163 29.988,4.479C29.364,4.795 27.652,5.407 27.39,5.616C27.127,5.825 27.004,6.708 26.794,7.648C26.585,8.588 25.936,9.992 23.063,9.578Z" fill="#353537"/>
<path d="M27.967,13.432L30.02,12.254C30.217,11.658 29.901,11.359 29.342,11.396C28.784,11.433 28.956,10.891 28.616,10.739C28.168,10.534 27.914,10.648 27.712,10.554C27.511,10.46 27.425,10.222 27.162,10.193C25.988,10.082 25.188,11.757 25.188,11.757L27.967,13.432Z" fill="#F28F8F"/>
<path d="M14.031,28.52C14.031,28.52 23.1,24.024 24.681,23.297C26.261,22.571 28.741,21.516 30.059,21.516C30.574,21.558 31.056,21.785 31.418,22.155C31.779,22.524 31.995,23.011 32.025,23.527C32.043,24.319 31.997,25.111 31.89,25.896C29.398,26.714 26.852,27.354 24.27,27.813C20.497,28.47 14.031,28.52 14.031,28.52Z" fill="#353537"/>
<path d="M15.017,25.925C15.017,27.789 14.841,29.727 15.617,31.09C16.393,32.453 20.597,35.606 24.554,34.945C27.141,34.51 34.818,30.975 34.818,30.975C34.818,30.975 38.542,29.608 38.558,28.635C38.583,27.202 38.484,25.182 35.237,25.268C32.277,25.346 23.544,27.169 23.544,27.169L15.017,25.925Z" fill="#353537"/>
<path d="M17.539,11.16C18.943,9.694 19.891,9.571 20.565,9.752C22.112,10.194 23.61,10.794 25.036,11.542C25.036,11.542 24.494,16.788 27.06,18.299L27.06,26.477C27.06,26.477 26.982,27.364 25.865,28.247C24.88,29.023 22.65,29.807 19.99,29.585C16.829,29.322 15.006,25.927 15.006,25.927C15.006,25.927 14.924,19.239 15.371,16.583C15.897,13.483 17.055,11.669 17.539,11.16Z" fill="#353537"/>
<path d="M27.071,18.692C27.071,18.692 25.519,17.461 25.047,15.859C25.047,15.859 25.232,18.372 27.071,19.645L27.071,18.692Z" fill="#353537"/>
<path d="M41.457,22.551C42.194,22.581 42.919,22.357 43.51,21.915C43.51,21.915 44.224,20.527 45.103,20.646C45.103,20.646 45.259,20.055 44.897,19.862C44.536,19.669 44.38,19.722 44.232,19.517C44.084,19.312 44.068,18.93 43.411,18.93C43.14,18.93 43.177,18.737 42.52,18.659C41.863,18.581 41.215,20.096 40.734,20.096L41.457,22.551Z" fill="#FFA8A7"/>
<path d="M25.051,11.531C27.305,11.88 28.122,12.549 28.943,13.309C29.764,14.068 34.789,19.11 34.789,19.11L40.873,19.984C41.193,20.243 41.428,20.592 41.547,20.986C41.793,21.7 41.571,22.481 41.337,22.665C41.337,22.665 35.302,23.027 34.116,22.801C32.929,22.575 27.054,18.675 27.054,18.675C26.493,18.251 26.022,17.72 25.669,17.111C25.317,16.503 25.09,15.829 25.002,15.132C24.62,12.656 25.051,11.531 25.051,11.531Z" fill="#353537"/>
<path d="M19.641,33.23L10.317,44.61C10.214,44.623 10.109,44.63 10.005,44.631C9.635,44.637 9.27,44.551 8.942,44.38L1.067,39.832L0.534,39.524C0.242,39.355 0,38.666 0,37.984L0,36.067C0,34.097 0.518,32.163 1.502,30.457C2.487,28.751 3.903,27.334 5.608,26.349L15.01,20.922L25.015,26.698L19.641,33.23Z" fill="#1D7430"/>
<g opacity="0.1">
<path d="M19.641,33.23L10.317,44.61C10.214,44.623 10.109,44.63 10.005,44.631C9.635,44.637 9.27,44.551 8.942,44.38L1.067,39.832L0.534,39.524C0.242,39.355 0,38.666 0,37.984L0,36.067C0,34.097 0.518,32.163 1.502,30.457C2.487,28.751 3.903,27.334 5.608,26.349L15.01,20.922L25.015,26.698L19.641,33.23Z" fill="#000000"/>
</g>
<path d="M16.425,37.151L25.001,26.698L14.996,20.922L5.599,26.345C4.383,27.049 3.311,27.975 2.438,29.075L16.425,37.151Z" fill="#1D7430"/>
<path d="M24.994,35.099C24.994,35.78 24.756,36.47 24.46,36.638L23.927,36.946L11.052,44.381C10.818,44.507 10.561,44.587 10.296,44.615C10.193,44.628 10.089,44.635 9.984,44.636L9.984,41.848C9.984,39.878 10.503,37.943 11.488,36.237C12.473,34.531 13.89,33.115 15.597,32.131L16.66,31.519L24.994,26.703L24.994,35.099Z" fill="#1D7430"/>
<g opacity="0.2">
<path d="M25.01,35.099C25.01,35.78 24.771,36.47 24.476,36.638L23.942,36.946L11.067,44.381C10.833,44.507 10.577,44.587 10.312,44.615C10.209,44.628 10.104,44.635 10,44.636L10,41.848C10,39.878 10.518,37.943 11.503,36.237C12.489,34.531 13.906,33.115 15.612,32.131L16.675,31.519L25.01,26.703L25.01,35.099Z" fill="#000000"/>
</g>
<path d="M27.772,49.164L32.809,49.147L40.019,44.984L32.957,50.087L27.641,50.161L27.772,49.164Z" fill="#E0E0E0"/>
<path d="M15.527,56.341C15.527,56.341 24.608,52.918 25.38,52.515C26.286,51.96 27.145,51.333 27.95,50.639C28.114,50.422 28.191,50.151 28.166,49.88C28.141,49.609 28.015,49.357 27.814,49.173C27.814,49.173 24.119,49.005 23.171,49.297C22.641,49.457 14.094,52.199 14.094,52.199L15.527,56.341Z" fill="#E0E0E0"/>
<path d="M15.127,52.508C14.376,51.863 13.62,52.13 13.436,53.099C13.365,53.634 13.422,54.177 13.601,54.686C13.78,55.195 14.076,55.654 14.466,56.026C15.217,56.671 15.973,56.408 16.158,55.435C16.228,54.901 16.171,54.357 15.992,53.848C15.813,53.34 15.517,52.881 15.127,52.508Z" fill="#353537"/>
</svg>
