<svg version="1.2" xmlns="http://www.w3.org/2000/svg" viewBox="0 0 65 74" width="65" height="74">
	<title>character_2_x2-svg</title>
	<style>
		.s0 { fill: #263238 } 
		.s1 { fill: #ffffff } 
		.s2 { fill: #455a64 } 
		.s3 { fill: #ff5904 } 
		.s4 { fill: #353537 } 
		.s5 { fill: #e0e0e0 } 
		.s6 { fill: #b77153 } 
		.s7 { fill: #995037 } 
		.s8 { fill: #fafafa } 
	</style>
	<path id="Layer" class="s0" d="m13.2 15.8c0-1.1 0.9-2 2-2h37.9c1.1 0 2 0.9 2 2v56c0 1.1-0.9 2-2 2h-37.9c-1.1 0-2-0.9-2-2z"/>
	<path id="Layer" class="s1" d="m13.7 68.8h39.2v-50.1h-39.2z"/>
	<path id="Layer" class="s2" d="m61.9 42.3c-0.8-0.4-1.8 0-2.2 0.8-0.4 0.7 0 1.7 0.7 2.1 0.8 0.4 1.8 0.1 2.2-0.7 0.4-0.8 0.1-1.8-0.7-2.2z"/>
	<path id="Layer" class="s2" d="m0 44.1h12.2c0.1 0 0.2-0.1 0.2-0.2v-0.3c0-0.1-0.1-0.2-0.2-0.2h-12.2c-0.1 0-0.2 0.1-0.2 0.2v0.3c0 0.1 0.1 0.2 0.2 0.2z"/>
	<path id="Layer" class="s3" d="m22.8 43.3c-0.9-2-3.3-3-5.4-2.1-2 0.9-3 3.3-2.1 5.3 0.9 2.1 3.3 3 5.3 2.2 2.1-0.9 3-3.3 2.2-5.4z"/>
	<g id="Layer" style="opacity: .3">
		<path id="Layer" class="s1" d="m22.8 43.3c-0.9-2-3.3-3-5.4-2.1-2 0.9-3 3.3-2.1 5.3 0.9 2.1 3.3 3 5.3 2.2 2.1-0.9 3-3.3 2.2-5.4z"/>
	</g>
	<path id="Layer" class="s0" d="m17.6 43.9c0.2 0 0.3 0.2 0.3 0.4 0.1 0.2-0.1 0.4-0.2 0.4-0.2 0-0.3-0.1-0.3-0.4 0-0.2 0.1-0.4 0.2-0.4z"/>
	<path id="Layer" class="s0" d="m20.2 43.9c-0.1 0-0.3 0.1-0.3 0.4 0 0.2 0.1 0.4 0.3 0.4 0.1 0 0.3-0.2 0.3-0.4 0-0.2-0.1-0.4-0.3-0.4z"/>
	<path id="Layer" class="s0" d="m20.7 45.7c0 0.1-0.8 0.1-1.7 0.1-1 0-1.7 0-1.7-0.1 0 0 0.7-0.1 1.7-0.1 0.9 0 1.7 0.1 1.7 0.1z"/>
	<path id="Layer" class="s0" d="m17.9 43.4c0 0.1-0.2 0.1-0.4 0.1-0.2 0.1-0.4 0.1-0.4 0.1 0-0.1 0.1-0.2 0.4-0.2 0.3-0.1 0.4 0 0.4 0z"/>
	<path id="Layer" class="s0" d="m20.9 43.6c0 0.1-0.2 0-0.4-0.1-0.2 0-0.4-0.1-0.4-0.1 0-0.1 0.2-0.1 0.5 0 0.2 0 0.4 0.2 0.3 0.2z"/>
	<path id="Layer" class="s3" d="m49.7 40.6c-2.2-0.7-4.6 0.5-5.3 2.7-0.7 2.2 0.5 4.6 2.7 5.3 2.2 0.7 4.6-0.5 5.3-2.7 0.7-2.2-0.5-4.6-2.7-5.3z"/>
	<g id="Layer" style="opacity: .3">
		<path id="Layer" class="s4" d="m49.7 40.6c-2.2-0.7-4.6 0.5-5.3 2.7-0.7 2.2 0.5 4.6 2.7 5.3 2.2 0.7 4.6-0.5 5.3-2.7 0.7-2.2-0.5-4.6-2.7-5.3z"/>
	</g>
	<path id="Layer" class="s0" d="m46.9 43.5c0.2 0 0.3 0.2 0.4 0.4 0 0.3-0.1 0.5-0.3 0.5-0.2 0-0.3-0.2-0.3-0.4 0-0.2 0.1-0.4 0.2-0.5z"/>
	<path id="Layer" class="s0" d="m49.6 43.5c-0.1 0-0.3 0.2-0.3 0.4 0 0.2 0.1 0.4 0.3 0.4 0.1 0 0.3-0.2 0.3-0.4 0-0.2-0.1-0.4-0.3-0.4z"/>
	<path id="Layer" class="s0" d="m50.1 45.4c0 0.1-0.2-0.1-0.5-0.2q-0.6-0.3-1.3-0.3-0.6 0-1.2 0.3c-0.3 0.1-0.5 0.3-0.5 0.2 0 0 0.1-0.1 0.4-0.3q0.6-0.4 1.3-0.4 0.7 0 1.3 0.4c0.3 0.2 0.5 0.3 0.5 0.3z"/>
	<path id="Layer" class="s0" d="m47.3 43.1q0 0-0.1 0.1-0.2 0.1-0.3 0.2-0.2 0-0.4-0.1-0.1-0.1-0.1-0.1c0 0 0.2 0 0.4 0 0.3-0.1 0.4-0.2 0.5-0.1z"/>
	<path id="Layer" class="s0" d="m50.4 43.3q0 0-0.2 0.1-0.2 0-0.3-0.1-0.2 0-0.3-0.2-0.1-0.1-0.1-0.1c0 0 0.2 0.1 0.4 0.2 0.2 0.1 0.5 0 0.5 0.1z"/>
	<path id="Layer" class="s5" d="m40.3 56.2l1-0.4 1 0.5-0.2-1.1 0.8-0.7-1.1-0.2-0.4-1-0.5 1-1.1 0.1 0.7 0.8z"/>
	<path id="Layer" class="s3" d="m36.4 56.2l0.9-0.4 1 0.5-0.2-1.1 0.8-0.7-1.1-0.2-0.4-1-0.5 1-1.1 0.1 0.8 0.8z"/>
	<path id="Layer" class="s3" d="m32.4 56.2l1-0.4 0.9 0.5-0.2-1.1 0.8-0.7-1-0.2-0.5-1-0.5 1-1.1 0.1 0.8 0.8z"/>
	<path id="Layer" class="s3" d="m28.4 56.2l1-0.4 0.9 0.5-0.1-1.1 0.8-0.7-1.1-0.2-0.5-1-0.5 1-1 0.1 0.7 0.8z"/>
	<path id="Layer" class="s3" d="m24.4 56.2l1-0.4 1 0.5-0.2-1.1 0.8-0.7-1.1-0.2-0.4-1-0.5 1-1.1 0.1 0.8 0.8z"/>
	<path id="Layer" class="s0" d="m42.9 32.4c0 0-4.3 0-9.7 0-5.4 0-9.7 0-9.7 0 0 0 4.3-0.1 9.7-0.1 5.4 0 9.7 0.1 9.7 0.1z"/>
	<path id="Layer" class="s0" d="m38.2 31.2c0 0-2.2 0.1-4.9 0.1-2.6 0-4.8-0.1-4.8-0.1 0 0 2.2 0 4.8 0 2.7 0 4.9 0 4.9 0z"/>
	<path id="Layer" class="s3" d="m37.3 39.1c-2.5-1.7-6-1.2-7.8 1.3-1.7 2.5-1.2 5.9 1.3 7.7 2.5 1.8 6 1.2 7.7-1.2 1.8-2.5 1.3-6-1.2-7.8z"/>
	<path id="Layer" class="s0" d="m32.1 42.2c0.2 0 0.4 0.3 0.4 0.6 0.1 0.3-0.1 0.5-0.3 0.5-0.2 0.1-0.4-0.2-0.4-0.5 0-0.3 0.1-0.5 0.3-0.6z"/>
	<path id="Layer" class="s0" d="m35.6 42.2c-0.2 0-0.3 0.2-0.4 0.5 0 0.3 0.2 0.6 0.4 0.6 0.2 0 0.4-0.3 0.4-0.6 0-0.3-0.1-0.5-0.4-0.5z"/>
	<path id="Layer" class="s0" d="m36.3 44q0 0-0.2 0.1-0.2 0.2-0.4 0.4-0.3 0.3-0.7 0.4-0.5 0.2-1 0.2-0.6 0-1-0.3-0.4-0.1-0.8-0.3c-0.4-0.3-0.6-0.5-0.6-0.5 0.1 0 0.3 0.1 0.7 0.4q0.3 0.2 0.7 0.3 0.5 0.2 1 0.2 0.5 0 0.9-0.1 0.4-0.2 0.7-0.4 0.3-0.2 0.5-0.3 0.1-0.1 0.2-0.1z"/>
	<path id="Layer" class="s0" d="m32.4 41c0 0-0.3 0-0.6 0.1-0.3 0-0.6 0.1-0.6 0.1 0-0.1 0.2-0.2 0.6-0.3 0.3 0 0.6 0.1 0.6 0.1z"/>
	<path id="Layer" class="s0" d="m36.8 41.3c0 0-0.2-0.1-0.5-0.2-0.4-0.1-0.6-0.2-0.6-0.2 0-0.1 0.3-0.1 0.6 0 0.4 0.1 0.6 0.3 0.5 0.4z"/>
	<path id="Layer" class="s0" d="m31.7 43.6q0.1 0 0.1 0.1 0 0.3-0.1 0.4-0.2 0.2-0.4 0.3-0.1 0-0.1 0c0-0.1 0.2-0.2 0.3-0.4 0.2-0.2 0.2-0.4 0.2-0.4z"/>
	<path id="Layer" class="s0" d="m36.7 44.1q0 0-0.1 0.1-0.2 0-0.3-0.1-0.2-0.1-0.2-0.3 0-0.1 0-0.2c0.1 0 0.1 0.2 0.3 0.3 0.1 0.1 0.3 0.1 0.3 0.2z"/>
	<path id="Layer" class="s3" d="m40.8 43.6q0 0 0-0.1v-0.3q0-0.2 0-0.3-0.1-0.1-0.1-0.3 0-0.1 0-0.3-0.1-0.2-0.1-0.4-0.3-1-0.8-1.8-0.7-1.1-1.7-1.9l-0.3-0.3q-0.2-0.1-0.3-0.2-0.2-0.1-0.4-0.2l-0.3-0.1-0.2-0.1-0.2-0.1-0.4-0.1q-0.2-0.1-0.4-0.1-0.2-0.1-0.4-0.1-0.4-0.1-0.9-0.1-0.2 0-0.4 0h-0.5q-0.1 0-0.2 0h-0.2q-0.3 0.1-0.5 0.1-0.5 0.1-0.9 0.3-0.5 0.1-0.9 0.4-0.2 0.1-0.4 0.2-0.1 0.1-0.2 0.2l-0.2 0.1q-0.4 0.3-0.8 0.7l-0.4 0.3v0.1l-0.1 0.1-0.2 0.3-0.1 0.2-0.2 0.2-0.1 0.2-0.1 0.1-0.1 0.1-0.2 0.5-0.2 0.5c-0.4 1.4-0.4 2.9 0 4.3q0.1 0.3 0.2 0.5 0.1 0.3 0.2 0.5l0.1 0.2 0.1 0.1 0.1 0.2 0.2 0.2 0.1 0.2 0.2 0.2 0.1 0.1v0.1l0.4 0.4q0.4 0.4 0.8 0.7l0.2 0.1q0.1 0.1 0.2 0.2 0.2 0.1 0.4 0.2 0.9 0.5 1.8 0.7 0.2 0 0.5 0l0.2 0.1q0.1 0 0.2 0h0.5q0.2 0 0.4 0 0.5 0 0.9-0.1 0.2 0 0.4-0.1 0.2 0 0.4-0.1l0.4-0.1 0.2-0.1 0.2-0.1 0.3-0.2q0.2 0 0.4-0.2 0.1-0.1 0.3-0.2l0.3-0.2q1-0.8 1.7-1.9 0.5-0.9 0.8-1.8 0-0.2 0.1-0.4 0-0.2 0-0.4 0-0.1 0.1-0.2 0-0.2 0-0.3 0-0.2 0-0.3 0-0.1 0-0.1 0 0 0 0.1 0 0.1 0 0.3 0 0.1 0 0.3 0 0.1-0.1 0.3 0 0.1 0 0.3 0 0.2-0.1 0.4-0.2 0.9-0.7 1.8-0.7 1.2-1.8 2l-0.3 0.2q-0.1 0.1-0.3 0.2-0.2 0.1-0.3 0.2l-0.4 0.2-0.2 0.1h-0.2l-0.4 0.2q-0.2 0-0.4 0.1-0.2 0-0.4 0.1-0.4 0.1-0.9 0.1-0.2 0-0.4 0h-0.5q-0.1 0-0.2 0l-0.2-0.1q-0.3 0-0.5-0.1-0.5-0.1-0.9-0.2-0.5-0.2-0.9-0.4-0.2-0.1-0.5-0.3-0.1 0-0.2-0.1l-0.2-0.2q-0.4-0.3-0.8-0.6l-0.3-0.4-0.1-0.1-0.1-0.1-0.1-0.2-0.2-0.2-0.2-0.3-0.1-0.2-0.1-0.1v-0.1l-0.3-0.5q0-0.3-0.1-0.5c-0.5-1.4-0.5-3 0-4.4l0.1-0.5 0.3-0.5v-0.1l0.1-0.1 0.2-0.3 0.1-0.2 0.2-0.2 0.1-0.2 0.1-0.1 0.1-0.1q0.2-0.2 0.3-0.4 0.4-0.3 0.8-0.7l0.2-0.1q0.1-0.1 0.2-0.1 0.3-0.2 0.5-0.3 0.4-0.2 0.9-0.4 0.4-0.2 0.9-0.3 0.2 0 0.5 0l0.2-0.1q0.1 0 0.2 0h0.5q0.2 0 0.4 0 0.5 0 0.9 0.1 0.2 0 0.4 0.1 0.2 0.1 0.4 0.1l0.4 0.2h0.2l0.2 0.1 0.4 0.2q0.1 0.1 0.3 0.2 0.2 0.1 0.3 0.2l0.3 0.2q1.1 0.8 1.8 2 0.5 0.8 0.7 1.8 0.1 0.2 0.1 0.4 0 0.2 0 0.3 0.1 0.2 0.1 0.3 0 0.1 0 0.3 0 0.2 0 0.3 0 0.1 0 0.1z"/>
	<path id="Layer" class="s5" d="m8.2 24.2h50.2v2.5h-50.2z"/>
	<path id="Layer" class="s1" d="m9.8 25.4q0 0.1-0.1 0.1 0 0.1-0.1 0.2-0.1 0-0.2 0-0.1 0-0.2-0.1-0.1-0.1-0.1-0.2 0-0.1 0-0.2 0.1-0.1 0.2-0.1 0.1-0.1 0.2-0.1 0.1 0 0.2 0.1 0.1 0.1 0.1 0.3z"/>
	<path id="Layer" class="s1" d="m10.9 25.4q0 0.1 0 0.1-0.1 0.1-0.2 0.2-0.1 0-0.2 0-0.1 0-0.2-0.1 0-0.1 0-0.2-0.1-0.1 0-0.2 0-0.1 0.1-0.1 0.1-0.1 0.2-0.1 0.1 0 0.2 0.1 0.1 0.1 0.1 0.3z"/>
	<path id="Layer" class="s1" d="m12 25.4q0 0.1 0 0.1-0.1 0.1-0.2 0.2-0.1 0-0.2 0-0.1 0-0.1-0.1-0.1-0.1-0.1-0.2 0-0.1 0-0.2 0-0.1 0.1-0.1 0.1-0.1 0.2-0.1 0.1 0 0.2 0.1 0.1 0.1 0.1 0.3z"/>
	<path id="Layer" class="s5" d="m52.8 34.3c0 0.1-8.7 0.1-19.4 0.1-10.8 0-19.5 0-19.5-0.1 0 0 8.7 0 19.5 0 10.7 0 19.4 0 19.4 0z"/>
	<path id="Layer" class="s5" d="m52.8 35.3c0 0-8.7 0.1-19.4 0.1-10.8 0-19.5-0.1-19.5-0.1 0 0 8.7 0 19.5 0 10.7 0 19.4 0 19.4 0z"/>
	<path id="Layer" class="s2" d="m27.3 23.1c0 0-0.3-0.8-0.4-0.9-0.2-0.5-1.3-3.6-1-4.1 1.2-2.2 2.2-3.7 4.7-3.7h4.3c0 0 4.1-0.9 7 8.5z"/>
	<path id="Layer" class="s2" d="m18.2 23.9l5.6-1.2 6.7-3.5v-4.8c-1-0.3-2.9 0.4-6.3 2.2l-5.2 2.6q-0.6 0.3-1 0.9-0.4 0.6-0.5 1.2-0.2 0.7 0 1.4 0.2 0.7 0.7 1.2z"/>
	<path id="Layer" class="s6" d="m30.9 33.2c0-0.3 0-0.5 0.4-0.4 0.9 0.3 1.7 0.2 1.8 0.1 0.2-0.2 0.1-0.5-0.2-0.5q-0.5 0-0.9-0.1-0.4-0.1-0.7-0.3-0.3-0.2-0.5-0.3c0 0-0.8-0.6-1-1.1l-2.8 1.2 0.5 1.4q0 0.3 0.3 0.6 0.2 0.3 0.6 0.4c0.8 0.3 2 0.2 2 0.2 0.2-0.2 1.1 1.1 1.4 1.6 0.3 0.4 0.6 0.5 0.7 0.2 0.1-0.2-0.7-1.6-1-2q-0.3-0.5-0.6-1z"/>
	<path id="Layer" class="s7" d="m29.1 34.4q0 0-0.2 0-0.2-0.1-0.3-0.3-0.1-0.2-0.1-0.4 0.1-0.2 0.1-0.2 0 0.3 0.1 0.5 0.1 0.3 0.4 0.4z"/>
	<path id="Layer" class="s7" d="m30 34.4q-0.1 0.1-0.2 0-0.2-0.1-0.3-0.3-0.1-0.2 0-0.4 0-0.1 0-0.1 0 0.3 0.1 0.5 0.2 0.2 0.4 0.3z"/>
	<path id="Layer" class="s2" d="m18 23.7c0 0 8.7 10 8.7 9.8 0-0.1 3.9-3.1 3.9-3.1l-8.5-10.1z"/>
	<path id="Layer" class="s0" d="m23.3 21.7q0 0 0 0.1l0.2 0.2 0.6 0.7c0.5 0.5 1.2 1.3 1.9 2.2 0.7 0.9 1.4 1.7 1.9 2.3l0.5 0.7 0.2 0.2q0 0 0 0 0 0 0 0l-0.2-0.2q-0.2-0.3-0.6-0.7c-0.5-0.6-1.1-1.4-1.9-2.2-0.7-0.9-1.4-1.7-1.9-2.3l-0.5-0.7q-0.1-0.1-0.2-0.2 0 0 0-0.1z"/>
	<path id="Layer" class="s0" d="m38.7 22.9q0.1-0.3 0.1-0.6 0-0.4-0.2-0.8-0.1-0.4-0.4-0.6c-0.2-0.3-0.4-0.5-0.6-0.7q-0.3-0.2-0.4-0.6-0.1-0.2-0.1-0.5 0 0 0.1-0.1-0.1 0.3 0.1 0.6 0.1 0.3 0.3 0.6c0.2 0.2 0.5 0.4 0.7 0.6q0.3 0.3 0.4 0.7 0.2 0.4 0.1 0.8 0 0.2-0.1 0.4 0 0.1 0 0.2z"/>
	<path id="Layer" class="s0" d="m26.9 15.2q0 0 0.2 0 0.1-0.1 0.3-0.2 0.3-0.1 0.7-0.1 0.4 0 0.8 0.1 0.5 0.1 0.9 0.5 0.4 0.5 0.5 1.1 0.1 0.6 0.1 1.3-0.1 0.7-0.5 1.3-0.5 0.5-1.1 0.9-0.5 0.3-1.1 0.6l-1.9 1-1.3 0.7-0.4 0.2q0 0-0.1 0 0.1 0 0.1 0l0.4-0.2 1.3-0.7 1.9-1q0.5-0.3 1.1-0.7 0.6-0.3 1-0.9 0.4-0.5 0.5-1.2 0.1-0.7-0.1-1.3-0.1-0.6-0.5-1-0.3-0.4-0.8-0.6-0.4-0.1-0.8 0-0.3 0-0.6 0.1-0.3 0-0.4 0.1-0.1 0-0.2 0z"/>
	<path id="Layer" class="s0" d="m24.2 22.7c0 0-0.1-0.6-0.4-1.2-0.4-0.6-0.9-0.9-0.9-0.9q0.2 0.1 0.3 0.2c0.5 0.4 0.8 0.9 1 1.5q0 0.2 0 0.4z"/>
	<path id="Layer" class="s8" d="m37 21.6q-0.1 0-0.2 0-0.2 0.1-0.5 0.1-0.5-0.1-0.8-0.3-0.6-0.3-0.8-0.9c-0.2-0.4-0.2-0.9-0.1-1.3q0.1-0.4 0.5-0.7 0.1-0.1 0.4-0.1 0.2 0.1 0.3 0.3 0.3 0.4 0.3 0.8 0.1 0.5-0.1 0.9-0.1 0.5-0.5 0.8-0.3 0.4-0.8 0.5-0.5 0.1-1 0-0.5-0.1-0.8-0.4-0.4-0.4-0.5-0.8-0.1-0.4-0.1-0.9 0.1-0.4 0.4-0.7 0.1-0.2 0.3-0.3 0.2-0.1 0.4 0 0.2 0.1 0.3 0.3 0.1 0.1 0.1 0.3 0 0.4-0.1 0.7-0.3 0.5-0.7 0.9-0.3 0.3-0.7 0.5-0.3 0.1-0.5 0.2-0.1 0-0.2 0 0 0 0 0 0 0 0 0 0.1 0 0.2 0 0.2-0.1 0.5-0.2 0.3-0.3 0.6-0.6 0.5-0.3 0.7-0.9 0.2-0.3 0.1-0.6 0-0.2-0.1-0.3-0.1-0.1-0.2-0.2-0.2-0.1-0.4 0-0.2 0.1-0.3 0.2-0.2 0.3-0.3 0.7-0.1 0.5 0.1 0.9 0.1 0.4 0.4 0.7 0.4 0.3 0.8 0.4 0.5 0.1 1 0 0.4-0.1 0.8-0.4 0.3-0.4 0.4-0.8 0.2-0.4 0.1-0.9 0-0.2 0-0.4-0.1-0.2-0.2-0.4-0.2-0.1-0.3-0.2-0.2 0-0.4 0.1-0.3 0.2-0.4 0.6c-0.2 0.4-0.1 0.9 0.1 1.3q0.2 0.5 0.7 0.8 0.4 0.3 0.8 0.3 0.4 0.1 0.7 0z"/>
	<path id="Layer" class="s7" d="m37.7 11.9q-0.3-0.4-0.4-0.8-0.1-0.1 0-0.3 0-0.1 0.1-0.1 0 0 0.1 0c0.1 0 0.2 0.1 0.2 0.1q0.2 0.4 0.4 0.8 0.1 0.1 0.1 0.2 0 0.1-0.1 0.1 0 0.1-0.1 0.1 0 0-0.1 0 0 0-0.1 0-0.1-0.1-0.2-0.2z"/>
	<path id="Layer" class="s7" d="m38.1 11.7l-0.4-0.9q-0.1-0.1-0.1-0.3 0-0.1 0-0.1 0-0.1 0.1-0.1 0.1-0.1 0.1 0 0.1 0 0.2 0 0 0.1 0.1 0.2l0.2 0.4q0.1 0.2 0.1 0.4 0.1 0.1 0 0.1 0 0.1 0 0.2-0.1 0.1-0.2 0.1-0.1 0-0.2 0z"/>
	<path id="Layer" class="s6" d="m36.2 14.5c0 0-0.6-0.8-0.7-1.2 0-0.4 0.5-1.2 1.6-1.3q0.6-0.1 1.1-0.4 0.1-0.1 0.1-0.2 0-0.1 0-0.2c-0.2-0.4-0.4-1-0.4-1.1 0.1-0.2 0.2-0.2 0.6 0.4 0.3 0.5 0.8 1 0.7 1.3-0.1 0.2-1.4 1-1.4 1l0.4 0.6z"/>
	<path id="Layer" class="s2" d="m39.7 22.4l-4.1-8.1 2.7-1.4 5.5 8.8c0 0 0.3 0.5 0.8 1.2h-4.7z"/>
	<path id="Layer" class="s0" d="m38.2 12.9q0 0 0 0l-0.1 0.1-0.6 0.3-1.9 1.1v-0.1c0.4 0.8 0.9 1.8 1.5 2.8 0.7 1.5 1.4 2.9 1.9 3.9q0.4 0.8 0.5 1.2 0.1 0.2 0.2 0.3 0 0.1 0 0.2 0-0.1 0-0.1-0.1-0.2-0.2-0.4l-0.6-1.2c-0.4-1-1.1-2.3-1.9-3.9-0.5-1-1.1-1.9-1.4-2.7l-0.1-0.1h0.1l1.9-1.1 0.5-0.3h0.2q0 0 0 0z"/>
	<path id="Layer" class="s0" d="m27.3 23.1q-0.5-0.9-0.7-1.9c0 0 0.2 0.5 0.3 1 0.2 0.5 0.4 0.9 0.4 0.9z"/>
	<path id="Layer" class="s0" d="m36.4 11.2q0.5 0.2 1 0.1 0.5-0.1 0.9-0.6 0.3-0.4 0.3-0.9 0-0.6-0.3-1c0.9-0.2 1.5-1.3 1.3-2.3-0.2-0.9-1-1.6-1.9-1.8q-0.6-0.2-1.1 0-0.3 0.1-0.5 0.3-0.2 0.1-0.3 0.4z"/>
	<path id="Layer" class="s3" d="m36.2 9.1c0 0.1-0.1 0.1-0.3 0.2q-0.4 0.2-0.6 0.6-0.1 0.4-0.1 0.7 0 0.4 0.2 0.7 0.1 0.1 0.3 0.2 0.1 0.2 0.3 0.3 0.4 0.1 0.9 0 0.4-0.1 0.7-0.4 0.1-0.2 0.2-0.3 0.1-0.2 0.1-0.4 0.1-0.3 0-0.6-0.1-0.3-0.3-0.5-0.2-0.2-0.5-0.3-0.2-0.2-0.5-0.2c-0.2 0-0.4 0.1-0.4 0q0.1 0 0.1 0 0.2 0 0.3 0 0.4 0 0.8 0.2 0.3 0.3 0.5 0.6 0.1 0.4 0.1 0.8 0 0.2-0.1 0.4-0.1 0.2-0.2 0.4-0.3 0.3-0.8 0.4-0.5 0.1-0.9-0.1-0.2 0-0.4-0.2-0.1-0.1-0.2-0.3-0.3-0.3-0.3-0.7 0-0.5 0.2-0.8 0.2-0.4 0.6-0.6 0.1 0 0.3 0 0-0.1 0-0.1z"/>
	<path id="Layer" class="s0" d="m37 6.6q0.5 0 0.9-0.4 0.4-0.3 0.5-0.8 0.1-0.5-0.1-1-0.2-0.5-0.6-0.8 0.2-0.6 0-1.2-0.1-0.6-0.6-1-0.5-0.4-1.2-0.4-0.6 0-1.2 0.3c-0.2-0.4-0.6-0.8-1.1-1-0.5-0.3-1-0.4-1.6-0.3-0.5 0.1-1 0.4-1.4 0.7-0.4 0.4-0.6 0.9-0.7 1.4-0.5-0.2-1-0.2-1.5-0.1-0.5 0.1-1 0.3-1.3 0.7-0.4 0.4-0.6 0.9-0.7 1.4-0.1 0.5 0 1 0.2 1.5-0.5 0-1 0.2-1.3 0.6-0.4 0.4-0.5 1-0.5 1.5 0.1 0.5 0.3 1 0.7 1.3 0.4 0.4 0.9 0.5 1.4 0.5q-0.1 0.5 0.1 1 0.1 0.5 0.6 0.9 0.4 0.3 1 0.3 0.5 0 1-0.3 0.3 0.5 0.8 0.7 0.5 0.3 1 0.2 0.6-0.1 1-0.4 0.4-0.4 0.6-0.9z"/>
	<path id="Layer" class="s6" d="m35 14.2c0-0.8 0.1-1.5 0.1-1.5 0 0 1.7-0.2 1.8-2 0.1-1.8-0.1-6-0.1-6l-3.2-1.5-3.5 2.8 0.5 8.2c0.1 0.6 0.3 1.1 0.7 1.5 0.5 0.4 1 0.6 1.6 0.6 0.6 0 1.1-0.3 1.5-0.7 0.3-0.3 0.6-0.9 0.6-1.4z"/>
	<path id="Layer" class="s0" d="m36.7 7.8c0 0-0.2-0.1-0.4-0.1-0.3 0-0.4 0.1-0.5 0.1q0-0.1 0.1-0.2 0.2-0.1 0.4-0.1 0.2 0 0.3 0.2 0.1 0.1 0.1 0.1z"/>
	<path id="Layer" class="s0" d="m34.1 7.8c-0.1 0-0.2-0.1-0.5-0.1-0.2 0-0.4 0.1-0.4 0.1q-0.1-0.1 0.1-0.2 0.1-0.1 0.3-0.1 0.2 0 0.4 0.2 0.1 0.1 0.1 0.1z"/>
	<path id="Layer" class="s0" d="m35 9.6q0.2 0 0.4 0 0.1 0 0.1-0.1 0-0.1-0.1-0.2 0-0.2-0.1-0.5c-0.3-0.7-0.4-1.3-0.4-1.3 0 0 0.2 0.5 0.5 1.3l0.1 0.5q0.1 0.1 0.1 0.2-0.1 0.1-0.1 0.1 0 0 0 0-0.1 0-0.1 0-0.2 0.1-0.4 0z"/>
	<path id="Layer" class="s7" d="m35.1 12.7c-0.9 0-1.7-0.3-2.4-0.8 0 0 0.6 1.3 2.3 1.2z"/>
	<path id="Layer" class="s0" d="m32.6 3.3c-0.3 0.4-0.5 0.8-0.4 1.3 0 0.5 0.1 1 0.4 1.4 0.3 0.4 0.7 0.6 1.1 0.6 0.4 0 0.9-0.4 0.8-0.8q-0.1 0.2-0.1 0.4 0.1 0.2 0.2 0.4 0.1 0.1 0.3 0.2 0.2 0.1 0.4 0.1 0.2 0 0.4 0 0.2-0.1 0.3-0.3 0.2-0.2 0.2-0.4 0-0.2 0-0.4 0 0.3 0.2 0.6 0.1 0.1 0.2 0.2 0.1 0 0.3 0c0.2 0 0.4-0.3 0.5-0.6q0.1-0.6-0.1-1.2-0.2-0.6-0.6-1-0.5-0.4-1.1-0.7-0.6-0.2-1.2-0.1c-0.8 0.1-1.6 0.4-2.2 1z"/>
	<path id="Layer" class="s0" d="m32.8 3.9q0.3 0.8 0.4 1.6c0 0.6-0.2 1.1-0.6 1.5q-0.3 0.3-0.7 0.4-0.5 0.1-0.9 0 0.1 0.4 0.1 0.8-0.1 0.3-0.3 0.6c-0.3 0.4-0.9 0.6-1.3 0.4-0.4-0.2-0.6-0.7-0.6-1.2q-0.1-0.8 0.1-1.6 0.3-0.8 0.9-1.4 0.6-0.6 1.3-0.9 0.8-0.2 1.7-0.2z"/>
	<path id="Layer" class="s6" d="m30.6 8.2c-0.3-0.1-0.6 0-0.8 0.2q-0.2 0.2-0.3 0.6 0 0.3 0.2 0.6 0.2 0.3 0.5 0.4 0.3 0.2 0.6 0.1z"/>
	<path id="Layer" class="s7" d="m30.5 9.5q0 0.1-0.2 0-0.1 0-0.2-0.1-0.1-0.1-0.2-0.2 0-0.2 0-0.3 0.1-0.1 0.2-0.2c0.1 0 0.2 0 0.2 0 0 0-0.1 0-0.2 0.1q-0.1 0-0.1 0.2 0 0.1 0 0.2 0.1 0.1 0.1 0.1 0.1 0.1 0.2 0.2 0.2 0 0.2 0z"/>
	<path id="Layer" class="s0" d="m34.2 7.1c0 0-0.3 0-0.6 0-0.3 0-0.6 0.1-0.6 0 0-0.1 0.2-0.2 0.6-0.2 0.4-0.1 0.6 0.1 0.6 0.2z"/>
	<path id="Layer" class="s0" d="m36.7 7c0 0-0.1 0-0.1 0q-0.1 0-0.2 0-0.2 0-0.3 0-0.1 0-0.2 0 0-0.1 0.1-0.2 0.2-0.1 0.3-0.1 0.1 0 0.2 0 0.1 0.1 0.2 0.2 0.1 0.1 0 0.1z"/>
	<path id="Layer" class="s7" d="m34.5 10.1q0.1-0.1 0.3-0.1 0.1 0 0.2 0 0.1 0.1 0.2 0.2 0 0.1 0 0.2 0 0.1-0.1 0.2-0.1 0.1-0.2 0.1-0.1 0-0.2 0-0.1 0-0.2-0.1 0-0.1-0.1-0.2 0-0.1 0-0.2 0.1-0.1 0.2-0.1z"/>
	<path id="Layer" class="s0" d="m35.4 10.3c0 0 0 0-0.1 0q-0.3 0.1-0.5 0-0.2-0.1-0.4-0.3 0-0.1 0-0.2 0 0 0.1 0.2 0.1 0.1 0.3 0.2 0.2 0.1 0.4 0.1 0.2 0 0.2 0z"/>
	<path id="Layer" class="s3" d="m31.8 11.1c0 0 0-0.1-0.1-0.3q-0.1-0.5-0.5-0.8-0.3-0.2-0.6-0.2-0.4-0.1-0.7 0-0.2 0.1-0.4 0.2-0.1 0.2-0.2 0.3-0.3 0.4-0.3 0.8 0 0.5 0.3 0.8 0.1 0.2 0.2 0.3 0.2 0.1 0.4 0.2 0.3 0.1 0.6 0.1 0.2 0 0.5-0.2 0.3-0.1 0.4-0.3 0.2-0.3 0.3-0.5c0.1-0.2 0.1-0.4 0.1-0.4q0 0.1 0 0.1 0 0.1-0.1 0.3-0.1 0.5-0.5 0.8-0.2 0.2-0.6 0.2-0.4 0.1-0.7 0-0.2-0.1-0.4-0.2-0.2-0.1-0.3-0.3-0.3-0.4-0.3-0.9 0-0.4 0.3-0.8 0.1-0.2 0.3-0.3 0.2-0.2 0.4-0.2 0.3-0.2 0.7-0.1 0.3 0.1 0.6 0.3 0.4 0.3 0.5 0.8 0.1 0.1 0.1 0.2 0 0.1 0 0.1z"/>
	<path id="Layer" class="s2" d="m36.7 3.1q0 0 0.1 0 0 0 0.1 0.1 0.1 0.1 0.1 0.2 0 0.1 0 0.2 0 0.2-0.2 0.4-0.1 0.1-0.3 0.1-0.6 0.1-1-0.2l-0.3-0.2 0.3 0.1q0.1 0.1 0.2 0.1 0.1 0.1 0.1 0.2 0 0.1 0 0.2 0 0.1-0.1 0.2-0.1 0.2-0.3 0.2-0.2 0.1-0.4 0-0.5-0.2-0.7-0.6l-0.2-0.3 0.3 0.3q0.1 0.1 0.1 0.3 0.1 0.1 0 0.3 0 0.1-0.1 0.3-0.1 0.1-0.2 0.1-0.3 0.1-0.5 0.1-0.3 0-0.5-0.2-0.2-0.2-0.3-0.5-0.1-0.1-0.1-0.2 0 0 0 0 0 0 0.1 0.2 0.1 0.3 0.4 0.5 0.1 0.1 0.4 0.1 0.2 0.1 0.4 0 0.1-0.1 0.2-0.2 0.1-0.1 0.1-0.2 0.1-0.2 0-0.3 0-0.2-0.1-0.3h0.1q0.2 0.4 0.6 0.5 0.2 0.1 0.4 0.1 0.2-0.1 0.3-0.2c0.1-0.2 0-0.5-0.2-0.6v-0.1q0.5 0.3 0.9 0.3 0.2-0.1 0.4-0.2 0.1-0.1 0.2-0.3 0-0.1 0-0.2-0.1-0.1-0.1-0.2-0.1-0.1-0.2-0.1z"/>
	<path id="Layer" class="s2" d="m32.4 6q0 0 0 0-0.1 0-0.1 0.1-0.2 0.1-0.4 0.2-0.3 0.1-0.6 0-0.2-0.1-0.4-0.2-0.2-0.1-0.3-0.3l0.1-0.1q0 0.3-0.2 0.5-0.1 0.2-0.4 0.3-0.2 0.1-0.4 0.1-0.3 0-0.5-0.1-0.2-0.1-0.4-0.3-0.1-0.2-0.2-0.5 0-0.2 0.1-0.5 0.1-0.2 0.2-0.4l0.1 0.1q-0.3 0.2-0.7 0.2-0.3 0-0.6-0.1-0.3-0.2-0.4-0.5-0.1-0.2-0.1-0.5 0-0.4 0.3-0.7 0.1-0.1 0.2-0.1 0 0-0.2 0.2-0.2 0.3-0.2 0.6-0.1 0.3 0 0.5 0.2 0.3 0.4 0.4 0.3 0.2 0.6 0.2 0.4 0 0.6-0.3l0.1 0.1q-0.2 0.2-0.3 0.5 0 0.3 0.1 0.6 0.1 0.3 0.4 0.4 0.3 0.2 0.7 0.1 0.3 0 0.5-0.3 0.2-0.2 0.2-0.5v-0.1l0.1 0.1q0.1 0.2 0.2 0.4 0.2 0.1 0.4 0.2 0.3 0.1 0.6 0 0.2-0.1 0.4-0.2 0.1-0.1 0.1-0.1z"/>
	<path id="Layer" class="s2" d="m29.2 8.9q-0.1 0-0.2 0-0.2 0.1-0.4 0.1-0.4 0-0.6-0.3-0.2-0.2-0.2-0.4-0.1-0.2-0.1-0.4h0.1q-0.2 0.3-0.6 0.5-0.3 0.1-0.6 0.1-0.3 0-0.5-0.1-0.3-0.1-0.4-0.3-0.1-0.2-0.2-0.5 0-0.3 0.2-0.6 0.1-0.1 0.1-0.1 0.1 0 0.1 0 0-0.1-0.2 0.1-0.1 0.3-0.1 0.6 0 0.2 0.2 0.4 0.1 0.2 0.3 0.3 0.3 0.1 0.5 0.2 0.3 0 0.6-0.2 0.3-0.1 0.5-0.4l0.1-0.2v0.2q0 0.2 0 0.4 0.1 0.2 0.2 0.4 0.3 0.2 0.6 0.3 0.2 0 0.4-0.1 0.2 0 0.2 0z"/>
	<path id="Layer" class="s2" d="m38.4 5.3q0 0.2 0 0.3 0 0.4-0.3 0.7-0.3 0.3-0.6 0.3-0.2 0.1-0.3 0c0 0 0.1 0 0.2 0q0.4-0.1 0.6-0.3 0.3-0.3 0.3-0.7c0.1-0.1 0.1-0.3 0.1-0.3z"/>
	<path id="Layer" class="s2" d="m39.4 7q0 0.1 0 0.2 0 0.1 0 0.3-0.1 0.2-0.2 0.2-0.1 0.1-0.2 0.2-0.2 0-0.3 0-0.1-0.1-0.2-0.1-0.1-0.1-0.1-0.2h0.1q0 0.1 0 0.1 0 0.2-0.1 0.4-0.1 0.1-0.3 0.2-0.2 0.1-0.3 0-0.2 0-0.3-0.1-0.1-0.1-0.2-0.3 0-0.2 0-0.2 0 0 0.1 0.1 0 0.2 0.2 0.3 0.1 0.1 0.2 0.2 0.1 0 0.3-0.1 0.1 0 0.2-0.2 0.1-0.1 0.1-0.3 0 0 0-0.1h0.1q0.1 0.1 0.2 0.2 0.1 0 0.3 0 0.1 0 0.2-0.1 0.1-0.1 0.1-0.2 0.1-0.2 0.1-0.3 0-0.2 0-0.2z"/>
	<path id="Layer" class="s0" d="m34.4 9.4q0 0.1 0 0.1 0 0.1-0.1 0.2-0.1 0.1-0.2 0.1-0.1 0-0.1 0c0 0 0.1-0.1 0.2-0.1 0.1-0.1 0.2-0.3 0.2-0.3z"/>
</svg>