<svg version="1.2" xmlns="http://www.w3.org/2000/svg" viewBox="0 0 22 40" width="22" height="40">
	<title>device_5_x2 (1)-svg</title>
	<style>
		.s0 { fill: #263238 } 
		.s1 { fill: #f4f4f4 } 
		.s2 { fill: #ff5904 } 
		.s3 { fill: #000000 } 
		.s4 { fill: #353537 } 
	</style>
	<path id="Layer" class="s0" d="m0 2.4c0-1.1 0.9-2 2-2h18c1.1 0 2 0.9 2 2v34.9c0 1.1-0.9 2-2 2h-18c-1.1 0-2-0.9-2-2z"/>
	<path id="Layer" class="s1" d="m21.3 1.7v36.3q0 0.1-0.1 0.2 0 0.1-0.1 0.1-0.1 0.1-0.2 0.1-0.1 0.1-0.2 0.1h-19.5q-0.1 0-0.2 0 0-0.1-0.1-0.2-0.1 0-0.1-0.1-0.1-0.1-0.1-0.2v-36.3q0-0.1 0.1-0.2 0-0.1 0.1-0.1 0-0.1 0.1-0.1 0.1 0 0.2 0h4.8q0.1 0 0.2 0 0.1 0.1 0.2 0.2l0.2 0.5q0 0 0.1 0.1 0.1 0.1 0.2 0.1h8.3q0.1 0 0.1-0.1 0.1 0 0.2-0.1l0.2-0.5q0-0.1 0.1-0.2 0.1 0 0.2 0h4.8q0.2 0 0.3 0.1 0.2 0.1 0.2 0.3z"/>
	<g id="Layer" style="opacity: .1">
		<path id="Layer" class="s1" d="m20.2 1.3c-1.8 4.9-7.7 18.5-19.5 24v-23.6q0-0.1 0.1-0.2 0-0.1 0.1-0.1 0-0.1 0.1-0.1 0.1 0 0.2 0h4.8q0.1 0 0.2 0 0.1 0.1 0.2 0.2l0.2 0.5q0 0 0.1 0.1 0.1 0.1 0.2 0.1h8.3q0.1 0 0.1-0.1 0.1 0 0.2-0.1l0.2-0.5q0-0.1 0.1-0.2 0.1 0 0.2 0z"/>
	</g>
	<g id="Layer" style="opacity: .6">
		<path id="Layer" class="s1" d="m11 1.3q0 0.1-0.1 0.1 0 0.1-0.1 0.1-0.1 0.1-0.1 0.1-0.1-0.1-0.2-0.1 0-0.1-0.1-0.2 0 0 0.1-0.1 0-0.1 0.1-0.1 0-0.1 0.1-0.1 0.1 0 0.2 0.1 0.1 0.1 0.1 0.2z"/>
	</g>
	<g id="Layer" style="opacity: .6">
		<path id="Layer" class="s1" d="m11.6 1.3q0 0.1-0.1 0.1-0.1 0.1-0.1 0.1-0.1 0-0.1-0.1-0.1 0-0.1-0.1 0 0 0-0.1 0 0 0 0 0.1-0.1 0.1-0.1 0 0 0.1 0 0 0 0.1 0 0 0 0 0.1 0 0 0.1 0 0 0.1 0 0.1z"/>
	</g>
	<g id="Layer" style="opacity: .5">
		<path id="Layer" class="s1" d="m0.7 3.7h20.5v33.2h-20.5z"/>
	</g>
	<path id="Layer" class="s1" d="m1.5 7.5h18.8v4.8h-18.8z"/>
	<path id="Layer" class="s1" d="m1.5 12.5h18.8v4.8h-18.8z"/>
	<path id="Layer" class="s2" d="m1.5 4.3h18.8v2.8h-18.8z"/>
	<g id="Layer" style="opacity: .5">
		<path id="Layer" class="s3" d="m7.8 10.4l-0.2-0.3-0.2 0.3h-0.2l0.3-0.4-0.3-0.4h0.2l0.2 0.3 0.2-0.3h0.2l-0.3 0.4 0.3 0.4z"/>
		<path id="Layer" class="s3" d="m8.9 10.2v0.2h-0.8v-0.1l0.5-0.4c0.1-0.1 0.1-0.2 0.1-0.3q0-0.1-0.2-0.1-0.1 0-0.2 0 0 0-0.1 0.1l-0.1-0.1q0.1-0.1 0.2-0.1 0.1-0.1 0.2-0.1c0.2 0 0.4 0.1 0.4 0.3q0 0.1-0.1 0.2 0 0.1-0.1 0.2l-0.3 0.2z"/>
	</g>
	<path id="Layer" class="s4" d="m16.4 10q0 0.2-0.1 0.4-0.2 0.3-0.4 0.4-0.3 0.1-0.5 0-0.3 0-0.5-0.2-0.2-0.2-0.2-0.5-0.1-0.2 0-0.5 0.1-0.2 0.3-0.4 0.3-0.1 0.5-0.1 0.4 0 0.6 0.3 0.3 0.2 0.3 0.6z"/>
	<path id="Layer" class="s1" d="m15.6 9.5h-0.1v0.9h0.1z"/>
	<path id="Layer" class="s1" d="m16 9.9h-1v0.1h1z"/>
	<path id="Layer" class="s4" d="m19 10q0 0.2-0.1 0.4-0.2 0.3-0.4 0.4-0.3 0.1-0.5 0-0.3 0-0.5-0.2-0.2-0.2-0.2-0.5-0.1-0.2 0-0.5 0.1-0.2 0.4-0.4 0.2-0.1 0.4-0.1 0.4 0 0.7 0.3 0.2 0.2 0.2 0.6z"/>
	<path id="Layer" class="s1" d="m18.6 9.9h-0.9v0.1h0.9z"/>
	<path id="Layer" class="s4" d="m3.1 10.8q-0.1 0-0.2 0 0 0.1 0 0.2 0 0.1 0 0.2c0.1 0 0.8 0.2 1.2 0.1 0.3 0 0.7 0 1.1 0 0.4 0 1.1 0 1.2-0.1q0-0.1 0-0.2 0-0.1 0-0.1-0.3-0.2-0.6-0.2c-0.2 0-2.7 0.1-2.7 0.1z"/>
	<g id="Layer" style="opacity: .3">
		<path id="Layer" class="s1" d="m3.1 10.8q-0.1 0-0.2 0 0 0.1 0 0.2 0 0.1 0 0.2c0.1 0 0.8 0.2 1.2 0.1 0.3 0 0.7 0 1.1 0 0.4 0 1.1 0 1.2-0.1q0-0.1 0-0.2 0-0.1 0-0.1-0.3-0.2-0.6-0.2c-0.2 0-2.7 0.1-2.7 0.1z"/>
	</g>
	<path id="Layer" class="s0" d="m3 10.5c0 0.1 0 0.3 0 0.3q0.4 0.1 0.7 0.1 0.4-0.1 0.8-0.1c0.4 0 0.6 0.1 0.7 0q0.1 0 0.4 0c0.1 0 0.3 0 0.4 0 0.1 0 0.1 0 0.2 0q0-0.1 0.1-0.1c0 0 0-0.1 0-0.1 0 0-0.1 0-0.1 0 0-0.1 0-0.1 0-0.1 0 0 0-0.1 0-0.1z"/>
	<g id="Layer" style="opacity: .2">
		<path id="Layer" class="s1" d="m3 10.5c0 0.1 0 0.3 0 0.3q0.4 0.1 0.7 0.1 0.4-0.1 0.8-0.1c0.4 0 0.6 0.1 0.7 0q0.1 0 0.4 0c0.1 0 0.3 0 0.4 0 0.1 0 0.1 0 0.2 0q0-0.1 0.1-0.1c0 0 0-0.1 0-0.1 0 0-0.1 0-0.1 0 0-0.1 0-0.1 0-0.1 0 0 0-0.1 0-0.1z"/>
	</g>
	<path id="Layer" class="s4" d="m4.3 10.6q0.2 0.1 0.4 0 0.2 0 0.3 0c0.1 0.1 0.1 0 0.2 0.1 0.2 0 0.1 0.1 0.3 0 0.2-0.1 0.3-0.1 0.4-0.1q0 0 0.1 0c0.1-0.1 0.3-0.1 0.3-0.1 0 0 0-0.1-0.2-0.1-0.1 0-2.1 0-2.1 0.1-0.1 0 0.3 0.1 0.3 0.1z"/>
	<g id="Layer" style="opacity: .2">
		<path id="Layer" class="s3" d="m4.3 10.6q0.2 0.1 0.4 0 0.2 0 0.3 0c0.1 0.1 0.1 0 0.2 0.1 0.2 0 0.1 0.1 0.3 0 0.2-0.1 0.3-0.1 0.4-0.1q0 0 0.1 0c0.1-0.1 0.3-0.1 0.3-0.1 0 0 0-0.1-0.2-0.1-0.1 0-2.1 0-2.1 0.1-0.1 0 0.3 0.1 0.3 0.1z"/>
	</g>
	<path id="Layer" class="s4" d="m3.2 10.4c0 0-0.3 0-0.3 0.1 0 0 0.1 0 0.1 0.1q0 0 0.1 0.1 0-0.1 0.1-0.1 0 0 0.1 0 0.1 0.1 0.2 0.1c0-0.1 0.1 0 0.2 0q0 0 0.1 0c0.1 0 0.2-0.1 0.2-0.1q0.2-0.1 0.3-0.1z"/>
	<path id="Layer" class="s0" d="m3 9.9q0 0.2 0 0.3 0 0.1 0 0.3 0.3-0.1 0.5 0c0.3 0 0.3 0.1 0.6 0.1q0.1-0.1 0.3-0.1c0.2 0 0.5-0.1 0.7 0 0.2 0 0.5-0.1 0.5 0 0 0 0.4 0 0.4 0 0 0 0.2-0.1 0.2-0.1 0-0.1 0-0.5 0-0.5z"/>
	<path id="Layer" class="s4" d="m3.6 10.4c0 0 1-0.1 1.1-0.1 0.1 0 0.2 0 0.5 0q0.2 0.1 0.4 0.1c0.2-0.1 0.4 0 0.4-0.1q-0.1 0.1-0.2 0.1-0.2 0-0.3 0-0.1 0-0.2 0c0 0-0.1 0-0.1 0 0 0.1-0.1 0.2-0.1 0.2q0-0.1-0.1-0.1c-0.1-0.1-0.3-0.2-0.3-0.1-0.1 0-0.2 0-0.3 0.1q0 0-0.1 0c-0.1 0-0.7-0.1-0.7-0.1z"/>
	<path id="Layer" class="s0" d="m3 9.9c0 0.1-0.1 0.3 0 0.3 0 0 0.3 0.1 0.7 0.1q0.3 0 0.7 0c0.5 0 0.6 0 0.7 0q0.2-0.1 0.4-0.1c0.2 0 0.4 0 0.4 0 0.1 0 0.1 0 0.2 0q0.1 0 0.2-0.1c0 0 0-0.1-0.1-0.1 0 0 0 0 0 0 0 0 0 0 0-0.1h-0.1z"/>
	<g id="Layer" style="opacity: .2">
		<path id="Layer" class="s1" d="m3 9.9c0 0.1-0.1 0.3 0 0.3 0 0 0.3 0.1 0.7 0.1q0.3 0 0.7 0c0.5 0 0.6 0 0.7 0q0.2-0.1 0.4-0.1c0.2 0 0.4 0 0.4 0 0.1 0 0.1 0 0.2 0q0.1 0 0.2-0.1c0 0 0-0.1-0.1-0.1 0 0 0 0 0 0 0 0 0 0 0-0.1h-0.1z"/>
	</g>
	<path id="Layer" class="s4" d="m4 9.8l1.1 0.7 1.1-0.8z"/>
	<g id="Layer" style="opacity: .6">
		<path id="Layer" class="s1" d="m4 9.8l1.1 0.7 1.1-0.8z"/>
	</g>
	<path id="Layer" class="s4" d="m2.9 9.8l0.4 0.6 1.6-0.6z"/>
	<g id="Layer" style="opacity: .6">
		<path id="Layer" class="s1" d="m2.9 9.8l0.4 0.6 1.6-0.6z"/>
	</g>
	<path id="Layer" class="s4" d="m3 9.8c0 0-0.2 0.2-0.2 0.2 0.1 0.1 0 0.2 0 0.2q0.2-0.1 0.4 0 0.3 0.1 0.6 0c0.1-0.1 0.4-0.1 0.5-0.1q0.1-0.2 0.2-0.4z"/>
	<path id="Layer" class="s4" d="m4.8 9.8c0 0 0.4 0.3 0.6 0.3 0.2 0 0.3 0 0.6 0 0.2 0 0.3 0.1 0.3 0q0-0.2 0-0.4z"/>
	<g id="Layer" style="opacity: .2">
		<path id="Layer" class="s3" d="m3 9.8c0 0-0.2 0.2-0.2 0.2 0.1 0.1 0 0.2 0 0.2q0.2-0.1 0.4 0 0.3 0.1 0.6 0c0.1-0.1 0.4-0.1 0.5-0.1q0.1-0.2 0.2-0.4z"/>
	</g>
	<g id="Layer" style="opacity: .2">
		<path id="Layer" class="s3" d="m4.8 9.8c0 0 0.4 0.3 0.6 0.3 0.2 0 0.3 0 0.6 0 0.2 0 0.3 0.1 0.3 0q0-0.2 0-0.4z"/>
	</g>
	<path id="Layer" class="s4" d="m2.9 10.8q0.2-0.1 0.3-0.1c0 0 0.6 0.1 0.7 0.1q0.1 0 0.3 0c0.1 0 0.1 0.1 0.2 0q0.2 0 0.3 0c0.1 0 0.1 0 0.2 0q0.1 0 0.3 0c0.1 0 0.1 0.1 0.2 0q0.2 0 0.3 0c0.1 0 0.2 0 0.3 0 0 0 0-0.1 0.1 0q0.1 0 0.2-0.1 0 0.1 0 0.1c0.1 0-0.1 0-0.2 0 0 0.1 0 0.1-0.1 0.1-0.2 0-0.1 0-0.2 0-0.1 0-0.1 0.1-0.2 0-0.1 0-0.1 0.1-0.2 0q-0.2 0-0.3 0c-0.1 0 0 0-0.1 0-0.1 0 0 0-0.2 0.1-0.2 0-0.2 0-0.3 0-0.1-0.1-0.1-0.1-0.2-0.1 0 0.1 0 0.1-0.1 0.1 0 0 0 0-0.1 0q-0.2 0-0.3 0c-0.1 0-0.3-0.1-0.3-0.1q-0.1 0-0.2 0c-0.1 0-0.2 0-0.2 0 0 0-0.2-0.1-0.2-0.1z"/>
	<g id="Layer" style="opacity: .2">
		<path id="Layer" class="s3" d="m2.9 10.8q0.2-0.1 0.3-0.1c0 0 0.6 0.1 0.7 0.1q0.1 0 0.3 0c0.1 0 0.1 0.1 0.2 0q0.2 0 0.3 0c0.1 0 0.1 0 0.2 0q0.1 0 0.3 0c0.1 0 0.1 0.1 0.2 0q0.2 0 0.3 0c0.1 0 0.2 0 0.3 0 0 0 0-0.1 0.1 0q0.1 0 0.2-0.1 0 0.1 0 0.1c0.1 0-0.1 0-0.2 0 0 0.1 0 0.1-0.1 0.1-0.2 0-0.1 0-0.2 0-0.1 0-0.1 0.1-0.2 0-0.1 0-0.1 0.1-0.2 0q-0.2 0-0.3 0c-0.1 0 0 0-0.1 0-0.1 0 0 0-0.2 0.1-0.2 0-0.2 0-0.3 0-0.1-0.1-0.1-0.1-0.2-0.1 0 0.1 0 0.1-0.1 0.1 0 0 0 0-0.1 0q-0.2 0-0.3 0c-0.1 0-0.3-0.1-0.3-0.1q-0.1 0-0.2 0c-0.1 0-0.2 0-0.2 0 0 0-0.2-0.1-0.2-0.1z"/>
	</g>
	<path id="Layer" class="s4" d="m6.5 9.9c0 0 0-0.1 0-0.2 0-0.6-0.9-1.1-1.9-1.1-1 0-1.8 0.5-1.8 1.1 0 0.1 0 0.2 0 0.2 0.1 0.1 1 0 1.8 0 0.8 0 1.7 0.1 1.9 0z"/>
	<g id="Layer" style="opacity: .3">
		<path id="Layer" class="s1" d="m6.5 9.9c0 0 0-0.1 0-0.2 0-0.6-0.9-1.1-1.9-1.1-1 0-1.8 0.5-1.8 1.1 0 0.1 0 0.2 0 0.2 0.1 0.1 1 0 1.8 0 0.8 0 1.7 0.1 1.9 0z"/>
	</g>
	<path id="Layer" class="s4" d="m4.6 8.8c0 0 0.1 0.1 0 0.1 0 0 0-0.1 0-0.1z"/>
	<path id="Layer" class="s4" d="m5.2 8.8c0 0 0.1 0 0.1 0 0 0.1-0.1 0-0.1 0z"/>
	<path id="Layer" class="s4" d="m4.2 8.8c0 0-0.1 0.1-0.2 0.1 0-0.1 0.2-0.1 0.2-0.1z"/>
	<g id="Layer" style="opacity: .5">
		<path id="Layer" class="s3" d="m7.5 15.4l-0.2-0.3-0.2 0.3h-0.3l0.4-0.4-0.3-0.4h0.2l0.2 0.2 0.2-0.2h0.2l-0.3 0.4 0.3 0.4z"/>
		<path id="Layer" class="s3" d="m8.2 14.3v1.1h-0.2v-0.9h-0.2v-0.2z"/>
	</g>
	<path id="Layer" class="s4" d="m16.1 15q0 0.2-0.2 0.4-0.1 0.3-0.4 0.4-0.2 0.1-0.5 0-0.2 0-0.4-0.2-0.2-0.2-0.3-0.5 0-0.2 0.1-0.5 0.1-0.2 0.3-0.4 0.2-0.1 0.5-0.1 0.4 0 0.6 0.2 0.3 0.3 0.3 0.7z"/>
	<path id="Layer" class="s1" d="m15.3 14.5h-0.2v0.9h0.2z"/>
	<path id="Layer" class="s1" d="m15.7 14.9h-1v0.1h1z"/>
	<path id="Layer" class="s4" d="m18.7 15q0 0.2-0.1 0.4-0.2 0.3-0.4 0.4-0.3 0.1-0.5 0-0.3 0-0.5-0.2-0.2-0.2-0.2-0.5-0.1-0.2 0-0.5 0.1-0.2 0.3-0.4 0.3-0.1 0.5-0.1 0.2 0 0.4 0.1 0.1 0 0.2 0.1 0.2 0.2 0.2 0.3 0.1 0.2 0.1 0.4z"/>
	<path id="Layer" class="s1" d="m18.3 14.9h-1v0.1h1z"/>
	<path id="Layer" class="s4" d="m4.7 13.4h-0.8q-0.3 0.2-0.5 0.4-0.2 0.3-0.2 0.6h2.2q0-0.3-0.2-0.6-0.2-0.2-0.5-0.4z"/>
	<g id="Layer" style="opacity: .6">
		<path id="Layer" class="s1" d="m4.7 13.4h-0.8q-0.3 0.2-0.5 0.4-0.2 0.3-0.2 0.6h2.2q0-0.3-0.2-0.6-0.2-0.2-0.5-0.4z"/>
	</g>
	<g id="Layer" style="opacity: .2">
		<path id="Layer" class="s3" d="m4 12.9l-0.2 0.1 0.8 2.1h0.2z"/>
	</g>
	<path id="Layer" class="s4" d="m5.2 16.8l0.2-2.3h-2.2l0.2 2.3z"/>
	<path id="Layer" class="s4" d="m5.5 14.6h-2.4v-0.3h2.4z"/>
	<g id="Layer" style="opacity: .4">
		<path id="Layer" class="s1" d="m5.5 14.6h-2.4v-0.3h2.4z"/>
	</g>
	<path id="Layer" class="s2" d="m1.5 17.8h18.8v2.9h-18.8z"/>
	<path id="Layer" fill-rule="evenodd" class="s1" d="m8.3 19c0 0.2-0.2 0.4-0.5 0.4h-0.2v0.3h-0.2v-1.1h0.4c0.3 0 0.5 0.2 0.5 0.4zm-0.2 0q0-0.2-0.3-0.2h-0.2v0.4h0.2q0.3 0 0.3-0.2z"/>
	<path id="Layer" fill-rule="evenodd" class="s1" d="m9.2 19.2v0.5h-0.2v-0.1q-0.1 0-0.1 0.1-0.1 0-0.2 0c-0.2 0-0.3-0.1-0.3-0.3 0-0.1 0.1-0.2 0.4-0.2h0.2q0-0.2-0.2-0.2-0.2 0-0.3 0.1l-0.1-0.1q0.2-0.2 0.4-0.1 0.4-0.1 0.4 0.3zm-0.2 0.2v-0.1h-0.2c-0.2 0-0.2 0.1-0.2 0.1q0 0.1 0.2 0.2 0 0 0.1-0.1 0 0 0.1-0.1z"/>
	<path id="Layer" class="s1" d="m10.2 18.9l-0.4 0.9q0 0.1-0.1 0.1-0.1 0.1-0.2 0.1-0.2 0-0.3-0.1l0.1-0.1q0.1 0 0.2 0 0.1 0 0.1-0.1l-0.3-0.8h0.2l0.2 0.6 0.3-0.6z"/>
	<path id="Layer" class="s1" d="m11.7 19.2v0.5h-0.2v-0.5q0-0.2-0.2-0.2c-0.1 0-0.2 0.1-0.2 0.3v0.4h-0.2v-0.5q0-0.2-0.2-0.2c-0.1 0-0.2 0.1-0.2 0.3v0.4h-0.2v-0.8h0.2v0.1q0.1-0.1 0.1-0.1 0.1-0.1 0.2 0 0.1-0.1 0.1 0 0.1 0 0.2 0.1 0-0.1 0.1-0.1 0.1-0.1 0.2 0 0-0.1 0.1 0 0.1 0 0.1 0.1 0.1 0 0.1 0.1 0 0 0 0.1z"/>
	<path id="Layer" fill-rule="evenodd" class="s1" d="m12.8 19.3h-0.7q0 0.1 0.1 0.2 0.1 0 0.2 0 0.1 0 0.1 0 0.1 0 0.1-0.1l0.1 0.2q0 0-0.1 0.1-0.1 0-0.2 0-0.1 0-0.2 0-0.1-0.1-0.1-0.1-0.1-0.1-0.1-0.2-0.1 0-0.1-0.1 0-0.1 0-0.2 0.1-0.1 0.1-0.1 0.1-0.1 0.2-0.1 0.1-0.1 0.2 0 0-0.1 0.1 0 0.1 0 0.2 0.1 0 0 0.1 0.1 0 0.1 0 0.2 0 0 0 0zm-0.2-0.1q0-0.1-0.1-0.1-0.1-0.1-0.1-0.1-0.1 0-0.2 0.1-0.1 0-0.1 0.1z"/>
	<path id="Layer" class="s1" d="m13.8 19.2v0.5h-0.2v-0.5q0-0.2-0.2-0.2-0.1 0-0.1 0-0.1 0.1-0.1 0.1 0 0 0 0.1-0.1 0 0 0.1v0.4h-0.2v-0.8h0.1v0.1q0.1-0.1 0.2-0.1 0.1-0.1 0.1 0 0.1-0.1 0.2 0 0 0 0.1 0.1 0 0 0.1 0.1 0 0 0 0.1z"/>
	<path id="Layer" class="s1" d="m14.5 19.6q0 0.1-0.2 0.1 0 0-0.1 0 0 0-0.1-0.1 0 0 0-0.1 0 0 0-0.1v-0.4h-0.2v-0.1h0.2v-0.2h0.2v0.2h0.2v0.1h-0.2v0.4q0 0.1 0.1 0.1 0 0 0.1 0z"/>
	<path id="Layer" class="s1" d="m1.5 21.1h18.8v5.3h-18.8z"/>
	<g id="Layer" style="opacity: .5">
		<path id="Layer" class="s3" d="m11 23.7l0.2 0.1v0.1l-0.2-0.1v0.2h-0.1v-0.2l-0.2 0.1-0.1-0.1 0.2-0.1-0.2-0.1 0.1-0.1 0.2 0.1v-0.2h0.1v0.2l0.2-0.1v0.1z"/>
		<path id="Layer" class="s3" d="m11.7 23.7l0.2 0.1-0.1 0.1-0.1-0.1v0.2h-0.2v-0.2l-0.1 0.1-0.1-0.1 0.2-0.1-0.2-0.1 0.1-0.1 0.1 0.1v-0.2h0.2v0.2l0.1-0.1 0.1 0.1z"/>
		<path id="Layer" class="s3" d="m12.4 23.7l0.2 0.1-0.1 0.1-0.1-0.1v0.2h-0.2v-0.2l-0.1 0.1-0.1-0.1 0.2-0.1-0.2-0.1 0.1-0.1 0.1 0.1v-0.2h0.2v0.2l0.1-0.1 0.1 0.1z"/>
		<path id="Layer" class="s3" d="m13.1 23.7l0.2 0.1-0.1 0.1-0.2-0.1v0.2h-0.1v-0.2l-0.2 0.1v-0.1l0.1-0.1-0.1-0.1v-0.1l0.2 0.1v-0.2h0.1v0.2l0.2-0.1 0.1 0.1z"/>
		<path id="Layer" class="s3" d="m14.2 23.7l0.2 0.1-0.1 0.1-0.2-0.1v0.2h-0.1v-0.2l-0.2 0.1v-0.1l0.1-0.1-0.1-0.1v-0.1l0.2 0.1v-0.2h0.1v0.2l0.2-0.1 0.1 0.1z"/>
		<path id="Layer" class="s3" d="m14.9 23.7l0.2 0.1-0.1 0.1-0.2-0.1v0.2h-0.1v-0.2l-0.2 0.1v-0.1l0.1-0.1-0.1-0.1v-0.1l0.2 0.1v-0.2h0.1v0.2l0.2-0.1 0.1 0.1z"/>
		<path id="Layer" class="s3" d="m15.6 23.7l0.1 0.1v0.1l-0.2-0.1v0.2h-0.1v-0.2l-0.2 0.1-0.1-0.1 0.2-0.1-0.2-0.1 0.1-0.1 0.2 0.1v-0.2h0.1v0.2l0.2-0.1v0.1z"/>
		<path id="Layer" class="s3" d="m16.2 23.7l0.2 0.1v0.1l-0.2-0.1v0.2h-0.1v-0.2l-0.2 0.1-0.1-0.1 0.2-0.1-0.2-0.1 0.1-0.1 0.2 0.1v-0.2h0.1v0.2l0.2-0.1v0.1z"/>
		<path id="Layer" class="s3" d="m17.3 23.7l0.2 0.1-0.1 0.1-0.1-0.1v0.2h-0.2v-0.2l-0.1 0.1-0.1-0.1 0.2-0.1-0.2-0.1 0.1-0.1 0.2 0.1v-0.2h0.1v0.2l0.2-0.1v0.1z"/>
		<path id="Layer" class="s3" d="m18 23.7l0.2 0.1-0.1 0.1-0.1-0.1v0.2h-0.2v-0.2l-0.1 0.1-0.1-0.1 0.2-0.1-0.2-0.1 0.1-0.1 0.1 0.1v-0.2h0.2v0.2l0.1-0.1 0.1 0.1z"/>
		<path id="Layer" class="s3" d="m18.7 23.7l0.2 0.1-0.1 0.1-0.2-0.1v0.2h-0.1v-0.2l-0.2 0.1v-0.1l0.2-0.1-0.2-0.1v-0.1l0.2 0.1v-0.2h0.1v0.2l0.2-0.1 0.1 0.1z"/>
	</g>
	<path id="Layer" class="s4" d="m2.9 22.6h3.4v2.2h-3.4z"/>
	<g id="Layer" style="opacity: .5">
		<path id="Layer" class="s3" d="m2.9 23.8h3.4v0.6h-3.4z"/>
	</g>
	<g id="Layer" style="opacity: .5">
		<path id="Layer" class="s3" d="m6 23.4q0 0.1 0 0.1-0.1 0.1-0.1 0.1-0.1 0-0.1 0-0.1 0-0.1-0.1 0 0 0 0 0-0.1 0-0.1 0-0.1 0-0.1 0.1 0 0.1 0 0.1 0 0.1 0 0 0 0.1 0 0 0 0 0.1 0 0 0 0z"/>
	</g>
	<path id="Layer" class="s1" d="m5.8 23.4q0 0.1 0 0.1-0.1 0.1-0.1 0.1-0.1 0-0.1 0-0.1 0-0.1-0.1 0 0-0.1 0 0-0.1 0.1-0.1 0-0.1 0-0.1 0.1 0 0.1 0 0.1 0 0.1 0 0.1 0.1 0.1 0.1z"/>
	<path id="Layer" class="s2" d="m15.1 29.3h-8.4c-1.1 0-2 0.9-2 1.9 0 1 0.9 1.9 2 1.9h8.4c1.1 0 2-0.9 2-1.9 0-1-0.9-1.9-2-1.9z"/>
	<path id="Layer" fill-rule="evenodd" class="s1" d="m7.1 31.1q0-0.2 0.1-0.4 0.1-0.2 0.3-0.3 0.3-0.1 0.5-0.1 0.2 0 0.4 0.2 0.2 0.2 0.2 0.4 0.1 0.2 0 0.4-0.1 0.3-0.3 0.4-0.2 0.1-0.4 0.1-0.2 0-0.3 0-0.2-0.1-0.3-0.2-0.1-0.1-0.2-0.2 0-0.2 0-0.3zm1.3 0q0-0.2-0.1-0.3-0.1-0.1-0.2-0.2-0.2 0-0.3 0-0.2 0-0.3 0.1-0.1 0.1-0.1 0.3-0.1 0.1 0 0.3 0 0.1 0.2 0.2 0.1 0.1 0.3 0.1 0.1 0 0.2 0 0-0.1 0.1-0.1 0.1-0.1 0.1-0.2 0.1-0.1 0.1-0.2z"/>
	<path id="Layer" fill-rule="evenodd" class="s1" d="m9.9 31.8l-0.3-0.4h-0.4v0.4h-0.3v-1.4h0.6c0.4 0 0.6 0.2 0.6 0.5q0 0.1-0.1 0.3 0 0.1-0.2 0.1l0.3 0.5zm-0.3-1.2h-0.3v0.6h0.3q0.3 0 0.3-0.3 0-0.3-0.3-0.3z"/>
	<path id="Layer" fill-rule="evenodd" class="s1" d="m10.4 30.4h0.6c0.5 0 0.8 0.3 0.8 0.7 0 0.4-0.3 0.7-0.8 0.7h-0.6zm0.6 1.2c0.4 0 0.6-0.2 0.6-0.5 0-0.3-0.3-0.5-0.6-0.5h-0.3v1z"/>
	<path id="Layer" class="s1" d="m13.2 31.6v0.2h-1.1v-1.4h1.1v0.2h-0.8v0.4h0.7v0.2h-0.7v0.4z"/>
	<path id="Layer" fill-rule="evenodd" class="s1" d="m14.4 31.8l-0.3-0.4h-0.3v0.4h-0.3v-1.4h0.6c0.4 0 0.6 0.2 0.6 0.5q0 0.1-0.1 0.3-0.1 0.1-0.2 0.1l0.3 0.5zm-0.3-1.2h-0.4v0.6h0.4q0.3 0 0.3-0.3 0-0.3-0.3-0.3z"/>
	<path id="Layer" fill-rule="evenodd" class="s1" d="m8.2 5.1h0.5c0.4 0 0.6 0.2 0.6 0.5 0 0.3-0.2 0.5-0.6 0.5h-0.5zm0.5 1q0.1 0 0.2-0.1 0 0 0.1 0 0.1-0.1 0.1-0.2 0 0 0-0.1 0-0.1 0-0.2 0 0-0.1-0.1-0.1 0-0.1-0.1-0.1 0-0.2 0h-0.3v0.8z"/>
	<path id="Layer" fill-rule="evenodd" class="s1" d="m10.3 5.8h-0.6q0 0.1 0 0.1 0.1 0.1 0.2 0.1 0.1 0 0.1 0 0.1-0.1 0.2-0.1l0.1 0.1q-0.1 0.1-0.3 0.1-0.1 0.1-0.2 0-0.2 0-0.3-0.1 0-0.1 0-0.3 0-0.1 0-0.1 0-0.1 0.1-0.2 0 0 0.1-0.1 0.1 0 0.2 0 0.1 0 0.2 0 0 0.1 0.1 0.1 0.1 0.1 0.1 0.2 0 0.1 0 0.1 0 0.1 0 0.1zm-0.6-0.1h0.4q0-0.1-0.1-0.2 0 0-0.1 0-0.1 0-0.2 0 0 0.1 0 0.2z"/>
	<path id="Layer" class="s1" d="m11 6.1q-0.1 0.1-0.2 0.1 0 0-0.1-0.1-0.1 0-0.1 0 0-0.1-0.1-0.1 0-0.1 0-0.1v-0.4h-0.1v-0.2h0.1v-0.2h0.2v0.2h0.2v0.2h-0.2v0.4q0 0 0 0 0 0 0 0.1 0.1 0 0.1 0 0 0 0 0 0.1 0 0.1 0z"/>
	<path id="Layer" fill-rule="evenodd" class="s1" d="m11.9 5.7v0.4h-0.2v-0.1q-0.1 0.1-0.1 0.1-0.1 0.1-0.2 0.1c-0.2 0-0.3-0.1-0.3-0.3 0-0.1 0.1-0.2 0.3-0.2h0.3q0-0.2-0.2-0.2-0.2 0-0.3 0.1l-0.1-0.2q0.2-0.1 0.4-0.1 0.4 0 0.4 0.4zm-0.2 0.2v-0.1h-0.2c-0.2 0-0.2 0-0.2 0.1q0 0.1 0.2 0.1 0 0 0.1 0 0 0 0.1-0.1z"/>
	<path id="Layer" class="s1" d="m12.1 5.1q0-0.1 0-0.1 0 0 0 0 0 0 0.1-0.1 0 0 0 0 0 0 0.1 0 0 0.1 0 0.1 0 0 0 0 0.1 0 0.1 0.1-0.1 0-0.1 0 0 0-0.1 0 0 0-0.1 0 0 0 0 0zm0 0.2h0.2v0.8h-0.2z"/>
	<path id="Layer" class="s1" d="m12.6 5h0.2v1.1h-0.2z"/>
	<path id="Layer" class="s1" d="m12.9 6.1l0.1-0.2q0.1 0.1 0.3 0.1 0.2 0 0.2-0.1c0-0.1-0.6 0-0.6-0.3 0-0.2 0.2-0.3 0.4-0.3q0.2 0 0.3 0.1v0.1q-0.2 0-0.3 0-0.2 0-0.2 0.1c0 0.1 0.6 0 0.6 0.3 0 0.2-0.2 0.3-0.4 0.3q-0.2 0-0.4-0.1z"/>
	<g id="Layer" style="opacity: .6">
		<path id="Layer" class="s1" d="m3.3 2.4h-0.3v0.3h0.3z"/>
	</g>
	<g id="Layer" style="opacity: .6">
		<path id="Layer" class="s1" d="m2.8 2.3h-0.2v0.4h0.2z"/>
	</g>
	<g id="Layer" style="opacity: .6">
		<path id="Layer" class="s1" d="m2.4 2.2h-0.2v0.5h0.2z"/>
	</g>
	<g id="Layer" style="opacity: .6">
		<path id="Layer" class="s1" d="m2 2h-0.2v0.7h0.2z"/>
	</g>
	<g id="Layer" style="opacity: .6">
		<path id="Layer" class="s1" d="m18.9 2.3h-0.1v0.3h0.1z"/>
	</g>
	<g id="Layer" style="opacity: .6">
		<path id="Layer" class="s1" d="m20.2 2.1h-1.2v0.6h1.2z"/>
	</g>
</svg>