<svg version="1.2" xmlns="http://www.w3.org/2000/svg" viewBox="0 0 85 62" width="85" height="62">
	<title>device_7_x2-svg</title>
	<style>
		.s0 { fill: #e6e6e6 } 
		.s1 { fill: #263238 } 
		.s2 { fill: #455a64 } 
		.s3 { fill: #37474f } 
		.s4 { fill: #353537 } 
		.s5 { fill: #ff5904 } 
		.s6 { fill: #f4f4f4 } 
		.s7 { fill: #fafafa } 
		.s8 { fill: #e0e0e0 } 
	</style>
	<path id="Layer" class="s0" d="m0 11.3c0.8-0.4 1.9-0.3 3.1 0.4q0.9 0.5 1.6 1.2c1.7 1.7 2.9 4.3 2.9 6.5 0 2.9 2 6.4 4.5 7.8l4.5 2.6 19.2-11-4.5-2.6c-2.5-1.5-4.5-4.9-4.5-7.8 0-2.9-2.1-6.4-4.5-7.8-1.2-0.7-2.4-0.8-3.2-0.3h-0.1l-6.3 3.7-1 0.6z"/>
	<path id="Layer" class="s1" d="m56.8 26.7q0 0-0.1 0 0 0-0.1 0l-0.5 0.3q-0.1 0.1-0.2 0.2 0 0.1 0 0.2v6.5l23.2 13.1 0.9-6.9z"/>
	<path id="Layer" class="s2" d="m80 40.1q0 0-0.1 0 0 0 0 0l-0.6 0.3q-0.1 0.1-0.1 0.2l-23.3-13.4q0.1-0.1 0.2-0.2l0.5-0.3q0.1 0 0.1 0 0.1 0 0.1 0z"/>
	<path id="Layer" class="s3" d="m79.9 40.1l-0.6 0.3q-0.1 0.1-0.1 0.2-0.1 0.1-0.1 0.2v6.2l1 0.6v-7.4c0-0.1-0.1-0.1-0.2-0.1z"/>
	<path id="Layer" class="s4" d="m79.1 47v0.5l-1.4 0.6-23.3-13.4 1.5-0.8z"/>
	<path id="Layer" class="s3" d="m78.1 49l1.8-1.1q0.1 0 0.1-0.1 0.1-0.1 0.1-0.2l-1-0.6q0 0.1-0.1 0.2 0 0.1-0.1 0.2l-0.6 0.3c-0.1 0.1-0.2 0-0.2-0.1z"/>
	<path id="Layer" class="s5" d="m83.5 48.3q0.2-0.1 0.2-0.3 0.1-0.2 0.2-0.4v-20.9q-0.1-0.2-0.2-0.4-0.1-0.2-0.2-0.3l-26.9-15.5q-0.2-0.1-0.4-0.1-0.2 0-0.4 0.1-0.1 0.1-0.2 0.3-0.1 0.1-0.1 0.3v21q0 0.2 0.1 0.4 0.1 0.1 0.3 0.3l26.8 15.5q0.2 0.1 0.4 0.1 0.2 0 0.4-0.1z"/>
	<path id="Layer" class="s5" d="m83.1 27.1v20.9c0 0.3-0.1 0.4-0.4 0.3l-26.8-15.5q-0.2-0.2-0.3-0.3-0.1-0.2-0.1-0.4v-21c0-0.2 0.2-0.3 0.4-0.2l26.8 15.5q0.2 0.1 0.3 0.3 0.1 0.2 0.1 0.4z"/>
	<g id="Layer" style="opacity: .2">
		<path id="Layer" class="s4" d="m83.9 26.7v20.9q-0.1 0.2-0.2 0.4 0 0.2-0.2 0.3-0.2 0-0.3 0.1-0.2 0-0.4-0.1c0.2 0 0.3-0.1 0.3-0.3v-20.9q0-0.2-0.1-0.4l0.7-0.4q0.1 0.2 0.2 0.4z"/>
	</g>
	<path id="Layer" class="s2" d="m80.9 32.6v3.3c0 0.2-0.1 0.3-0.3 0.2l-4.4-2.5q-0.1-0.1-0.2-0.3-0.1-0.2-0.2-0.4v-3.3c0-0.2 0.2-0.3 0.4-0.2l4.4 2.5q0.1 0.1 0.2 0.3 0.1 0.2 0.1 0.4z"/>
	<path id="Layer" class="s6" d="m75.1 33.7l0.1 0.2 6.5-3.8-0.1-0.2z"/>
	<path id="Layer" class="s6" d="m79.6 32.5h-0.2v1.7h0.2z"/>
	<path id="Layer" class="s6" d="m77.4 31.3h-0.2v1.7h0.2z"/>
	<path id="Layer" class="s6" d="m75.1 35.4l0.1 0.1 6.5-3.7-0.1-0.2z"/>
	<path id="Layer" class="s7" d="m80.9 38.9v0.7c0 0.3-0.1 0.4-0.3 0.3l-4.4-2.5q-0.1-0.1-0.2-0.3-0.1-0.2-0.2-0.4v-0.8c0-0.2 0.2-0.3 0.4-0.2l4.4 2.5q0.1 0.1 0.2 0.3 0.1 0.2 0.1 0.4z"/>
	<path id="Layer" class="s7" d="m74.9 35.4v0.7c0 0.3-0.2 0.4-0.4 0.3l-4.3-2.5q-0.2-0.1-0.3-0.3-0.1-0.2-0.1-0.4v-0.8c0-0.2 0.1-0.3 0.4-0.2l4.3 2.5q0.1 0.1 0.3 0.3 0.1 0.2 0.1 0.4z"/>
	<path id="Layer" class="s7" d="m68.8 31.9v0.7c0 0.3-0.2 0.4-0.4 0.3l-4.3-2.5q-0.2-0.1-0.3-0.3-0.1-0.2-0.1-0.4v-0.8c0-0.2 0.2-0.3 0.4-0.2l4.3 2.5q0.2 0.1 0.3 0.3 0.1 0.2 0.1 0.4z"/>
	<path id="Layer" class="s7" d="m62.8 28.4v0.8c0 0.2-0.2 0.3-0.4 0.2l-4.3-2.5q-0.2-0.1-0.3-0.3-0.1-0.2-0.1-0.4v-0.8c0-0.2 0.1-0.3 0.4-0.2l4.3 2.5q0.1 0.1 0.2 0.3 0.1 0.2 0.2 0.4z"/>
	<g id="Layer" style="opacity: .1">
		<path id="Layer" class="s4" d="m60.1 29.3l1 0.6q0.1 0 0.1 0.2 0.1 0.1 0.1 0.2v0.3c0 0.1-0.1 0.2-0.2 0.1l-1-0.5q-0.1-0.1-0.2-0.2 0-0.1-0.1-0.2v-0.3c0-0.2 0.2-0.3 0.3-0.2z"/>
	</g>
	<g id="Layer" style="opacity: .1">
		<path id="Layer" class="s4" d="m57.9 28l1 0.6q0.1 0.1 0.1 0.2 0.1 0.1 0.1 0.2v0.3c0 0.2-0.1 0.2-0.2 0.2l-1-0.6q-0.1-0.1-0.2-0.2 0-0.1 0-0.2v-0.3c0-0.2 0.1-0.2 0.2-0.2z"/>
	</g>
	<g id="Layer" style="opacity: .1">
		<path id="Layer" class="s4" d="m70.4 37.4l-12.3-7.2c-0.2-0.1-0.4 0-0.4 0.3v0.3q0 0.2 0.1 0.4 0.1 0.2 0.3 0.3l12.3 7.1c0.2 0.1 0.4 0 0.4-0.2v-0.4q0-0.2-0.1-0.4-0.1-0.1-0.3-0.2z"/>
	</g>
	<path id="Layer" class="s6" d="m58 16.9q-0.3-0.6-0.3-1.1 0-0.6 0.3-0.8 0.2-0.2 0.7 0.1 0.2 0.1 0.4 0.2 0.1 0.2 0.2 0.3 0.1 0.1 0.1 0.1 0 0-0.1 0l-0.1 0.2q0 0 0 0 0 0 0 0-0.2-0.2-0.4-0.4-0.3-0.1-0.5 0-0.1 0.1-0.1 0.5 0 0.4 0.1 0.7 0.2 0.3 0.5 0.5 0.2 0.1 0.4 0.1 0 0 0 0 0.1 0 0.1 0.1l0.1 0.3q0 0 0 0 0 0 0 0.1-0.2 0-0.7-0.2-0.4-0.3-0.7-0.7z"/>
	<path id="Layer" fill-rule="evenodd" class="s6" d="m59.6 18q0 0 0-0.1v-2.1q0-0.1 0-0.1 0.1 0 0.1 0l0.7 0.4q0.3 0.2 0.5 0.5 0.2 0.3 0.2 0.7 0 0.2-0.1 0.3 0 0.1-0.1 0.1-0.1 0.1-0.1 0.1l0.2 1q0.1 0 0 0 0 0.1 0 0l-0.3-0.1q0 0-0.1-0.1 0 0 0 0l-0.2-1-0.3-0.1v0.7q0 0-0.1 0.1 0 0-0.1-0.1l-0.2-0.1q0 0-0.1-0.1zm0.7-0.8q0.2 0.1 0.3 0 0 0 0-0.2 0.1-0.2 0-0.3-0.1-0.1-0.2-0.2l-0.3-0.2v0.7z"/>
	<path id="Layer" class="s6" d="m61.3 19q0-0.1 0-0.1v-2.1q0-0.1 0-0.1 0.1-0.1 0.1 0l1.1 0.6q0.1 0 0.1 0.1 0 0.1 0 0.1v0.2q0 0 0 0.1 0 0-0.1-0.1l-0.8-0.4v0.5l0.6 0.4q0 0 0.1 0 0 0.1 0 0.2v0.1q0 0.1 0 0.1 0 0-0.1 0l-0.6-0.3v0.6l0.8 0.4q0.1 0 0.1 0.1 0 0.1 0 0.1v0.2q0 0 0 0.1 0 0-0.1-0.1l-1.1-0.6q0 0-0.1-0.1z"/>
	<path id="Layer" fill-rule="evenodd" class="s6" d="m62.9 19.9q-0.1-0.1-0.1-0.1v-2.2q0 0 0.1-0.1 0 0 0.1 0.1l0.5 0.3q0.5 0.2 0.7 0.7 0.3 0.5 0.2 1 0 0.6-0.2 0.8-0.2 0.2-0.7-0.1l-0.5-0.3q-0.1-0.1-0.1-0.1zm0.6 0q0.3 0.1 0.4 0 0.1-0.1 0.1-0.5 0-0.4-0.1-0.7-0.1-0.2-0.4-0.4l-0.2-0.1v1.5z"/>
	<path id="Layer" class="s6" d="m64.7 20.9q0 0 0-0.1v-2.1q0-0.1 0-0.1 0 0 0.1 0l0.2 0.1q0 0.1 0.1 0.1 0 0.1 0 0.2v2.1q0 0 0 0.1 0 0-0.1 0l-0.2-0.2q-0.1 0-0.1-0.1z"/>
	<path id="Layer" class="s6" d="m65.8 21.6q0 0 0-0.1v-1.8l-0.4-0.3q-0.1 0-0.1-0.1 0 0 0-0.1v-0.1q0-0.1 0-0.1 0-0.1 0.1 0l1.3 0.7q0.1 0.1 0.1 0.1 0 0.1 0 0.2v0.1q0 0.1 0 0.1 0 0-0.1 0l-0.4-0.3v1.8q0 0.1-0.1 0.1 0 0-0.1 0l-0.2-0.1q0 0-0.1-0.1z"/>
	<path id="Layer" class="s6" d="m68.1 22.7q-0.2-0.5-0.2-1.1 0-0.6 0.2-0.8 0.3-0.2 0.8 0.1 0.1 0.1 0.3 0.3 0.2 0.1 0.3 0.3 0 0 0 0 0 0.1 0 0.1l-0.1 0.2q0 0 0 0-0.1-0.1-0.1-0.1-0.2-0.2-0.4-0.3-0.3-0.2-0.4-0.1-0.2 0.2-0.2 0.6 0 0.3 0.2 0.7 0.1 0.3 0.4 0.4 0.2 0.2 0.4 0.2 0.1 0 0.1 0 0 0 0 0l0.1 0.3q0 0 0 0.1 0 0 0 0-0.2 0.1-0.6-0.2-0.5-0.2-0.8-0.7z"/>
	<path id="Layer" fill-rule="evenodd" class="s6" d="m69.6 23.8q0-0.1 0-0.1l0.7-1.8q0 0 0.1 0 0 0 0 0 0 0 0 0l0.2 0.1q0.1 0 0.1 0 0 0.1 0 0.2l0.7 2.5q0 0.1 0 0.1 0 0.1 0 0l-0.4-0.1q0-0.1 0-0.1 0 0 0-0.1l-0.2-0.5-0.6-0.3-0.1 0.3q0 0.1-0.1 0.1 0 0 0 0 0 0 0-0.1l-0.3-0.1q-0.1-0.1-0.1-0.1 0 0 0 0zm1.1-0.2l-0.2-0.9-0.2 0.6z"/>
	<path id="Layer" fill-rule="evenodd" class="s6" d="m71.7 25q0-0.1 0-0.2v-2.1q-0.1 0 0-0.1 0 0 0.1 0.1l0.7 0.3q0.3 0.2 0.5 0.5 0.1 0.4 0.1 0.7 0 0.2-0.1 0.4 0 0.1-0.1 0.1 0 0-0.1 0l0.3 1q0 0 0 0.1 0 0-0.1 0l-0.3-0.2q0 0 0 0 0 0 0-0.1l-0.3-0.9-0.3-0.2v0.7q0 0.1 0 0.1-0.1 0-0.1 0l-0.2-0.1q-0.1-0.1-0.1-0.1zm0.7-0.8q0.1 0 0.2 0 0.1 0 0.1-0.2 0-0.2-0.1-0.3-0.1-0.2-0.2-0.2l-0.3-0.2v0.7z"/>
	<path id="Layer" fill-rule="evenodd" class="s6" d="m73.4 26q-0.1-0.1-0.1-0.2v-2.1q0 0 0 0 0.1-0.1 0.1-0.1 0 0 0.1 0l0.5 0.4q0.5 0.2 0.7 0.6 0.3 0.5 0.3 1.1 0 0.6-0.3 0.8-0.2 0.1-0.7-0.1l-0.5-0.3q-0.1-0.1-0.1-0.1zm0.6 0q0.3 0.1 0.4 0 0.1-0.1 0.1-0.5 0-0.4-0.1-0.7-0.1-0.3-0.4-0.4l-0.2-0.1v1.5z"/>
	<g id="Layer" style="opacity: .5">
		<path id="Layer" class="s7" d="m83.7 26.3l-0.7 0.4q-0.1-0.2-0.3-0.3l-26.8-15.5c-0.2-0.1-0.4 0-0.4 0.2q0-0.2 0.1-0.4 0.1-0.1 0.3-0.2 0.1-0.1 0.3-0.1 0.2 0 0.4 0.1l26.9 15.5q0.1 0.1 0.2 0.3z"/>
	</g>
	<path id="Layer" class="s1" d="m78.1 41.2l-2.3 1.3q-0.1 0.1-0.1 0.3v7.3q0 0 0 0.1 0 0 0.1 0l-23.3-13.4q0 0 0 0 0-0.1 0-0.1v-7.3q0-0.1 0-0.2 0.1-0.1 0.2-0.2l2-1.2q0 0 0.1 0 0 0 0 0z"/>
	<g id="Layer" style="opacity: .5">
		<path id="Layer" class="s3" d="m78.1 41.2l-21.2-12.2-1-0.6-1-0.6q-0.1 0-0.1 0-0.1 0-0.1 0l-2 1.2q-0.1 0.1-0.1 0.2l23.2 13.3z"/>
	</g>
	<path id="Layer" class="s3" d="m75.8 42.5q-0.1 0.1-0.1 0.3v7.3c0 0.1 0.1 0.2 0.2 0.1l2.2-1.3v-7.5q0-0.1 0-0.1 0 0 0-0.1z"/>
	<path id="Layer" class="s1" d="m76 50.2l0.4-0.2c0.3-0.4 0.5-0.9 0.5-1.5v-6.2q0-0.2-0.1-0.4l-0.1 0.1q0 0.2 0 0.3v6.2c-0.1 0.7-0.3 1.3-0.7 1.7z"/>
	<path id="Layer" class="s2" d="m49.9 20.8c-0.8-0.7-2.2-1.5-3.1-2-1.5-0.8-7-4-9.3-5.3q-0.4-0.3-1-0.3-0.5 0-1 0.3l-18.8 10.8q-0.5 0.3-0.7 0.8-0.3 0.4-0.3 1v11.3q0 0.6 0.3 1 0.2 0.5 0.7 0.8l38.1 22q0.5 0.3 1.1 0.3 0.5 0 1-0.3l18.8-10.8q0.4-0.3 0.7-0.8 0.3-0.4 0.3-1v-6.4q0-0.5-0.2-0.9-0.2-0.4-0.6-0.7c-4.3-3.3-24.7-18.8-26-19.8z"/>
	<path id="Layer" class="s3" d="m76.7 48.6v-6.2q0-0.2-0.1-0.4l-20.8 12q0.1 0.2 0.1 0.4v6.2c0 0.6-0.4 0.9-0.9 0.7q0.1 0 0.1 0.1h0.1q0.1 0 0.2 0 0 0 0.1 0l0.1 0.1h0.2 0.1 0.1l0.2-0.1q0 0 0.1 0h0.1q0.1 0 0.2 0c0-0.1 0-0.1 0.1-0.1q0.1 0 0.2-0.1 0 0 0 0l18.8-10.8 0.2-0.2c0.5-0.4 0.7-1 0.8-1.6z"/>
	<path id="Layer" class="s1" d="m29.1 32.8c3.5 2.8 21.9 16.8 26 19.8q0.3 0.3 0.5 0.7 0.3 0.5 0.3 0.9v6.4c0 0.7-0.5 1-1.1 0.6l-38.1-22q-0.5-0.3-0.7-0.7-0.3-0.5-0.3-1.1v-11.3c0-0.7 0.4-0.9 1-0.6l9.3 5.3c0.9 0.5 2.3 1.4 3.1 2z"/>
	<path id="Layer" class="s8" d="m29 29.1c0.8 0.5 2.3 1.3 3 2q1.2 0.9 2.2 2 0.2 0.2 0.6 0.3 0.3 0 0.6-0.1l13.6-7.9q0.1-0.1 0.2-0.2 0.1-0.1 0.1-0.2 0-0.2 0-0.3-0.1-0.1-0.2-0.2-1-1.1-2.2-2c-0.8-0.7-2.2-1.5-3.1-2-1.6-1-3.5-2-5.2-3q-0.3-0.2-0.6-0.2-0.3 0-0.6 0.2l-13.7 7.9c-0.3 0.2-0.3 0.5 0 0.7z"/>
	<path id="Layer" class="s6" d="m37.4 18.2q0.3-0.2 0.6-0.2 0.3 0 0.6 0.2c1.7 0.9 3.6 2 5.2 3 0.9 0.5 2.3 1.3 3.1 1.9q1.2 1 2.2 2.1 0 0 0.1 0-0.1 0.1-0.2 0.2l-13.7 7.9q-0.2 0.1-0.6 0.1-0.3-0.1-0.5-0.3-1-1.1-2.2-2c-0.7-0.6-2.2-1.5-3.1-2l-5.2-3q0 0 0 0 0-0.1 0-0.1z"/>
	<path id="Layer" class="s5" d="m37.6 28.5h-4.1v-1.7l2.9 0.6v-6.5h2.5z"/>
	<path id="Layer" class="s5" d="m49.4 28.7l0.1-0.5 0.6-0.1 1.8-1.1c0.9-0.5 2.1-0.4 2.6 0.3q0.2 0.2 0.3 0.4h0.1l-0.1 0.6q-0.1 0.3-0.3 0.6-0.2 0.2-0.5 0.4l-2.3 1.3q-0.2 0.1-0.6 0.1-0.3-0.1-0.5-0.3-0.5-0.5-1.1-1.1-0.1-0.2-0.1-0.3-0.1-0.1 0-0.3z"/>
	<g id="Layer" style="opacity: .1">
		<path id="Layer" class="s4" d="m49.4 28.7l0.1-0.5 0.6-0.1 1.8-1.1c0.9-0.5 2.1-0.4 2.6 0.3q0.2 0.2 0.3 0.4h0.1l-0.1 0.6q-0.1 0.3-0.3 0.6-0.2 0.2-0.5 0.4l-2.3 1.3q-0.2 0.1-0.6 0.1-0.3-0.1-0.5-0.3-0.5-0.5-1.1-1.1-0.1-0.2-0.1-0.3-0.1-0.1 0-0.3z"/>
	</g>
	<path id="Layer" class="s5" d="m51.9 30l2.2-1.3c0.9-0.5 1.1-1.4 0.5-2-0.5-0.6-1.7-0.7-2.6-0.2l-2.2 1.3q-0.1 0-0.2 0.1-0.1 0.2-0.1 0.3 0 0.1 0 0.3 0.1 0.1 0.1 0.2 0.6 0.6 1.1 1.2 0.2 0.2 0.6 0.2 0.3 0.1 0.6-0.1z"/>
	<path id="Layer" class="s5" d="m37.9 35.7l0.1-0.6h0.2q0.2-0.3 0.5-0.4l2.3-1.3q0.3-0.2 0.6-0.1 0.3 0 0.5 0.3 0.5 0.5 1 1.1h0.4l-0.2 0.6q-0.1 0.2-0.3 0.3l-2.2 1.3c-0.9 0.5-2.1 0.4-2.6-0.2q-0.2-0.2-0.3-0.5-0.1-0.2 0-0.5z"/>
	<g id="Layer" style="opacity: .1">
		<path id="Layer" class="s4" d="m37.9 35.7l0.1-0.6h0.2q0.2-0.3 0.5-0.4l2.3-1.3q0.3-0.2 0.6-0.1 0.3 0 0.5 0.3 0.5 0.5 1 1.1h0.4l-0.2 0.6q-0.1 0.2-0.3 0.3l-2.2 1.3c-0.9 0.5-2.1 0.4-2.6-0.2q-0.2-0.2-0.3-0.5-0.1-0.2 0-0.5z"/>
	</g>
	<path id="Layer" class="s5" d="m40.9 36.3l2.3-1.2q0.1-0.1 0.2-0.2 0-0.1 0.1-0.3 0-0.1-0.1-0.2 0-0.2-0.1-0.2-0.5-0.6-1.1-1.2-0.2-0.2-0.5-0.3-0.3 0-0.6 0.1l-2.2 1.3c-0.9 0.5-1.2 1.4-0.6 2 0.5 0.7 1.7 0.8 2.6 0.2z"/>
	<path id="Layer" class="s5" d="m43.5 32.2l0.1-0.6h0.5l2.7-1.6q0.3-0.2 0.7-0.1 0.4 0.1 0.7 0.3 0.4 0.5 0.8 0.9 0 0.1 0.1 0.1h0.2l-0.1 0.6q-0.1 0.2-0.1 0.3-0.1 0.1-0.3 0.2l-2.9 1.6q-0.3 0.2-0.7 0.2-0.4-0.1-0.7-0.4-0.4-0.4-0.8-0.9-0.1-0.1-0.2-0.3 0-0.2 0-0.3z"/>
	<g id="Layer" style="opacity: .1">
		<path id="Layer" class="s4" d="m43.5 32.2l0.1-0.6h0.5l2.7-1.6q0.3-0.2 0.7-0.1 0.4 0.1 0.7 0.3 0.4 0.5 0.8 0.9 0 0.1 0.1 0.1h0.2l-0.1 0.6q-0.1 0.2-0.1 0.3-0.1 0.1-0.3 0.2l-2.9 1.6q-0.3 0.2-0.7 0.2-0.4-0.1-0.7-0.4-0.4-0.4-0.8-0.9-0.1-0.1-0.2-0.3 0-0.2 0-0.3z"/>
	</g>
	<path id="Layer" class="s5" d="m43.8 32.3q0.4 0.4 0.8 0.9 0.3 0.2 0.7 0.3 0.4 0 0.8-0.1l2.9-1.7q0.1-0.1 0.2-0.2 0.1-0.2 0.1-0.3 0.1-0.2 0-0.4-0.1-0.1-0.2-0.2-0.4-0.5-0.8-0.9-0.3-0.3-0.7-0.4-0.3 0-0.7 0.1l-2.9 1.7q-0.1 0.1-0.2 0.2-0.1 0.2-0.2 0.3 0 0.2 0.1 0.4 0 0.1 0.1 0.3z"/>
	<g id="Layer" style="opacity: .7">
		<path id="Layer" class="s6" d="m51.9 30l2.2-1.3c0.9-0.5 1.1-1.4 0.5-2-0.5-0.6-1.7-0.7-2.6-0.2l-2.2 1.3q-0.1 0-0.2 0.2-0.1 0.1-0.1 0.2 0 0.1 0 0.3 0.1 0.1 0.1 0.2 0.6 0.6 1.1 1.2 0.2 0.2 0.6 0.2 0.3 0.1 0.6-0.1z"/>
		<path id="Layer" class="s6" d="m40.9 36.4l2.3-1.3q0.1-0.1 0.2-0.2 0-0.1 0.1-0.3 0-0.1-0.1-0.2 0-0.1-0.1-0.2-0.5-0.6-1.1-1.2-0.2-0.2-0.5-0.3-0.3 0-0.6 0.1l-2.2 1.3c-0.9 0.5-1.2 1.4-0.6 2.1 0.5 0.6 1.7 0.7 2.6 0.2z"/>
		<path id="Layer" class="s6" d="m43.8 32.3q0.4 0.4 0.8 0.9 0.3 0.2 0.7 0.3 0.4 0.1 0.8-0.1l2.8-1.7q0.2-0.1 0.3-0.2 0.1-0.1 0.1-0.3 0-0.2 0-0.3-0.1-0.2-0.2-0.3-0.4-0.5-0.8-0.9-0.3-0.3-0.7-0.4-0.4 0-0.7 0.2l-2.9 1.6q-0.1 0.1-0.2 0.2-0.1 0.2-0.2 0.3 0 0.2 0 0.4 0.1 0.1 0.2 0.3z"/>
	</g>
	<path id="Layer" class="s5" d="m48.2 38.5h-0.6l-1.7-1.3q-0.2-0.1-0.5-0.1-0.2-0.1-0.5 0.1l-2.5 1.4-0.8 0.1v0.6q0 0.1 0 0.2 0.1 0.1 0.2 0.1l2 1.6q0.3 0.2 0.5 0.2 0.3 0 0.6-0.1l3.1-1.8q0.1-0.1 0.1-0.2 0.1 0 0.1-0.2z"/>
	<g id="Layer" style="opacity: .1">
		<path id="Layer" class="s4" d="m48.2 38.5h-0.6l-1.7-1.3q-0.2-0.1-0.5-0.1-0.2-0.1-0.5 0.1l-2.5 1.4-0.8 0.1v0.6q0 0.1 0 0.2 0.1 0.1 0.2 0.1l2 1.6q0.3 0.2 0.5 0.2 0.3 0 0.6-0.1l3.1-1.8q0.1-0.1 0.1-0.2 0.1 0 0.1-0.2z"/>
	</g>
	<path id="Layer" class="s5" d="m41.8 38.3l3.1-1.8q0.3-0.1 0.6-0.1 0.2 0 0.4 0.2l2.1 1.6q0.1 0 0.2 0.1 0 0.1 0 0.2 0 0.1-0.1 0.2 0 0.1-0.1 0.1l-3.1 1.8q-0.3 0.2-0.5 0.1-0.3 0-0.5-0.1l-2.1-1.6q-0.1-0.1-0.2-0.2 0-0.1 0-0.2 0-0.1 0.1-0.2 0 0 0.1-0.1z"/>
	<g id="Layer" style="opacity: .7">
		<path id="Layer" class="s6" d="m41.8 38.3l3.1-1.8q0.3-0.1 0.6-0.1 0.2 0 0.4 0.2l2.1 1.6q0.1 0 0.2 0.1 0 0.1 0 0.2 0 0.1-0.1 0.2 0 0.1-0.1 0.1l-3.1 1.8q-0.3 0.2-0.5 0.1-0.3 0-0.5-0.1l-2.1-1.6q-0.1-0.1-0.2-0.2 0-0.1 0-0.2 0-0.1 0.1-0.2 0 0 0.1-0.1z"/>
	</g>
	<path id="Layer" class="s5" d="m60.3 47.7h-0.6l-1.6-1.2q-0.3-0.2-0.5-0.2-0.3 0-0.5 0.1l-2.6 1.5h-0.8v0.6q0 0.1 0.1 0.2 0 0.1 0.1 0.2l2.1 1.5q0.2 0.2 0.5 0.2 0.2 0 0.5-0.1l3.1-1.8q0.1 0 0.1-0.1 0.1-0.1 0.1-0.2z"/>
	<g id="Layer" style="opacity: .1">
		<path id="Layer" class="s4" d="m60.3 47.7h-0.6l-1.6-1.2q-0.3-0.2-0.5-0.2-0.3 0-0.5 0.1l-2.6 1.5h-0.8v0.6q0 0.1 0.1 0.2 0 0.1 0.1 0.2l2.1 1.5q0.2 0.2 0.5 0.2 0.2 0 0.5-0.1l3.1-1.8q0.1 0 0.1-0.1 0.1-0.1 0.1-0.2z"/>
	</g>
	<path id="Layer" class="s5" d="m54 47.6l3.1-1.8q0.2-0.2 0.5-0.1 0.2 0 0.5 0.1l2 1.6q0.1 0.1 0.2 0.2 0 0.1 0 0.2 0 0.1-0.1 0.2 0 0-0.1 0.1l-3.1 1.8q-0.3 0.1-0.5 0.1-0.3 0-0.5-0.2l-2.1-1.6q-0.1 0-0.1-0.1-0.1-0.1-0.1-0.2 0-0.1 0.1-0.2 0.1-0.1 0.2-0.1z"/>
	<g id="Layer" style="opacity: .7">
		<path id="Layer" class="s6" d="m54 47.6l3.1-1.8q0.2-0.2 0.5-0.1 0.2 0 0.5 0.1l2 1.6q0.1 0.1 0.2 0.2 0 0.1 0 0.2 0 0.1-0.1 0.2 0 0-0.1 0.1l-3.1 1.8q-0.3 0.1-0.5 0.1-0.3 0-0.5-0.2l-2.1-1.6q-0.1 0-0.1-0.1-0.1-0.1-0.1-0.2 0-0.1 0.1-0.2 0.1-0.1 0.2-0.1z"/>
	</g>
	<path id="Layer" class="s5" d="m52.2 41.6h-0.6l-1.6-1.3q-0.2-0.1-0.5-0.2-0.3 0-0.5 0.1l-2.6 1.5h-0.8v0.7q0 0.1 0.1 0.2 0 0.1 0.1 0.1l2.1 1.6q0.2 0.1 0.5 0.2 0.3 0 0.5-0.2l3.1-1.7q0.1-0.1 0.2-0.2 0-0.1 0-0.2z"/>
	<g id="Layer" style="opacity: .1">
		<path id="Layer" class="s4" d="m52.2 41.6h-0.6l-1.6-1.3q-0.2-0.1-0.5-0.2-0.3 0-0.5 0.1l-2.6 1.5h-0.8v0.7q0 0.1 0.1 0.2 0 0.1 0.1 0.1l2.1 1.6q0.2 0.1 0.5 0.2 0.3 0 0.5-0.2l3.1-1.7q0.1-0.1 0.2-0.2 0-0.1 0-0.2z"/>
	</g>
	<path id="Layer" class="s5" d="m45.9 41.4l3.1-1.8q0.2-0.1 0.5-0.1 0.3 0 0.5 0.2l2.1 1.5q0 0.1 0.1 0.2 0.1 0.1 0 0.2 0 0.1 0 0.2-0.1 0.1-0.2 0.1l-3.1 1.8q-0.2 0.1-0.5 0.1-0.3 0-0.5-0.2l-2.1-1.5q-0.1-0.1-0.1-0.2-0.1-0.1-0.1-0.2 0-0.1 0.1-0.2 0.1-0.1 0.2-0.1z"/>
	<g id="Layer" style="opacity: .7">
		<path id="Layer" class="s6" d="m45.9 41.4l3.1-1.8q0.2-0.1 0.5-0.1 0.3 0 0.5 0.2l2.1 1.5q0 0.1 0.1 0.2 0.1 0.1 0 0.2 0 0.1 0 0.2-0.1 0.1-0.2 0.1l-3.1 1.8q-0.2 0.1-0.5 0.1-0.3 0-0.5-0.2l-2.1-1.5q-0.1-0.1-0.1-0.2-0.1-0.1-0.1-0.2 0-0.1 0.1-0.2 0.1-0.1 0.2-0.1z"/>
	</g>
	<path id="Layer" class="s5" d="m56.3 44.7h-0.6l-1.7-1.3q-0.2-0.2-0.5-0.2-0.2 0-0.5 0.1l-2.5 1.5h-0.8v0.7q0 0.1 0 0.2 0.1 0 0.2 0.1l2 1.6q0.3 0.1 0.5 0.1 0.3 0.1 0.5-0.1l3.1-1.8q0.1 0 0.2-0.1 0.1-0.1 0.1-0.2z"/>
	<g id="Layer" style="opacity: .1">
		<path id="Layer" class="s4" d="m56.3 44.7h-0.6l-1.7-1.3q-0.2-0.2-0.5-0.2-0.2 0-0.5 0.1l-2.5 1.5h-0.8v0.7q0 0.1 0 0.2 0.1 0 0.2 0.1l2 1.6q0.3 0.1 0.5 0.1 0.3 0.1 0.5-0.1l3.1-1.8q0.1 0 0.2-0.1 0.1-0.1 0.1-0.2z"/>
	</g>
	<path id="Layer" class="s5" d="m49.9 44.5l3.1-1.8q0.3-0.1 0.5-0.1 0.3 0 0.5 0.2l2.1 1.5q0.1 0.1 0.1 0.2 0.1 0.1 0.1 0.2 0 0.1-0.1 0.2-0.1 0.1-0.2 0.1l-3.1 1.8q-0.2 0.1-0.5 0.1-0.3 0-0.5-0.2l-2-1.6q-0.1 0-0.2-0.1 0-0.1 0-0.2 0-0.1 0-0.2 0.1-0.1 0.2-0.1z"/>
	<g id="Layer" style="opacity: .7">
		<path id="Layer" class="s6" d="m49.9 44.5l3.1-1.8q0.3-0.1 0.5-0.1 0.3 0 0.5 0.2l2.1 1.5q0.1 0.1 0.1 0.2 0.1 0.1 0.1 0.2 0 0.1-0.1 0.2-0.1 0.1-0.2 0.1l-3.1 1.8q-0.2 0.1-0.5 0.1-0.3 0-0.5-0.2l-2-1.6q-0.1 0-0.2-0.1 0-0.1 0-0.2 0-0.1 0-0.2 0.1-0.1 0.2-0.1z"/>
	</g>
	<path id="Layer" class="s5" d="m54.4 34.9h-0.6l-1.6-1.3q-0.2-0.1-0.5-0.1-0.3 0-0.5 0.1l-2.6 1.4-0.8 0.1v0.6q0 0.1 0.1 0.2 0 0.1 0.1 0.1l2.1 1.6q0.2 0.2 0.5 0.2 0.3 0 0.5-0.1l3.1-1.8q0.1 0 0.2-0.1 0-0.1 0-0.2z"/>
	<g id="Layer" style="opacity: .1">
		<path id="Layer" class="s4" d="m54.4 34.9h-0.6l-1.6-1.3q-0.2-0.1-0.5-0.1-0.3 0-0.5 0.1l-2.6 1.4-0.8 0.1v0.6q0 0.1 0.1 0.2 0 0.1 0.1 0.1l2.1 1.6q0.2 0.2 0.5 0.2 0.3 0 0.5-0.1l3.1-1.8q0.1 0 0.2-0.1 0-0.1 0-0.2z"/>
	</g>
	<path id="Layer" class="s5" d="m48.1 34.7l3.1-1.8q0.2-0.1 0.5-0.1 0.3 0 0.5 0.2l2.1 1.6q0 0 0.1 0.1 0 0.1 0 0.2 0 0.1 0 0.2-0.1 0.1-0.2 0.1l-3.1 1.8q-0.2 0.1-0.5 0.1-0.3 0-0.5-0.1l-2.1-1.6q-0.1-0.1-0.1-0.2-0.1-0.1-0.1-0.2 0-0.1 0.1-0.2 0.1 0 0.2-0.1z"/>
	<g id="Layer" style="opacity: .7">
		<path id="Layer" class="s6" d="m48.1 34.7l3.1-1.8q0.2-0.1 0.5-0.1 0.3 0 0.5 0.2l2.1 1.6q0 0 0.1 0.1 0 0.1 0 0.2 0 0.1 0 0.2-0.1 0.1-0.2 0.1l-3.1 1.8q-0.2 0.1-0.5 0.1-0.3 0-0.5-0.1l-2.1-1.6q-0.1-0.1-0.1-0.2-0.1-0.1-0.1-0.2 0-0.1 0.1-0.2 0.1 0 0.2-0.1z"/>
	</g>
	<path id="Layer" class="s5" d="m66.6 44.1l-0.6 0.1-1.7-1.3q-0.2-0.2-0.5-0.2-0.3 0-0.5 0.1l-2.5 1.5h-0.9v0.7q0.1 0.1 0.1 0.1 0 0.1 0.1 0.2l2.1 1.6q0.2 0.1 0.5 0.1 0.3 0 0.5-0.1l3.1-1.8q0.1 0 0.2-0.1 0-0.1 0-0.2z"/>
	<g id="Layer" style="opacity: .1">
		<path id="Layer" class="s4" d="m66.6 44.1l-0.6 0.1-1.7-1.3q-0.2-0.2-0.5-0.2-0.3 0-0.5 0.1l-2.5 1.5h-0.9v0.7q0.1 0.1 0.1 0.1 0 0.1 0.1 0.2l2.1 1.6q0.2 0.1 0.5 0.1 0.3 0 0.5-0.1l3.1-1.8q0.1 0 0.2-0.1 0-0.1 0-0.2z"/>
	</g>
	<path id="Layer" class="s5" d="m60.2 44l3.1-1.8q0.2-0.1 0.5-0.1 0.3 0 0.5 0.1l2.1 1.6q0.1 0.1 0.1 0.2 0.1 0.1 0.1 0.2-0.1 0.1-0.1 0.2-0.1 0-0.2 0.1l-3.1 1.8q-0.2 0.1-0.5 0.1-0.3 0-0.5-0.2l-2.1-1.6q-0.1 0-0.1-0.1-0.1-0.1 0-0.2 0-0.1 0-0.2 0.1-0.1 0.2-0.1z"/>
	<g id="Layer" style="opacity: .7">
		<path id="Layer" class="s6" d="m60.2 44l3.1-1.8q0.2-0.1 0.5-0.1 0.3 0 0.5 0.1l2.1 1.6q0.1 0.1 0.1 0.2 0.1 0.1 0.1 0.2-0.1 0.1-0.1 0.2-0.1 0-0.2 0.1l-3.1 1.8q-0.2 0.1-0.5 0.1-0.3 0-0.5-0.2l-2.1-1.6q-0.1 0-0.1-0.1-0.1-0.1 0-0.2 0-0.1 0-0.2 0.1-0.1 0.2-0.1z"/>
	</g>
	<path id="Layer" class="s5" d="m58.5 38h-0.6l-1.7-1.3q-0.2-0.1-0.5-0.1-0.2-0.1-0.5 0.1l-2.5 1.4h-0.8v0.7q0 0.1 0 0.2 0.1 0.1 0.2 0.1l2 1.6q0.3 0.2 0.5 0.2 0.3 0 0.5-0.1l3.1-1.8q0.1-0.1 0.2-0.2 0.1-0.1 0.1-0.2z"/>
	<g id="Layer" style="opacity: .1">
		<path id="Layer" class="s4" d="m58.5 38h-0.6l-1.7-1.3q-0.2-0.1-0.5-0.1-0.2-0.1-0.5 0.1l-2.5 1.4h-0.8v0.7q0 0.1 0 0.2 0.1 0.1 0.2 0.1l2 1.6q0.3 0.2 0.5 0.2 0.3 0 0.5-0.1l3.1-1.8q0.1-0.1 0.2-0.2 0.1-0.1 0.1-0.2z"/>
	</g>
	<path id="Layer" class="s5" d="m52.1 37.8l3.1-1.8q0.3-0.1 0.5-0.1 0.3 0 0.5 0.2l2.1 1.5q0.1 0.1 0.1 0.2 0.1 0.1 0.1 0.2 0 0.1-0.1 0.2 0 0.1-0.1 0.1l-3.2 1.8q-0.2 0.1-0.5 0.1-0.2 0-0.5-0.2l-2-1.5q-0.1-0.1-0.2-0.2 0-0.1 0-0.2 0-0.1 0-0.2 0.1-0.1 0.2-0.1z"/>
	<g id="Layer" style="opacity: .7">
		<path id="Layer" class="s6" d="m52.1 37.8l3.1-1.8q0.3-0.1 0.5-0.1 0.3 0 0.5 0.2l2.1 1.5q0.1 0.1 0.1 0.2 0.1 0.1 0.1 0.2 0 0.1-0.1 0.2 0 0.1-0.1 0.1l-3.2 1.8q-0.2 0.1-0.5 0.1-0.2 0-0.5-0.2l-2-1.5q-0.1-0.1-0.2-0.2 0-0.1 0-0.2 0-0.1 0-0.2 0.1-0.1 0.2-0.1z"/>
	</g>
	<path id="Layer" class="s5" d="m62.5 41.1h-0.6l-1.6-1.3q-0.3-0.2-0.5-0.2-0.3 0-0.5 0.1l-2.6 1.5h-0.8v0.7q0 0.1 0.1 0.2 0 0 0.1 0.1l2.1 1.6q0.2 0.1 0.5 0.1 0.2 0.1 0.5-0.1l3.1-1.7q0.1-0.1 0.1-0.2 0.1-0.1 0.1-0.2z"/>
	<g id="Layer" style="opacity: .1">
		<path id="Layer" class="s4" d="m62.5 41.1h-0.6l-1.6-1.3q-0.3-0.2-0.5-0.2-0.3 0-0.5 0.1l-2.6 1.5h-0.8v0.7q0 0.1 0.1 0.2 0 0 0.1 0.1l2.1 1.6q0.2 0.1 0.5 0.1 0.2 0.1 0.5-0.1l3.1-1.7q0.1-0.1 0.1-0.2 0.1-0.1 0.1-0.2z"/>
	</g>
	<path id="Layer" class="s5" d="m56.1 40.9l3.2-1.8q0.2-0.1 0.5-0.1 0.2 0 0.5 0.2l2 1.5q0.1 0.1 0.2 0.2 0 0.1 0 0.2 0 0.1-0.1 0.2 0 0.1-0.1 0.1l-3.1 1.8q-0.3 0.1-0.5 0.1-0.3 0-0.5-0.2l-2.1-1.5q-0.1-0.1-0.1-0.2-0.1-0.1-0.1-0.2 0-0.1 0.1-0.2 0-0.1 0.1-0.1z"/>
	<g id="Layer" style="opacity: .7">
		<path id="Layer" class="s6" d="m56.1 40.9l3.2-1.8q0.2-0.1 0.5-0.1 0.2 0 0.5 0.2l2 1.5q0.1 0.1 0.2 0.2 0 0.1 0 0.2 0 0.1-0.1 0.2 0 0.1-0.1 0.1l-3.1 1.8q-0.3 0.1-0.5 0.1-0.3 0-0.5-0.2l-2.1-1.5q-0.1-0.1-0.1-0.2-0.1-0.1-0.1-0.2 0-0.1 0.1-0.2 0-0.1 0.1-0.1z"/>
	</g>
	<path id="Layer" class="s5" d="m60.7 31.3h-0.6l-1.7-1.3q-0.2-0.1-0.5-0.1-0.3 0-0.5 0.1l-2.5 1.4-0.8 0.1v0.6q0 0.1 0 0.2 0.1 0.1 0.2 0.1l2 1.6q0.2 0.2 0.5 0.2 0.3 0 0.5-0.1l3.1-1.8q0.1-0.1 0.2-0.2 0.1 0 0.1-0.2z"/>
	<g id="Layer" style="opacity: .1">
		<path id="Layer" class="s4" d="m60.7 31.3h-0.6l-1.7-1.3q-0.2-0.1-0.5-0.1-0.3 0-0.5 0.1l-2.5 1.4-0.8 0.1v0.6q0 0.1 0 0.2 0.1 0.1 0.2 0.1l2 1.6q0.2 0.2 0.5 0.2 0.3 0 0.5-0.1l3.1-1.8q0.1-0.1 0.2-0.2 0.1 0 0.1-0.2z"/>
	</g>
	<path id="Layer" class="s5" d="m54.3 31.1l3.1-1.8q0.2-0.1 0.5-0.1 0.3 0 0.5 0.2l2.1 1.6q0.1 0 0.1 0.1 0.1 0.1 0.1 0.2 0 0.1-0.1 0.2-0.1 0.1-0.2 0.1l-3.1 1.8q-0.2 0.2-0.5 0.1-0.3 0-0.5-0.1l-2-1.6q-0.1-0.1-0.2-0.2 0 0 0-0.2 0-0.1 0-0.1 0.1-0.1 0.2-0.2z"/>
	<g id="Layer" style="opacity: .7">
		<path id="Layer" class="s6" d="m54.3 31.1l3.1-1.8q0.2-0.1 0.5-0.1 0.3 0 0.5 0.2l2.1 1.6q0.1 0 0.1 0.1 0.1 0.1 0.1 0.2 0 0.1-0.1 0.2-0.1 0.1-0.2 0.1l-3.1 1.8q-0.2 0.2-0.5 0.1-0.3 0-0.5-0.1l-2-1.6q-0.1-0.1-0.2-0.2 0 0 0-0.2 0-0.1 0-0.1 0.1-0.1 0.2-0.2z"/>
	</g>
	<path id="Layer" class="s5" d="m72.8 40.5l-0.6 0.1-1.7-1.3q-0.2-0.2-0.5-0.2-0.2 0-0.5 0.1l-2.5 1.5h-0.8v0.7q0 0.1 0 0.1 0.1 0.1 0.2 0.2l2 1.6q0.3 0.1 0.5 0.1 0.3 0.1 0.6-0.1l3.1-1.8q0.1 0 0.1-0.1 0.1-0.1 0.1-0.2z"/>
	<g id="Layer" style="opacity: .1">
		<path id="Layer" class="s4" d="m72.8 40.5l-0.6 0.1-1.7-1.3q-0.2-0.2-0.5-0.2-0.2 0-0.5 0.1l-2.5 1.5h-0.8v0.7q0 0.1 0 0.1 0.1 0.1 0.2 0.2l2 1.6q0.3 0.1 0.5 0.1 0.3 0.1 0.6-0.1l3.1-1.8q0.1 0 0.1-0.1 0.1-0.1 0.1-0.2z"/>
	</g>
	<path id="Layer" class="s5" d="m66.4 40.4l3.1-1.8q0.3-0.1 0.5-0.1 0.3 0 0.5 0.1l2.1 1.6q0.1 0.1 0.2 0.2 0 0.1 0 0.2 0 0.1-0.1 0.2 0 0.1-0.1 0.1l-3.1 1.8q-0.3 0.1-0.6 0.1-0.2 0-0.5-0.2l-2-1.6q-0.1 0-0.2-0.1 0-0.1 0-0.2 0-0.1 0.1-0.2 0-0.1 0.1-0.1z"/>
	<g id="Layer" style="opacity: .7">
		<path id="Layer" class="s6" d="m66.4 40.4l3.1-1.8q0.3-0.1 0.5-0.1 0.3 0 0.5 0.1l2.1 1.6q0.1 0.1 0.2 0.2 0 0.1 0 0.2 0 0.1-0.1 0.2 0 0.1-0.1 0.1l-3.1 1.8q-0.3 0.1-0.6 0.1-0.2 0-0.5-0.2l-2-1.6q-0.1 0-0.2-0.1 0-0.1 0-0.2 0-0.1 0.1-0.2 0-0.1 0.1-0.1z"/>
	</g>
	<path id="Layer" class="s5" d="m68.8 37.5h-0.6l-1.7-1.3q-0.2-0.1-0.5-0.2-0.3 0-0.5 0.1l-2.5 1.5h-0.8v0.7q0 0.1 0 0.2 0.1 0 0.1 0.1l2.1 1.6q0.2 0.1 0.5 0.2 0.3 0 0.5-0.2l3.1-1.7q0.1-0.1 0.2-0.2 0-0.1 0.1-0.2z"/>
	<g id="Layer" style="opacity: .1">
		<path id="Layer" class="s4" d="m68.8 37.5h-0.6l-1.7-1.3q-0.2-0.1-0.5-0.2-0.3 0-0.5 0.1l-2.5 1.5h-0.8v0.7q0 0.1 0 0.2 0.1 0 0.1 0.1l2.1 1.6q0.2 0.1 0.5 0.2 0.3 0 0.5-0.2l3.1-1.7q0.1-0.1 0.2-0.2 0-0.1 0.1-0.2z"/>
	</g>
	<path id="Layer" class="s5" d="m62.4 37.3l3.1-1.8q0.2-0.1 0.5-0.1 0.3 0 0.5 0.2l2.1 1.5q0.1 0.1 0.1 0.2 0.1 0.1 0.1 0.2 0 0.1-0.1 0.2-0.1 0.1-0.2 0.1l-3.1 1.8q-0.2 0.1-0.5 0.1-0.3 0-0.5-0.2l-2-1.5q-0.1-0.1-0.2-0.2 0-0.1 0-0.2 0-0.1 0-0.2 0.1-0.1 0.2-0.1z"/>
	<g id="Layer" style="opacity: .7">
		<path id="Layer" class="s6" d="m62.4 37.3l3.1-1.8q0.2-0.1 0.5-0.1 0.3 0 0.5 0.2l2.1 1.5q0.1 0.1 0.1 0.2 0.1 0.1 0.1 0.2 0 0.1-0.1 0.2-0.1 0.1-0.2 0.1l-3.1 1.8q-0.2 0.1-0.5 0.1-0.3 0-0.5-0.2l-2-1.5q-0.1-0.1-0.2-0.2 0-0.1 0-0.2 0-0.1 0-0.2 0.1-0.1 0.2-0.1z"/>
	</g>
	<path id="Layer" class="s5" d="m64.7 34.4h-0.6l-1.6-1.3q-0.3-0.1-0.5-0.1-0.3-0.1-0.6 0.1l-2.5 1.4h-0.8v0.7q0 0.1 0.1 0.2 0 0.1 0.1 0.1l2.1 1.6q0.2 0.2 0.5 0.2 0.2 0 0.5-0.1l3.1-1.8q0.1-0.1 0.1-0.2 0.1-0.1 0.1-0.2z"/>
	<g id="Layer" style="opacity: .1">
		<path id="Layer" class="s4" d="m64.7 34.4h-0.6l-1.6-1.3q-0.3-0.1-0.5-0.1-0.3-0.1-0.6 0.1l-2.5 1.4h-0.8v0.7q0 0.1 0.1 0.2 0 0.1 0.1 0.1l2.1 1.6q0.2 0.2 0.5 0.2 0.2 0 0.5-0.1l3.1-1.8q0.1-0.1 0.1-0.2 0.1-0.1 0.1-0.2z"/>
	</g>
	<path id="Layer" class="s5" d="m58.3 34.2l3.2-1.8q0.2-0.1 0.5-0.1 0.2 0 0.5 0.2l2 1.6q0.1 0 0.2 0.1 0 0.1 0 0.2 0 0.1-0.1 0.2 0 0.1-0.1 0.1l-3.1 1.8q-0.3 0.1-0.5 0.1-0.3 0-0.5-0.1l-2.1-1.6q-0.1-0.1-0.1-0.2-0.1-0.1-0.1-0.2 0-0.1 0.1-0.2 0 0 0.1-0.1z"/>
	<g id="Layer" style="opacity: .7">
		<path id="Layer" class="s6" d="m58.3 34.2l3.2-1.8q0.2-0.1 0.5-0.1 0.2 0 0.5 0.2l2 1.6q0.1 0 0.2 0.1 0 0.1 0 0.2 0 0.1-0.1 0.2 0 0.1-0.1 0.1l-3.1 1.8q-0.3 0.1-0.5 0.1-0.3 0-0.5-0.1l-2.1-1.6q-0.1-0.1-0.1-0.2-0.1-0.1-0.1-0.2 0-0.1 0.1-0.2 0 0 0.1-0.1z"/>
	</g>
</svg>