<svg width="40" height="74" viewBox="0 0 40 74" fill="none" xmlns="http://www.w3.org/2000/svg" xmlns:xlink="http://www.w3.org/1999/xlink">
<path d="M37.604,0.797L2.396,0.797C1.073,0.797 0,1.87 0,3.193L0,70.343C0,71.667 1.073,72.74 2.396,72.74L37.604,72.74C38.927,72.74 40,71.667 40,70.343L40,3.193C40,1.87 38.927,0.797 37.604,0.797Z" fill="#263238"/>
<path d="M38.654,3.216L38.654,70.221C38.653,70.351 38.627,70.479 38.577,70.599C38.526,70.719 38.453,70.828 38.36,70.919C38.267,71.01 38.157,71.082 38.037,71.13C37.916,71.179 37.787,71.203 37.657,71.201L2.249,71.201C2.131,71.202 2.014,71.18 1.905,71.136C1.796,71.091 1.696,71.024 1.613,70.94C1.53,70.856 1.465,70.757 1.422,70.647C1.378,70.537 1.357,70.42 1.36,70.302L1.36,3.135C1.356,3.031 1.372,2.927 1.408,2.83C1.444,2.732 1.499,2.643 1.57,2.566C1.64,2.49 1.725,2.428 1.82,2.384C1.914,2.341 2.017,2.316 2.121,2.313L10.974,2.313C11.098,2.315 11.219,2.354 11.321,2.425C11.423,2.496 11.501,2.595 11.547,2.711L11.911,3.612C11.956,3.727 12.035,3.826 12.136,3.896C12.238,3.966 12.358,4.004 12.481,4.005L27.549,4.005C27.672,4.006 27.792,3.969 27.893,3.9C27.995,3.831 28.074,3.733 28.119,3.619L28.486,2.711C28.531,2.595 28.609,2.496 28.711,2.425C28.812,2.354 28.932,2.315 29.056,2.313L37.779,2.313C38.014,2.318 38.237,2.416 38.401,2.585C38.565,2.754 38.656,2.981 38.654,3.216Z" fill="#F4F4F4"/>
<g opacity="0.1">
<path d="M36.729,2.313C33.427,11.452 22.692,36.561 1.36,46.8L1.36,3.135C1.356,3.031 1.372,2.927 1.408,2.83C1.444,2.732 1.499,2.643 1.57,2.566C1.64,2.49 1.725,2.428 1.82,2.384C1.914,2.341 2.017,2.316 2.121,2.313L10.974,2.313C11.098,2.315 11.219,2.354 11.321,2.425C11.423,2.496 11.501,2.595 11.547,2.711L11.911,3.612C11.956,3.727 12.035,3.826 12.136,3.896C12.238,3.966 12.358,4.004 12.481,4.005L27.556,4.005C27.679,4.006 27.799,3.969 27.9,3.9C28.002,3.831 28.081,3.733 28.126,3.619L28.493,2.711C28.538,2.595 28.616,2.496 28.718,2.425C28.819,2.354 28.939,2.315 29.063,2.313L36.729,2.313Z" fill="#F4F4F4"/>
</g>
<g opacity="0.6">
<path d="M19.994,2.388C19.994,2.489 19.964,2.588 19.908,2.672C19.851,2.757 19.771,2.823 19.678,2.861C19.584,2.9 19.481,2.91 19.381,2.89C19.282,2.871 19.191,2.822 19.119,2.75C19.047,2.678 18.998,2.587 18.979,2.488C18.959,2.388 18.969,2.285 19.008,2.191C19.047,2.098 19.112,2.018 19.197,1.961C19.281,1.905 19.38,1.875 19.481,1.875C19.617,1.876 19.747,1.93 19.843,2.026C19.939,2.122 19.993,2.252 19.994,2.388Z" fill="#F4F4F4"/>
</g>
<g opacity="0.6">
<path d="M21.016,2.388C21.009,2.47 20.972,2.547 20.911,2.603C20.85,2.658 20.771,2.689 20.688,2.689C20.606,2.689 20.527,2.658 20.466,2.603C20.405,2.547 20.368,2.47 20.361,2.388C20.357,2.343 20.362,2.297 20.377,2.254C20.392,2.211 20.415,2.171 20.446,2.138C20.477,2.104 20.514,2.077 20.556,2.059C20.598,2.041 20.643,2.031 20.688,2.031C20.734,2.031 20.779,2.041 20.821,2.059C20.863,2.077 20.9,2.104 20.931,2.138C20.962,2.171 20.985,2.211 21,2.254C21.015,2.297 21.02,2.343 21.016,2.388Z" fill="#F4F4F4"/>
</g>
<g opacity="0.5">
<path d="M38.576,6.828L1.203,6.828L1.203,68.313L38.576,68.313L38.576,6.828Z" fill="#F4F4F4"/>
</g>
<path d="M36.946,13.906L2.688,13.906L2.688,22.729L36.946,22.729L36.946,13.906Z" fill="#F4F4F4"/>
<path d="M36.946,23.203L2.688,23.203L2.688,32.026L36.946,32.026L36.946,23.203Z" fill="#F4F4F4"/>
<path d="M36.946,7.891L2.688,7.891L2.688,13.172L36.946,13.172L36.946,7.891Z" fill="#FF5904"/>
<g opacity="0.5">
<path d="M14.23,19.26L13.836,18.731L13.443,19.26L13.047,19.26L13.643,18.485L13.073,17.734L13.471,17.734L13.846,18.235L14.22,17.734L14.606,17.734L14.034,18.481L14.633,19.26L14.23,19.26Z" fill="#000000"/>
<path d="M16.253,18.941L16.253,19.255L14.777,19.255L14.777,19.017L15.573,18.261C15.767,18.075 15.812,17.958 15.812,17.849C15.812,17.665 15.686,17.558 15.44,17.558C15.349,17.552 15.259,17.568 15.176,17.605C15.093,17.641 15.02,17.697 14.963,17.768L14.703,17.567C14.795,17.456 14.912,17.369 15.044,17.311C15.176,17.254 15.32,17.228 15.464,17.236C15.898,17.236 16.179,17.455 16.179,17.81C16.176,17.934 16.145,18.055 16.087,18.165C16.03,18.275 15.948,18.37 15.848,18.442L15.309,18.941L16.253,18.941Z" fill="#000000"/>
</g>
<path d="M29.815,18.437C29.816,18.752 29.723,19.061 29.548,19.324C29.372,19.586 29.123,19.791 28.832,19.912C28.54,20.033 28.219,20.065 27.91,20.004C27.6,19.942 27.315,19.79 27.092,19.567C26.869,19.344 26.717,19.059 26.656,18.75C26.594,18.44 26.626,18.119 26.747,17.827C26.868,17.536 27.073,17.287 27.335,17.112C27.598,16.936 27.907,16.843 28.223,16.844C28.645,16.844 29.05,17.012 29.348,17.311C29.647,17.61 29.815,18.014 29.815,18.437Z" fill="#353537"/>
<path d="M28.348,17.547L28.109,17.547L28.109,19.328L28.348,19.328L28.348,17.547Z" fill="#F4F4F4"/>
<path d="M29.109,18.313L27.328,18.313L27.328,18.551L29.109,18.551L29.109,18.313Z" fill="#F4F4F4"/>
<path d="M34.592,18.437C34.592,18.752 34.499,19.06 34.324,19.322C34.148,19.583 33.9,19.788 33.609,19.908C33.318,20.029 32.997,20.06 32.688,19.999C32.379,19.937 32.096,19.786 31.873,19.563C31.65,19.34 31.498,19.056 31.437,18.747C31.375,18.438 31.407,18.118 31.527,17.827C31.648,17.536 31.852,17.287 32.114,17.112C32.376,16.937 32.684,16.844 32.999,16.844C33.421,16.844 33.826,17.012 34.125,17.311C34.423,17.61 34.591,18.014 34.592,18.437Z" fill="#353537"/>
<path d="M33.875,18.313L32.094,18.313L32.094,18.551L33.875,18.551L33.875,18.313Z" fill="#F4F4F4"/>
<path d="M5.557,19.898C5.455,19.934 5.358,19.982 5.268,20.041C5.228,20.149 5.212,20.265 5.221,20.38C5.23,20.495 5.264,20.606 5.32,20.707C5.44,20.8 6.72,21.019 7.388,20.969C8.056,20.919 8.711,20.969 9.429,20.969C10.147,20.969 11.511,20.859 11.596,20.707C11.641,20.609 11.664,20.502 11.664,20.394C11.664,20.287 11.641,20.18 11.596,20.082C11.296,19.841 10.918,19.718 10.533,19.736C10.094,19.796 5.557,19.898 5.557,19.898Z" fill="#353537"/>
<g opacity="0.3">
<path d="M5.557,19.898C5.455,19.934 5.358,19.982 5.268,20.041C5.228,20.149 5.212,20.265 5.221,20.38C5.23,20.495 5.264,20.606 5.32,20.707C5.44,20.8 6.72,21.019 7.388,20.969C8.056,20.919 8.711,20.969 9.429,20.969C10.147,20.969 11.511,20.859 11.596,20.707C11.641,20.609 11.664,20.502 11.664,20.394C11.664,20.287 11.641,20.18 11.596,20.082C11.296,19.841 10.918,19.718 10.533,19.736C10.094,19.796 5.557,19.898 5.557,19.898Z" fill="#F4F4F4"/>
</g>
<path d="M5.505,19.476C5.483,19.605 5.436,19.891 5.505,19.953C5.892,20.13 6.322,20.189 6.742,20.122C7.21,20.07 7.681,20.053 8.152,20.072C8.943,20.072 9.272,20.105 9.434,20.072C9.597,20.039 9.814,20.022 10.1,20.005C10.386,19.989 10.791,19.955 10.901,19.955C11.011,19.955 11.07,20.032 11.213,19.955C11.308,19.901 11.405,19.852 11.504,19.807C11.504,19.807 11.492,19.636 11.44,19.609C11.387,19.583 11.356,19.609 11.347,19.552C11.337,19.495 11.347,19.509 11.313,19.455C11.28,19.4 11.213,19.328 11.213,19.328L5.505,19.476Z" fill="#263238"/>
<g opacity="0.2">
<path d="M5.505,19.476C5.483,19.605 5.436,19.891 5.505,19.953C5.892,20.13 6.322,20.189 6.742,20.122C7.21,20.07 7.681,20.053 8.152,20.072C8.943,20.072 9.272,20.105 9.434,20.072C9.597,20.039 9.814,20.022 10.1,20.005C10.386,19.989 10.791,19.955 10.901,19.955C11.011,19.955 11.07,20.032 11.213,19.955C11.308,19.901 11.405,19.852 11.504,19.807C11.504,19.807 11.492,19.636 11.44,19.609C11.387,19.583 11.356,19.609 11.347,19.552C11.337,19.495 11.347,19.509 11.313,19.455C11.28,19.4 11.213,19.328 11.213,19.328L5.505,19.476Z" fill="#F4F4F4"/>
</g>
<path d="M7.776,19.566C8.025,19.664 8.292,19.708 8.56,19.695C8.756,19.683 8.953,19.683 9.149,19.695C9.352,19.712 9.275,19.623 9.504,19.743C9.733,19.862 9.724,19.981 10.086,19.802C10.449,19.623 10.492,19.602 10.642,19.602C10.754,19.617 10.869,19.604 10.976,19.566C11.107,19.516 11.491,19.39 11.491,19.39C11.491,19.39 11.503,19.213 11.174,19.204C10.844,19.194 7.358,19.306 7.261,19.39C7.163,19.473 7.776,19.566 7.776,19.566Z" fill="#353537"/>
<g opacity="0.2">
<path d="M7.776,19.566C8.025,19.664 8.292,19.708 8.56,19.695C8.756,19.683 8.953,19.683 9.149,19.695C9.352,19.712 9.275,19.623 9.504,19.743C9.733,19.862 9.724,19.981 10.086,19.802C10.449,19.623 10.492,19.602 10.642,19.602C10.754,19.617 10.869,19.604 10.976,19.566C11.107,19.516 11.491,19.39 11.491,19.39C11.491,19.39 11.503,19.213 11.174,19.204C10.844,19.194 7.358,19.306 7.261,19.39C7.163,19.473 7.776,19.566 7.776,19.566Z" fill="#000000"/>
</g>
<path d="M5.858,19.203C5.858,19.203 5.3,19.289 5.283,19.389C5.266,19.489 5.376,19.499 5.455,19.566C5.504,19.607 5.543,19.66 5.569,19.718C5.628,19.675 5.696,19.646 5.768,19.634C5.841,19.623 5.915,19.629 5.984,19.651C6.177,19.744 6.27,19.752 6.32,19.718C6.37,19.685 6.482,19.763 6.649,19.737C6.747,19.718 6.847,19.718 6.945,19.737C7.055,19.737 7.214,19.544 7.307,19.561C7.488,19.525 7.664,19.466 7.83,19.384L5.858,19.203Z" fill="#353537"/>
<path d="M5.486,18.407C5.442,18.529 5.442,18.662 5.486,18.784C5.524,18.968 5.524,19.158 5.486,19.342C5.787,19.283 6.096,19.283 6.397,19.342C6.853,19.445 6.953,19.626 7.391,19.526C7.596,19.449 7.814,19.414 8.033,19.423C8.369,19.423 8.824,19.28 9.225,19.342C9.626,19.404 10.141,19.28 10.155,19.342C10.169,19.404 10.947,19.342 10.947,19.342C10.947,19.342 11.316,19.261 11.316,19.18C11.316,19.099 11.266,18.25 11.266,18.25L5.486,18.407Z" fill="#263238"/>
<path d="M6.625,19.161C6.625,19.161 8.328,19.094 8.556,19.094C8.785,19.094 8.978,19.127 9.365,19.127C9.642,19.155 9.921,19.166 10.199,19.161C10.581,19.127 10.915,19.161 10.967,19.132C10.807,19.147 10.647,19.173 10.49,19.211C10.345,19.251 10.195,19.269 10.044,19.263C9.935,19.227 9.821,19.209 9.706,19.211C9.682,19.227 9.467,19.211 9.42,19.273C9.372,19.335 9.353,19.583 9.327,19.573C9.25,19.47 9.148,19.387 9.031,19.335C8.831,19.254 8.514,19.137 8.468,19.211C8.423,19.285 8.139,19.237 8.046,19.335C7.959,19.413 7.85,19.464 7.734,19.48C7.693,19.482 6.625,19.161 6.625,19.161Z" fill="#353537"/>
<path d="M5.409,18.405C5.39,18.534 5.343,18.818 5.409,18.882C5.476,18.946 5.965,19.12 6.649,19.049C7.116,18.997 7.587,18.98 8.056,18.999C8.85,18.999 9.179,19.032 9.339,18.999C9.559,18.964 9.782,18.941 10.004,18.93C10.293,18.913 10.696,18.88 10.805,18.88C10.915,18.88 10.975,18.956 11.118,18.88C11.212,18.824 11.309,18.774 11.409,18.729C11.409,18.729 11.397,18.558 11.347,18.534C11.297,18.51 11.261,18.534 11.254,18.474C11.247,18.415 11.254,18.431 11.22,18.376L11.118,18.25L5.409,18.405Z" fill="#263238"/>
<g opacity="0.2">
<path d="M5.409,18.405C5.39,18.534 5.343,18.818 5.409,18.882C5.476,18.946 5.965,19.12 6.649,19.049C7.116,18.997 7.587,18.98 8.056,18.999C8.85,18.999 9.179,19.032 9.339,18.999C9.559,18.964 9.782,18.941 10.004,18.93C10.293,18.913 10.696,18.88 10.805,18.88C10.915,18.88 10.975,18.956 11.118,18.88C11.212,18.824 11.309,18.774 11.409,18.729C11.409,18.729 11.397,18.558 11.347,18.534C11.297,18.51 11.261,18.534 11.254,18.474C11.247,18.415 11.254,18.431 11.22,18.376L11.118,18.25L5.409,18.405Z" fill="#F4F4F4"/>
</g>
<path d="M7.188,18.091L9.345,19.381L11.201,18.031L7.188,18.091Z" fill="#353537"/>
<g opacity="0.6">
<path d="M7.188,18.091L9.345,19.381L11.201,18.031L7.188,18.091Z" fill="#F4F4F4"/>
</g>
<path d="M5.281,18.047L5.985,19.227L8.868,18.106L5.281,18.047Z" fill="#353537"/>
<g opacity="0.6">
<path d="M5.281,18.047L5.985,19.227L8.868,18.106L5.281,18.047Z" fill="#F4F4F4"/>
</g>
<path d="M5.433,18.134C5.433,18.134 5.061,18.487 5.18,18.589C5.299,18.692 5.156,18.842 5.156,18.842C5.383,18.766 5.628,18.766 5.855,18.842C6.184,18.942 6.536,18.942 6.866,18.842C7.085,18.775 7.581,18.756 7.743,18.639C7.936,18.454 8.111,18.25 8.266,18.031L5.433,18.134Z" fill="#353537"/>
<path d="M8.797,18.039C8.797,18.039 9.398,18.664 9.827,18.711C10.256,18.759 10.316,18.661 10.821,18.711C11.327,18.761 11.379,18.909 11.463,18.726C11.506,18.47 11.506,18.209 11.463,17.953L8.797,18.039Z" fill="#353537"/>
<g opacity="0.2">
<path d="M5.433,18.134C5.433,18.134 5.061,18.487 5.18,18.589C5.299,18.692 5.156,18.842 5.156,18.842C5.383,18.766 5.628,18.766 5.855,18.842C6.184,18.942 6.536,18.942 6.866,18.842C7.085,18.775 7.581,18.756 7.743,18.639C7.936,18.454 8.111,18.25 8.266,18.031L5.433,18.134Z" fill="#000000"/>
</g>
<g opacity="0.2">
<path d="M8.797,18.039C8.797,18.039 9.398,18.664 9.827,18.711C10.256,18.759 10.316,18.661 10.821,18.711C11.327,18.761 11.379,18.909 11.463,18.726C11.506,18.47 11.506,18.209 11.463,17.953L8.797,18.039Z" fill="#000000"/>
</g>
<path d="M5.359,19.904C5.498,19.853 5.644,19.827 5.791,19.828C5.884,19.862 6.962,19.962 7.067,19.962C7.236,19.928 7.41,19.928 7.579,19.962C7.789,20.028 7.763,20.081 8.068,20.021C8.244,19.972 8.425,19.943 8.607,19.933C8.767,19.933 8.8,19.888 8.919,19.933C9.088,19.987 9.264,20.014 9.442,20.012C9.635,20.012 9.623,20.124 9.907,20.036C10.065,19.96 10.237,19.916 10.412,19.904C10.572,19.904 10.775,19.888 10.851,19.904C10.927,19.921 10.879,19.871 11.07,19.904C11.169,19.926 11.272,19.917 11.366,19.878C11.409,19.918 11.456,19.955 11.504,19.988C11.559,20.021 11.247,20.05 11.137,20.069C11.027,20.088 11.17,20.086 10.899,20.145C10.627,20.205 10.705,20.248 10.496,20.241C10.286,20.234 10.305,20.26 10.159,20.241C10.014,20.222 10.064,20.315 9.795,20.241C9.605,20.187 9.41,20.153 9.213,20.138C9.17,20.138 9.349,20.114 9.086,20.183C8.824,20.253 9.01,20.195 8.681,20.265C8.352,20.334 8.412,20.41 8.204,20.327C7.997,20.243 7.966,20.224 7.868,20.25C7.77,20.276 7.851,20.276 7.708,20.284C7.565,20.291 7.622,20.284 7.47,20.284C7.255,20.321 7.039,20.344 6.821,20.353C6.661,20.353 6.442,20.257 6.332,20.257C6.198,20.239 6.065,20.214 5.934,20.181C5.767,20.157 5.648,20.181 5.598,20.129C5.548,20.076 5.359,19.904 5.359,19.904Z" fill="#353537"/>
<g opacity="0.2">
<path d="M5.359,19.904C5.498,19.853 5.644,19.827 5.791,19.828C5.884,19.862 6.962,19.962 7.067,19.962C7.236,19.928 7.41,19.928 7.579,19.962C7.789,20.028 7.763,20.081 8.068,20.021C8.244,19.972 8.425,19.943 8.607,19.933C8.767,19.933 8.8,19.888 8.919,19.933C9.088,19.987 9.264,20.014 9.442,20.012C9.635,20.012 9.623,20.124 9.907,20.036C10.065,19.96 10.237,19.916 10.412,19.904C10.572,19.904 10.775,19.888 10.851,19.904C10.927,19.921 10.879,19.871 11.07,19.904C11.169,19.926 11.272,19.917 11.366,19.878C11.409,19.918 11.456,19.955 11.504,19.988C11.559,20.021 11.247,20.05 11.137,20.069C11.027,20.088 11.17,20.086 10.899,20.145C10.627,20.205 10.705,20.248 10.496,20.241C10.286,20.234 10.305,20.26 10.159,20.241C10.014,20.222 10.064,20.315 9.795,20.241C9.605,20.187 9.41,20.153 9.213,20.138C9.17,20.138 9.349,20.114 9.086,20.183C8.824,20.253 9.01,20.195 8.681,20.265C8.352,20.334 8.412,20.41 8.204,20.327C7.997,20.243 7.966,20.224 7.868,20.25C7.77,20.276 7.851,20.276 7.708,20.284C7.565,20.291 7.622,20.284 7.47,20.284C7.255,20.321 7.039,20.344 6.821,20.353C6.661,20.353 6.442,20.257 6.332,20.257C6.198,20.239 6.065,20.214 5.934,20.181C5.767,20.157 5.648,20.181 5.598,20.129C5.548,20.076 5.359,19.904 5.359,19.904Z" fill="#000000"/>
</g>
<path d="M11.731,18.309C11.821,18.263 11.769,18.108 11.769,18.006C11.769,16.837 10.262,15.891 8.404,15.891C6.547,15.891 5.04,16.844 5.04,18.006C5.04,18.108 5.004,18.244 5.078,18.309C5.331,18.547 6.84,18.278 8.416,18.256C9.857,18.232 11.366,18.485 11.731,18.309Z" fill="#353537"/>
<g opacity="0.3">
<path d="M11.731,18.309C11.821,18.263 11.769,18.108 11.769,18.006C11.769,16.837 10.262,15.891 8.404,15.891C6.547,15.891 5.04,16.844 5.04,18.006C5.04,18.108 5.004,18.244 5.078,18.309C5.331,18.547 6.84,18.278 8.416,18.256C9.857,18.232 11.366,18.485 11.731,18.309Z" fill="#F4F4F4"/>
</g>
<path d="M8.41,16.281C8.41,16.281 8.489,16.458 8.41,16.458C8.331,16.458 8.41,16.281 8.41,16.281Z" fill="#353537"/>
<path d="M9.375,16.281C9.375,16.281 9.711,16.331 9.661,16.369C9.611,16.408 9.375,16.281 9.375,16.281Z" fill="#353537"/>
<path d="M7.571,16.281C7.571,16.281 7.373,16.408 7.332,16.377C7.292,16.346 7.571,16.281 7.571,16.281Z" fill="#353537"/>
<g opacity="0.5">
<path d="M13.62,28.482L13.227,27.952L12.833,28.482L12.438,28.482L13.034,27.707L12.464,26.953L12.862,26.953L13.236,27.454L13.611,26.953L13.997,26.953L13.425,27.699L14.023,28.482L13.62,28.482Z" fill="#000000"/>
<path d="M14.903,26.484L14.903,28.487L14.531,28.487L14.531,26.802L14.109,26.802L14.109,26.489L14.903,26.484Z" fill="#000000"/>
</g>
<path d="M29.237,27.671C29.238,27.987 29.145,28.295 28.97,28.558C28.795,28.821 28.546,29.025 28.254,29.146C27.963,29.268 27.642,29.3 27.332,29.238C27.023,29.177 26.738,29.025 26.515,28.802C26.292,28.579 26.139,28.295 26.078,27.985C26.016,27.676 26.047,27.355 26.168,27.063C26.289,26.772 26.493,26.523 26.756,26.347C27.018,26.172 27.326,26.078 27.642,26.078C28.065,26.078 28.47,26.246 28.769,26.545C29.068,26.843 29.237,27.248 29.237,27.671Z" fill="#353537"/>
<path d="M27.754,26.766L27.516,26.766L27.516,28.547L27.754,28.547L27.754,26.766Z" fill="#F4F4F4"/>
<path d="M28.531,27.547L26.75,27.547L26.75,27.785L28.531,27.785L28.531,27.547Z" fill="#F4F4F4"/>
<path d="M34.003,27.671C34.003,27.987 33.91,28.295 33.735,28.558C33.56,28.821 33.311,29.026 33.019,29.147C32.728,29.268 32.407,29.3 32.097,29.238C31.787,29.177 31.503,29.025 31.28,28.801C31.056,28.578 30.905,28.294 30.843,27.984C30.782,27.674 30.813,27.353 30.934,27.062C31.055,26.77 31.26,26.521 31.523,26.346C31.786,26.171 32.094,26.078 32.41,26.078C32.619,26.078 32.826,26.119 33.02,26.199C33.213,26.279 33.389,26.397 33.536,26.545C33.684,26.693 33.802,26.868 33.882,27.061C33.962,27.255 34.003,27.462 34.003,27.671Z" fill="#353537"/>
<path d="M33.312,27.547L31.531,27.547L31.531,27.785L33.312,27.785L33.312,27.547Z" fill="#F4F4F4"/>
<path d="M8.471,24.875L7.139,24.875C6.766,25.01 6.443,25.255 6.212,25.577C5.98,25.899 5.852,26.284 5.844,26.68L9.764,26.68C9.756,26.284 9.628,25.899 9.397,25.577C9.167,25.255 8.844,25.01 8.471,24.875Z" fill="#353537"/>
<g opacity="0.6">
<path d="M8.471,24.875L7.139,24.875C6.766,25.01 6.443,25.255 6.212,25.577C5.98,25.899 5.852,26.284 5.844,26.68L9.764,26.68C9.756,26.284 9.628,25.899 9.397,25.577C9.167,25.255 8.844,25.01 8.471,24.875Z" fill="#F4F4F4"/>
</g>
<g opacity="0.2">
<path d="M7.953,23.801L7.674,23.801L7.674,28.081L7.953,28.081L7.953,23.801Z" transform="rotate(-20.44 7.814 25.941)" fill="#000000"/>
</g>
<path d="M9.481,31.055L9.836,26.734L5.797,26.734L6.155,31.055L9.481,31.055Z" fill="#353537"/>
<path d="M10.014,27.009L5.609,27.009L5.683,26.375L9.94,26.375L10.014,27.009Z" fill="#353537"/>
<g opacity="0.4">
<path d="M10.014,27.009L5.609,27.009L5.683,26.375L9.94,26.375L10.014,27.009Z" fill="#F4F4F4"/>
</g>
<path d="M36.946,32.953L2.688,32.953L2.688,38.235L36.946,38.235L36.946,32.953Z" fill="#FF5904"/>
<path d="M15.067,35.13C15.067,35.571 14.74,35.845 14.213,35.845L13.763,35.845L13.763,36.422L13.391,36.422L13.391,34.422L14.213,34.422C14.74,34.42 15.067,34.689 15.067,35.13ZM14.693,35.13C14.693,34.88 14.523,34.734 14.197,34.734L13.763,34.734L13.763,35.528L14.197,35.528C14.523,35.528 14.693,35.383 14.693,35.13Z" fill="#F4F4F4"/>
<path d="M16.667,35.524L16.667,36.418L16.328,36.418L16.328,36.232C16.273,36.305 16.2,36.362 16.117,36.398C16.033,36.434 15.942,36.449 15.851,36.44C15.503,36.44 15.281,36.247 15.281,35.982C15.281,35.717 15.453,35.527 15.918,35.527L16.311,35.527L16.311,35.503C16.311,35.295 16.185,35.171 15.93,35.171C15.763,35.17 15.6,35.223 15.467,35.324L15.327,35.064C15.516,34.934 15.743,34.868 15.973,34.876C16.412,34.876 16.667,35.083 16.667,35.524ZM16.309,35.942L16.309,35.765L15.939,35.765C15.701,35.765 15.632,35.856 15.632,35.968C15.632,36.08 15.739,36.18 15.923,36.18C16.004,36.186 16.086,36.166 16.155,36.123C16.225,36.081 16.28,36.017 16.311,35.942L16.309,35.942Z" fill="#F4F4F4"/>
<path d="M18.527,34.891L17.812,36.541C17.78,36.672 17.704,36.788 17.597,36.87C17.489,36.952 17.357,36.995 17.223,36.991C17.074,36.995 16.929,36.946 16.813,36.853L16.956,36.588C17.027,36.656 17.122,36.695 17.22,36.696C17.347,36.696 17.421,36.634 17.49,36.483L17.514,36.424L16.848,34.891L17.22,34.891L17.697,36.021L18.174,34.891L18.527,34.891Z" fill="#F4F4F4"/>
<path d="M21.304,35.544L21.304,36.42L20.946,36.42L20.946,35.592C20.946,35.32 20.82,35.187 20.603,35.187C20.386,35.187 20.205,35.342 20.205,35.645L20.205,36.42L19.847,36.42L19.847,35.592C19.847,35.32 19.723,35.187 19.504,35.187C19.284,35.187 19.108,35.342 19.108,35.645L19.108,36.42L18.75,36.42L18.75,34.894L19.091,34.894L19.091,35.087C19.153,35.017 19.231,34.962 19.317,34.926C19.403,34.89 19.496,34.873 19.589,34.877C19.69,34.87 19.791,34.889 19.881,34.934C19.971,34.978 20.049,35.046 20.104,35.13C20.174,35.047 20.262,34.981 20.361,34.937C20.461,34.894 20.568,34.873 20.677,34.877C20.764,34.87 20.852,34.883 20.935,34.914C21.017,34.946 21.09,34.996 21.151,35.06C21.211,35.124 21.256,35.201 21.282,35.285C21.309,35.369 21.316,35.457 21.304,35.544Z" fill="#F4F4F4"/>
<path d="M23.222,35.77L22.03,35.77C22.052,35.881 22.115,35.98 22.206,36.048C22.297,36.116 22.41,36.148 22.523,36.137C22.6,36.14 22.677,36.127 22.749,36.098C22.82,36.069 22.885,36.026 22.938,35.97L23.129,36.19C23.052,36.275 22.956,36.341 22.85,36.385C22.744,36.428 22.629,36.447 22.514,36.44C22.406,36.449 22.297,36.436 22.195,36.4C22.092,36.365 21.998,36.309 21.919,36.235C21.839,36.161 21.776,36.071 21.734,35.971C21.691,35.871 21.67,35.764 21.672,35.655C21.669,35.551 21.688,35.448 21.726,35.351C21.765,35.255 21.823,35.167 21.897,35.094C21.971,35.021 22.06,34.964 22.157,34.926C22.254,34.889 22.357,34.871 22.461,34.876C22.565,34.871 22.669,34.889 22.766,34.928C22.862,34.966 22.95,35.024 23.022,35.099C23.095,35.173 23.151,35.262 23.187,35.36C23.223,35.457 23.238,35.561 23.232,35.665C23.227,35.694 23.225,35.736 23.222,35.77ZM22.03,35.531L22.898,35.531C22.886,35.426 22.835,35.33 22.755,35.261C22.675,35.192 22.572,35.157 22.466,35.162C22.359,35.155 22.253,35.189 22.17,35.258C22.087,35.327 22.033,35.425 22.02,35.531L22.03,35.531Z" fill="#F4F4F4"/>
<path d="M25.067,35.545L25.067,36.42L24.709,36.42L24.709,35.592C24.709,35.32 24.574,35.187 24.345,35.187C24.285,35.183 24.225,35.193 24.17,35.216C24.114,35.238 24.064,35.273 24.024,35.317C23.983,35.361 23.953,35.413 23.935,35.47C23.917,35.527 23.912,35.588 23.92,35.647L23.92,36.42L23.563,36.42L23.563,34.894L23.901,34.894L23.901,35.091C23.968,35.019 24.049,34.962 24.141,34.925C24.232,34.888 24.33,34.872 24.428,34.877C24.516,34.87 24.605,34.883 24.688,34.914C24.77,34.945 24.845,34.995 24.906,35.059C24.967,35.123 25.014,35.2 25.041,35.284C25.069,35.368 25.078,35.457 25.067,35.545Z" fill="#F4F4F4"/>
<path d="M26.433,36.33C26.333,36.4 26.212,36.436 26.09,36.433C26.02,36.441 25.949,36.433 25.882,36.41C25.816,36.387 25.755,36.349 25.705,36.3C25.654,36.251 25.615,36.191 25.591,36.125C25.566,36.059 25.557,35.988 25.563,35.918L25.563,35.184L25.313,35.184L25.313,34.897L25.563,34.897L25.563,34.547L25.921,34.547L25.921,34.897L26.324,34.897L26.324,35.184L25.913,35.184L25.913,35.899C25.913,36.049 25.987,36.137 26.126,36.137C26.197,36.14 26.268,36.118 26.326,36.075L26.433,36.33Z" fill="#F4F4F4"/>
<path d="M36.946,38.953L2.688,38.953L2.688,48.756L36.946,48.756L36.946,38.953Z" fill="#F4F4F4"/>
<g opacity="0.5">
<path d="M20.074,43.899L20.401,44.081L20.289,44.274L19.957,44.081L19.957,44.448L19.74,44.448L19.74,44.083L19.411,44.274L19.297,44.081L19.626,43.899L19.297,43.718L19.421,43.515L19.75,43.709L19.75,43.344L19.967,43.344L19.967,43.711L20.298,43.515L20.41,43.711L20.074,43.899Z" fill="#000000"/>
<path d="M21.324,43.908L21.651,44.089L21.539,44.282L21.207,44.089L21.207,44.456L20.99,44.456L20.99,44.091L20.661,44.282L20.547,44.089L20.876,43.908L20.547,43.727L20.661,43.531L20.99,43.724L20.99,43.359L21.207,43.359L21.207,43.727L21.539,43.531L21.651,43.727L21.324,43.908Z" fill="#000000"/>
<path d="M22.579,43.908L22.903,44.089L22.794,44.282L22.46,44.089L22.46,44.456L22.24,44.456L22.24,44.091L21.911,44.282L21.797,44.089L22.126,43.908L21.797,43.727L21.911,43.531L22.24,43.724L22.24,43.359L22.46,43.359L22.46,43.727L22.794,43.531L22.903,43.727L22.579,43.908Z" fill="#000000"/>
<path d="M23.809,43.908L24.133,44.089L24.023,44.282L23.692,44.089L23.692,44.456L23.475,44.456L23.475,44.091L23.146,44.282L23.031,44.089L23.36,43.908L23.031,43.727L23.146,43.531L23.475,43.724L23.475,43.359L23.704,43.359L23.704,43.727L24.035,43.531L24.145,43.727L23.809,43.908Z" fill="#000000"/>
<path d="M25.793,43.899L26.12,44.081L26.008,44.274L25.676,44.081L25.676,44.448L25.459,44.448L25.459,44.083L25.13,44.274L25.016,44.081L25.345,43.899L25.016,43.718L25.14,43.515L25.469,43.709L25.469,43.344L25.686,43.344L25.686,43.711L26.017,43.515L26.129,43.711L25.793,43.899Z" fill="#000000"/>
<path d="M27.059,43.908L27.385,44.089L27.273,44.282L26.942,44.089L26.942,44.456L26.725,44.456L26.725,44.091L26.396,44.282L26.281,44.089L26.61,43.908L26.281,43.727L26.396,43.531L26.725,43.724L26.725,43.359L26.942,43.359L26.942,43.727L27.273,43.531L27.385,43.727L27.059,43.908Z" fill="#000000"/>
<path d="M28.309,43.908L28.635,44.089L28.523,44.282L28.192,44.089L28.192,44.456L27.975,44.456L27.975,44.091L27.646,44.282L27.531,44.089L27.86,43.908L27.531,43.727L27.646,43.531L27.975,43.724L27.975,43.359L28.192,43.359L28.192,43.727L28.523,43.531L28.635,43.727L28.309,43.908Z" fill="#000000"/>
<path d="M29.545,43.908L29.87,44.089L29.76,44.282L29.426,44.089L29.426,44.456L29.209,44.456L29.209,44.091L28.88,44.282L28.766,44.089L29.095,43.908L28.766,43.727L28.88,43.531L29.209,43.724L29.209,43.359L29.44,43.359L29.44,43.727L29.774,43.531L29.884,43.727L29.545,43.908Z" fill="#000000"/>
<path d="M31.512,43.899L31.838,44.081L31.726,44.274L31.395,44.081L31.395,44.448L31.178,44.448L31.178,44.083L30.849,44.274L30.734,44.081L31.063,43.899L30.734,43.718L30.858,43.515L31.187,43.709L31.187,43.344L31.404,43.344L31.404,43.711L31.736,43.515L31.848,43.711L31.512,43.899Z" fill="#000000"/>
<path d="M32.762,43.908L33.088,44.089L32.976,44.282L32.645,44.089L32.645,44.456L32.428,44.456L32.428,44.091L32.099,44.282L31.984,44.089L32.313,43.908L31.984,43.727L32.099,43.531L32.428,43.724L32.428,43.359L32.645,43.359L32.645,43.727L32.976,43.531L33.088,43.727L32.762,43.908Z" fill="#000000"/>
<path d="M34.009,43.908L34.336,44.089L34.224,44.282L33.892,44.089L33.892,44.456L33.676,44.456L33.676,44.091L33.346,44.282L33.234,44.089L33.561,43.908L33.234,43.727L33.346,43.531L33.676,43.724L33.676,43.359L33.892,43.359L33.892,43.727L34.224,43.531L34.336,43.727L34.009,43.908Z" fill="#000000"/>
</g>
<path d="M10.761,41.859L5.901,41.859C5.541,41.859 5.25,42.151 5.25,42.51L5.25,45.293C5.25,45.653 5.541,45.944 5.901,45.944L10.761,45.944C11.12,45.944 11.412,45.653 11.412,45.293L11.412,42.51C11.412,42.151 11.12,41.859 10.761,41.859Z" fill="#353537"/>
<g opacity="0.5">
<path d="M11.396,44.078L5.234,44.078L5.234,45.096L11.396,45.096L11.396,44.078Z" fill="#000000"/>
</g>
<g opacity="0.5">
<path d="M10.912,43.344C10.911,43.404 10.892,43.463 10.858,43.513C10.824,43.562 10.776,43.601 10.72,43.624C10.665,43.647 10.603,43.652 10.544,43.641C10.485,43.629 10.431,43.6 10.388,43.557C10.345,43.515 10.316,43.461 10.303,43.402C10.291,43.342 10.296,43.281 10.319,43.225C10.341,43.169 10.379,43.121 10.429,43.086C10.478,43.052 10.537,43.033 10.597,43.031C10.639,43.03 10.68,43.037 10.719,43.052C10.757,43.068 10.792,43.091 10.822,43.12C10.851,43.149 10.875,43.184 10.89,43.223C10.906,43.261 10.913,43.302 10.912,43.344Z" fill="#000000"/>
</g>
<path d="M10.506,43.336C10.506,43.398 10.489,43.457 10.455,43.508C10.421,43.559 10.373,43.599 10.317,43.623C10.261,43.646 10.199,43.652 10.139,43.641C10.079,43.629 10.024,43.6 9.981,43.556C9.938,43.513 9.908,43.458 9.896,43.398C9.885,43.338 9.891,43.276 9.914,43.22C9.938,43.164 9.978,43.116 10.029,43.082C10.08,43.048 10.14,43.031 10.201,43.031C10.282,43.031 10.359,43.063 10.416,43.121C10.474,43.178 10.506,43.256 10.506,43.336Z" fill="#F4F4F4"/>
<path d="M27.526,54.234L12.105,54.234C10.174,54.234 8.609,55.799 8.609,57.73C8.609,59.661 10.174,61.226 12.105,61.226L27.526,61.226C29.456,61.226 31.021,59.661 31.021,57.73C31.021,55.799 29.456,54.234 27.526,54.234Z" fill="#FF5904"/>
<path d="M12.877,57.525C12.863,57.244 12.935,56.964 13.081,56.723C13.228,56.483 13.444,56.291 13.701,56.174C13.957,56.057 14.243,56.02 14.521,56.067C14.799,56.113 15.057,56.243 15.261,56.437C15.465,56.632 15.606,56.883 15.666,57.159C15.726,57.435 15.702,57.722 15.597,57.984C15.492,58.246 15.311,58.47 15.077,58.628C14.844,58.786 14.568,58.87 14.286,58.87C14.104,58.88 13.922,58.852 13.751,58.788C13.58,58.725 13.423,58.627 13.291,58.501C13.16,58.375 13.055,58.224 12.983,58.056C12.912,57.888 12.876,57.708 12.877,57.525ZM15.204,57.525C15.204,57.343 15.151,57.165 15.05,57.013C14.949,56.861 14.805,56.743 14.637,56.673C14.468,56.603 14.283,56.585 14.104,56.62C13.926,56.655 13.761,56.743 13.633,56.872C13.504,57.001 13.416,57.165 13.381,57.344C13.345,57.523 13.364,57.708 13.434,57.876C13.503,58.044 13.622,58.188 13.774,58.289C13.925,58.39 14.104,58.444 14.286,58.443C14.407,58.447 14.529,58.426 14.642,58.382C14.755,58.337 14.858,58.269 14.944,58.183C15.03,58.097 15.097,57.994 15.142,57.881C15.187,57.768 15.208,57.647 15.204,57.525Z" fill="#F4F4F4"/>
<path d="M17.921,58.833L17.387,58.063L16.696,58.063L16.696,58.826L16.219,58.826L16.219,56.203L17.297,56.203C17.983,56.203 18.41,56.554 18.41,57.133C18.418,57.312 18.368,57.489 18.267,57.638C18.167,57.786 18.021,57.899 17.852,57.958L18.453,58.819L17.921,58.833ZM17.268,56.632L16.696,56.632L16.696,57.677L17.268,57.677C17.695,57.677 17.914,57.481 17.914,57.152C17.914,56.823 17.69,56.632 17.268,56.632Z" fill="#F4F4F4"/>
<path d="M18.938,56.219L20.082,56.219C20.931,56.219 21.513,56.741 21.513,57.528C21.513,58.315 20.936,58.835 20.082,58.835L18.938,58.835L18.938,56.219ZM20.058,58.424C20.642,58.424 21.012,58.069 21.012,57.528C21.012,56.987 20.635,56.629 20.058,56.629L19.424,56.629L19.424,58.424L20.058,58.424Z" fill="#F4F4F4"/>
<path d="M23.982,58.418L23.982,58.826L22.031,58.826L22.031,56.203L23.939,56.203L23.939,56.625L22.508,56.625L22.508,57.305L23.772,57.305L23.772,57.705L22.508,57.705L22.508,58.421L23.982,58.418Z" fill="#F4F4F4"/>
<path d="M26.234,58.833L25.7,58.063L25.008,58.063L25.008,58.826L24.531,58.826L24.531,56.203L25.609,56.203C26.296,56.203 26.723,56.554 26.723,57.133C26.73,57.312 26.68,57.489 26.58,57.638C26.479,57.786 26.334,57.899 26.165,57.958L26.768,58.819L26.234,58.833ZM25.578,56.632L25.008,56.632L25.008,57.677L25.578,57.677C26.002,57.677 26.224,57.481 26.224,57.152C26.224,56.823 26.002,56.632 25.578,56.632Z" fill="#F4F4F4"/>
<path d="M14.976,9.359L15.844,9.359C16.492,9.359 16.936,9.76 16.936,10.361C16.936,10.962 16.492,11.362 15.844,11.362L14.969,11.362L14.976,9.359ZM15.834,11.048C15.929,11.056 16.025,11.044 16.115,11.013C16.205,10.982 16.288,10.933 16.358,10.868C16.428,10.803 16.484,10.725 16.523,10.638C16.561,10.55 16.581,10.456 16.581,10.361C16.581,10.266 16.561,10.171 16.523,10.084C16.484,9.997 16.428,9.918 16.358,9.854C16.288,9.789 16.205,9.74 16.115,9.709C16.025,9.678 15.929,9.666 15.834,9.674L15.357,9.674L15.357,11.048L15.834,11.048Z" fill="#F4F4F4"/>
<path d="M18.743,10.721L17.55,10.721C17.573,10.832 17.636,10.93 17.727,10.998C17.818,11.066 17.931,11.098 18.044,11.088C18.121,11.091 18.198,11.078 18.269,11.049C18.341,11.02 18.405,10.977 18.459,10.921L18.65,11.143C18.534,11.259 18.388,11.34 18.228,11.376C18.068,11.412 17.901,11.401 17.747,11.344C17.593,11.288 17.459,11.189 17.36,11.058C17.261,10.928 17.201,10.772 17.188,10.609C17.185,10.504 17.203,10.401 17.242,10.304C17.281,10.208 17.339,10.12 17.413,10.047C17.487,9.974 17.575,9.917 17.672,9.879C17.769,9.842 17.873,9.824 17.977,9.829C18.081,9.825 18.185,9.843 18.281,9.881C18.378,9.92 18.465,9.978 18.538,10.053C18.611,10.127 18.667,10.216 18.704,10.313C18.74,10.41 18.756,10.514 18.75,10.618C18.75,10.644 18.745,10.687 18.743,10.721ZM17.55,10.482L18.416,10.482C18.399,10.38 18.346,10.287 18.267,10.219C18.187,10.152 18.087,10.115 17.983,10.115C17.879,10.115 17.779,10.152 17.699,10.219C17.62,10.287 17.567,10.38 17.55,10.482Z" fill="#F4F4F4"/>
<path d="M19.996,11.291C19.896,11.362 19.775,11.398 19.652,11.393C19.582,11.401 19.511,11.393 19.445,11.37C19.378,11.347 19.318,11.31 19.267,11.26C19.217,11.211 19.178,11.151 19.153,11.085C19.129,11.019 19.119,10.948 19.125,10.878L19.125,10.134L18.875,10.134L18.875,9.848L19.125,9.848L19.125,9.5L19.483,9.5L19.483,9.848L19.891,9.848L19.891,10.134L19.481,10.134L19.481,10.862C19.475,10.892 19.476,10.923 19.484,10.953C19.492,10.983 19.507,11.01 19.528,11.033C19.548,11.057 19.574,11.075 19.602,11.086C19.631,11.098 19.662,11.102 19.693,11.1C19.765,11.101 19.835,11.079 19.893,11.036L19.996,11.291Z" fill="#F4F4F4"/>
<path d="M21.557,10.477L21.557,11.374L21.219,11.374L21.219,11.188C21.163,11.26 21.09,11.316 21.007,11.352C20.923,11.388 20.832,11.402 20.742,11.393C20.394,11.393 20.172,11.202 20.172,10.935C20.172,10.668 20.344,10.48 20.809,10.48L21.202,10.48L21.202,10.458C21.202,10.248 21.076,10.127 20.82,10.127C20.654,10.125 20.492,10.178 20.358,10.277L20.217,10.017C20.407,9.887 20.633,9.821 20.863,9.829C21.319,9.829 21.557,10.039 21.557,10.477ZM21.2,10.895L21.2,10.718L20.842,10.718C20.603,10.718 20.534,10.809 20.534,10.921C20.534,11.033 20.642,11.133 20.825,11.133C20.906,11.138 20.986,11.118 21.055,11.075C21.124,11.032 21.178,10.969 21.209,10.895L21.2,10.895Z" fill="#F4F4F4"/>
<path d="M21.984,9.357C21.985,9.327 21.991,9.297 22.003,9.269C22.016,9.242 22.034,9.217 22.056,9.197C22.079,9.177 22.105,9.161 22.134,9.152C22.162,9.143 22.193,9.139 22.223,9.142C22.252,9.139 22.282,9.141 22.31,9.15C22.339,9.158 22.365,9.173 22.388,9.192C22.41,9.211 22.428,9.235 22.441,9.262C22.454,9.289 22.461,9.318 22.461,9.347C22.447,9.397 22.417,9.44 22.375,9.471C22.334,9.502 22.284,9.519 22.232,9.519C22.181,9.519 22.131,9.502 22.089,9.471C22.048,9.44 22.018,9.397 22.003,9.347L21.984,9.357ZM22.032,9.822L22.39,9.822L22.39,11.35L22.042,11.35L22.032,9.822Z" fill="#F4F4F4"/>
<rect  x="22.859" y="9.234" width="0.358" height="2.122" fill="#F4F4F4"/>
<path d="M23.5,11.221L23.636,10.949C23.796,11.047 23.98,11.1 24.168,11.102C24.394,11.102 24.49,11.037 24.49,10.932C24.49,10.641 23.536,10.916 23.536,10.305C23.536,10.017 23.796,9.828 24.208,9.828C24.407,9.825 24.603,9.87 24.78,9.959L24.642,10.231C24.509,10.153 24.357,10.114 24.203,10.117C23.986,10.117 23.884,10.188 23.884,10.289C23.884,10.599 24.838,10.324 24.838,10.92C24.838,11.207 24.575,11.397 24.146,11.397C23.918,11.401 23.694,11.34 23.5,11.221Z" fill="#F4F4F4"/>
<g opacity="0.6">
<path d="M5.922,4.4L5.462,4.4L5.462,5.016L5.922,5.016L5.922,4.4Z" transform="rotate(360 5.692 4.708)" fill="#F4F4F4"/>
</g>
<g opacity="0.6">
<path d="M5.172,4.195L4.712,4.195L4.712,5.016L5.172,5.016L5.172,4.195Z" transform="rotate(360 4.942 4.605)" fill="#F4F4F4"/>
</g>
<g opacity="0.6">
<path d="M4.406,3.993L3.946,3.993L3.946,5.016L4.406,5.016L4.406,3.993Z" transform="rotate(360 4.176 4.504)" fill="#F4F4F4"/>
</g>
<g opacity="0.6">
<path d="M3.687,3.788L3.227,3.788L3.227,5.016L3.687,5.016L3.687,3.788Z" transform="rotate(360 3.457 4.402)" fill="#F4F4F4"/>
</g>
<g opacity="0.6">
<path d="M34.446,4.172L34.172,4.172L34.172,4.787L34.446,4.787L34.446,4.172Z" fill="#F4F4F4"/>
</g>
<g opacity="0.6">
<path d="M36.781,3.952L34.607,3.952L34.607,5.016L36.781,5.016L36.781,3.952Z" transform="rotate(360 35.694 4.484)" fill="#F4F4F4"/>
</g>
</svg>
