<svg version="1.2" xmlns="http://www.w3.org/2000/svg" viewBox="0 0 65 48" width="65" height="48">
	<title>dropdown_menurafiki_2_x2-svg</title>
	<style>
		.s0 { fill: #ebebeb } 
		.s1 { fill: #f0f0f0 } 
		.s2 { fill: #f5f5f5 } 
		.s3 { fill: #e0e0e0 } 
		.s4 { fill: #e6e6e6 } 
		.s5 { fill: #fafafa } 
		.s6 { fill: #ff5904 } 
		.s7 { fill: #f4f4f4 } 
		.s8 { fill: #263238 } 
		.s9 { fill: #e4897b } 
		.s10 { fill: #353537 } 
		.s11 { fill: #de5753 } 
	</style>
	<path id="Layer" class="s0" d="m58.1 44.2h-4.3 4.3z"/>
	<path id="Layer" class="s0" d="m42.8 44.5h-1.2v0.1h1.2z"/>
	<path id="Layer" class="s0" d="m53.7 43h-2.5 2.5z"/>
	<path id="Layer" class="s0" d="m12.4 43.2h-5.6 5.6z"/>
	<path id="Layer" class="s0" d="m14.3 43.2h-0.8 0.8z"/>
	<path id="Layer" class="s0" d="m29.1 43.8h-12.1 12.1z"/>
	<path id="Layer" fill-rule="evenodd" class="s0" d="m30.6 36.4h-24.9q-0.3 0-0.6-0.2-0.2-0.3-0.2-0.6v-34.9q0-0.3 0.2-0.5 0.3-0.2 0.6-0.2h24.9q0.3 0 0.5 0.2 0.2 0.2 0.2 0.5v34.9q0 0.3-0.2 0.6-0.2 0.2-0.5 0.2zm-24.9-36.4q-0.3 0-0.5 0.2-0.2 0.2-0.2 0.5v34.9q0 0.3 0.2 0.5 0.2 0.2 0.5 0.2h24.9q0.3 0 0.5-0.2 0.2-0.2 0.2-0.5v-34.9q0-0.3-0.2-0.5-0.2-0.2-0.5-0.2z"/>
	<path id="Layer" fill-rule="evenodd" class="s0" d="m58.5 36.4h-24.9q-0.3 0-0.5-0.2-0.2-0.3-0.2-0.6v-34.9q0-0.3 0.2-0.5 0.2-0.2 0.5-0.2h24.9q0.3 0 0.5 0.2 0.3 0.2 0.3 0.5v34.9q0 0.3-0.3 0.6-0.2 0.2-0.5 0.2zm-24.9-36.4q-0.3 0-0.5 0.2-0.2 0.2-0.2 0.5v34.9q0 0.3 0.2 0.5 0.2 0.2 0.5 0.2h24.9q0.3 0 0.5-0.2 0.2-0.2 0.2-0.5v-34.9q0-0.3-0.2-0.5-0.2-0.2-0.5-0.2z"/>
	<path id="Layer" class="s0" d="m0 42.1h64.6v0.1h-64.6z"/>
	<path id="Layer" class="s0" d="m11.2 23.5h-0.3v18.4h0.3z"/>
	<path id="Layer" class="s1" d="m14.4 21.6c0 0.9-0.7 1.8-1.7 2.2h-3.3c-1-0.4-1.6-1.3-1.6-2.2 0-0.9 0.6-1.7 1.6-2.2h3.3c1 0.5 1.7 1.3 1.7 2.2z"/>
	<path id="Layer" class="s2" d="m10 21.6c0-0.9 0.7-1.7 1.7-2.2h1c1 0.5 1.7 1.3 1.7 2.2 0 1-0.7 1.8-1.7 2.2h-1c-1-0.4-1.7-1.2-1.7-2.2z"/>
	<path id="Layer" class="s0" d="m9 42h4.1q0-0.1 0-0.1 0-0.1-0.1-0.2-0.1-0.1-0.2-0.1-0.1-0.1-0.2-0.1h-3.1q-0.2 0-0.3 0.2-0.2 0.1-0.2 0.3z"/>
	<path id="Layer" class="s2" d="m52.9 34.3c0 0 0 0.1 0.2 0.1 0.6-0.1 1.7-0.4 2-1 0.4-0.9-0.9-0.6-0.8-1.1 0-0.4 1.5-0.4 1.7-1 0.1-0.7-0.9-0.4-0.9-0.7 0-0.3 1.2-0.1 1.4-0.9 0.2-0.7-0.7-0.2-0.5-0.5 0.1-0.3 1.1-1.7 0.5-1.8-0.5-0.2-1.5 1.2-1.8 1.4-0.4 0.2-0.7-0.9-1.1-0.4-0.4 0.5 0.3 2.2-0.3 2.5-0.4 0.2-0.3-0.4-0.8-0.3-0.7 0.2-0.5 2.7 0.4 3.7z"/>
	<path id="Layer" class="s3" d="m54.8 30.6q-0.2 0-0.5 0.1 0.2-0.3 0.4-0.5 0 0 0 0 0 0 0 0 0 0 0 0 0 0 0-0.1 0 0 0 0 0 0-0.1 0 0 0 0 0 0 0 0 0-0.4 0.6-0.7 1.2c-0.2-0.8-0.1-1.6 0.3-2.3q0 0 0 0 0 0 0 0 0 0-0.1 0 0 0 0 0 0 0 0 0 0 0 0 0c-0.3 0.8-0.4 1.6-0.3 2.3q-0.1 0.2-0.2 0.4-0.3 0.8-0.5 1.6-0.4-0.7-0.4-1.4 0 0 0-0.1 0 0 0 0 0 0 0 0 0 0 0 0 0 0 0 0.1 0 0 0 0 0 0.8 0.4 1.5-0.4 1.5-0.3 3.1 0 0 0 0 0.1 0.1 0.1 0.1 0 0 0-0.1 0 0 0 0c-0.1-1.3 0.1-2.7 0.5-4q0.3-0.3 0.7-0.4 0 0 0 0 0.1 0 0 0 0 0 0 0 0 0 0 0 0 0 0 0 0 0 0 0-0.4 0-0.7 0.3 0.3-0.9 0.8-1.6 0.3-0.1 0.6-0.1 0.1 0 0.1-0.1 0 0 0 0 0 0 0 0 0 0 0 0 0 0-0.1 0 0 0 0 0z"/>
	<path id="Layer" class="s4" d="m51.9 34.9c-0.6 0-1.7-0.6-2.1-1.1-0.5-0.6 0.7-0.2 0.6-0.7-0.1-0.5-1.6-0.1-1.9-0.8-0.3-0.6 0.8-0.5 0.8-0.8-0.1-0.3-1.2-0.3-1.5-1-0.4-0.7 0.6-0.3 0.4-0.6-0.1-0.2-1.4-1.4-0.8-1.7 0.5-0.3 1.6 1 2 1.1 0.4 0.2 0.5-0.7 1-0.3 0.5 0.4 0.1 2.3 0.7 2.5 0.5 0.2 0.3-0.6 0.8-0.4 0.9 0.3 0.3 3.8 0 3.8z"/>
	<g id="Layer" style="opacity: .3">
		<path id="Layer" class="s4" d="m51.9 34.9c-0.6 0-1.7-0.5-2.1-1.1-0.5-0.6 0.7-0.2 0.6-0.7-0.1-0.4-1.6-0.1-1.9-0.8-0.3-0.6 0.8-0.5 0.8-0.8-0.1-0.3-1.2-0.3-1.5-1-0.4-0.6 0.6-0.3 0.4-0.5-0.1-0.3-1.4-1.5-0.8-1.8 0.5-0.2 1.6 1 2 1.2 0.4 0.1 0.5-0.8 1-0.4 0.5 0.5 0.1 2.3 0.7 2.5 0.5 0.2 0.3-0.6 0.8-0.4 0.9 0.3 0.3 3.8 0 3.8z"/>
	</g>
	<path id="Layer" class="s2" d="m51.7 34.2q0 0 0-0.1 0.4-0.8 0.3-1.7 0 0 0 0 0 0 0 0-0.1 0-0.1 0 0 0 0 0 0.1 0.9-0.2 1.7-0.4-1.1-1-2.1c0-0.8-0.2-1.7-0.6-2.4q0-0.1 0-0.1 0 0-0.1 0 0 0 0 0.1 0 0 0 0 0 0 0 0 0 0 0 0c0.4 0.7 0.6 1.5 0.6 2.3q-0.7-1.2-1.6-2.2 0 0 0 0 0 0 0 0-0.1 0-0.1 0 0 0 0 0 0 0.1 0 0.1 0 0 0 0 0.7 0.7 1.3 1.6-0.6-0.2-1.2-0.2-0.1 0-0.1 0 0 0 0 0 0 0 0 0 0 0 0 0 0 0 0 0 0 0 0 0 0 0.1 0 0.1 0 0 0.1 0 0.6 0 1.2 0.2 0.4 0.6 0.7 1.2-0.2-0.2-0.5-0.2-0.4-0.1-0.7 0 0 0 0 0 0 0 0 0 0 0 0 0 0 0.1 0 0.1 0 0 0 0 0.1 0 0.1 0 0.3-0.1 0.6 0 0.4 0 0.6 0.3c0.7 1.4 1.2 3 1.2 4.6q0 0 0 0 0.1 0 0.1 0 0 0 0 0 0 0 0 0 0 0 0 0 0.1 0 0.1 0-0.1-1.7-0.7-3.3z"/>
	<path id="Layer" class="s4" d="m53.6 42.1c0.5-1.4 0.8-3.5 0.8-4.3 0-0.7-0.2-1.4-0.6-1.9h-2.5c-0.4 0.5-0.6 1.2-0.6 1.9 0 0.8 0.3 2.9 0.8 4.3z"/>
	<path id="Layer" class="s0" d="m14.3 33.7h11.1v3.8h-11.1z"/>
	<path id="Layer" class="s0" d="m14.3 37.5h11.1v3.8h-11.1z"/>
	<path id="Layer" class="s2" d="m18.5 37.5l1.4-3.8h-2.1l-1.4 3.8z"/>
	<path id="Layer" class="s2" d="m20.9 33.7h-0.4l-1.4 3.8h0.5z"/>
	<path id="Layer" class="s2" d="m17.2 41.3l1.3-3.8h-2.1l-1.4 3.8z"/>
	<path id="Layer" class="s2" d="m19.6 37.5h-0.5l-1.4 3.8h0.5z"/>
	<path id="Layer" class="s3" d="m19.7 39.6h0.4v-11h-0.4z"/>
	<path id="Layer" class="s3" d="m19.7 43.4h0.4v-11h-0.4z"/>
	<path id="Layer" fill-rule="evenodd" class="s2" d="m14.1 33.5h11.5v8h-11.5zm0.4 7.5h10.7v-3.3h-10.7zm0-3.8h10.7v-3.4h-10.7z"/>
	<path id="Layer" class="s0" d="m25.8 33.7h11v3.8h-11z"/>
	<path id="Layer" class="s0" d="m25.8 37.5h11v3.8h-11z"/>
	<path id="Layer" class="s2" d="m31.1 37.5l1.4-3.8h-2.1l-1.4 3.8z"/>
	<path id="Layer" class="s2" d="m33.5 33.7h-0.4l-1.4 3.8h0.5z"/>
	<path id="Layer" class="s2" d="m29.8 41.3l1.3-3.8h-2.1l-1.4 3.8z"/>
	<path id="Layer" class="s2" d="m32.2 37.5h-0.5l-1.4 3.8h0.5z"/>
	<path id="Layer" class="s3" d="m31.1 28.6h0.4v11h-0.4z"/>
	<path id="Layer" class="s3" d="m31.1 32.4h0.4v11h-0.4z"/>
	<path id="Layer" fill-rule="evenodd" class="s2" d="m25.6 33.5h11.4v8h-11.4zm0.4 7.5h10.6v-3.3h-10.6zm0-3.8h10.6v-3.4h-10.6z"/>
	<path id="Layer" class="s0" d="m37.2 33.7h11.1v3.8h-11.1z"/>
	<path id="Layer" class="s0" d="m37.2 37.5h11.1v3.8h-11.1z"/>
	<path id="Layer" class="s2" d="m41.9 37.5l1.4-3.8h-2.1l-1.4 3.8z"/>
	<path id="Layer" class="s2" d="m44.3 33.7h-0.4l-1.4 3.8h0.5z"/>
	<path id="Layer" class="s2" d="m40.6 41.3l1.3-3.8h-2.1l-1.4 3.8z"/>
	<path id="Layer" class="s2" d="m43 37.5h-0.5l-1.4 3.8h0.5z"/>
	<path id="Layer" class="s3" d="m42.6 28.6h0.4v11h-0.4z"/>
	<path id="Layer" class="s3" d="m42.6 32.4h0.4v11h-0.4z"/>
	<path id="Layer" fill-rule="evenodd" class="s2" d="m37 33.5h11.5v8h-11.5zm0.4 7.5h10.7v-3.3h-10.7zm0-3.8h10.7v-3.4h-10.7z"/>
	<path id="Layer" class="s3" d="m47.4 42h-32.2l-0.1-0.5h32.4z"/>
	<path id="Layer" class="s3" d="m31.6 35.9q0 0.1 0 0.2-0.1 0.1-0.2 0.2-0.1 0-0.2 0-0.1 0-0.1-0.1-0.1-0.1-0.1-0.2 0-0.1 0-0.2 0-0.1 0.1-0.1 0.1-0.1 0.2-0.1 0.1 0 0.2 0.1 0.1 0.1 0.1 0.2z"/>
	<path id="Layer" class="s5" d="m31.3 36.2c0.2 0 0.3-0.2 0.3-0.3 0-0.2-0.1-0.4-0.3-0.4-0.2 0-0.3 0.2-0.3 0.4 0 0.1 0.1 0.3 0.3 0.3z"/>
	<path id="Layer" class="s3" d="m31.3 39.8c0.2 0 0.3-0.2 0.3-0.4 0-0.1-0.1-0.3-0.3-0.3-0.2 0-0.3 0.2-0.3 0.3 0 0.2 0.1 0.4 0.3 0.4z"/>
	<path id="Layer" class="s5" d="m31.6 39.4q0 0.1 0 0.1-0.1 0.1-0.2 0.2-0.1 0-0.2 0-0.1 0-0.1-0.1-0.1-0.1-0.1-0.2 0-0.1 0-0.2 0-0.1 0.1-0.1 0.1-0.1 0.2-0.1 0.1 0 0.1 0.1 0.1 0 0.1 0 0.1 0.1 0.1 0.1 0 0.1 0 0.2z"/>
	<path id="Layer" class="s3" d="m20.2 35.9q0 0.1-0.1 0.2 0 0.1-0.1 0.2-0.1 0-0.2 0-0.1 0-0.2-0.1 0-0.1-0.1-0.2 0-0.1 0.1-0.2 0-0.1 0.1-0.1 0.1-0.1 0.2-0.1 0.1 0 0.2 0.1 0.1 0.1 0.1 0.2z"/>
	<path id="Layer" class="s5" d="m19.9 36.2c0.1 0 0.3-0.2 0.3-0.3 0-0.2-0.2-0.4-0.3-0.4-0.2 0-0.4 0.2-0.4 0.4 0 0.1 0.2 0.3 0.4 0.3z"/>
	<path id="Layer" class="s3" d="m19.9 39.8c0.1 0 0.3-0.2 0.3-0.4 0-0.1-0.2-0.3-0.3-0.3-0.2 0-0.4 0.2-0.4 0.3 0 0.2 0.2 0.4 0.4 0.4z"/>
	<path id="Layer" class="s5" d="m20.2 39.4q0 0.1-0.1 0.1 0 0.1-0.1 0.2-0.1 0-0.2 0-0.1 0-0.2-0.1 0-0.1-0.1-0.2 0-0.1 0.1-0.2 0-0.1 0.1-0.1 0.1-0.1 0.2-0.1 0 0 0.1 0.1 0 0 0.1 0 0 0.1 0.1 0.1 0 0.1 0 0.2z"/>
	<path id="Layer" class="s3" d="m43.3 35.9q0 0.2-0.1 0.2 0 0.1-0.1 0.2-0.1 0-0.2 0-0.1 0-0.2-0.1 0-0.1-0.1-0.2 0-0.1 0.1-0.2 0-0.1 0.1-0.1 0.1-0.1 0.2-0.1 0.1 0 0.2 0.1 0.1 0.1 0.1 0.2z"/>
	<path id="Layer" class="s5" d="m43 36.2c0.2 0 0.3-0.2 0.3-0.3 0-0.2-0.1-0.4-0.3-0.4-0.2 0-0.4 0.2-0.4 0.4 0 0.1 0.2 0.3 0.4 0.3z"/>
	<path id="Layer" class="s3" d="m43 39.8c0.2 0 0.3-0.2 0.3-0.4 0-0.1-0.1-0.3-0.3-0.3-0.2 0-0.4 0.2-0.4 0.3 0 0.2 0.2 0.4 0.4 0.4z"/>
	<path id="Layer" class="s5" d="m43.3 39.4q0 0.1-0.1 0.1 0 0.1-0.1 0.2-0.1 0-0.2 0-0.1 0-0.2-0.1 0-0.1-0.1-0.2 0-0.1 0.1-0.2 0-0.1 0.1-0.1 0.1-0.1 0.2-0.1 0 0 0.1 0.1 0 0 0.1 0 0 0.1 0.1 0.1 0 0.1 0 0.2z"/>
	<path id="Layer" class="s2" d="m31.7 47.4c-13.9 0-25.1-0.6-25.1-1.4 0-0.8 11.2-1.5 25.1-1.5 13.8 0 25 0.7 25 1.5 0 0.8-11.2 1.4-25 1.4z"/>
	<path id="Layer" class="s6" d="m10.6 3.4h42.9v24.8h-42.9z"/>
	<g id="Layer" style="opacity: .5">
		<path id="Layer" class="s7" d="m10.6 3.4h42.9v24.8h-42.9z"/>
	</g>
	<path id="Layer" class="s6" d="m10.6 3.4v2h7.1v-0.8q0-0.3 0.2-0.5 0.2-0.2 0.5-0.2h4.8q0.2 0 0.3 0.1 0.1 0 0.2 0.1 0.1 0.1 0.2 0.2 0 0.2 0 0.3v0.8h29.6v-2z"/>
	<g id="Layer" style="opacity: .7">
		<path id="Layer" class="s7" d="m12.3 4.4q0 0.1 0 0.2-0.1 0.2-0.2 0.2-0.2 0.1-0.3 0-0.1 0-0.2-0.1-0.1-0.1-0.2-0.2 0-0.2 0.1-0.3 0-0.1 0.1-0.2 0.1-0.1 0.3-0.1 0.2 0 0.3 0.2 0.1 0.1 0.1 0.3z"/>
	</g>
	<g id="Layer" style="opacity: .7">
		<path id="Layer" class="s7" d="m13.7 4.4q0 0.1 0 0.2-0.1 0.2-0.3 0.2-0.1 0.1-0.2 0-0.2 0-0.3-0.1-0.1-0.1-0.1-0.2 0-0.2 0-0.3 0.1-0.1 0.2-0.2 0.1-0.1 0.3-0.1 0.2 0 0.3 0.2 0.1 0.1 0.1 0.3z"/>
	</g>
	<g id="Layer" style="opacity: .7">
		<path id="Layer" class="s7" d="m15.1 4.4q0 0.1-0.1 0.2 0 0.2-0.2 0.2-0.1 0.1-0.2 0-0.2 0-0.3-0.1-0.1-0.1-0.1-0.2 0-0.2 0-0.3 0.1-0.1 0.2-0.2 0.1-0.1 0.3-0.1 0.1 0 0.3 0.2 0.1 0.1 0.1 0.3z"/>
	</g>
	<g id="Layer" style="opacity: .3">
		<path id="Layer" class="s7" d="m23.9 9.2h28v17.5h-28z"/>
	</g>
	<g id="Layer" style="opacity: .3">
		<path id="Layer" class="s7" d="m12.1 9.2h8.2v8.2h-8.2z"/>
	</g>
	<g id="Layer" style="opacity: .4">
		<path id="Layer" class="s7" d="m12.1 9.2h8.2v8.2h-8.2z"/>
	</g>
	<path id="Layer" class="s8" d="m14 19.6h4.9v0.3h-4.9z"/>
	<path id="Layer" class="s6" d="m43.5 6.5h8.3v1.3h-8.3z"/>
	<g id="Layer" style="opacity: .9">
		<path id="Layer" class="s7" d="m43.5 6.5h8.3v1.3h-8.3z"/>
	</g>
	<path id="Layer" class="s6" d="m51.9 6.5h-0.1v1.3h0.1z"/>
	<path id="Layer" class="s6" d="m32.3 6.5h-0.1v1.3h0.1z"/>
	<path id="Layer" class="s6" d="m23.9 6.5h8.3v1.3h-8.3z"/>
	<g id="Layer" style="opacity: .9">
		<path id="Layer" class="s7" d="m23.9 6.5h8.3v1.3h-8.3z"/>
	</g>
	<g id="Layer" style="opacity: .4">
		<path id="Layer" class="s7" d="m23.2 26.5q-0.2 0-0.3-0.1-0.1-0.1-0.1-0.3v-4.9q0-0.1 0.1-0.2 0.1-0.1 0.3-0.1 0.1 0 0.3 0.1 0.1 0.1 0.1 0.2v4.9q0 0.2-0.1 0.3-0.2 0.1-0.3 0.1z"/>
	</g>
	<g id="Layer" style="opacity: .4">
		<path id="Layer" class="s7" d="m13.4 19.8q0 0.2-0.1 0.3-0.1 0.2-0.3 0.2-0.2 0.1-0.4 0.1-0.2-0.1-0.3-0.2-0.1-0.1-0.2-0.3 0-0.2 0.1-0.4 0-0.1 0.2-0.2 0.2-0.1 0.3-0.1 0.2 0 0.3 0 0.1 0.1 0.2 0.1 0.1 0.1 0.1 0.2 0.1 0.2 0.1 0.3z"/>
	</g>
	<path id="Layer" class="s8" d="m14 21.5h6.2v0.4h-6.2z"/>
	<g id="Layer" style="opacity: .4">
		<path id="Layer" class="s7" d="m13.4 21.7q0 0.2-0.1 0.3-0.1 0.2-0.3 0.3-0.2 0-0.4 0-0.2 0-0.3-0.2-0.1-0.1-0.2-0.3 0-0.2 0.1-0.3 0-0.2 0.2-0.3 0.2-0.1 0.3-0.1 0.3 0 0.5 0.2 0.2 0.1 0.2 0.4z"/>
	</g>
	<path id="Layer" class="s8" d="m14 23.5h5.4v0.3h-5.4z"/>
	<g id="Layer" style="opacity: .4">
		<path id="Layer" class="s7" d="m13.4 23.6q0 0.2-0.1 0.4-0.1 0.1-0.3 0.2-0.2 0.1-0.4 0-0.2 0-0.3-0.1-0.1-0.2-0.2-0.4 0-0.1 0.1-0.3 0-0.2 0.2-0.3 0.2-0.1 0.3-0.1 0.3 0 0.5 0.2 0.2 0.2 0.2 0.4z"/>
	</g>
	<path id="Layer" class="s8" d="m14 25.4h4.9v0.3h-4.9z"/>
	<g id="Layer" style="opacity: .4">
		<path id="Layer" class="s7" d="m13.4 25.6q0 0.1-0.1 0.3-0.1 0.1-0.3 0.2-0.2 0.1-0.4 0.1-0.2-0.1-0.3-0.2-0.1-0.1-0.2-0.3 0-0.2 0.1-0.4 0-0.2 0.2-0.3 0.2-0.1 0.3-0.1 0.3 0 0.5 0.2 0.2 0.2 0.2 0.5z"/>
	</g>
	<path id="Layer" class="s6" d="m40.2 29h4.4c0.1 0 0.1-0.1 0-0.1h-4.4c-0.1 0-0.1 0.1 0 0.1z"/>
	<path id="Layer" class="s6" d="m45.3 29h0.5c0.1 0 0.1-0.1 0.1-0.1h-0.6c-0.1 0-0.1 0.1 0 0.1z"/>
	<path id="Layer" class="s6" d="m23.7 2.8h-4.3c-0.1 0-0.2 0.1-0.1 0.1h4.4c0.1 0 0.1-0.1 0-0.1z"/>
	<path id="Layer" class="s6" d="m18.6 2.8h-0.5c-0.1 0-0.1 0.1 0 0.1h0.5c0.1 0 0.1-0.1 0-0.1z"/>
	<path id="Layer" class="s6" d="m42.4 12.3h8.9v8.2h-8.9z"/>
	<g id="Layer" style="opacity: .9">
		<path id="Layer" class="s7" d="m42.4 12.3h8.9v8.2h-8.9z"/>
	</g>
	<path id="Layer" class="s6" d="m51.3 12.3h0.2v8.2h-0.2z"/>
	<path id="Layer" class="s6" d="m42.4 18.4h8.9v2.1h-8.9z"/>
	<path id="Layer" class="s8" d="m43.8 13.1h6.2v0.6h-6.2z"/>
	<path id="Layer" class="s8" d="m43.8 15.1h6.2v0.6h-6.2z"/>
	<path id="Layer" class="s8" d="m43.8 17.2h6.2v0.5h-6.2z"/>
	<path id="Layer" class="s7" d="m43 19.1h7.8v0.8h-7.8z"/>
	<path id="Layer" class="s6" d="m33.4 6.4h8.9v10.1h-8.9z"/>
	<g id="Layer" style="opacity: .9">
		<path id="Layer" class="s7" d="m33.4 6.4h8.9v10.1h-8.9z"/>
	</g>
	<path id="Layer" class="s6" d="m42.4 6.4h-0.1v10.1h0.1z"/>
	<path id="Layer" class="s6" d="m33.7 6.7h8.3v1.3h-8.3z"/>
	<path id="Layer" class="s6" d="m33.4 12.3h8.9v2.2h-8.9z"/>
	<path id="Layer" class="s8" d="m34.7 9.1h6.2v0.6h-6.2z"/>
	<path id="Layer" class="s8" d="m34.7 11.1h6.2v0.6h-6.2z"/>
	<path id="Layer" class="s7" d="m33.9 13.1h7.9v0.7h-7.9z"/>
	<path id="Layer" class="s8" d="m34.7 15.2h6.2v0.6h-6.2z"/>
	<path id="Layer" class="s9" d="m23 18.8c0 0-1.5 3.1-0.9 3.4 0.6 0.3 2.7 0.4 2.7 0.4l1 0.9 0.5-0.4-0.1-0.9-1.2-0.2-1.7-0.5q0 0-0.1-0.1 0 0 0-0.1-0.1 0-0.1-0.1 0 0 0.1-0.1l0.8-1.7z"/>
	<path id="Layer" class="s7" d="m23.4 17.7q0 0 0-0.1-0.1 0-0.1 0-0.1 0-0.1 0 0 0-0.1 0.1c-0.1 0.1-0.4 0.5-0.6 1.2l-0.3 0.7 1.4 1 0.5-0.8z"/>
	<g id="Layer" style="opacity: .2">
		<path id="Layer" class="s10" d="m23.3 18.6l0.1-0.2 0.3 0.2 0.4 1.2-0.5 0.8-0.3-0.2c0.1-0.7 0-1.8 0-1.8z"/>
	</g>
	<path id="Layer" class="s6" d="m23.8 20.5l-1.6-1.2-0.1 0.4 1.5 1z"/>
	<g id="Layer" style="opacity: .5">
		<path id="Layer" class="s7" d="m23.8 20.5l-1.6-1.2-0.1 0.4 1.5 1z"/>
	</g>
	<path id="Layer" class="s9" d="m23.7 41.9l-0.7 2.5-0.8-0.1 0.2-2.7z"/>
	<path id="Layer" class="s6" d="m27.6 23.3c0 0 0.9 1.9 0 5.2-0.8 3.4-4.4 15.1-4.4 15.1l-0.9-0.1c0 0-0.1-4.2 1.3-7.6 0 0 0.7-5.8 0.3-7.1-0.2-1-0.3-1.8 0.1-3.2q0.2-0.9 0.6-1.8c0.2-0.5 0.2-0.7 0.2-0.7z"/>
	<g id="Layer" style="opacity: .5">
		<path id="Layer" class="s10" d="m27.6 23.3c0 0 0.9 1.9 0 5.2-0.8 3.4-4.4 15.1-4.4 15.1l-0.9-0.1c0 0-0.1-4.2 1.3-7.6 0 0 0.7-5.8 0.3-7.1-0.2-1-0.3-1.8 0.1-3.2q0.2-0.9 0.6-1.8c0.2-0.5 0.2-0.7 0.2-0.7z"/>
	</g>
	<g id="Layer" style="opacity: .4">
		<path id="Layer" class="s10" d="m26.4 32.8c-1.2-3.5-0.9-6.1-0.9-6.1l0.8-0.1 0.6 1.1 0.5 1.8c-0.3 0.9-0.6 2.1-1 3.3z"/>
	</g>
	<path id="Layer" fill-rule="evenodd" class="s6" d="m23.1 44.4q0 0 0 0 0 0 0 0 0 0 0 0 0 0 0 0c0.1-0.1 0.4-0.2 0.6-0.1q0 0 0 0 0 0 0 0 0.1 0 0.1 0.1 0 0-0.1 0-0.1 0.1-0.3 0.1-0.1-0.1-0.3-0.1zm0.1 0c0.2 0 0.4 0 0.5 0q0 0 0-0.1 0 0 0 0 0 0 0 0-0.1 0-0.1 0-0.2 0-0.4 0.1z"/>
	<path id="Layer" fill-rule="evenodd" class="s6" d="m23.1 44.4q0 0 0 0 0 0 0 0c0 0 0.1-0.3 0.2-0.4q0.1 0 0.1 0 0.1 0 0.1 0.1c0 0.1-0.2 0.3-0.4 0.3q0 0 0 0zm0.3-0.4q0 0-0.1 0-0.1 0.2-0.1 0.3c0.1 0 0.3-0.2 0.3-0.2q0-0.1-0.1-0.1z"/>
	<path id="Layer" class="s8" d="m23.1 44.2l-1.1-0.1q-0.1 0-0.1 0 0 0 0 0.1l-0.3 0.8q0 0.1 0 0.1 0 0 0 0 0 0.1 0 0.1 0 0 0.1 0 0 0 0 0c0.4 0.1 0.7 0.1 1.2 0.1 0.6 0.1 0.4 0.2 1.1 0.2 0.4 0.1 0.5-0.3 0.4-0.4-0.8-0.2-0.9-0.4-1.1-0.7q-0.1-0.1-0.2-0.2z"/>
	<path id="Layer" class="s8" d="m23.5 43.4l-1.4-0.2v0.5l1.2 0.1z"/>
	<g id="Layer" style="opacity: .4">
		<path id="Layer" class="s10" d="m23.5 43.4l-1.4-0.2v0.5l1.2 0.1z"/>
	</g>
	<path id="Layer" class="s9" d="m27.5 42.1l-0.3 2.5h-0.8l-0.2-2.5z"/>
	<path id="Layer" class="s6" d="m28.8 23.1q0 0.3 0.2 0.6c0.3 0.8 0.6 3.2 0.6 4.5-0.2 3.5-2.3 15.5-2.3 15.5h-1c0 0-0.7-4.1 0.1-7.7 0 0 0.3-5.1-0.1-6.4-0.3-0.9-1.1-1.8-0.9-3.8 0.2-1.9 0.7-2.6 0.7-2.6z"/>
	<g id="Layer" style="opacity: .5">
		<path id="Layer" class="s10" d="m28.8 23.1q0 0.3 0.2 0.6c0.3 0.8 0.6 3.2 0.6 4.5-0.2 3.5-2.3 15.5-2.3 15.5h-1c0 0-0.7-4.1 0.1-7.7 0 0 0.3-5.1-0.1-6.4-0.3-0.9-1.1-1.8-0.9-3.8 0.2-1.9 0.7-2.6 0.7-2.6z"/>
	</g>
	<path id="Layer" class="s6" d="m24.6 24.1l0.2-0.4h0.2l-0.1 0.4z"/>
	<path id="Layer" class="s6" d="m27.5 23.8c0.5-0.1 1-0.1 1.2-0.2l0.2 0.4q-0.7 0.2-1.4 0.2z"/>
	<path id="Layer" class="s6" d="m25.3 23.8q0.9 0 1.9 0v0.4q-0.3 0-0.6 0-0.7 0-1.4 0z"/>
	<g id="Layer" style="opacity: .5">
		<path id="Layer" class="s7" d="m24.6 24.1l0.2-0.4h0.2l-0.1 0.4z"/>
		<path id="Layer" class="s7" d="m27.5 23.8c0.5 0 0.9-0.1 1.2-0.1l0.2 0.4q-0.7 0.1-1.4 0.1z"/>
		<path id="Layer" class="s7" d="m25.2 24.2l0.1-0.4q0.9 0 1.9 0v0.4q-0.3 0-0.6 0z"/>
	</g>
	<path id="Layer" fill-rule="evenodd" class="s6" d="m27.5 44.5q0 0 0 0 0 0 0 0 0 0 0 0 0 0 0 0c0 0 0.4-0.2 0.5-0.2q0.1 0 0.1 0.1 0 0 0 0 0 0 0 0.1-0.1 0.1-0.3 0.1-0.1 0-0.3-0.1zm0.1 0c0.2 0 0.4 0 0.5-0.1q0 0 0 0 0 0-0.1 0 0 0 0 0 0 0 0 0-0.2 0-0.4 0.1z"/>
	<path id="Layer" fill-rule="evenodd" class="s6" d="m27.5 44.5q0 0 0 0 0 0 0 0c0 0 0-0.3 0.1-0.4q0.1 0 0.2 0 0.1 0 0 0c0.1 0.2-0.2 0.4-0.3 0.4q0 0 0 0 0 0 0 0 0 0 0 0zm0.3-0.4q-0.1 0-0.1 0.1-0.1 0.1-0.2 0.3c0.2-0.1 0.3-0.3 0.3-0.4q0 0 0 0z"/>
	<path id="Layer" class="s8" d="m27.4 44.4h-1.1q0 0-0.1 0 0 0 0 0.1l-0.2 0.9q0 0 0 0 0 0 0.1 0.1 0 0 0 0 0 0 0.1 0c0.4 0 0.7 0 1.2 0 0.6 0 0.4 0 1.1 0 0.4 0 0.5-0.4 0.3-0.4-0.8-0.1-0.9-0.4-1.2-0.6q-0.1-0.1-0.2-0.1z"/>
	<path id="Layer" class="s8" d="m26.2 13.4c0-0.1 0-0.2 0.1-0.2q0.1 0 0.1 0.1 0.1 0.1 0 0.2-0.1 0-0.2-0.1z"/>
	<path id="Layer" class="s11" d="m26.2 13.5l0.6 0.4q0 0.1-0.1 0.1-0.1 0.1-0.3 0.1z"/>
	<path id="Layer" class="s8" d="m26.1 13.2q0 0 0 0 0 0 0 0 0-0.1 0.1-0.2 0 0 0.1-0.1 0 0 0 0 0 0 0 0 0.1 0 0.1 0 0 0 0 0-0.1-0.1-0.1-0.1 0 0 0 0-0.1 0.1-0.2 0.2-0.1 0-0.1 0.2 0 0 0 0 0 0 0 0 0 0 0 0 0 0 0.1 0z"/>
	<path id="Layer" class="s9" d="m23.5 14.2c0.4 1 0.6 1.4 1.3 1.7 0.9 0.3 2.1-0.2 2-1.3-0.1-0.9-0.8-2.3-1.9-2.4q-0.4 0-0.7 0.2-0.3 0.1-0.6 0.4-0.2 0.3-0.2 0.7 0 0.4 0.1 0.7z"/>
	<g id="Layer" style="opacity: .2">
		<path id="Layer" class="s10" d="m25.8 15.5c0 0 0.7 0.1 0.9-0.5-0.1 0.5-0.5 0.8-1 0.9l-0.1-0.1 0.1-0.2z"/>
	</g>
	<path id="Layer" class="s9" d="m24.5 17.1c0 0 0.6-0.3 0.2-1.5 0 0 0.4-0.5 0.9-0.3 0.5 0.2 0.1 1.3 0.7 1.5 0 0-0.3 0.4-1.8 0.3z"/>
	<path id="Layer" class="s8" d="m25.7 14q-0.3-0.3-0.4-0.5c-0.2-0.3 0.2-0.7 0.2-1.2-0.1-0.6-0.7-0.2-0.7-0.2 0 0-1.4-0.2-1.5 1.2q-0.3 0.5-0.3 1 0 0.5 0.3 0.9 0.3 0.4 0.7 0.6 0.5 0.2 1 0.1h0.1q0.2-0.1 0.4-0.4 0.2-0.2 0.2-0.5z"/>
	<path id="Layer" class="s8" d="m24.8 15.9c0 0-0.4 0.1-0.2 0.3 0.1 0.1 0.2-0.3 0.2-0.3z"/>
	<path id="Layer" class="s6" d="m23.2 14.3c-0.2 0-0.3-0.3-0.3-0.6 0-0.3 0.1-0.6 0.3-0.6 0.2 0 0.4 0.3 0.4 0.6 0 0.3-0.2 0.6-0.4 0.6z"/>
	<path id="Layer" class="s9" d="m25.4 13.9q0.1 0.1 0.2 0.2 0.2 0.1 0.2 0.2c0.1 0.3-0.1 0.5-0.4 0.4-0.2 0-0.5-0.2-0.5-0.5q0-0.1 0-0.1 0.1-0.1 0.1-0.2 0.1 0 0.2 0 0.1 0 0.2 0z"/>
	<path id="Layer" class="s8" d="m22 13.8q0 0.3 0.3 0.6 0.3 0.2 0.6 0.2c0.5 0 0.5-0.4 0.5-0.9 0-0.5-0.1-0.9-0.6-0.8q-0.4 0-0.6 0.3-0.2 0.2-0.2 0.6z"/>
	<path id="Layer" class="s8" d="m25.3 11.9c-0.1 0.1-0.2 0.3-0.1 0.4 0.1 0.1 0.2 0.1 0.2 0.2q0.1 0.1 0.1 0.3 0.1 0.5 0.1 1.1c0.3-0.5 0.6-0.9 0.6-1.4q0-0.3-0.1-0.5-0.1-0.1-0.1-0.2-0.1 0-0.3 0c-0.1-0.1-0.4 0.1-0.4 0.1z"/>
	<path id="Layer" class="s6" d="m26.7 16.8c0 0 0.1-0.7-1.4-0.4-1.4 0.3-0.4 0.7-0.4 0.7z"/>
	<g id="Layer" style="opacity: .5">
		<path id="Layer" class="s7" d="m26.7 16.8c0 0 0.1-0.7-1.4-0.4-1.4 0.3-0.4 0.7-0.4 0.7z"/>
	</g>
	<path id="Layer" class="s7" d="m28.8 23.3c-1.6 0.3-3.5 0.2-4.1 0.1-0.2 0 0.1-1.8-1.5-5q-0.1-0.2-0.1-0.5 0-0.2 0.2-0.4c1.1-0.9 3.1-0.9 4.1-0.8q0.2 0 0.4 0.1 0.2 0.2 0.4 0.4 0.4 0.8 0.6 1.7 0.1 0.9 0.2 1.8c0 1.4-0.2 2.6-0.2 2.6z"/>
	<g id="Layer" style="opacity: .2">
		<path id="Layer" class="s10" d="m29 20.7c-0.5-0.1-1.3-2-1.3-2l1.1 0.2q0.2 0.9 0.2 1.8z"/>
	</g>
	<path id="Layer" class="s9" d="m28.7 17.7l1.5 1q0 0 0.1 0 0 0 0.1 0 0 0 0.1-0.1 0 0 0 0l1.3-2.3 0.4-1.1 0.2-0.2 0.7-0.6h0.3l-0.5 0.5 0.1 0.3 0.3 0.6-1 0.9c0 0-0.6 2.6-1.3 3.2-0.5 0.5-3-1.3-3-1.3z"/>
	<path id="Layer" class="s7" d="m27.6 16.8c0.4 0.1 1.3 0.5 2.7 1.8l-1.1 1.3q-0.5-0.1-0.9-0.4-0.4-0.3-0.6-0.8-0.4-0.8-0.4-1.8 0 0 0.1 0 0-0.1 0-0.1 0.1 0 0.1-0.1 0.1 0 0.1 0.1z"/>
	<path id="Layer" class="s6" d="m30.1 18.3l-1.1 1.6 0.3 0.1 1.1-1.5z"/>
	<g id="Layer" style="opacity: .5">
		<path id="Layer" class="s7" d="m30.1 18.3l-1.1 1.6 0.3 0.1 1.1-1.5z"/>
	</g>
	<path id="Layer" class="s8" d="m27.5 43.5h-1.4l0.1 0.4h1.2z"/>
	<g id="Layer" style="opacity: .4">
		<path id="Layer" class="s10" d="m27.5 43.5h-1.4l0.1 0.4h1.2z"/>
	</g>
</svg>