<svg width="44" height="36" viewBox="0 0 44 36" fill="none" xmlns="http://www.w3.org/2000/svg" xmlns:xlink="http://www.w3.org/1999/xlink">
<path d="M43.549,14.391L22.031,14.391L22.031,34.381L43.549,34.381L43.549,14.391Z" fill="#FF5904"/>
<g opacity="0.9">
<path d="M43.549,14.391L22.031,14.391L22.031,34.381L43.549,34.381L43.549,14.391Z" fill="#F4F4F4"/>
</g>
<path d="M44,14.401L43.562,14.401L43.562,34.391L44,34.391L44,14.401Z" transform="rotate(360 43.781 24.396)" fill="#FF5904"/>
<path d="M43.562,29.203L22.031,29.203L22.031,34.381L43.562,34.381L43.562,29.203Z" fill="#FF5904"/>
<path d="M40.303,16.266L25.297,16.266L25.297,17.659L40.303,17.659L40.303,16.266Z" fill="#263238"/>
<path d="M40.303,21.219L25.297,21.219L25.297,22.612L40.303,22.612L40.303,21.219Z" fill="#263238"/>
<path d="M40.303,26.203L25.297,26.203L25.297,27.596L40.303,27.596L40.303,26.203Z" fill="#263238"/>
<path d="M42.304,30.984L23.297,30.984L23.297,32.75L42.304,32.75L42.304,30.984Z" fill="#F4F4F4"/>
<path d="M21.612,-0.047L0.094,-0.047L0.094,24.646L21.612,24.646L21.612,-0.047Z" fill="#FF5904"/>
<g opacity="0.9">
<path d="M21.612,-0.047L0.094,-0.047L0.094,24.646L21.612,24.646L21.612,-0.047Z" fill="#F4F4F4"/>
</g>
<path d="M22.031,-0.036L21.593,-0.036L21.593,24.656L22.031,24.656L22.031,-0.036Z" transform="rotate(360 21.812 12.31)" fill="#FF5904"/>
<path d="M20.853,0.703L0.844,0.703L0.844,3.768L20.853,3.768L20.853,0.703Z" fill="#FF5904"/>
<path d="M21.609,14.391L0.078,14.391L0.078,19.569L21.609,19.569L21.609,14.391Z" fill="#FF5904"/>
<path d="M18.35,6.516L3.344,6.516L3.344,7.909L18.35,7.909L18.35,6.516Z" fill="#263238"/>
<path d="M18.35,11.484L3.344,11.484L3.344,12.878L18.35,12.878L18.35,11.484Z" fill="#263238"/>
<path d="M20.351,16.266L1.344,16.266L1.344,18.031L20.351,18.031L20.351,16.266Z" fill="#F4F4F4"/>
<path d="M18.35,21.422L3.344,21.422L3.344,22.815L18.35,22.815L18.35,21.422Z" fill="#263238"/>
</svg>
