<svg version="1.2" xmlns="http://www.w3.org/2000/svg" viewBox="0 0 65 52" width="65" height="52">
	<title>dropdown_menu_2_x2-svg</title>
	<style>
		.s0 { fill: #ff5904 } 
		.s1 { fill: #f4f4f4 } 
		.s2 { fill: #263238 } 
	</style>
	<path id="Layer" class="s0" d="m32.5 21.4h31.9v29.6h-31.9z"/>
	<g id="Layer" style="opacity: .9">
		<path id="Layer" class="s1" d="m32.5 21.4h31.9v29.6h-31.9z"/>
	</g>
	<path id="Layer" class="s0" d="m64.4 21.4h0.6v29.6h-0.6z"/>
	<path id="Layer" class="s0" d="m32.5 43.3h31.9v7.7h-31.9z"/>
	<path id="Layer" class="s2" d="m37.3 24.1h22.2v2.1h-22.2z"/>
	<path id="Layer" class="s2" d="m37.3 31.5h22.2v2h-22.2z"/>
	<path id="Layer" class="s2" d="m37.3 38.8h22.2v2.1h-22.2z"/>
	<path id="Layer" class="s1" d="m34.4 45.9h28.1v2.6h-28.1z"/>
	<path id="Layer" class="s0" d="m0 0h31.9v36.5h-31.9z"/>
	<g id="Layer" style="opacity: .9">
		<path id="Layer" class="s1" d="m0 0h31.9v36.5h-31.9z"/>
	</g>
	<path id="Layer" class="s0" d="m32.5 0h-0.6v36.5h0.6z"/>
	<path id="Layer" class="s0" d="m1.1 1.1h29.6v4.6h-29.6z"/>
	<path id="Layer" class="s0" d="m0 21.4h31.9v7.6h-31.9z"/>
	<path id="Layer" class="s2" d="m4.8 9.7h22.2v2.1h-22.2z"/>
	<path id="Layer" class="s2" d="m4.8 17.1h22.2v2h-22.2z"/>
	<path id="Layer" class="s1" d="m1.9 24.1h28.1v2.7h-28.1z"/>
	<path id="Layer" class="s2" d="m4.8 31.8h22.2v2h-22.2z"/>
</svg>