<svg version="1.2" xmlns="http://www.w3.org/2000/svg" viewBox="0 0 80 28" width="70" height="25">
	<title>graphics_x2-svg</title>
	<style>
		.s0 { fill: #ff5904 } 
		.s1 { fill: #f4f4f4 } 
	</style>
	<path id="Layer" class="s0" d="m14 6.7c-5-1.7-10.4 1-12.1 6.1-1.7 5.2 1 10.7 6 12.4 5 1.7 10.5-1.1 12.1-6.2 1.7-5.1-1-10.6-6-12.3z"/>
	<g id="Layer" style="opacity: .7">
		<path id="Layer" class="s1" d="m14 6.7c-5-1.7-10.4 1-12.1 6.1-1.7 5.2 1 10.7 6 12.4 5 1.7 10.5-1.1 12.1-6.2 1.7-5.1-1-10.6-6-12.3z"/>
	</g>
	<path id="Layer" fill-rule="evenodd" class="s1" d="m5.8 15.8q0-1.9 0.6-2.6 0.7-0.8 2-0.8 0.6 0 1.1 0.2 0.3 0.1 0.6 0.4 0.3 0.3 0.4 0.6 0.2 0.3 0.3 0.6 0.2 0.8 0.2 1.5 0 1.8-0.6 2.6-0.6 0.8-2 0.8-0.7 0.1-1.3-0.2-0.5-0.3-0.8-0.8-0.3-0.5-0.4-1-0.1-0.7-0.1-1.3zm1.7 0q0 0 0 0 0 0 0 0zm0.2 1.6q0.1 0.2 0.3 0.4 0.1 0.1 0.4 0.1 0.2 0 0.4-0.2 0.2-0.3 0.3-0.6 0.1-0.6 0.1-1.3 0-1.3-0.2-1.7-0.1-0.2-0.3-0.4-0.1-0.1-0.3-0.1-0.3 0-0.4 0.1-0.2 0.2-0.3 0.4-0.2 0.4-0.2 1.7 0 1.2 0.2 1.6z"/>
	<path id="Layer" class="s1" d="m15.7 12.5v6.5h-1.8v-4.3q-0.4 0.3-0.8 0.6-0.5 0.2-1.1 0.4v-1.5q0.8-0.2 1.4-0.7 0.5-0.4 0.8-1z"/>
	<path id="Layer" class="s0" d="m34.3 7.2c-4.7-2.4-10.4-0.5-12.8 4.4-2.3 4.8-0.4 10.6 4.3 13.1 4.7 2.4 10.5 0.4 12.8-4.4 2.4-4.8 0.5-10.7-4.3-13.1z"/>
	<g id="Layer" style="opacity: .7">
		<path id="Layer" class="s1" d="m34.3 7.2c-4.7-2.4-10.4-0.5-12.8 4.4-2.3 4.8-0.4 10.6 4.3 13.1 4.7 2.4 10.5 0.4 12.8-4.4 2.4-4.8 0.5-10.7-4.3-13.1z"/>
	</g>
	<path id="Layer" fill-rule="evenodd" class="s1" d="m24.5 15.8q0-1.9 0.7-2.6 0.6-0.8 1.9-0.8 0.6 0 1.1 0.2 0.4 0.1 0.7 0.4 0.2 0.3 0.4 0.6 0.1 0.3 0.2 0.6 0.2 0.8 0.2 1.5 0 1.8-0.6 2.6-0.6 0.8-2 0.8-0.7 0.1-1.3-0.2-0.5-0.3-0.8-0.8-0.3-0.5-0.4-1-0.1-0.7-0.1-1.3zm1.8 0q0 0 0 0 0 0 0 0zm0.2 1.6q0 0.2 0.2 0.4 0.2 0.1 0.4 0.1 0.1 0 0.2-0.1 0.1 0 0.2-0.1 0.3-0.3 0.3-0.6 0.1-0.6 0.1-1.3 0-1.3-0.2-1.7-0.1-0.2-0.3-0.4-0.1-0.1-0.3-0.1-0.3 0-0.4 0.1-0.2 0.2-0.3 0.4-0.1 0.4-0.1 1.7 0 1.2 0.2 1.6z"/>
	<path id="Layer" class="s1" d="m35.5 19h-5.2q0.1-0.8 0.5-1.5 0.5-0.7 1.7-1.6 0.6-0.4 1-0.9 0.2-0.3 0.3-0.6 0-0.1-0.1-0.3-0.1-0.1-0.2-0.2-0.2-0.2-0.5-0.2-0.3 0-0.5 0.2-0.3 0.3-0.3 0.8l-1.8-0.2q0.1-0.6 0.4-1.2 0.3-0.4 0.8-0.6 0.6-0.3 1.4-0.3 0.7 0 1.4 0.3 0.5 0.2 0.8 0.6 0.3 0.5 0.3 1 0 0.6-0.3 1.1-0.5 0.8-1.2 1.2-0.6 0.4-0.8 0.6-0.1 0.1-0.4 0.3h2.8z"/>
	<path id="Layer" class="s0" d="m49.5 20c5.2-0.6 9.1-5.4 8.5-10.7-0.5-5.4-5.2-9.3-10.4-8.8-5.3 0.6-9.1 5.4-8.6 10.7 0.5 5.4 5.2 9.3 10.5 8.8z"/>
	<g id="Layer" style="opacity: .7">
		<path id="Layer" class="s1" d="m49.5 20c5.2-0.6 9.1-5.4 8.5-10.7-0.5-5.4-5.2-9.3-10.4-8.8-5.3 0.6-9.1 5.4-8.6 10.7 0.5 5.4 5.2 9.3 10.5 8.8z"/>
	</g>
	<path id="Layer" fill-rule="evenodd" class="s1" d="m43.6 12.1q-0.6-1.7-0.3-2.6 0.3-0.9 1.5-1.5 0.5-0.2 1.1-0.2 0.4 0 0.7 0.1 0.4 0.1 0.6 0.3 0.3 0.3 0.5 0.6 0.4 0.6 0.7 1.3 0.7 1.6 0.4 2.6-0.2 1-1.5 1.5-0.6 0.3-1.3 0.3-0.6-0.1-1-0.4-0.5-0.3-0.7-0.8-0.4-0.5-0.7-1.2zm1.7-0.7q0.4 1.2 0.8 1.5 0.1 0.2 0.3 0.2 0.2 0.1 0.4 0 0.1 0 0.2-0.1 0.1-0.1 0.2-0.3 0.1-0.3 0-0.6-0.1-0.7-0.4-1.3-0.5-1.2-0.8-1.5-0.2-0.1-0.4-0.2-0.2 0-0.4 0.1-0.2 0-0.3 0.2-0.1 0.2-0.1 0.4 0 0.5 0.5 1.6z"/>
	<path id="Layer" class="s1" d="m50.2 7.9l-1.7 0.4c-0.1-0.5 0-1 0.3-1.5q0.4-0.6 1.4-1 1.1-0.5 1.8-0.3 0.3 0.1 0.6 0.4 0.2 0.2 0.4 0.5 0.1 0.4 0 0.8-0.1 0.5-0.4 0.8 0.3 0 0.6 0 0.4 0.1 0.7 0.3 0.3 0.3 0.4 0.6 0.2 0.6 0.2 1.2-0.1 0.6-0.5 1-0.5 0.6-1.2 0.8-0.7 0.3-1.4 0.4-0.5 0-1-0.3-0.4-0.2-0.8-0.7l1.5-0.9q0.2 0.4 0.6 0.6 0.3 0.1 0.6-0.1 0.2 0 0.3-0.1 0.1-0.2 0.2-0.3 0.1-0.4-0.1-0.8-0.1-0.3-0.5-0.5-0.1-0.1-0.3-0.1-0.2 0-0.3 0.1-0.3 0.1-0.5 0.3l-0.4-1.2q0.1-0.1 0.2-0.1 0.3-0.1 0.5-0.4 0-0.2 0-0.3 0-0.2 0-0.3-0.1-0.1-0.1-0.2-0.1-0.1-0.3-0.2-0.1 0-0.2 0-0.1 0-0.3 0-0.1 0.1-0.2 0.2-0.1 0.1-0.2 0.2-0.1 0.4 0.1 0.7z"/>
	<path id="Layer" class="s0" d="m72.6 7.2c-4.8-2.4-10.5-0.5-12.9 4.4-2.3 4.8-0.4 10.6 4.3 13.1 4.7 2.4 10.5 0.4 12.8-4.4 2.4-4.8 0.5-10.7-4.2-13.1z"/>
	<g id="Layer" style="opacity: .7">
		<path id="Layer" class="s1" d="m72.6 7.2c-4.8-2.4-10.5-0.5-12.9 4.4-2.3 4.8-0.4 10.6 4.3 13.1 4.7 2.4 10.5 0.4 12.8-4.4 2.4-4.8 0.5-10.7-4.2-13.1z"/>
	</g>
	<path id="Layer" fill-rule="evenodd" class="s1" d="m62.6 15.8q0-1.9 0.6-2.6 0.7-0.8 2-0.8 0.5 0 1 0.2 0.4 0.1 0.7 0.4 0.2 0.3 0.4 0.6 0.2 0.3 0.2 0.6 0.2 0.8 0.2 1.5 0 1.8-0.6 2.6-0.5 0.8-2 0.8-0.6 0.1-1.3-0.2-0.5-0.3-0.8-0.8-0.2-0.5-0.3-1-0.2-0.7-0.1-1.3zm1.7 0q0 0 0 0 0 0 0 0zm0.2 1.6q0.1 0.2 0.2 0.4 0.2 0.1 0.4 0.1 0.1 0 0.3-0.1 0.1 0 0.2-0.1 0.2-0.3 0.3-0.6 0.1-0.6 0.1-1.3 0-1.3-0.2-1.7-0.1-0.2-0.3-0.4-0.2-0.1-0.4-0.1-0.2 0-0.4 0.1-0.1 0.2-0.2 0.4-0.2 0.4-0.2 1.7 0 1.2 0.2 1.6z"/>
	<path id="Layer" fill-rule="evenodd" class="s1" d="m71.5 17.8h-3.2v-1.5l3.2-3.8h1.5v3.9h0.8v1.4h-0.8v1.2h-1.5zm0-1.4v-2l-1.7 2z"/>
	<path id="Layer" class="s0" d="m68.3 26.6q-0.4 0-0.7-0.3c-0.2-0.2-0.3-0.5-0.3-0.8 0-0.2 0.1-0.5 0.3-0.7q0.3-0.3 0.7-0.3c1.7 0 3.3-0.5 4.7-1.5 1.4-0.9 2.5-2.3 3.2-3.9 0.6-1.6 0.8-3.3 0.5-5-0.4-1.7-1.2-3.3-2.4-4.5-1.2-1.2-2.7-2-4.3-2.4-1.7-0.3-3.4-0.1-5 0.5-1.5 0.7-2.9 1.8-3.8 3.2-0.9 1.5-1.4 3.2-1.4 4.9 0 2.9-1.2 5.6-3.1 7.6-2 2.1-4.7 3.2-7.5 3.2-2.8 0-5.5-1.1-7.5-3.2-2-2-3.1-4.7-3.1-7.6 0-2.3-0.9-4.5-2.5-6.2-1.6-1.6-3.8-2.5-6-2.5-2.3 0-4.5 0.9-6.1 2.5-1.6 1.7-2.5 3.9-2.5 6.2 0 2.1-0.6 4.2-1.8 6-1.1 1.8-2.8 3.2-4.7 4-1.9 0.8-4.1 1-6.1 0.6-2.1-0.4-3.9-1.5-5.4-3-1.5-1.5-2.5-3.4-2.9-5.5-0.4-2.1-0.2-4.3 0.6-6.3 0.8-1.9 2.1-3.6 3.9-4.8 1.7-1.2 3.8-1.8 5.9-1.8q0.4 0 0.7 0.3 0.3 0.3 0.3 0.7c0 0.3-0.1 0.6-0.3 0.8q-0.3 0.3-0.7 0.3c-1.7 0-3.4 0.5-4.8 1.4-1.4 1-2.5 2.4-3.1 3.9-0.7 1.6-0.8 3.4-0.5 5.1 0.3 1.7 1.1 3.2 2.3 4.5 1.2 1.2 2.7 2 4.4 2.3 1.7 0.4 3.4 0.2 4.9-0.5 1.6-0.6 2.9-1.7 3.9-3.2 0.9-1.4 1.4-3.1 1.4-4.8 0-2.9 1.1-5.6 3.1-7.7 2-2 4.7-3.1 7.5-3.1 2.8 0 5.5 1.1 7.4 3.1 2 2.1 3.1 4.8 3.1 7.7 0 1.1 0.3 2.3 0.7 3.3 0.4 1.1 1.1 2 1.8 2.9 0.8 0.8 1.8 1.4 2.8 1.8 1.1 0.5 2.2 0.7 3.3 0.7 1.1 0 2.2-0.2 3.2-0.7 1.1-0.4 2-1 2.8-1.8 0.8-0.9 1.4-1.8 1.9-2.9 0.4-1 0.6-2.2 0.6-3.3 0-2.2 0.6-4.2 1.8-6 1.2-1.8 2.8-3.2 4.7-4 2-0.8 4.1-1 6.2-0.6 2 0.4 3.9 1.4 5.4 2.9 1.4 1.6 2.5 3.5 2.9 5.6 0.4 2.1 0.2 4.2-0.6 6.2-0.8 2-2.2 3.7-3.9 4.9-1.8 1.2-3.8 1.8-5.9 1.8z"/>
	<path id="Layer" class="s0" d="m58 23l-0.2-0.1q0.7-0.9 1.2-1.9l0.2 0.1q-0.5 1-1.2 1.9z"/>
	<path id="Layer" class="s0" d="m53.3 26.5v-0.2c1.3-0.5 2.4-1.3 3.4-2.2l0.2 0.1c-1.1 1-2.3 1.8-3.6 2.3z"/>
</svg>