<svg width="130" height="44" viewBox="0 0 130 44" fill="none" xmlns="http://www.w3.org/2000/svg" xmlns:xlink="http://www.w3.org/1999/xlink">
<path d="M17.732,40.645C26.268,40.645 33.187,33.725 33.187,25.189C33.187,16.654 26.268,9.734 17.732,9.734C9.196,9.734 2.277,16.654 2.277,25.189C2.277,33.725 9.196,40.645 17.732,40.645Z" transform="rotate(-161.56 17.732 25.189)" fill="#1E7430"/>
<g opacity="0.7">
<path d="M17.732,40.645C26.268,40.645 33.187,33.725 33.187,25.189C33.187,16.654 26.268,9.734 17.732,9.734C9.196,9.734 2.277,16.654 2.277,25.189C2.277,33.725 9.196,40.645 17.732,40.645Z" transform="rotate(-161.56 17.732 25.189)" fill="#F4F4F4"/>
</g>
<path d="M9.345,24.905C9.345,22.962 9.695,21.601 10.395,20.824C11.096,20.047 12.162,19.658 13.593,19.658C14.169,19.641 14.743,19.727 15.289,19.912C15.691,20.056 16.059,20.28 16.373,20.571C16.634,20.821 16.856,21.11 17.031,21.427C17.203,21.76 17.332,22.113 17.417,22.477C17.61,23.259 17.706,24.06 17.703,24.865C17.703,26.718 17.389,28.076 16.761,28.939C16.133,29.802 15.052,30.232 13.517,30.23C12.798,30.26 12.083,30.119 11.429,29.818C10.89,29.542 10.434,29.126 10.112,28.613C9.828,28.136 9.632,27.612 9.536,27.065C9.399,26.353 9.335,25.629 9.345,24.905ZM12.164,24.905C12.164,26.207 12.274,27.096 12.493,27.572C12.567,27.777 12.701,27.954 12.877,28.082C13.053,28.209 13.264,28.281 13.481,28.287C13.762,28.289 14.031,28.18 14.232,27.984C14.476,27.715 14.638,27.383 14.7,27.026C14.818,26.351 14.867,25.665 14.848,24.98C14.848,23.619 14.738,22.706 14.518,22.24C14.437,22.033 14.294,21.855 14.11,21.73C13.925,21.605 13.707,21.538 13.484,21.539C13.26,21.535 13.041,21.603 12.857,21.732C12.674,21.861 12.536,22.045 12.463,22.257C12.264,22.738 12.164,23.624 12.164,24.915L12.164,24.905Z" fill="#F4F4F4"/>
<path d="M25.356,19.688L25.356,30.107L22.481,30.107L22.481,23.29C22.059,23.618 21.607,23.905 21.131,24.15C20.601,24.404 20.05,24.614 19.484,24.776L19.484,22.447C20.297,22.213 21.061,21.832 21.737,21.324C22.273,20.886 22.703,20.332 22.995,19.704L25.356,19.688Z" fill="#F4F4F4"/>
<path d="M48.67,40.635C57.206,40.635 64.126,33.716 64.126,25.18C64.126,16.644 57.206,9.725 48.67,9.725C40.135,9.725 33.215,16.644 33.215,25.18C33.215,33.716 40.135,40.635 48.67,40.635Z" transform="rotate(-153.44 48.67 25.18)" fill="#1E7430"/>
<g opacity="0.7">
<path d="M48.67,40.635C57.206,40.635 64.126,33.716 64.126,25.18C64.126,16.644 57.206,9.725 48.67,9.725C40.135,9.725 33.215,16.644 33.215,25.18C33.215,33.716 40.135,40.635 48.67,40.635Z" transform="rotate(-153.44 48.67 25.18)" fill="#F4F4F4"/>
</g>
<path d="M39.657,24.905C39.657,22.962 40.008,21.601 40.708,20.824C41.408,20.047 42.474,19.658 43.906,19.658C44.482,19.641 45.056,19.727 45.602,19.912C46.003,20.056 46.371,20.28 46.682,20.571C46.945,20.82 47.167,21.109 47.341,21.427C47.512,21.76 47.642,22.113 47.726,22.477C47.919,23.259 48.015,24.06 48.012,24.865C48.012,26.718 47.699,28.076 47.071,28.939C46.443,29.802 45.361,30.232 43.827,30.23C43.108,30.261 42.392,30.12 41.739,29.818C41.199,29.542 40.744,29.126 40.421,28.613C40.137,28.136 39.942,27.612 39.845,27.065C39.71,26.353 39.647,25.629 39.657,24.905ZM42.476,24.905C42.476,26.207 42.586,27.096 42.806,27.572C42.88,27.777 43.014,27.954 43.19,28.082C43.366,28.209 43.576,28.281 43.794,28.287C43.932,28.288 44.07,28.262 44.198,28.21C44.326,28.158 44.443,28.081 44.541,27.984C44.788,27.717 44.95,27.384 45.009,27.025C45.13,26.351 45.181,25.665 45.161,24.98C45.161,23.619 45.045,22.706 44.815,22.24C44.733,22.032 44.59,21.854 44.405,21.729C44.22,21.604 44.001,21.537 43.777,21.539C43.554,21.536 43.335,21.604 43.152,21.733C42.969,21.862 42.832,22.045 42.76,22.257C42.579,22.741 42.476,23.624 42.476,24.915L42.476,24.905Z" fill="#F4F4F4"/>
<path d="M57.514,30.083L48.984,30.083C49.087,29.231 49.393,28.417 49.877,27.709C50.371,26.969 51.3,26.09 52.663,25.074C53.255,24.676 53.792,24.202 54.26,23.664C54.471,23.405 54.593,23.086 54.609,22.752C54.613,22.603 54.586,22.455 54.529,22.317C54.473,22.179 54.388,22.055 54.28,21.952C54.038,21.735 53.725,21.615 53.401,21.615C53.076,21.615 52.763,21.735 52.521,21.952C52.244,22.296 52.082,22.719 52.057,23.16L49.212,22.93C49.276,22.267 49.486,21.628 49.827,21.056C50.137,20.596 50.574,20.237 51.085,20.022C51.804,19.753 52.569,19.631 53.335,19.663C54.127,19.626 54.919,19.738 55.67,19.992C56.206,20.199 56.666,20.566 56.987,21.043C57.305,21.511 57.472,22.065 57.465,22.63C57.461,23.266 57.271,23.887 56.918,24.415C56.38,25.155 55.71,25.789 54.942,26.286C54.369,26.681 53.987,26.958 53.796,27.116C53.605,27.274 53.378,27.481 53.114,27.738L57.553,27.738L57.514,30.083Z" fill="#F4F4F4"/>
<path d="M78.478,31.646C87.014,31.646 93.933,24.726 93.933,16.191C93.933,7.655 87.014,0.735 78.478,0.735C69.942,0.735 63.023,7.655 63.023,16.191C63.023,24.726 69.942,31.646 78.478,31.646Z" transform="rotate(-5.76 78.478 16.191)" fill="#1E7430"/>
<g opacity="0.7">
<path d="M78.478,31.646C87.014,31.646 93.933,24.726 93.933,16.191C93.933,7.655 87.014,0.735 78.478,0.735C69.942,0.735 63.023,7.655 63.023,16.191C63.023,24.726 69.942,31.646 78.478,31.646Z" transform="rotate(-5.76 78.478 16.191)" fill="#F4F4F4"/>
</g>
<path d="M70.596,19.171C69.856,17.373 69.662,15.982 70.013,14.999C70.365,14.015 71.202,13.247 72.526,12.693C73.053,12.458 73.617,12.32 74.193,12.285C74.619,12.264 75.045,12.332 75.444,12.486C75.782,12.617 76.097,12.799 76.379,13.026C76.666,13.268 76.922,13.544 77.14,13.849C77.615,14.498 78.009,15.203 78.312,15.947C79.022,17.662 79.249,19.037 78.994,20.074C78.739,21.11 77.904,21.927 76.488,22.524C75.834,22.823 75.119,22.965 74.4,22.939C73.8,22.883 73.225,22.669 72.734,22.32C72.291,21.987 71.912,21.578 71.614,21.111C71.21,20.501 70.869,19.851 70.596,19.171ZM73.208,18.104C73.702,19.31 74.15,20.08 74.542,20.439C74.69,20.602 74.884,20.715 75.098,20.765C75.312,20.815 75.536,20.799 75.74,20.719C75.87,20.668 75.988,20.591 76.087,20.494C76.187,20.397 76.266,20.281 76.32,20.153C76.445,19.812 76.468,19.442 76.386,19.089C76.241,18.419 76.027,17.765 75.747,17.139C75.227,15.883 74.772,15.083 74.384,14.738C74.229,14.578 74.029,14.468 73.81,14.423C73.591,14.378 73.364,14.401 73.158,14.488C72.953,14.571 72.778,14.717 72.66,14.905C72.542,15.093 72.486,15.314 72.5,15.535C72.482,16.056 72.718,16.912 73.208,18.104Z" fill="#F4F4F4"/>
<path d="M81.135,12.53L78.468,13.106C78.335,12.31 78.492,11.492 78.909,10.801C79.324,10.143 80.068,9.594 81.142,9.155C82.377,8.644 83.365,8.496 84.106,8.74C84.453,8.838 84.773,9.015 85.04,9.257C85.307,9.499 85.515,9.8 85.647,10.136C85.816,10.529 85.859,10.965 85.769,11.384C85.656,11.86 85.43,12.301 85.11,12.672C85.43,12.614 85.756,12.604 86.079,12.642C86.463,12.701 86.824,12.862 87.126,13.106C87.453,13.379 87.704,13.732 87.854,14.131C88.081,14.688 88.158,15.296 88.074,15.893C87.995,16.517 87.729,17.102 87.31,17.572C86.76,18.15 86.084,18.592 85.334,18.863C84.654,19.175 83.921,19.356 83.174,19.397C82.62,19.406 82.073,19.276 81.583,19.018C81.061,18.724 80.604,18.327 80.24,17.852L82.723,16.423C82.936,16.81 83.261,17.125 83.655,17.325C83.965,17.44 84.309,17.427 84.61,17.289C84.778,17.224 84.929,17.123 85.054,16.993C85.178,16.864 85.273,16.708 85.331,16.538C85.459,16.151 85.433,15.73 85.259,15.362C85.128,14.982 84.856,14.667 84.498,14.483C84.33,14.407 84.148,14.368 83.964,14.368C83.78,14.368 83.598,14.407 83.431,14.483C83.147,14.617 82.883,14.787 82.644,14.99L82.005,13.057C82.125,13.028 82.244,12.992 82.36,12.948C82.682,12.824 82.943,12.578 83.085,12.263C83.154,12.12 83.193,11.964 83.196,11.805C83.2,11.646 83.17,11.488 83.108,11.341C83.063,11.212 82.992,11.093 82.899,10.993C82.806,10.893 82.693,10.813 82.568,10.758C82.437,10.708 82.297,10.685 82.156,10.69C82.016,10.696 81.878,10.73 81.751,10.791C81.611,10.843 81.482,10.922 81.372,11.023C81.262,11.125 81.174,11.248 81.112,11.384C80.998,11.759 81.006,12.16 81.135,12.53Z" fill="#F4F4F4"/>
<path d="M110.452,40.635C118.988,40.635 125.907,33.716 125.907,25.18C125.907,16.644 118.988,9.725 110.452,9.725C101.916,9.725 94.996,16.644 94.996,25.18C94.996,33.716 101.916,40.635 110.452,40.635Z" transform="rotate(-153.44 110.452 25.18)" fill="#1E7430"/>
<g opacity="0.7">
<path d="M110.452,40.635C118.988,40.635 125.907,33.716 125.907,25.18C125.907,16.644 118.988,9.725 110.452,9.725C101.916,9.725 94.996,16.644 94.996,25.18C94.996,33.716 101.916,40.635 110.452,40.635Z" transform="rotate(-153.44 110.452 25.18)" fill="#F4F4F4"/>
</g>
<path d="M101.173,24.905C101.173,22.962 101.523,21.601 102.224,20.824C102.924,20.047 103.99,19.658 105.421,19.658C105.997,19.641 106.572,19.727 107.118,19.912C107.519,20.056 107.886,20.28 108.198,20.571C108.46,20.82 108.682,21.109 108.856,21.427C109.028,21.76 109.157,22.113 109.242,22.477C109.435,23.259 109.531,24.06 109.528,24.865C109.528,26.718 109.214,28.076 108.586,28.939C107.958,29.802 106.877,30.234 105.342,30.236C104.624,30.267 103.908,30.126 103.255,29.825C102.715,29.549 102.26,29.133 101.937,28.619C101.653,28.143 101.457,27.618 101.361,27.072C101.225,26.358 101.162,25.631 101.173,24.905ZM103.992,24.905C103.992,26.207 104.107,27.096 104.338,27.572C104.412,27.777 104.546,27.954 104.722,28.082C104.898,28.209 105.109,28.281 105.326,28.287C105.464,28.288 105.602,28.262 105.73,28.21C105.858,28.158 105.975,28.081 106.074,27.984C106.32,27.717 106.483,27.384 106.541,27.025C106.663,26.351 106.713,25.665 106.693,24.98C106.693,23.619 106.577,22.706 106.347,22.24C106.265,22.032 106.122,21.854 105.937,21.729C105.752,21.604 105.533,21.537 105.31,21.539C105.086,21.536 104.867,21.604 104.684,21.733C104.501,21.862 104.364,22.045 104.292,22.257C104.094,22.738 103.994,23.624 103.992,24.915L103.992,24.905Z" fill="#F4F4F4"/>
<path d="M115.599,28.181L110.422,28.181L110.422,25.843L115.599,19.688L118.075,19.688L118.075,25.974L119.36,25.974L119.36,28.181L118.075,28.181L118.075,30.107L115.599,30.107L115.599,28.181ZM115.599,25.974L115.599,22.757L112.862,25.974L115.599,25.974Z" fill="#F4F4F4"/>
<path d="M110.44,42.063C110.004,42.063 109.585,41.89 109.276,41.581C108.967,41.272 108.794,40.854 108.794,40.417C108.794,39.98 108.967,39.561 109.276,39.252C109.585,38.944 110.004,38.77 110.44,38.77C113.172,38.771 115.842,37.962 118.113,36.445C120.384,34.928 122.155,32.771 123.2,30.248C124.246,27.725 124.52,24.948 123.988,22.269C123.455,19.591 122.14,17.13 120.209,15.198C118.278,13.267 115.818,11.951 113.139,11.418C110.46,10.885 107.684,11.158 105.16,12.203C102.637,13.249 100.48,15.018 98.962,17.289C97.445,19.56 96.635,22.23 96.635,24.961C96.635,29.497 94.833,33.847 91.626,37.054C88.419,40.262 84.069,42.063 79.533,42.063C74.997,42.063 70.647,40.262 67.44,37.054C64.233,33.847 62.431,29.497 62.431,24.961C62.431,21.299 60.976,17.787 58.386,15.197C55.797,12.608 52.284,11.153 48.622,11.153C44.96,11.153 41.448,12.608 38.858,15.197C36.268,17.787 34.813,21.299 34.813,24.961C34.813,28.344 33.81,31.651 31.931,34.463C30.051,37.276 27.38,39.468 24.255,40.762C21.129,42.056 17.69,42.395 14.373,41.734C11.055,41.074 8.008,39.444 5.616,37.052C3.225,34.66 1.596,31.612 0.937,28.294C0.278,24.976 0.618,21.537 1.913,18.412C3.209,15.287 5.402,12.617 8.215,10.738C11.028,8.86 14.335,7.858 17.718,7.859C18.155,7.859 18.574,8.033 18.882,8.342C19.191,8.65 19.365,9.069 19.365,9.506C19.365,9.943 19.191,10.362 18.882,10.67C18.574,10.979 18.155,11.153 17.718,11.153C14.987,11.153 12.317,11.963 10.046,13.48C7.775,14.997 6.006,17.154 4.96,19.677C3.915,22.2 3.642,24.977 4.175,27.655C4.707,30.334 6.023,32.794 7.954,34.726C9.885,36.657 12.345,37.972 15.024,38.505C17.703,39.038 20.479,38.764 23.002,37.719C25.526,36.674 27.682,34.904 29.2,32.633C30.717,30.362 31.527,27.693 31.527,24.961C31.527,20.426 33.329,16.076 36.536,12.868C39.743,9.661 44.093,7.859 48.629,7.859C53.165,7.859 57.514,9.661 60.722,12.868C63.929,16.076 65.731,20.426 65.731,24.961C65.731,26.775 66.088,28.57 66.782,30.246C67.476,31.921 68.493,33.443 69.775,34.726C71.058,36.008 72.58,37.025 74.255,37.719C75.931,38.413 77.726,38.77 79.54,38.77C81.353,38.77 83.149,38.413 84.824,37.719C86.499,37.025 88.022,36.008 89.304,34.726C90.586,33.443 91.603,31.921 92.297,30.246C92.991,28.57 93.348,26.775 93.348,24.961C93.348,21.579 94.351,18.272 96.231,15.46C98.11,12.647 100.781,10.455 103.906,9.161C107.032,7.867 110.47,7.528 113.788,8.188C117.106,8.848 120.153,10.478 122.544,12.87C124.936,15.262 126.565,18.309 127.224,21.627C127.884,24.945 127.544,28.383 126.25,31.508C124.955,34.633 122.762,37.304 119.949,39.183C117.136,41.062 113.83,42.064 110.447,42.063L110.44,42.063Z" fill="#1E7430"/>
<path d="M93.738,36.441L93.484,36.234C94.234,35.306 94.891,34.307 95.444,33.25L95.737,33.405C95.171,34.48 94.502,35.497 93.738,36.441Z" fill="#1E7430"/>
<path d="M86.309,41.907L86.188,41.6C88.259,40.775 90.158,39.57 91.786,38.047L92.01,38.287C90.352,39.838 88.418,41.066 86.309,41.907Z" fill="#1E7430"/>
</svg>
