<svg width="48" height="72" viewBox="0 0 48 72" fill="none" xmlns="http://www.w3.org/2000/svg" xmlns:xlink="http://www.w3.org/1999/xlink">
<path d="M28.224,1.424C16.981,-1.073 4.629,5.028 1.471,16.619C-1.571,27.747 5.787,40.743 16.948,43.769C22.452,45.088 28.25,44.345 33.244,41.679C38.237,39.013 42.081,34.609 44.048,29.301C48.049,17.413 40.427,4.598 28.919,0.812C27.596,0.365 27.067,2.465 28.356,2.895C38.162,6.483 45.205,17.066 42.262,27.697C39.484,37.784 27.662,44.53 17.576,41.851C7.87,39.272 1.603,28.855 2.843,19.149C4.348,7.26 16.931,0.151 28.125,2.085C28.538,2.085 28.72,1.539 28.307,1.457L28.224,1.424Z" fill="#353537"/>
<path d="M17.048,43.417C22.749,45.1 28.882,44.485 34.135,41.704C39.388,38.923 43.344,34.196 45.157,28.536C48.663,16.465 40.842,3.403 29.086,-0.185C26.374,-1.012 25.398,2.989 27.928,3.982C37.849,7.884 44.463,18.681 40.561,29.28C37.055,38.705 26.738,43.252 17.164,42.177C16.403,42.078 16.304,43.268 16.999,43.467L17.048,43.417Z" fill="#1D7430"/>
<path d="M45.702,63.196C45.702,63.427 35.484,63.625 22.851,63.625C10.218,63.625 0,63.427 0,63.196C0,62.964 10.235,62.766 22.851,62.766C35.467,62.766 45.702,62.964 45.702,63.196Z" fill="#1D7430"/>
<path d="M45.702,70.133C45.702,70.381 35.484,70.563 22.851,70.563C10.218,70.563 0,70.381 0,70.133C0,69.885 10.235,69.703 22.851,69.703C35.467,69.703 45.702,69.902 45.702,70.133Z" fill="#1D7430"/>
</svg>
