<svg version="1.2" xmlns="http://www.w3.org/2000/svg" viewBox="0 0 110 111" width="110" height="111">
	<title>group_6433_x2-svg</title>
	<style>
		.s0 { fill: #f4f4f4;stroke: #353537;stroke-miterlimit:3.999327;stroke-width: .6 } 
		.s1 { fill: #ebebeb } 
		.s2 { fill: #e0e0e0 } 
		.s3 { fill: #263238 } 
		.s4 { fill: #ff5904 } 
		.s5 { fill: #f4f4f4 } 
		.s6 { fill: #353537 } 
	</style>
	<path id="Layer" class="s0" d="m56.7 106.6c-29.5 0-53.4-23.9-53.4-53.3 0-29.5 23.9-53.3 53.4-53.3 29.5 0 53.3 23.8 53.3 53.3 0 29.4-23.8 53.3-53.3 53.3z"/>
	<path id="Layer" class="s1" d="m104 110.1h-9.7v0.1h9.7z"/>
	<path id="Layer" class="s1" d="m69 110.9h-2.6v0.1h2.6z"/>
	<path id="Layer" class="s1" d="m94 107.4h-5.7v0.1h5.7z"/>
	<path id="Layer" class="s1" d="m23.2 89.5h15.8"/>
	<path id="Layer" fill-rule="evenodd" class="s1" d="m41.4 75.8h-33.6c-0.2 0-0.5-0.1-0.7-0.4-0.2-0.2-0.3-0.6-0.3-0.9v-64.3c0-0.3 0.1-0.7 0.3-0.9q0.3-0.4 0.7-0.4h33.6q0.2 0 0.4 0.1 0.2 0.1 0.3 0.3 0.1 0.2 0.2 0.4 0.1 0.3 0.1 0.5v64.3q0 0.2-0.1 0.5-0.1 0.2-0.2 0.4-0.1 0.2-0.3 0.3-0.2 0.1-0.4 0.1zm-33.6-66.9q-0.4 0-0.6 0.4c-0.2 0.2-0.3 0.6-0.3 0.9v64.3c0 0.3 0.1 0.6 0.3 0.9q0.2 0.4 0.6 0.4h33.6q0.4 0 0.7-0.4c0.2-0.3 0.3-0.6 0.3-0.9v-64.3c0-0.3-0.1-0.7-0.3-0.9q-0.3-0.4-0.7-0.4z"/>
	<path id="Layer" class="s1" d="m0 86.8h86.8"/>
	<path id="Layer" class="s2" d="m58.3 65h11.1v3.1h-11.1z"/>
	<path id="Layer" class="s3" d="m83.8 69.4h-21q-0.4 0-0.7-0.1-0.3-0.2-0.6-0.4-0.2-0.3-0.3-0.6-0.2-0.4-0.1-0.8l1.1-12.9c0.1-0.5 0.3-1 0.7-1.3 0.4-0.4 0.9-0.6 1.4-0.6h21q0.4 0 0.7 0.2 0.3 0.1 0.6 0.4 0.2 0.2 0.3 0.6 0.2 0.3 0.1 0.7l-1.1 12.9c-0.1 0.5-0.3 1-0.7 1.4-0.4 0.3-0.8 0.5-1.4 0.5z"/>
	<path id="Layer" class="s4" d="m71.4 60c0 1-0.5 1.8-1.2 2.5-0.7 0.6-1.6 0.9-2.5 1q-0.7 0-1.3-0.3-0.6-0.3-1-0.7-0.5-0.5-0.7-1.2-0.2-0.6-0.1-1.3c0.1-0.9 0.5-1.8 1.2-2.4 0.7-0.6 1.6-1 2.5-1l0.2-1.8c-1.4 0.1-2.8 0.6-3.8 1.6-1.1 0.9-1.7 2.2-1.9 3.6q-0.1 1 0.2 2 0.3 0.9 1 1.7 0.7 0.7 1.6 1.1 0.9 0.4 2 0.4c1.4 0 2.7-0.6 3.8-1.5 1-1 1.6-2.3 1.8-3.7z"/>
	<path id="Layer" class="s4" d="m73.8 59.3q0.1-1-0.2-2-0.3-0.9-1-1.7-0.7-0.7-1.6-1.1-0.9-0.4-1.9-0.4l-0.2 1.8q0.7-0.1 1.3 0.2 0.6 0.3 1.1 0.8 0.4 0.5 0.6 1.1 0.2 0.6 0.2 1.3z"/>
	<g id="Layer" style="opacity: .7">
		<path id="Layer" class="s5" d="m73.8 59.3q0.1-1-0.2-2-0.3-0.9-1-1.7-0.7-0.7-1.6-1.1-0.9-0.4-1.9-0.4l-0.2 1.8q0.7-0.1 1.3 0.2 0.6 0.3 1.1 0.8 0.4 0.5 0.6 1.1 0.2 0.6 0.2 1.3z"/>
	</g>
	<path id="Layer" class="s4" d="m69.5 60c0 0.4-0.2 0.8-0.5 1.1-0.3 0.3-0.7 0.5-1.2 0.5q-0.3 0-0.6-0.1-0.2-0.2-0.4-0.4-0.2-0.2-0.3-0.5-0.1-0.3-0.1-0.6c0-0.4 0.2-0.8 0.6-1.1 0.3-0.3 0.7-0.4 1.1-0.4l0.1-0.8c-0.7 0-1.3 0.2-1.8 0.7-0.4 0.4-0.7 1-0.8 1.6q0 0.5 0.1 0.9 0.1 0.5 0.4 0.8 0.4 0.3 0.8 0.5 0.4 0.2 0.9 0.2c0.6 0 1.2-0.3 1.7-0.7 0.5-0.4 0.8-1 0.8-1.7z"/>
	<g id="Layer" style="opacity: .7">
		<path id="Layer" class="s5" d="m69.5 60c0 0.4-0.2 0.8-0.5 1.1-0.3 0.3-0.7 0.5-1.2 0.5q-0.3 0-0.6-0.1-0.2-0.2-0.4-0.4-0.2-0.2-0.3-0.5-0.1-0.3-0.1-0.6c0-0.4 0.2-0.8 0.6-1.1 0.3-0.3 0.7-0.4 1.1-0.4l0.1-0.8c-0.7 0-1.3 0.2-1.8 0.7-0.4 0.4-0.7 1-0.8 1.6q0 0.5 0.1 0.9 0.1 0.5 0.4 0.8 0.4 0.3 0.8 0.5 0.4 0.2 0.9 0.2c0.6 0 1.2-0.3 1.7-0.7 0.5-0.4 0.8-1 0.8-1.7z"/>
	</g>
	<path id="Layer" class="s4" d="m70.6 59.7q0-0.5-0.1-0.9-0.1-0.4-0.4-0.8-0.4-0.3-0.8-0.5-0.4-0.2-0.9-0.2v0.8q0.3 0 0.5 0.1 0.3 0.1 0.5 0.4 0.2 0.2 0.3 0.5 0.1 0.3 0.1 0.6z"/>
	<path id="Layer" class="s4" d="m80.7 54.9l-0.1 1.7q0.6 0 1.2 0.3 0.6 0.2 1.1 0.7 0.4 0.5 0.7 1.1 0.2 0.7 0.1 1.3c-0.1 1-0.5 1.8-1.2 2.5-0.7 0.6-1.6 0.9-2.5 1q-0.7 0-1.3-0.3-0.6-0.3-1.1-0.7-0.4-0.5-0.6-1.2-0.2-0.6-0.2-1.3c0.1-0.9 0.5-1.8 1.2-2.4l-1.1-1.2c-1 0.9-1.7 2.2-1.8 3.6q-0.1 1 0.2 2 0.3 0.9 1 1.7 0.6 0.7 1.6 1.1 0.9 0.4 1.9 0.4c1.4 0 2.8-0.6 3.8-1.5 1-1 1.7-2.3 1.8-3.7q0.1-1-0.2-1.9-0.3-1-1-1.7-0.6-0.8-1.6-1.2-0.9-0.4-1.9-0.3z"/>
	<g id="Layer" style="opacity: .7">
		<path id="Layer" class="s5" d="m80.7 54.9l-0.1 1.7q0.6 0 1.2 0.3 0.6 0.2 1.1 0.7 0.4 0.5 0.7 1.1 0.2 0.7 0.1 1.3c-0.1 1-0.5 1.8-1.2 2.5-0.7 0.6-1.6 0.9-2.5 1q-0.7 0-1.3-0.3-0.6-0.3-1.1-0.7-0.4-0.5-0.6-1.2-0.2-0.6-0.2-1.3c0.1-0.9 0.5-1.8 1.2-2.4l-1.1-1.2c-1 0.9-1.7 2.2-1.8 3.6q-0.1 1 0.2 2 0.3 0.9 1 1.7 0.6 0.7 1.6 1.1 0.9 0.4 1.9 0.4c1.4 0 2.8-0.6 3.8-1.5 1-1 1.7-2.3 1.8-3.7q0.1-1-0.2-1.9-0.3-1-1-1.7-0.6-0.8-1.6-1.2-0.9-0.4-1.9-0.3z"/>
	</g>
	<path id="Layer" class="s4" d="m76.6 55.4l1.1 1.2c0.7-0.6 1.6-1 2.5-1l0.2-1.7c-1.4 0-2.8 0.5-3.8 1.5z"/>
	<g id="Layer" style="opacity: .3">
		<path id="Layer" class="s6" d="m76.6 55.4l1.1 1.2c0.7-0.6 1.6-1 2.5-1l0.2-1.7c-1.4 0-2.8 0.5-3.8 1.5z"/>
	</g>
	<path id="Layer" class="s4" d="m80.5 57.5l-0.1 0.9q0.3 0 0.6 0.1 0.3 0.1 0.5 0.3 0.2 0.3 0.3 0.6 0.1 0.3 0.1 0.6c-0.1 0.4-0.3 0.8-0.6 1.1-0.3 0.4-0.7 0.5-1.2 0.5q-0.3 0-0.6-0.1-0.3-0.1-0.5-0.3-0.2-0.3-0.3-0.6-0.1-0.3-0.1-0.6c0.1-0.4 0.3-0.9 0.6-1.2l-0.5-0.6c-0.5 0.5-0.8 1.1-0.9 1.8q-0.1 0.5 0.1 0.9 0.1 0.5 0.5 0.8 0.3 0.4 0.7 0.6 0.5 0.2 1 0.2c0.6 0 1.3-0.3 1.8-0.8 0.5-0.4 0.8-1 0.8-1.7q0.1-0.5-0.1-0.9-0.1-0.5-0.4-0.9-0.4-0.3-0.8-0.5-0.4-0.2-0.9-0.2z"/>
	<path id="Layer" class="s4" d="m78.5 57.8l0.5 0.6c0.4-0.3 0.8-0.5 1.2-0.5l0.1-0.8c-0.7 0-1.3 0.2-1.8 0.7z"/>
	<g id="Layer" style="opacity: .3">
		<path id="Layer" class="s6" d="m78.5 57.8l0.5 0.6c0.4-0.3 0.8-0.5 1.2-0.5l0.1-0.8c-0.7 0-1.3 0.2-1.8 0.7z"/>
	</g>
	<path id="Layer" class="s5" d="m65.2 67.5q-0.1 0-0.2-0.1-0.1 0-0.2-0.1-0.1-0.1-0.1-0.2 0-0.1 0-0.2 0-0.2 0.2-0.4 0.1-0.1 0.4-0.1 0.1 0 0.2 0 0.1 0.1 0.1 0.1 0.1 0.1 0.1 0.2 0.1 0.1 0.1 0.2-0.1 0.3-0.2 0.4-0.2 0.2-0.4 0.2z"/>
	<path id="Layer" class="s5" d="m70.8 67.2h-4.1q-0.1 0-0.1 0-0.1 0-0.1-0.1 0 0 0-0.1-0.1 0-0.1-0.1 0-0.1 0.1-0.2 0.1-0.1 0.2-0.1h4.2q0 0 0.1 0 0 0.1 0.1 0.1 0 0.1 0 0.1 0 0.1 0 0.1 0 0.1-0.1 0.2-0.1 0.1-0.2 0.1z"/>
	<path id="Layer" class="s5" d="m69.7 68.3h-3.1q-0.1 0-0.1 0-0.1 0-0.1-0.1 0 0 0-0.1-0.1 0-0.1-0.1 0.1-0.1 0.1-0.2 0.1-0.1 0.2-0.1h3.1q0.1 0 0.1 0 0.1 0.1 0.1 0.1 0.1 0 0.1 0.1 0 0.1 0 0.1 0 0.1-0.1 0.2-0.1 0.1-0.2 0.1z"/>
	<path id="Layer" class="s5" d="m77.1 67.5q-0.1 0-0.2-0.1-0.1 0-0.1-0.1-0.1-0.1-0.2-0.2 0-0.1 0-0.2 0.1-0.2 0.2-0.4 0.2-0.1 0.4-0.1 0.1 0 0.2 0 0.1 0.1 0.2 0.1 0.1 0.1 0.1 0.2 0 0.1 0 0.2 0 0.3-0.2 0.4-0.1 0.2-0.4 0.2z"/>
	<path id="Layer" class="s5" d="m82.8 67.2h-4.1q-0.1 0-0.1 0-0.1 0-0.1-0.1-0.1 0-0.1-0.1 0 0 0-0.1 0-0.1 0.1-0.2 0.1-0.1 0.2-0.1h4.1q0.1 0 0.1 0 0.1 0.1 0.1 0.1 0.1 0.1 0.1 0.1 0 0.1 0 0.1 0 0.1-0.1 0.2-0.1 0.1-0.2 0.1z"/>
	<path id="Layer" class="s5" d="m81.6 68.3h-3q-0.1 0-0.1 0-0.1 0-0.1-0.1-0.1 0-0.1-0.1 0 0 0-0.1 0-0.1 0.1-0.2 0.1-0.1 0.2-0.1h3.1q0 0 0.1 0 0 0.1 0.1 0.1 0 0 0 0.1 0.1 0.1 0 0.1 0 0.1 0 0.2-0.1 0.1-0.3 0.1z"/>
	<path id="Layer" class="s4" d="m56.7 76.5h-31.5q-0.4 0-0.7-0.2-0.4-0.1-0.6-0.4-0.3-0.2-0.4-0.6-0.1-0.3-0.1-0.7l1.8-20c0-0.5 0.3-1 0.7-1.3 0.3-0.4 0.8-0.6 1.3-0.6h31.6q0.3 0 0.7 0.2 0.3 0.1 0.5 0.4 0.3 0.2 0.4 0.6 0.1 0.3 0.1 0.7l-1.8 20c0 0.5-0.3 1-0.6 1.3-0.4 0.4-0.9 0.6-1.4 0.6z"/>
	<g id="Layer" style="opacity: .7">
		<path id="Layer" class="s5" d="m56.7 76.5h-31.5q-0.4 0-0.7-0.2-0.4-0.1-0.6-0.4-0.3-0.2-0.4-0.6-0.1-0.3-0.1-0.7l1.8-20c0-0.5 0.3-1 0.7-1.3 0.3-0.4 0.8-0.6 1.3-0.6h31.6q0.3 0 0.7 0.2 0.3 0.1 0.5 0.4 0.3 0.2 0.4 0.6 0.1 0.3 0.1 0.7l-1.8 20c0 0.5-0.3 1-0.6 1.3-0.4 0.4-0.9 0.6-1.4 0.6z"/>
	</g>
	<path id="Layer" class="s4" d="m26.5 70.5h-0.8l1-12.2h0.8z"/>
	<path id="Layer" class="s3" d="m27.6 70.5h-0.8l0.8-9h0.8z"/>
	<path id="Layer" class="s4" d="m29.4 70.5h-0.8l0.5-5.9h0.8z"/>
	<path id="Layer" class="s3" d="m30.5 70.5h-0.8l0.7-7h0.8z"/>
	<path id="Layer" class="s4" d="m32.3 70.5h-0.8l1-10.4h0.8z"/>
	<path id="Layer" class="s3" d="m33.5 70.5h-0.8l0.8-9h0.8z"/>
	<path id="Layer" class="s4" d="m35.3 70.5h-0.8l0.8-9h0.8z"/>
	<path id="Layer" class="s3" d="m36.4 70.5h-0.8l1-11.3h0.8z"/>
	<path id="Layer" class="s4" d="m38.2 70.5h-0.8l0.5-6.1h0.8z"/>
	<path id="Layer" class="s3" d="m39.4 70.5h-0.8l0.7-9h0.8z"/>
	<path id="Layer" class="s4" d="m41.1 70.5h-0.8l1-10.4h0.8z"/>
	<path id="Layer" class="s3" d="m42.3 70.5h-0.8l1.1-12.7h0.8z"/>
	<path id="Layer" class="s4" d="m44.1 70.5h-0.8l0.3-3.3h0.8z"/>
	<path id="Layer" class="s3" d="m45.2 70.5h-0.8l0.6-6.2h0.8z"/>
	<path id="Layer" class="s4" d="m47 70.5h-0.8l0.5-5.9h0.8z"/>
	<path id="Layer" class="s3" d="m48.1 70.5h-0.8l1.1-11.5h0.8z"/>
	<path id="Layer" class="s4" d="m49.9 70.5h-0.8l0.7-7.6h0.8z"/>
	<path id="Layer" class="s3" d="m51.1 70.5h-0.8l1.3-14.7h0.8z"/>
	<path id="Layer" class="s4" d="m52.9 70.5h-0.8l0.8-9.8h0.8z"/>
	<path id="Layer" class="s3" d="m54 70.5h-0.8l0.8-9h0.8z"/>
	<path id="Layer" class="s4" d="m55.8 70.5h-0.8l1.1-12.4h0.8z"/>
	<path id="Layer" class="s3" d="m57 70.5h-0.8l0.6-7.3h0.8z"/>
	<path id="Layer" class="s3" d="m26.2 73.8q-0.2 0-0.3 0-0.2-0.1-0.3-0.2-0.1-0.1-0.1-0.3-0.1-0.1-0.1-0.2 0.1-0.4 0.3-0.6 0.3-0.2 0.6-0.2 0.2 0 0.3 0 0.1 0.1 0.2 0.2 0.1 0.1 0.2 0.3 0 0.1 0 0.3 0 0.3-0.3 0.5-0.2 0.2-0.5 0.2z"/>
	<path id="Layer" class="s3" d="m34.2 73.5h-5.9q0 0-0.1-0.1-0.1 0-0.1-0.1-0.1 0-0.1-0.1 0-0.1 0-0.1 0-0.2 0.1-0.3 0.1-0.1 0.3-0.1h5.9q0.1 0 0.1 0 0.1 0 0.2 0.1 0 0 0 0.1 0.1 0.1 0.1 0.2-0.1 0.1-0.2 0.2-0.1 0.1-0.3 0.2z"/>
	<path id="Layer" class="s3" d="m32.6 75h-4.4q-0.1 0-0.1 0-0.1 0-0.2-0.1 0-0.1 0-0.1-0.1-0.1-0.1-0.2 0.1-0.2 0.2-0.3 0.1-0.1 0.3-0.1h4.4q0 0 0.1 0 0.1 0.1 0.1 0.1 0.1 0.1 0.1 0.2 0 0 0 0.1 0 0.2-0.1 0.3-0.1 0.1-0.3 0.1z"/>
	<g id="Layer" style="opacity: .3">
		<path id="Layer" class="s5" d="m34.2 73.5h-5.9q0 0-0.1-0.1-0.1 0-0.1-0.1-0.1 0-0.1-0.1 0-0.1 0-0.1 0-0.2 0.1-0.3 0.1-0.1 0.3-0.1h5.9q0.1 0 0.1 0 0.1 0 0.2 0.1 0 0 0 0.1 0.1 0.1 0.1 0.2-0.1 0.1-0.2 0.2-0.1 0.1-0.3 0.2z"/>
	</g>
	<g id="Layer" style="opacity: .3">
		<path id="Layer" class="s5" d="m32.6 75h-4.4q-0.1 0-0.1 0-0.1 0-0.2-0.1 0-0.1 0-0.1-0.1-0.1-0.1-0.2 0.1-0.2 0.2-0.3 0.1-0.1 0.3-0.1h4.4q0 0 0.1 0 0.1 0.1 0.1 0.1 0.1 0.1 0.1 0.2 0 0 0 0.1 0 0.2-0.1 0.3-0.1 0.1-0.3 0.1z"/>
	</g>
	<path id="Layer" class="s4" d="m37.8 73.8q-0.2 0-0.3 0-0.2-0.1-0.3-0.2-0.1-0.1-0.1-0.3-0.1-0.1 0-0.2 0-0.4 0.2-0.6 0.3-0.2 0.6-0.2 0.2 0 0.3 0 0.2 0.1 0.3 0.2 0.1 0.1 0.1 0.3 0.1 0.1 0 0.3 0 0.3-0.2 0.5-0.3 0.2-0.6 0.2z"/>
	<g id="Layer" style="opacity: .3">
		<path id="Layer" class="s6" d="m37.8 73.8q-0.2 0-0.3 0-0.2-0.1-0.3-0.2-0.1-0.1-0.1-0.3-0.1-0.1 0-0.2 0-0.4 0.2-0.6 0.3-0.2 0.6-0.2 0.2 0 0.3 0 0.2 0.1 0.3 0.2 0.1 0.1 0.1 0.3 0.1 0.1 0 0.3 0 0.3-0.2 0.5-0.3 0.2-0.6 0.2z"/>
	</g>
	<path id="Layer" class="s3" d="m45.8 73.5h-5.8q-0.1 0-0.2-0.1-0.1 0-0.1-0.1-0.1 0-0.1-0.1 0-0.1 0-0.1 0-0.2 0.1-0.3 0.2-0.1 0.3-0.1h5.9q0.1 0 0.1 0 0.1 0 0.2 0.1 0 0 0 0.1 0.1 0.1 0.1 0.2-0.1 0.1-0.2 0.2-0.1 0.1-0.3 0.2z"/>
	<path id="Layer" class="s3" d="m44.2 75h-4.4q-0.1 0-0.1 0-0.1 0-0.2-0.1 0-0.1 0-0.1-0.1-0.1-0.1-0.2 0.1-0.2 0.2-0.3 0.1-0.1 0.3-0.1h4.4q0.1 0 0.1 0 0.1 0.1 0.1 0.1 0.1 0.1 0.1 0.2 0 0 0 0.1 0 0.2-0.1 0.3-0.1 0.1-0.3 0.1z"/>
	<g id="Layer" style="opacity: .3">
		<path id="Layer" class="s5" d="m45.8 73.5h-5.8q-0.1 0-0.2-0.1-0.1 0-0.1-0.1-0.1 0-0.1-0.1 0-0.1 0-0.1 0-0.2 0.1-0.3 0.2-0.1 0.3-0.1h5.9q0.1 0 0.1 0 0.1 0 0.2 0.1 0 0 0 0.1 0.1 0.1 0.1 0.2-0.1 0.1-0.2 0.2-0.1 0.1-0.3 0.2z"/>
	</g>
	<g id="Layer" style="opacity: .3">
		<path id="Layer" class="s5" d="m44.2 75h-4.4q-0.1 0-0.1 0-0.1 0-0.2-0.1 0-0.1 0-0.1-0.1-0.1-0.1-0.2 0.1-0.2 0.2-0.3 0.1-0.1 0.3-0.1h4.4q0.1 0 0.1 0 0.1 0.1 0.1 0.1 0.1 0.1 0.1 0.2 0 0 0 0.1 0 0.2-0.1 0.3-0.1 0.1-0.3 0.1z"/>
	</g>
	<path id="Layer" class="s4" d="m49.4 73.8q-0.2 0-0.3 0-0.2-0.1-0.3-0.2-0.1-0.1-0.1-0.3-0.1-0.1 0-0.3 0-0.3 0.2-0.5 0.3-0.2 0.6-0.2 0.2 0 0.3 0 0.1 0.1 0.3 0.2 0.1 0.1 0.1 0.3 0 0.1 0 0.2 0 0.4-0.2 0.6-0.3 0.2-0.6 0.2z"/>
	<path id="Layer" class="s3" d="m57.4 73.5h-5.8q-0.1 0-0.2-0.1-0.1 0-0.1-0.1-0.1 0-0.1-0.1 0-0.1 0-0.1 0-0.2 0.1-0.3 0.2-0.1 0.3-0.1h5.9q0.1 0 0.2 0 0 0 0.1 0.1 0 0 0.1 0.1 0 0.1 0 0.2-0.1 0.1-0.2 0.2-0.1 0.1-0.3 0.2z"/>
	<path id="Layer" class="s3" d="m55.8 75h-4.4q-0.1 0-0.1 0-0.1 0-0.2-0.1 0-0.1 0-0.1-0.1-0.1 0-0.2 0-0.1 0.1-0.3 0.1-0.1 0.3-0.1h4.4q0.1 0 0.1 0 0.1 0.1 0.2 0.1 0 0.1 0 0.2 0.1 0 0.1 0.1-0.1 0.2-0.2 0.3-0.1 0.1-0.3 0.1z"/>
	<g id="Layer" style="opacity: .3">
		<path id="Layer" class="s5" d="m57.4 73.5h-5.8q-0.1 0-0.2-0.1-0.1 0-0.1-0.1-0.1 0-0.1-0.1 0-0.1 0-0.1 0-0.2 0.1-0.3 0.2-0.1 0.3-0.1h5.9q0.1 0 0.2 0 0 0 0.1 0.1 0 0 0.1 0.1 0 0.1 0 0.2-0.1 0.1-0.2 0.2-0.1 0.1-0.3 0.2z"/>
	</g>
	<g id="Layer" style="opacity: .3">
		<path id="Layer" class="s5" d="m55.8 75h-4.4q-0.1 0-0.1 0-0.1 0-0.2-0.1 0-0.1 0-0.1-0.1-0.1 0-0.2 0-0.1 0.1-0.3 0.1-0.1 0.3-0.1h4.4q0.1 0 0.1 0 0.1 0.1 0.2 0.1 0 0.1 0 0.2 0.1 0 0.1 0.1-0.1 0.2-0.2 0.3-0.1 0.1-0.3 0.1z"/>
	</g>
	<path id="Layer" class="s4" d="m88.7 50.8h-18.4q-0.3 0-0.7-0.1-0.3-0.2-0.6-0.4-0.2-0.3-0.3-0.6-0.1-0.4-0.1-0.7l1-11.2c0-0.5 0.3-0.9 0.6-1.3 0.4-0.3 0.9-0.5 1.4-0.5h18.4q0.3-0.1 0.7 0.1 0.3 0.1 0.5 0.4 0.3 0.3 0.4 0.6 0.1 0.4 0.1 0.7l-1 11.2c-0.1 0.5-0.3 0.9-0.7 1.3-0.4 0.3-0.8 0.5-1.3 0.5z"/>
	<path id="Layer" class="s4" d="m78.2 42.7c0 0.9-0.5 1.7-1.2 2.4-0.6 0.6-1.5 0.9-2.4 1q-0.7 0-1.3-0.3-0.6-0.2-1.1-0.7-0.4-0.5-0.6-1.1-0.2-0.7-0.1-1.3c0.1-0.9 0.5-1.8 1.2-2.4 0.6-0.6 1.5-1 2.5-1q0.6 0 1.2 0.2 0.6 0.3 1.1 0.8 0.4 0.5 0.6 1.1 0.2 0.6 0.1 1.3z"/>
	<g id="Layer" style="opacity: .7">
		<path id="Layer" class="s5" d="m78.2 42.7c0 0.9-0.5 1.7-1.2 2.4-0.6 0.6-1.5 0.9-2.4 1q-0.7 0-1.3-0.3-0.6-0.2-1.1-0.7-0.4-0.5-0.6-1.1-0.2-0.7-0.1-1.3c0.1-0.9 0.5-1.8 1.2-2.4 0.6-0.6 1.5-1 2.5-1q0.6 0 1.2 0.2 0.6 0.3 1.1 0.8 0.4 0.5 0.6 1.1 0.2 0.6 0.1 1.3z"/>
	</g>
	<path id="Layer" class="s3" d="m75.9 42.1c-0.1 0.7-0.4 1.3-1.1 1.3-0.8 0-0.9-0.6-0.9-1.3 0.1-0.8 0.4-1.4 1.1-1.4 0.8 0 0.9 0.6 0.9 1.4z"/>
	<path id="Layer" class="s3" d="m74.7 43.8c-1.5 0-2.4 0.4-2.8 0.9q0.5 0.6 1.2 1 0.7 0.4 1.4 0.4 0.9 0 1.6-0.4 0.8-0.4 1.3-1c-0.3-0.5-1.1-0.9-2.7-0.9z"/>
	<path id="Layer" class="s5" d="m86.2 38.9h-5.5q-0.1 0-0.1 0-0.1-0.1-0.2-0.1 0-0.1-0.1-0.2 0-0.1 0-0.2 0-0.2 0.2-0.3 0.1-0.1 0.3-0.1h5.5q0.1 0 0.2 0 0.1 0 0.1 0.1 0.1 0.1 0.1 0.1 0.1 0.1 0 0.2 0 0.2-0.1 0.4-0.2 0.1-0.4 0.1z"/>
	<path id="Layer" class="s5" d="m87.7 42.3h-7.3q-0.1 0-0.1 0-0.1 0-0.2-0.1-0.1-0.1-0.1-0.2 0 0 0-0.1 0-0.2 0.2-0.4 0.1-0.1 0.3-0.1h7.3q0.1 0 0.2 0 0 0.1 0.1 0.1 0.1 0.1 0.1 0.2 0 0.1 0 0.2 0 0.2-0.2 0.3-0.1 0.1-0.3 0.1z"/>
	<path id="Layer" class="s5" d="m89 44h-8.7q-0.1 0-0.2 0-0.1 0-0.1-0.1-0.1-0.1-0.1-0.1-0.1-0.1-0.1-0.2 0.1-0.2 0.2-0.3 0.2-0.2 0.4-0.2h8.7q0.1 0 0.2 0.1 0.1 0 0.1 0.1 0.1 0 0.1 0.1 0 0.1 0 0.2 0 0.2-0.1 0.3-0.2 0.1-0.4 0.1z"/>
	<path id="Layer" class="s5" d="m88.3 45.8h-8.2q-0.1 0-0.2-0.1 0 0-0.1-0.1-0.1 0-0.1-0.1 0-0.1 0-0.2 0-0.2 0.2-0.3 0.1-0.2 0.3-0.2h8.2q0.1 0 0.1 0.1 0.1 0 0.2 0.1 0.1 0 0.1 0.1 0 0.1 0 0.2 0 0.2-0.2 0.3-0.1 0.2-0.3 0.2z"/>
	<path id="Layer" class="s5" d="m87.2 47.5h-7.2q-0.1 0-0.2 0-0.1-0.1-0.1-0.1-0.1-0.1-0.1-0.2-0.1-0.1 0-0.2 0-0.2 0.1-0.3 0.2-0.1 0.4-0.1h7.2q0.1 0 0.2 0 0.1 0 0.2 0.1 0 0.1 0 0.2 0.1 0 0.1 0.1-0.1 0.2-0.2 0.4-0.2 0.1-0.4 0.1z"/>
	<path id="Layer" class="s5" d="m88 49.2h-8.2q-0.1 0-0.1 0-0.1-0.1-0.2-0.1-0.1-0.1-0.1-0.2 0-0.1 0-0.1 0-0.2 0.2-0.4 0.1-0.1 0.3-0.1h8.2q0.1 0 0.1 0 0.1 0.1 0.2 0.1 0.1 0.1 0.1 0.2 0 0.1 0 0.2 0 0.1-0.2 0.3-0.1 0.1-0.3 0.1z"/>
	<path id="Layer" class="s4" d="m64.8 50.8h-31.5q-0.4 0.1-0.7-0.1-0.3-0.1-0.6-0.4-0.2-0.3-0.4-0.6-0.1-0.4 0-0.7l1.7-20c0.1-0.5 0.3-1 0.7-1.4 0.4-0.3 0.9-0.5 1.4-0.5h31.5q0.3 0 0.7 0.1 0.3 0.2 0.6 0.4 0.2 0.3 0.3 0.7 0.1 0.3 0.1 0.7l-1.7 20c-0.1 0.5-0.3 1-0.7 1.3-0.4 0.3-0.9 0.5-1.4 0.5z"/>
	<g id="Layer" style="opacity: .7">
		<path id="Layer" class="s5" d="m64.8 50.8h-31.5q-0.4 0.1-0.7-0.1-0.3-0.1-0.6-0.4-0.2-0.3-0.4-0.6-0.1-0.4 0-0.7l1.7-20c0.1-0.5 0.3-1 0.7-1.4 0.4-0.3 0.9-0.5 1.4-0.5h31.5q0.3 0 0.7 0.1 0.3 0.2 0.6 0.4 0.2 0.3 0.3 0.7 0.1 0.3 0.1 0.7l-1.7 20c-0.1 0.5-0.3 1-0.7 1.3-0.4 0.3-0.9 0.5-1.4 0.5z"/>
	</g>
	<path id="Layer" class="s4" d="m67.9 36.5c-0.6-2.2-1.5-4.4-2.9-4.4-2.7 0-4 4.2-5.3 8.6-1.3 3.8-2.5 7.8-4.4 7.8-2.5 0-3.2-4.9-3.8-9.7-0.8-5.3-1.5-10.4-4.6-10.4-3.2 0-4.8 5.1-6.4 10.4-1.5 4.8-3.1 9.7-5.5 9.7-1.2 0-2.3-3.4-2.8-6.4l-0.3 2.9c0.6 2.2 1.6 4.4 3 4.4 3.2 0 4.7-5.1 6.4-10.4 1.5-4.8 3-9.7 5.5-9.7 2.5 0 3.1 4.9 3.8 9.7 0.7 5.4 1.4 10.4 4.6 10.4 2.6 0 3.9-4.1 5.3-8.5 1.2-3.9 2.4-7.9 4.4-7.9 1.1 0 2.2 3.5 2.8 6.5z"/>
	<path id="Layer" class="s3" d="m47 30c-0.7 0-1.2-0.6-1.2-1.3 0-0.7 0.5-1.3 1.2-1.3 0.7 0 1.2 0.6 1.2 1.3 0 0.7-0.5 1.3-1.2 1.3z"/>
	<path id="Layer" class="s4" d="m47 29.3c-0.3 0-0.6-0.2-0.6-0.6 0-0.4 0.3-0.7 0.6-0.7 0.3 0 0.6 0.3 0.6 0.7 0 0.4-0.3 0.6-0.6 0.6z"/>
	<path id="Layer" class="s4" d="m49.7 23.3h-4.5q-0.3 0-0.6 0.2-0.2 0.3-0.3 0.6l-0.1 0.9q0 0.1 0.1 0.3 0 0.1 0.1 0.2 0.2 0.2 0.3 0.2 0.2 0.1 0.3 0.1h1.5l0.4 0.7q0.1 0 0.2 0.1 0 0 0.1 0 0.1 0 0.1 0 0.1-0.1 0.1-0.1l0.6-0.7h1.5q0.3 0 0.6-0.3 0.3-0.2 0.3-0.5l0.1-0.9q0-0.1-0.1-0.3 0-0.1-0.1-0.3-0.2-0.1-0.3-0.2-0.2 0-0.3 0z"/>
	<path id="Layer" class="s3" d="m49.3 24.4h-4q0 0-0.1 0 0-0.1-0.1-0.1 0 0 0-0.1 0 0 0-0.1 0 0 0.1-0.1 0-0.1 0.1-0.1h4.1q0 0 0 0.1 0.1 0 0.1 0 0 0 0 0.1 0.1 0 0.1 0.1-0.1 0-0.1 0.1-0.1 0.1-0.2 0.1z"/>
	<path id="Layer" class="s3" d="m47.1 25.2h-1.9q0 0 0-0.1-0.1 0-0.1 0 0 0-0.1-0.1 0 0 0-0.1 0-0.1 0.1-0.1 0.1-0.1 0.2-0.1h1.8q0.1 0 0.1 0 0 0 0.1 0.1 0 0 0 0.1 0 0 0 0 0 0.1-0.1 0.2 0 0.1-0.1 0.1z"/>
	<path id="Layer" class="s3" d="m55.1 49.7c-0.7 0-1.2-0.6-1.2-1.3 0-0.7 0.5-1.3 1.2-1.3 0.6 0 1.2 0.6 1.2 1.3 0 0.7-0.6 1.3-1.2 1.3z"/>
	<path id="Layer" class="s4" d="m55.7 48.4q0 0.3-0.2 0.4-0.2 0.2-0.5 0.2-0.1 0-0.2 0-0.1-0.1-0.2-0.1-0.1-0.1-0.2-0.3 0-0.1 0-0.2 0.1-0.3 0.2-0.4 0.2-0.2 0.5-0.2 0.1 0 0.2 0 0.2 0.1 0.3 0.1 0 0.1 0.1 0.3 0 0.1 0 0.2z"/>
	<path id="Layer" class="s3" d="m57.7 43h-4.4q-0.3 0-0.6 0.2-0.3 0.3-0.3 0.6l-0.1 0.8q0 0.2 0.1 0.4 0 0.1 0.1 0.3 0.1 0.1 0.3 0.1 0.1 0.1 0.3 0.1h1.5l0.4 0.7q0 0 0.1 0.1 0.1 0 0.2 0 0 0 0.1 0 0.1-0.1 0.1-0.1l0.6-0.7h1.4q0.4 0 0.6-0.2 0.3-0.3 0.3-0.7l0.1-0.8q0-0.1 0-0.3-0.1-0.1-0.2-0.3-0.1-0.1-0.2-0.1-0.2-0.1-0.4-0.1z"/>
	<path id="Layer" class="s5" d="m57.4 44.1h-4q0 0-0.1-0.1 0 0-0.1 0 0 0 0-0.1 0 0 0-0.1 0-0.1 0.1-0.1 0-0.1 0.1-0.1h4.1q0 0 0 0 0.1 0.1 0.1 0.1 0 0 0 0.1 0.1 0 0.1 0-0.1 0.1-0.1 0.2-0.1 0.1-0.2 0.1z"/>
	<path id="Layer" class="s5" d="m55.2 44.9h-1.9q0 0-0.1-0.1 0 0 0 0-0.1 0-0.1-0.1 0 0 0-0.1 0-0.1 0.1-0.1 0.1-0.1 0.1-0.1h1.9q0 0 0.1 0 0 0 0 0.1 0.1 0 0.1 0 0 0.1 0 0.1 0 0.1-0.1 0.2-0.1 0-0.1 0.1z"/>
	<path id="Layer" class="s3" d="m66.2 32.5c0 0.3-0.2 0.6-0.4 0.9-0.3 0.2-0.6 0.3-1 0.3q-0.2 0-0.4-0.1-0.3 0-0.4-0.2-0.2-0.2-0.3-0.5-0.1-0.2 0-0.4c0-0.4 0.2-0.7 0.4-0.9 0.3-0.3 0.6-0.4 0.9-0.4q0.3 0 0.5 0.1 0.3 0.1 0.4 0.3 0.2 0.1 0.3 0.4 0 0.2 0 0.5z"/>
	<path id="Layer" class="s4" d="m65.6 32.5q-0.1 0.2-0.2 0.4-0.2 0.2-0.5 0.2-0.1 0-0.2 0-0.2-0.1-0.3-0.2 0-0.1-0.1-0.2 0-0.1 0-0.2 0-0.3 0.2-0.5 0.2-0.1 0.5-0.2 0.1 0 0.2 0.1 0.1 0 0.2 0.1 0.1 0.1 0.2 0.2 0 0.2 0 0.3z"/>
	<path id="Layer" class="s4" d="m67.6 27.1h-4.4q-0.4 0-0.6 0.2-0.3 0.3-0.3 0.6l-0.1 0.8q0 0.2 0 0.4 0.1 0.1 0.2 0.2 0.1 0.2 0.3 0.2 0.1 0.1 0.3 0.1h1.5l0.4 0.7q0 0 0.1 0 0.1 0.1 0.2 0.1 0 0 0.1-0.1 0.1 0 0.1 0l0.6-0.7h1.4q0.4 0 0.6-0.3 0.3-0.2 0.3-0.6l0.1-0.8q0-0.1 0-0.3-0.1-0.1-0.2-0.3-0.1-0.1-0.2-0.2-0.2 0-0.4 0z"/>
	<path id="Layer" class="s3" d="m67.3 28.1h-4q-0.1 0-0.1 0-0.1 0-0.1 0 0 0 0-0.1 0 0 0-0.1 0-0.1 0-0.1 0.1-0.1 0.2-0.1h4q0.1 0 0.1 0 0 0 0.1 0.1 0 0 0 0 0 0.1 0 0.1 0 0.1-0.1 0.2 0 0-0.1 0z"/>
	<path id="Layer" class="s3" d="m65 29h-1.8q-0.1 0-0.1-0.1 0 0-0.1 0 0 0 0-0.1 0 0 0-0.1 0-0.1 0.1-0.1 0-0.1 0.1-0.1h1.9q0 0 0.1 0 0 0 0 0.1 0 0 0.1 0.1 0 0 0 0 0 0.1-0.1 0.2-0.1 0.1-0.2 0.1z"/>
	<path id="Layer" class="s3" d="m36.6 48.5c-0.1 0.4-0.2 0.7-0.5 0.9-0.2 0.3-0.6 0.4-0.9 0.4q-0.3 0-0.5-0.1-0.2-0.1-0.4-0.3-0.2-0.1-0.2-0.4-0.1-0.2-0.1-0.5c0.1-0.3 0.2-0.6 0.5-0.9 0.2-0.2 0.6-0.3 0.9-0.3q0.3 0 0.5 0.1 0.2 0.1 0.4 0.2 0.1 0.2 0.2 0.5 0.1 0.2 0.1 0.4z"/>
	<path id="Layer" class="s4" d="m35.9 48.5q0 0.3-0.2 0.5-0.2 0.2-0.5 0.2-0.1 0-0.2-0.1-0.1 0-0.2-0.1-0.1-0.1-0.1-0.2-0.1-0.1-0.1-0.3 0.1-0.2 0.3-0.4 0.2-0.2 0.4-0.2 0.2 0 0.3 0 0.1 0.1 0.2 0.2 0.1 0.1 0.1 0.2 0 0.1 0 0.2z"/>
	<path id="Layer" class="s3" d="m38 43.1h-4.5q-0.3 0-0.6 0.3-0.2 0.2-0.3 0.6l-0.1 0.8q0 0.2 0.1 0.3 0 0.2 0.1 0.3 0.2 0.1 0.3 0.2 0.2 0 0.3 0h1.5l0.4 0.7q0.1 0.1 0.1 0.1 0.1 0 0.2 0 0.1 0 0.1 0 0.1 0 0.1-0.1l0.6-0.7h1.5q0.3 0 0.6-0.2 0.3-0.3 0.3-0.6l0.1-0.8q0-0.2-0.1-0.3 0-0.2-0.1-0.3-0.2-0.1-0.3-0.2-0.2-0.1-0.3-0.1z"/>
	<path id="Layer" class="s5" d="m37.6 44.2h-4q0 0-0.1 0 0 0-0.1-0.1 0 0 0 0 0-0.1 0-0.1 0-0.1 0.1-0.2 0 0 0.1 0h4.1q0 0 0 0 0.1 0 0.1 0 0 0.1 0.1 0.1 0 0 0 0.1 0 0.1-0.1 0.1-0.1 0.1-0.2 0.1z"/>
	<path id="Layer" class="s5" d="m35.4 45h-1.9q0 0 0 0-0.1 0-0.1-0.1 0 0-0.1 0 0-0.1 0-0.1 0-0.1 0.1-0.2 0.1 0 0.2 0h1.8q0.1 0 0.1 0 0 0 0.1 0 0 0.1 0 0.1 0 0 0 0.1 0 0.1-0.1 0.1 0 0.1-0.1 0.1z"/>
</svg>