<svg width="88" height="76" viewBox="0 0 88 76" fill="none" xmlns="http://www.w3.org/2000/svg" xmlns:xlink="http://www.w3.org/1999/xlink">
<path d="M27.779,37.778C27.779,38.622 21.575,39.329 13.889,39.329C6.203,39.329 0,38.622 0,37.778C0,36.934 6.226,36.25 13.889,36.25C21.552,36.25 27.779,36.934 27.779,37.778Z" fill="#1C762D"/>
<path d="M42.528,0C43.372,0 44.056,6.295 44.056,14.095C44.056,21.895 43.372,28.189 42.528,28.189C41.684,28.189 41,21.872 41,14.095C41,6.317 41.684,0 42.528,0Z" fill="#1C762D"/>
<path d="M58.25,36.879C58.25,36.012 64.453,35.328 72.117,35.328C79.78,35.328 86.006,36.012 86.006,36.879C86.006,37.746 79.802,38.407 72.117,38.407C64.431,38.407 58.25,37.723 58.25,36.879Z" fill="#1C762D"/>
<path d="M43.512,74.658C42.669,74.658 41.984,68.341 41.984,60.563C41.984,52.786 42.669,46.469 43.512,46.469C44.356,46.469 45.04,52.786 45.04,60.563C45.04,68.341 44.356,74.658 43.512,74.658Z" fill="#1C762D"/>
<path d="M65.933,58.488C65.295,59.013 62.558,56.823 59.821,53.539C57.084,50.255 55.42,47.199 56.058,46.697C56.697,46.195 59.456,48.362 62.17,51.623C64.884,54.885 66.595,57.918 65.933,58.488Z" fill="#1C762D"/>
<path d="M64.634,15.597C65.25,16.19 63.426,18.995 60.598,21.846C57.77,24.697 54.987,26.544 54.394,25.951C53.801,25.358 55.603,22.553 58.431,19.68C61.259,16.806 64.041,15.004 64.634,15.597Z" fill="#1C762D"/>
<path d="M32.793,26.557C32.269,27.196 29.646,25.918 26.932,23.661C24.218,21.403 22.507,19.099 23.032,18.415C23.556,17.731 26.202,19.054 28.916,21.311C31.63,23.569 33.295,25.873 32.793,26.557Z" fill="#1C762D"/>
<path d="M31.581,45.392C32.196,45.985 30.623,48.722 28.045,51.55C25.468,54.378 22.891,56.111 22.275,55.61C21.66,55.108 23.21,52.303 25.788,49.475C28.365,46.646 31.033,44.799 31.581,45.392Z" fill="#1C762D"/>
</svg>
