<svg width="68" height="66" viewBox="0 0 68 66" fill="none" xmlns="http://www.w3.org/2000/svg" xmlns:xlink="http://www.w3.org/1999/xlink">
<path d="M23.586,9.97C21.504,9.429 19.303,9.498 17.261,10.169C15.219,10.84 13.428,12.082 12.115,13.74C10.802,15.397 10.025,17.395 9.883,19.48C9.741,21.565 10.24,23.645 11.317,25.455C12.394,27.265 14,28.726 15.933,29.651C17.866,30.577 20.039,30.926 22.176,30.654C24.314,30.383 26.321,29.503 27.943,28.126C29.565,26.75 30.729,24.938 31.289,22.919C32.035,20.212 31.643,17.329 30.2,14.901C28.756,12.474 26.377,10.7 23.586,9.97ZM30.907,22.815C30.154,25.389 28.385,27.573 25.984,28.894C23.583,30.214 20.742,30.566 18.076,29.872C15.41,29.178 13.133,27.495 11.737,25.186C10.341,22.877 9.939,20.128 10.617,17.534C10.959,16.227 11.566,14.998 12.402,13.919C13.238,12.84 14.287,11.934 15.488,11.251C16.689,10.569 18.018,10.125 19.397,9.945C20.777,9.765 22.179,9.852 23.524,10.202C24.868,10.552 26.127,11.157 27.228,11.983C28.329,12.809 29.25,13.838 29.937,15.011C30.624,16.185 31.063,17.479 31.23,18.819C31.396,20.158 31.286,21.516 30.907,22.815Z" fill="#FF5904"/>
<path d="M34.1,9.667L35.699,6.413C35.721,6.375 35.727,6.331 35.718,6.288C35.709,6.246 35.684,6.208 35.649,6.182L32.363,3.514C32.33,3.487 32.288,3.473 32.244,3.473C32.201,3.473 32.159,3.487 32.126,3.514L29.099,5.609C27.93,4.979 26.686,4.486 25.396,4.143L24.798,0.539C24.791,0.496 24.77,0.457 24.737,0.428C24.704,0.398 24.662,0.381 24.618,0.378L20.352,0.001C20.308,-0.003 20.264,0.007 20.226,0.029C20.188,0.052 20.159,0.086 20.143,0.127L18.897,3.57C17.58,3.71 16.285,3.996 15.035,4.422L12.347,1.789C12.313,1.763 12.272,1.75 12.229,1.75C12.186,1.75 12.144,1.763 12.11,1.789L8.399,3.884C8.359,3.905 8.328,3.939 8.311,3.98C8.293,4.02 8.292,4.066 8.305,4.108L9.343,7.677C7.605,9.152 6.194,10.953 5.193,12.971L1.309,12.915C1.266,12.915 1.225,12.929 1.191,12.954C1.157,12.979 1.133,13.015 1.122,13.055L0.005,17.071C-0.004,17.112 -0.001,17.155 0.016,17.193C0.033,17.232 0.062,17.265 0.099,17.287L3.514,19.138C3.427,20.379 3.485,21.625 3.687,22.854L0.445,24.991C0.41,25.016 0.384,25.051 0.372,25.092C0.361,25.132 0.363,25.175 0.38,25.214L1.821,29.118C1.834,29.16 1.863,29.196 1.901,29.219C1.939,29.242 1.985,29.251 2.03,29.244L5.942,28.86C6.598,29.924 7.377,30.913 8.262,31.807L6.857,35.362C6.842,35.403 6.841,35.448 6.854,35.489C6.867,35.531 6.893,35.567 6.929,35.593L10.438,37.974C10.474,37.999 10.517,38.013 10.561,38.013C10.605,38.013 10.647,37.999 10.683,37.974L13.644,35.495C14.486,35.859 15.356,36.161 16.245,36.396C16.577,36.48 16.916,36.557 17.312,36.633L18.27,40.3C18.281,40.341 18.305,40.377 18.339,40.404C18.372,40.43 18.414,40.445 18.457,40.447L22.744,40.447C22.789,40.45 22.833,40.437 22.868,40.412C22.904,40.386 22.929,40.349 22.939,40.307L23.89,36.689C25.168,36.451 26.415,36.076 27.608,35.572L30.49,37.995C30.524,38.021 30.566,38.035 30.609,38.035C30.652,38.035 30.694,38.021 30.728,37.995L34.244,35.6C34.28,35.576 34.306,35.54 34.318,35.499C34.33,35.459 34.327,35.415 34.309,35.376L32.983,31.94C33.915,31.024 34.733,30.004 35.418,28.902L39.194,29.244C39.238,29.248 39.283,29.238 39.32,29.216C39.358,29.193 39.387,29.159 39.403,29.118L40.844,25.214C40.849,25.18 40.843,25.145 40.828,25.114C40.812,25.083 40.788,25.057 40.757,25.04L37.688,22.986C37.907,21.708 37.973,20.41 37.882,19.117L41.182,17.301C41.22,17.282 41.25,17.25 41.267,17.212C41.285,17.174 41.288,17.132 41.276,17.092L40.166,13.11C40.157,13.068 40.132,13.03 40.096,13.003C40.061,12.977 40.017,12.963 39.972,12.964L36.276,12.964C35.683,11.788 34.953,10.681 34.1,9.667ZM40.851,17.008L37.637,18.768C37.605,18.788 37.578,18.816 37.561,18.849C37.543,18.882 37.535,18.919 37.537,18.956C37.642,20.3 37.575,21.652 37.335,22.979C37.327,23.015 37.331,23.052 37.345,23.085C37.359,23.119 37.383,23.148 37.414,23.168L40.469,25.2L39.107,28.832L35.397,28.469C35.358,28.465 35.319,28.473 35.285,28.49C35.25,28.507 35.221,28.534 35.202,28.567C34.495,29.709 33.648,30.764 32.68,31.71C32.652,31.735 32.631,31.767 32.621,31.803C32.611,31.839 32.611,31.877 32.623,31.912L33.948,35.327L30.699,37.555L27.817,35.146C27.786,35.126 27.75,35.115 27.712,35.115C27.675,35.115 27.639,35.126 27.608,35.146C26.368,35.679 25.067,36.065 23.732,36.298C23.694,36.305 23.66,36.321 23.632,36.346C23.604,36.371 23.583,36.403 23.573,36.438L22.651,40.049L18.666,40.049L17.723,36.41C17.711,36.376 17.692,36.344 17.665,36.319C17.639,36.293 17.607,36.274 17.571,36.263C17.18,36.2 16.793,36.116 16.411,36.012C15.5,35.774 14.611,35.463 13.752,35.083C13.722,35.063 13.685,35.052 13.648,35.052C13.611,35.052 13.574,35.063 13.544,35.083L10.589,37.541L7.326,35.327L8.723,31.793C8.734,31.759 8.736,31.722 8.728,31.687C8.721,31.651 8.704,31.618 8.68,31.591C7.751,30.662 6.938,29.631 6.259,28.518C6.239,28.487 6.212,28.463 6.179,28.447C6.146,28.431 6.109,28.424 6.072,28.427L2.174,28.811L0.819,25.186L4.054,23.091C4.085,23.07 4.109,23.041 4.124,23.008C4.139,22.975 4.145,22.938 4.141,22.902C3.919,21.625 3.858,20.325 3.961,19.033C3.964,18.997 3.956,18.96 3.938,18.928C3.92,18.896 3.893,18.869 3.86,18.852L0.466,17.015L1.504,13.285L5.359,13.334C5.396,13.336 5.433,13.327 5.465,13.308C5.497,13.29 5.523,13.262 5.539,13.229C6.537,11.18 7.965,9.356 9.732,7.872C9.76,7.847 9.78,7.815 9.79,7.779C9.8,7.743 9.8,7.705 9.79,7.67L8.759,4.122L12.211,2.194L14.848,4.806C14.873,4.834 14.907,4.854 14.944,4.864C14.981,4.873 15.02,4.873 15.057,4.862C16.347,4.409 17.69,4.113 19.055,3.982C19.093,3.98 19.129,3.966 19.158,3.944C19.188,3.921 19.21,3.891 19.221,3.856L20.468,0.434L24.43,0.776L25.043,4.324C25.051,4.36 25.069,4.393 25.094,4.42C25.119,4.447 25.151,4.467 25.187,4.478C26.535,4.815 27.834,5.312 29.056,5.959C29.088,5.979 29.126,5.99 29.164,5.99C29.203,5.99 29.24,5.979 29.272,5.959L32.27,3.863L35.317,6.343L33.711,9.618C33.692,9.649 33.682,9.684 33.682,9.72C33.682,9.755 33.692,9.79 33.711,9.821C34.596,10.868 35.348,12.015 35.951,13.236C35.966,13.269 35.99,13.298 36.02,13.317C36.051,13.337 36.087,13.348 36.124,13.348L39.806,13.348L40.851,17.008Z" fill="#353537" stroke="#000000" stroke-width="1" stroke-miterlimit="3.999327"/>
<path d="M60.128,38.548L61.764,36.159C61.793,36.123 61.809,36.079 61.809,36.033C61.809,35.988 61.793,35.943 61.764,35.908L58.363,33.114C58.325,33.084 58.278,33.067 58.23,33.067C58.181,33.067 58.134,33.084 58.096,33.114L55.935,35.091C54.982,34.581 53.971,34.18 52.923,33.896L52.844,31.005C52.844,30.957 52.825,30.911 52.792,30.876C52.759,30.841 52.713,30.82 52.664,30.816L48.225,30.439C48.176,30.433 48.126,30.445 48.086,30.474C48.045,30.503 48.018,30.545 48.009,30.593L47.404,33.449C46.335,33.566 45.284,33.801 44.27,34.148L42.461,31.78C42.434,31.742 42.393,31.715 42.347,31.704C42.301,31.692 42.252,31.697 42.209,31.717L38.347,33.875C38.306,33.9 38.276,33.939 38.262,33.984C38.249,34.029 38.253,34.078 38.275,34.12L39.493,36.851C38.071,38.068 36.913,39.547 36.085,41.202L33.008,40.762C32.96,40.756 32.911,40.767 32.871,40.793C32.83,40.818 32.799,40.857 32.785,40.901L31.632,45.092C31.619,45.137 31.624,45.186 31.645,45.228C31.666,45.27 31.703,45.304 31.747,45.323L34.629,46.447C34.563,47.452 34.609,48.462 34.766,49.457L31.935,50.826C31.89,50.846 31.855,50.881 31.836,50.926C31.817,50.97 31.816,51.019 31.834,51.063L33.361,55.136C33.376,55.18 33.409,55.218 33.452,55.24C33.495,55.262 33.545,55.267 33.592,55.254L36.661,54.556C37.194,55.419 37.825,56.223 38.542,56.951L37.043,59.633C37.021,59.675 37.015,59.723 37.025,59.769C37.036,59.815 37.062,59.856 37.101,59.885L40.754,62.371C40.794,62.398 40.842,62.409 40.89,62.402C40.938,62.396 40.982,62.372 41.013,62.336L43.095,60.059C43.794,60.36 44.517,60.605 45.257,60.793C45.516,60.862 45.79,60.925 46.107,60.988L46.467,63.992C46.471,64.039 46.493,64.084 46.529,64.116C46.565,64.148 46.613,64.166 46.662,64.166L51.122,64.166C51.171,64.165 51.219,64.147 51.256,64.115C51.293,64.083 51.317,64.039 51.324,63.992L51.677,61.023C52.719,60.832 53.736,60.529 54.71,60.122L56.742,62.343C56.774,62.38 56.819,62.403 56.868,62.41C56.917,62.416 56.967,62.405 57.008,62.378L60.661,59.899C60.7,59.872 60.728,59.833 60.74,59.788C60.752,59.743 60.747,59.696 60.726,59.654L59.285,57.07C60.041,56.327 60.705,55.502 61.267,54.612L64.192,55.31C64.239,55.321 64.288,55.316 64.331,55.294C64.373,55.272 64.406,55.235 64.422,55.191L65.928,51.127C65.951,51.101 65.966,51.07 65.972,51.036C65.977,51.003 65.973,50.968 65.96,50.937C65.946,50.906 65.924,50.879 65.896,50.859C65.867,50.84 65.833,50.828 65.799,50.826L63.133,49.527C63.308,48.486 63.361,47.43 63.291,46.377L66.051,45.323C66.096,45.305 66.134,45.272 66.155,45.229C66.176,45.186 66.18,45.137 66.166,45.092L65.02,40.901C65.006,40.857 64.975,40.818 64.935,40.793C64.894,40.767 64.845,40.756 64.797,40.762L61.872,41.181C61.394,40.243 60.809,39.36 60.128,38.548ZM65.77,45.057L63.039,46.098C63,46.114 62.967,46.141 62.945,46.176C62.923,46.211 62.913,46.252 62.917,46.293C63.002,47.409 62.946,48.53 62.751,49.632C62.741,49.673 62.746,49.715 62.764,49.753C62.783,49.791 62.813,49.822 62.852,49.841L65.489,51.12L64.048,54.856L61.166,54.158C61.125,54.147 61.083,54.15 61.044,54.167C61.006,54.183 60.975,54.212 60.957,54.248C60.369,55.198 59.663,56.073 58.853,56.853C58.828,56.886 58.815,56.925 58.815,56.965C58.815,57.005 58.828,57.045 58.853,57.077L60.294,59.654L56.886,62.001L54.876,59.801C54.849,59.768 54.813,59.744 54.771,59.733C54.73,59.722 54.685,59.723 54.645,59.738C53.618,60.184 52.539,60.507 51.432,60.702C51.389,60.709 51.35,60.729 51.32,60.759C51.29,60.79 51.271,60.828 51.266,60.87L50.913,63.81L46.813,63.81L46.46,60.834C46.454,60.794 46.436,60.757 46.407,60.727C46.379,60.697 46.342,60.676 46.302,60.667C45.976,60.616 45.653,60.546 45.336,60.457C44.58,60.261 43.843,60.004 43.131,59.689C43.093,59.671 43.05,59.665 43.009,59.673C42.967,59.68 42.929,59.701 42.901,59.731L40.84,61.98L37.483,59.696L38.974,57.042C38.999,57.01 39.012,56.97 39.012,56.93C39.012,56.89 38.999,56.851 38.974,56.819C38.204,56.048 37.529,55.192 36.964,54.269C36.944,54.233 36.912,54.204 36.872,54.187C36.833,54.17 36.789,54.168 36.748,54.179L33.714,54.877L32.309,51.141L35.098,49.785C35.135,49.767 35.166,49.737 35.185,49.701C35.205,49.665 35.212,49.623 35.206,49.583C35.019,48.522 34.968,47.443 35.054,46.37C35.058,46.329 35.047,46.288 35.024,46.254C35,46.22 34.965,46.194 34.925,46.182L32.043,45.064L33.102,41.244L36.157,41.677C36.199,41.681 36.242,41.673 36.279,41.653C36.317,41.633 36.347,41.602 36.366,41.565C37.189,39.863 38.375,38.349 39.846,37.123C39.882,37.089 39.904,37.042 39.907,36.993C39.909,36.944 39.893,36.895 39.86,36.858L38.657,34.162L42.195,32.164L43.989,34.504C44.016,34.534 44.051,34.556 44.091,34.566C44.131,34.576 44.173,34.574 44.212,34.56C45.288,34.195 46.406,33.961 47.541,33.861C47.583,33.857 47.623,33.84 47.654,33.813C47.685,33.785 47.706,33.748 47.714,33.708L48.312,30.914L52.404,31.256L52.484,34.12C52.484,34.161 52.498,34.201 52.524,34.234C52.55,34.267 52.586,34.291 52.628,34.301C53.742,34.596 54.814,35.023 55.82,35.572C55.853,35.596 55.893,35.609 55.935,35.609C55.976,35.609 56.017,35.596 56.05,35.572L58.212,33.617L61.36,36.173L59.739,38.548C59.715,38.582 59.702,38.622 59.702,38.663C59.702,38.704 59.715,38.744 59.739,38.778C60.478,39.631 61.104,40.57 61.605,41.572C61.624,41.609 61.654,41.64 61.692,41.66C61.729,41.68 61.772,41.688 61.814,41.684L64.696,41.265L65.77,45.057Z" fill="#FF5904"/>
<path d="M51.336,38.802C49.597,38.349 47.76,38.407 46.056,38.966C44.351,39.526 42.856,40.563 41.759,41.946C40.663,43.329 40.014,44.997 39.895,46.737C39.776,48.478 40.192,50.214 41.09,51.725C41.989,53.237 43.329,54.456 44.943,55.229C46.556,56.002 48.37,56.294 50.154,56.068C51.939,55.842 53.614,55.108 54.968,53.959C56.322,52.81 57.295,51.298 57.762,49.614C58.386,47.354 58.059,44.947 56.855,42.92C55.65,40.893 53.665,39.412 51.336,38.802ZM57.381,49.523C57.138,50.648 56.66,51.712 55.978,52.652C55.296,53.592 54.422,54.387 53.412,54.988C52.402,55.589 51.275,55.984 50.102,56.149C48.929,56.313 47.733,56.244 46.589,55.945C45.444,55.646 44.374,55.124 43.445,54.41C42.516,53.696 41.747,52.807 41.185,51.795C40.623,50.783 40.28,49.67 40.177,48.526C40.074,47.381 40.213,46.228 40.585,45.137C41.186,42.979 42.646,41.14 44.643,40.023C46.641,38.906 49.014,38.603 51.242,39.179C53.47,39.763 55.368,41.18 56.519,43.12C57.67,45.059 57.98,47.362 57.381,49.523Z" fill="#353537"/>
<path d="M20.326,48.678L19.648,46.22C19.646,46.207 19.641,46.194 19.633,46.183C19.625,46.172 19.616,46.163 19.604,46.156C19.593,46.149 19.58,46.144 19.566,46.142C19.553,46.139 19.539,46.14 19.526,46.143L17.804,46.387C17.521,45.829 17.172,45.304 16.766,44.823L17.732,43.426C17.749,43.404 17.759,43.377 17.759,43.349C17.759,43.321 17.749,43.294 17.732,43.272L15.729,41.645C15.709,41.626 15.681,41.615 15.653,41.615C15.625,41.615 15.598,41.626 15.578,41.645L14.309,42.804C13.748,42.507 13.153,42.273 12.537,42.106L12.479,40.36C12.479,40.333 12.469,40.308 12.45,40.288C12.432,40.269 12.406,40.257 12.378,40.255L9.763,40.032C9.735,40.029 9.706,40.037 9.684,40.054C9.661,40.071 9.646,40.095 9.641,40.122L9.28,41.799C8.654,41.869 8.037,42.007 7.443,42.211L6.377,40.814C6.362,40.79 6.338,40.772 6.309,40.764C6.281,40.756 6.251,40.759 6.225,40.772L3.956,42.043C3.938,42.062 3.928,42.087 3.928,42.113C3.928,42.139 3.938,42.164 3.956,42.183L4.676,43.789C3.839,44.503 3.158,45.372 2.673,46.345L0.865,46.094C0.837,46.091 0.81,46.097 0.786,46.111C0.763,46.124 0.745,46.146 0.735,46.171L0.05,48.629C0.043,48.656 0.047,48.685 0.06,48.709C0.073,48.734 0.096,48.752 0.123,48.762L1.83,49.425C1.794,50.018 1.823,50.613 1.917,51.199L0.259,51.996C0.234,52.008 0.213,52.029 0.203,52.055C0.192,52.081 0.192,52.109 0.202,52.135L1.095,54.531C1.105,54.557 1.124,54.579 1.15,54.591C1.175,54.604 1.204,54.608 1.232,54.601L3.041,54.189C3.354,54.692 3.724,55.161 4.143,55.586L3.264,57.164C3.25,57.188 3.246,57.217 3.253,57.244C3.259,57.271 3.276,57.295 3.3,57.311L5.462,58.77C5.482,58.79 5.509,58.8 5.537,58.8C5.565,58.8 5.593,58.79 5.613,58.77L6.838,57.429C7.244,57.605 7.663,57.75 8.091,57.862C8.243,57.897 8.401,57.939 8.596,57.974L8.805,59.741C8.807,59.77 8.819,59.796 8.841,59.816C8.862,59.835 8.891,59.846 8.92,59.846L11.543,59.846C11.571,59.846 11.598,59.836 11.619,59.818C11.641,59.8 11.654,59.775 11.658,59.748L11.867,58.002C12.479,57.887 13.075,57.706 13.647,57.464L14.843,58.777C14.865,58.794 14.893,58.804 14.922,58.804C14.951,58.804 14.978,58.794 15.001,58.777L17.163,57.318C17.185,57.301 17.202,57.278 17.21,57.251C17.218,57.225 17.216,57.197 17.206,57.171L16.269,55.725C16.709,55.286 17.098,54.801 17.429,54.28L19.151,54.678C19.179,54.683 19.208,54.679 19.233,54.666C19.257,54.654 19.277,54.633 19.288,54.608L20.174,52.219C20.184,52.192 20.183,52.163 20.17,52.137C20.158,52.111 20.137,52.09 20.109,52.079L18.539,51.318C18.646,50.707 18.677,50.086 18.633,49.467L20.261,48.846C20.28,48.845 20.299,48.838 20.315,48.827C20.331,48.816 20.343,48.8 20.35,48.782C20.357,48.765 20.358,48.745 20.354,48.727C20.349,48.708 20.34,48.691 20.326,48.678ZM18.481,49.258C18.457,49.267 18.437,49.284 18.424,49.305C18.411,49.327 18.406,49.352 18.409,49.377C18.459,50.032 18.425,50.691 18.308,51.339C18.303,51.363 18.307,51.388 18.318,51.41C18.33,51.432 18.35,51.449 18.373,51.458L19.922,52.212L19.094,54.412L17.386,54.014C17.361,54.01 17.336,54.013 17.313,54.023C17.29,54.033 17.27,54.049 17.256,54.07C16.912,54.629 16.498,55.145 16.024,55.607C16.011,55.626 16.003,55.649 16.003,55.673C16.003,55.697 16.011,55.72 16.024,55.739L16.86,57.248L14.886,58.589L13.697,57.297C13.684,57.276 13.663,57.262 13.639,57.255C13.615,57.249 13.59,57.251 13.567,57.262C12.96,57.52 12.324,57.71 11.672,57.828C11.648,57.832 11.626,57.844 11.609,57.861C11.592,57.879 11.581,57.901 11.579,57.925L11.37,59.65L8.963,59.65L8.754,57.897C8.751,57.874 8.74,57.852 8.723,57.835C8.706,57.817 8.685,57.805 8.661,57.8C8.468,57.772 8.278,57.733 8.091,57.681C7.648,57.562 7.214,57.41 6.794,57.227C6.775,57.213 6.751,57.205 6.726,57.205C6.701,57.205 6.677,57.213 6.658,57.227L5.447,58.547L3.473,57.206L4.352,55.641C4.366,55.622 4.373,55.599 4.373,55.575C4.373,55.551 4.366,55.528 4.352,55.509C3.898,55.057 3.504,54.552 3.178,54.007C3.164,53.986 3.145,53.97 3.121,53.962C3.098,53.953 3.072,53.952 3.048,53.958L1.261,54.37L0.396,52.233L2.032,51.437C2.054,51.426 2.072,51.409 2.083,51.387C2.095,51.366 2.1,51.342 2.097,51.318C1.99,50.695 1.959,50.062 2.003,49.432C2.008,49.408 2.003,49.384 1.989,49.363C1.976,49.342 1.955,49.327 1.931,49.321L0.238,48.664L0.857,46.415L2.659,46.667C2.683,46.671 2.707,46.668 2.728,46.656C2.75,46.645 2.766,46.626 2.774,46.604C3.263,45.604 3.963,44.714 4.827,43.992C4.846,43.975 4.859,43.954 4.866,43.931C4.872,43.907 4.871,43.882 4.864,43.859L4.143,42.274L6.225,41.1L7.277,42.497C7.295,42.514 7.317,42.527 7.341,42.533C7.365,42.539 7.39,42.539 7.414,42.532C8.044,42.311 8.7,42.165 9.367,42.099C9.392,42.098 9.416,42.088 9.434,42.071C9.452,42.055 9.464,42.032 9.468,42.008L9.821,40.346L12.227,40.555L12.278,42.239C12.277,42.262 12.284,42.285 12.298,42.304C12.313,42.323 12.333,42.337 12.357,42.343C13.015,42.512 13.647,42.763 14.237,43.091C14.258,43.104 14.281,43.111 14.306,43.111C14.33,43.111 14.354,43.104 14.374,43.091L15.628,41.945L17.472,43.447L16.521,44.844C16.509,44.864 16.502,44.887 16.502,44.91C16.502,44.934 16.509,44.957 16.521,44.976C16.96,45.486 17.33,46.047 17.624,46.646C17.635,46.667 17.653,46.684 17.675,46.696C17.697,46.707 17.722,46.711 17.746,46.709L19.447,46.464L20.073,48.72L18.481,49.258Z" fill="#FF5904"/>
<path d="M11.601,44.959C10.578,44.693 9.497,44.726 8.494,45.056C7.491,45.385 6.612,45.996 5.967,46.81C5.322,47.624 4.941,48.605 4.871,49.629C4.801,50.653 5.047,51.675 5.576,52.564C6.105,53.453 6.894,54.17 7.844,54.624C8.793,55.078 9.86,55.249 10.91,55.116C11.96,54.982 12.946,54.549 13.742,53.873C14.538,53.196 15.109,52.306 15.384,51.314C15.749,49.985 15.556,48.57 14.847,47.379C14.138,46.187 12.971,45.317 11.601,44.959ZM15.16,51.245C14.746,52.443 13.876,53.443 12.727,54.041C11.578,54.639 10.238,54.79 8.978,54.463C7.719,54.136 6.636,53.356 5.949,52.282C5.262,51.208 5.024,49.92 5.282,48.681C5.638,47.414 6.497,46.335 7.672,45.68C8.847,45.026 10.242,44.849 11.55,45.189C12.859,45.531 13.973,46.362 14.65,47.5C15.327,48.638 15.51,49.99 15.16,51.259L15.16,51.245Z" fill="#353537"/>
</svg>
