<svg width="80" height="124" viewBox="0 0 80 124" fill="none" xmlns="http://www.w3.org/2000/svg" xmlns:xlink="http://www.w3.org/1999/xlink">
<path d="M48.829,2.962C29.38,-1.357 8.015,9.197 2.552,29.247C-2.71,48.495 10.017,70.976 29.323,76.21C38.845,78.492 48.874,77.205 57.512,72.594C66.15,67.982 72.798,60.366 76.201,51.184C83.122,30.62 69.937,8.454 50.031,1.904C47.743,1.132 46.827,4.764 49.058,5.508C66.019,11.714 78.203,30.019 73.112,48.41C68.307,65.856 47.857,77.526 30.41,72.892C13.621,68.431 2.781,50.412 4.926,33.623C7.529,13.058 29.295,0.76 48.658,4.106C49.373,4.106 49.687,3.162 48.972,3.019L48.829,2.962Z" fill="#353537"/>
<path d="M29.488,75.615C39.349,78.526 49.958,77.462 59.044,72.651C68.131,67.841 74.974,59.665 78.11,49.874C84.174,28.995 70.645,6.4 50.31,0.193C45.619,-1.237 43.932,5.685 48.308,7.401C65.469,14.151 76.909,32.827 70.159,51.161C64.096,67.463 46.248,75.329 29.688,73.47C28.373,73.298 28.201,75.357 29.402,75.701L29.488,75.615Z" fill="#FF5904"/>
<path d="M79.054,109.822C79.054,110.222 61.378,110.565 39.527,110.565C17.676,110.565 0,110.222 0,109.822C0,109.421 17.704,109.078 39.527,109.078C61.35,109.078 79.054,109.421 79.054,109.822Z" fill="#FF5904"/>
<path d="M79.054,121.806C79.054,122.235 61.378,122.55 39.527,122.55C17.676,122.55 0,122.235 0,121.806C0,121.377 17.704,121.063 39.527,121.063C61.35,121.063 79.054,121.406 79.054,121.806Z" fill="#FF5904"/>
</svg>
