<svg width="122" height="98" viewBox="0 0 122 98" fill="none" xmlns="http://www.w3.org/2000/svg" xmlns:xlink="http://www.w3.org/1999/xlink">
<line x1="6.109" y1="83.234" x2="117.197" y2="83.234" stroke="#353537" stroke-width="1" stroke-miterlimit="3.999327" stroke-linecap="round" stroke-linejoin="round"/>
<line x1="6.109" y1="95.984" x2="117.197" y2="95.984" stroke="#353537" stroke-width="1" stroke-miterlimit="3.999327" stroke-linecap="round" stroke-linejoin="round"/>
<path d="M108.208,24.732C100.781,14.519 90.312,6.919 78.302,3.018C66.291,-0.882 53.354,-0.881 41.344,3.02C29.333,6.921 18.865,14.523 11.439,24.736C4.012,34.95 0.008,47.251 0,59.88L119.65,59.88C119.827,47.221 115.803,34.861 108.208,24.732Z" fill="#FF5904"/>
<path d="M59.828,59.897L59.534,59.493C59.359,59.62 59.286,59.846 59.353,60.052C59.42,60.258 59.612,60.397 59.828,60.397L59.828,59.897ZM108.174,24.75L108.574,24.45C108.411,24.231 108.101,24.185 107.88,24.346L108.174,24.75ZM119.578,59.897L119.578,60.397C119.852,60.397 120.074,60.178 120.078,59.905L119.578,59.897ZM60.122,60.302L108.468,25.154L107.88,24.346L59.534,59.493L60.122,60.302ZM107.774,25.05C115.29,35.094 119.265,47.346 119.078,59.89L120.078,59.905C120.268,47.14 116.223,34.672 108.574,24.45L107.774,25.05ZM119.578,59.397L59.828,59.397L59.828,60.397L119.578,60.397L119.578,59.397Z" fill="#FFFFFF"/>
<path d="M59.83,59.891L59.355,60.046C59.422,60.252 59.614,60.391 59.83,60.391C60.047,60.391 60.239,60.252 60.306,60.046L59.83,59.891ZM41.359,3.058L41.198,2.584C40.939,2.672 40.799,2.952 40.884,3.212L41.359,3.058ZM78.301,3.058L78.777,3.212C78.861,2.952 78.721,2.672 78.462,2.584L78.301,3.058ZM60.306,59.737L41.835,2.903L40.884,3.212L59.355,60.046L60.306,59.737ZM41.52,3.531C53.393,-0.51 66.268,-0.51 78.14,3.531L78.462,2.584C66.381,-1.528 53.279,-1.528 41.198,2.584L41.52,3.531ZM77.826,2.903L59.355,59.737L60.306,60.046L78.777,3.212L77.826,2.903Z" fill="#FFFFFF"/>
<path d="M59.83,59.897L59.83,60.397C60.047,60.397 60.239,60.258 60.306,60.052C60.373,59.846 60.299,59.62 60.124,59.493L59.83,59.897ZM0.005,59.897L-0.494,59.904C-0.491,60.177 -0.268,60.397 0.005,60.397L0.005,59.897ZM11.447,24.75L11.741,24.345C11.52,24.185 11.211,24.231 11.047,24.45L11.447,24.75ZM59.83,59.397L0.005,59.397L0.005,60.397L59.83,60.397L59.83,59.397ZM0.505,59.89C0.332,47.343 4.321,35.091 11.847,25.05L11.047,24.45C3.388,34.668 -0.671,47.135 -0.494,59.904L0.505,59.89ZM11.153,25.155L59.536,60.302L60.124,59.493L11.741,24.345L11.153,25.155Z" fill="#FFFFFF"/>
<path d="M67.086,59.885C67.093,58.447 66.673,57.039 65.879,55.841C65.084,54.642 63.952,53.707 62.625,53.153C61.298,52.599 59.836,52.453 58.426,52.731C57.015,53.01 55.719,53.702 54.703,54.718C53.686,55.735 52.994,57.031 52.716,58.442C52.437,59.852 52.584,61.314 53.137,62.641C53.691,63.968 54.627,65.1 55.825,65.894C57.024,66.689 58.431,67.109 59.869,67.101C60.818,67.106 61.759,66.923 62.637,66.562C63.514,66.201 64.312,65.67 64.983,64.999C65.654,64.327 66.185,63.53 66.546,62.652C66.907,61.774 67.09,60.834 67.086,59.885Z" fill="#353537"/>
<path d="M59.051,59.326C58.738,59.781 58.854,60.404 59.309,60.717C59.764,61.029 60.387,60.913 60.699,60.458L59.051,59.326ZM85.265,24.675C85.577,24.22 85.462,23.598 85.006,23.285C84.551,22.972 83.929,23.088 83.616,23.543L85.265,24.675ZM60.699,60.458L85.265,24.675L83.616,23.543L59.051,59.326L60.699,60.458Z" fill="#353537"/>
</svg>
