<svg version="1.2" xmlns="http://www.w3.org/2000/svg" viewBox="0 0 85 85" width="85" height="85">
	<title>group_6431_x2-svg</title>
	<style>
		.s0 { fill: #f4f4f4;stroke: #001003;stroke-miterlimit:3.999327;stroke-width: .4 } 
		.s1 { fill: #ff5904 } 
		.s2 { fill: #ff8b7b } 
		.s3 { fill: #263238 } 
		.s4 { fill: #353537 } 
		.s5 { fill: #f4f4f4 } 
		.s6 { fill: #ff5652 } 
	</style>
	<path id="Layer" class="s0" d="m42.5 85c-23.5 0-42.5-19-42.5-42.5 0-23.5 19-42.5 42.5-42.5 23.5 0 42.5 19 42.5 42.5 0 23.5-19 42.5-42.5 42.5z"/>
	<g id="Layer" style="opacity: .2">
		<path id="Layer" class="s1" d="m62.2 70.9l-11.7-21.5-11.7 21.5z"/>
		<path id="Layer" class="s1" d="m62.2 34.4l-11.7 21.6-11.7-21.6z"/>
	</g>
	<path id="Layer" class="s1" d="m52.6 47.2l-1.7 3.1q0 0.1-0.2 0.2-0.1 0.1-0.2 0.1-0.1 0-0.3-0.1-0.1-0.1-0.1-0.2l-1.7-3.1q-0.3-0.5-0.3-1 0-0.4 0.3-0.9 0.3-0.4 0.7-0.6 0.4-0.3 0.9-0.3h1q0.5 0 0.9 0.3 0.4 0.2 0.7 0.6 0.2 0.5 0.3 0.9 0 0.5-0.3 1z"/>
	<path id="Layer" class="s1" d="m50.7 65.5l5.3 2.2q0.1 0 0.2 0.2 0.1 0.2 0.1 0.3-0.1 0.2-0.2 0.3-0.1 0.1-0.3 0.1h-10.6q-0.2 0-0.3-0.1-0.1-0.1-0.2-0.3 0-0.1 0.1-0.3 0.1-0.2 0.2-0.2l5.3-2.2q0.1 0 0.2 0 0.1 0 0.2 0z"/>
	<path id="Layer" class="s1" d="m50.5 61.3c-0.4 0-0.7-0.3-0.7-0.6 0-0.4 0.3-0.7 0.7-0.7 0.4 0 0.7 0.3 0.7 0.7 0 0.3-0.3 0.6-0.7 0.6z"/>
	<path id="Layer" class="s1" d="m50.5 53.9c0.2 0 0.3-0.1 0.3-0.3 0-0.2-0.1-0.4-0.3-0.4-0.2 0-0.4 0.2-0.4 0.4 0 0.2 0.2 0.3 0.4 0.3z"/>
	<path id="Layer" class="s1" d="m50.5 57.3c0.2 0 0.4-0.1 0.4-0.4 0-0.2-0.2-0.4-0.4-0.4-0.2 0-0.4 0.2-0.4 0.4 0 0.3 0.2 0.4 0.4 0.4z"/>
	<path id="Layer" class="s1" d="m62.1 69.9h-23.2c-0.3 0-0.6 0.1-0.8 0.3-0.2 0.2-0.3 0.5-0.3 0.7 0 0.3 0.1 0.6 0.3 0.8q0.3 0.3 0.8 0.3h23.2q0.4 0 0.8-0.3 0.3-0.3 0.3-0.8c0-0.2-0.1-0.5-0.3-0.7-0.2-0.2-0.5-0.3-0.8-0.3z"/>
	<path id="Layer" class="s1" d="m62.1 33.4h-23.2c-0.3 0-0.6 0.1-0.8 0.3-0.2 0.2-0.3 0.5-0.3 0.7 0 0.3 0.1 0.6 0.3 0.8q0.3 0.3 0.8 0.3h23.2q0.4 0 0.8-0.3 0.3-0.3 0.3-0.8c0-0.2-0.1-0.5-0.3-0.7-0.2-0.2-0.5-0.3-0.8-0.3z"/>
	<path id="Layer" class="s2" d="m31.7 70.5l-1.3-0.4 0.8-3 1.3 0.4z"/>
	<path id="Layer" class="s3" d="m30.4 70l1.5 0.4q0 0 0 0.1 0 0 0 0l-0.3 1.2q0 0.1-0.1 0.2-0.1 0-0.2 0c-0.5-0.2-0.7-0.3-1.3-0.5-0.4-0.1-1.7-0.5-2.3-0.7-0.5-0.1-0.3-0.7-0.1-0.6 1.1 0.1 2.1 0 2.6-0.1q0.1-0.1 0.2 0z"/>
	<g id="Layer" style="opacity: .2">
		<path id="Layer" class="s4" d="m32.5 67.5l-1.3-0.4-0.4 1.5 1.3 0.5z"/>
	</g>
	<path id="Layer" class="s1" d="m36.1 36.7c0 0-2.4 10.7-2.9 14.5-0.6 4.3-2.8 16.9-2.8 16.9l2.4 0.7c0 0 3.3-12.3 4.3-16.4 1-4.5 3.8-15.8 3.8-15.8z"/>
	<g id="Layer" style="opacity: .3">
		<path id="Layer" class="s4" d="m38.9 40.2c-0.9 2-1.4 6.6-1 8.6 0.7-2.6 1.4-5.8 2-8.2-0.2-0.7-0.5-1.5-1-0.4z"/>
	</g>
	<path id="Layer" class="s3" d="m32.8 68.9l-2.6-0.8 0.1-1 2.9 1z"/>
	<path id="Layer" fill-rule="evenodd" class="s3" d="m29.7 69.9q-0.1-0.1-0.1-0.1 0.1-0.1 0.1-0.1 0 0 0 0 0-0.1 0.1-0.1c0.2 0 0.4 0.4 0.5 0.4q0 0 0 0.1 0 0 0 0 0 0 0 0 0 0-0.1 0-0.1 0-0.3-0.1-0.2 0-0.2-0.1zm0.5 0.1c-0.1-0.1-0.3-0.3-0.4-0.3q0 0-0.1 0 0 0 0 0 0 0.1 0 0.1 0 0 0 0.1 0.1 0.1 0.5 0.1z"/>
	<path id="Layer" fill-rule="evenodd" class="s3" d="m30.2 70.1c-0.1-0.1-0.2-0.5-0.1-0.6q0 0 0-0.1 0.1 0 0.1 0 0.1 0 0.1 0.1 0 0 0 0c0.1 0.2 0 0.6 0 0.6q0 0 0 0 0 0-0.1 0zm0-0.6q0 0 0 0-0.1 0.3 0.1 0.5 0-0.2 0-0.4 0 0 0-0.1 0 0-0.1 0z"/>
	<path id="Layer" class="s3" d="m38.5 26.5q-0.1 0.2-0.2 0.4-0.1 0.2-0.2 0.4-0.2 0.4-0.4 0.8-0.4 0.8-1 1.5-0.5 0.7-1.2 1.4-0.7 0.7-1.6 1.1v0.1q-0.2 0-0.3 0-0.6 0.2-1.2 0-0.5-0.2-1-0.4-0.7-0.6-1.3-1.2-0.6-0.7-1-1.4-0.4-0.7-0.7-1.4-0.1-0.2-0.1-0.4 0.1-0.3 0.3-0.4 0.2-0.1 0.4 0 0.2 0 0.4 0.2 0.4 0.5 0.9 1.1 0.5 0.5 1.1 1 0.4 0.4 1 0.7 0.2 0.1 0.5 0.2 0.1 0 0.2 0l-0.3 0.1q0.6-0.4 1.1-0.9 0.5-0.6 0.9-1.2 0.4-0.6 0.8-1.3 0.2-0.4 0.4-0.7l0.2-0.4q0.1-0.1 0.1-0.3c0.2-0.3 0.4-0.5 0.7-0.6 0.3-0.1 0.6-0.1 0.9 0 0.3 0.1 0.5 0.4 0.6 0.7 0.1 0.3 0.1 0.6 0 0.9z"/>
	<g id="Layer" style="opacity: .3">
		<path id="Layer" class="s4" d="m35.5 29c0.6-1.6 1.8-1.6 2.4-1.2q-0.1 0.1-0.2 0.2-0.4 0.8-0.9 1.5-0.5 0.7-1.2 1.3-0.2 0.2-0.4 0.4 0-1.2 0.3-2.2z"/>
	</g>
	<path id="Layer" class="s2" d="m28.3 27.9h-1.2l0.3-1.3q0.6 0.1 1.2 0.2 0.1 0 0.2 0.1 0.1 0.1 0.1 0.2 0.1 0.1 0.1 0.2 0 0.2-0.1 0.2-0.1 0.2-0.3 0.3-0.1 0.1-0.3 0.1z"/>
	<path id="Layer" class="s1" d="m29 26.8q-0.2-0.2-0.4-0.2c-0.1 0.5-0.8 1.4-0.8 1.4h0.5q0.1 0 0.2-0.1 0.1 0 0.2-0.1l0.3-0.4q0.1-0.1 0.1-0.1 0-0.1 0-0.2 0-0.1 0-0.2-0.1-0.1-0.1-0.1z"/>
	<path id="Layer" class="s2" d="m26.2 27.3l0.3-0.9 0.9 0.2-0.3 1.3z"/>
	<path id="Layer" class="s2" d="m41.2 71.1h-1.4v-3.1h1.3z"/>
	<path id="Layer" class="s3" d="m39.8 71h1.5q0 0 0 0 0 0 0 0 0.1 0 0.1 0 0 0 0 0.1l0.1 1.2q0 0.1-0.1 0.1-0.1 0.1-0.2 0.1c-0.5 0-0.8 0-1.5 0-0.4 0-1.7 0-2.3 0-0.6 0-0.6-0.5-0.3-0.6 1.1-0.2 2-0.5 2.4-0.8q0.1-0.1 0.3-0.1z"/>
	<g id="Layer" style="opacity: .2">
		<path id="Layer" class="s4" d="m41.1 68h-1.3v1.6h1.4z"/>
	</g>
	<path id="Layer" class="s1" d="m38.7 36.6c0 0-0.5 11.8-0.3 15.7 0.2 4.3 0.8 16.9 0.8 16.9h2.4c0 0 0.7-12.3 0.8-16.5 0.2-4.6 0.9-16.1 0.9-16.1z"/>
	<path id="Layer" class="s3" d="m41.7 69.2h-2.6l-0.3-1 3 0.2z"/>
	<path id="Layer" fill-rule="evenodd" class="s3" d="m39 71.1q0 0 0 0 0-0.1 0-0.1 0-0.1 0-0.1 0 0 0 0c0.2-0.1 0.6 0.2 0.6 0.2q0 0 0.1 0 0 0 0 0 0 0-0.1 0.1 0 0 0 0-0.2 0-0.3 0-0.2 0-0.3-0.1zm0.1-0.2q0 0-0.1 0.1 0 0 0 0 0 0 0 0 0 0.1 0.1 0.1 0.1 0.1 0.4 0c-0.1-0.1-0.3-0.2-0.4-0.2z"/>
	<path id="Layer" fill-rule="evenodd" class="s3" d="m39.6 71.2c-0.1-0.1-0.3-0.4-0.3-0.5q0-0.1 0-0.1 0.1 0 0.1 0 0.1 0 0.1 0 0 0 0 0c0.2 0.1 0.2 0.5 0.2 0.5q0 0-0.1 0.1 0 0 0 0 0 0 0 0 0 0 0 0zm-0.2-0.6q0 0 0 0.1c-0.1 0.1 0.1 0.3 0.2 0.4q0-0.3-0.1-0.5 0 0 0 0 0 0-0.1 0z"/>
	<path id="Layer" class="s3" d="m44 25.7q0-0.2 0-0.4 0-0.1-0.2-0.3-0.1-0.1-0.2-0.2-0.2-0.1-0.3-0.1c-0.5-0.1-1-0.1-1.6-0.2q-1.5-0.1-3.1 0c-0.4 0.1-0.9 0.2-1.3 0.2q-0.3 0.1-0.6 0.3-0.3 0.3-0.4 0.6c-0.4 1.5-0.9 4.6-0.3 11h7.3c0.1-0.6-0.1-2.7 0-5.4q0.2-2.8 0.7-5.5z"/>
	<g id="Layer" style="opacity: .3">
		<path id="Layer" class="s4" d="m43.9 26.1c-0.1 0.9-0.3 2-0.4 3.3 0 0-0.7-1.3-0.8-2.4-0.1-1.1 0.8-1.2 1.2-0.9z"/>
	</g>
	<g id="Layer" style="opacity: .2">
		<path id="Layer" class="s5" d="m39.1 26.3q-0.1 0-0.1 0 0-0.1 0-0.1 0 0 0 0 0 0 0-0.1l2.3-1.1q0 0 0 0 0.1 0 0.1 0 0 0 0 0 0 0.1-0.1 0.1l-2.2 1.2q0 0 0 0z"/>
		<path id="Layer" class="s5" d="m40.1 26.4q0 0 0 0-0.1 0-0.1 0l-1.2-1.3q0 0 0 0 0-0.1 0-0.1 0 0 0 0 0.1 0 0.1 0l1.2 1.3q0.1 0 0.1 0 0 0-0.1 0.1 0 0 0 0 0 0 0 0z"/>
		<path id="Layer" class="s5" d="m41.7 24.5q-1.5-0.1-3.1 0 0 0.2 0 0.3 0 0.2 0.1 0.3 0.2 0.4 1 0.5h0.2c1.5 0 2.1-0.9 2.1-1l0.1-0.1z"/>
	</g>
	<path id="Layer" class="s2" d="m38.8 24.5c0.9-0.2 1-0.8 1-1.4q0-0.2-0.1-0.4l1.1-1 0.9-0.6c-0.3 1-0.5 2.8 0.1 3.4 0 0-0.5 0.9-2 0.9-1.3-0.1-1-0.9-1-0.9z"/>
	<g id="Layer" style="opacity: .2">
		<path id="Layer" class="s4" d="m39.7 22.7q0.1 0.2 0.1 0.4c0.4 0 1-0.5 1-0.9q0.1-0.2 0-0.5z"/>
	</g>
	<path id="Layer" class="s3" d="m39.1 17.9c-0.6 0.4-0.5 1.3-0.7 2 0.4 0 1-0.7 1-0.7l0.4-1z"/>
	<path id="Layer" class="s2" d="m42.4 19.8c-0.4 1.3-0.6 2-1.4 2.6q-0.4 0.2-0.9 0.3-0.5 0-0.9-0.2-0.5-0.3-0.7-0.7-0.3-0.4-0.2-0.9c0-1.2 0.6-3.2 2-3.4q0.5-0.1 0.9 0 0.5 0.2 0.8 0.5 0.3 0.4 0.4 0.8 0.1 0.5 0 1z"/>
	<path id="Layer" class="s3" d="m41.1 20.9c1-1.1-0.2-1.6 0.7-2.4-1 0.1-2.7 0-3.1-0.7-0.3-0.7 0.7-1.7 1.5-1.8 0.9-0.1 0.7 1 0.7 1 0 0 3.5-0.2 2.4 1.3 0.8 0 0.6 1.3-0.9 2.5-0.3 0.1-1.3 0.1-1.3 0.1z"/>
	<path id="Layer" class="s3" d="m43.1 18.3c0 0 0.7-0.2 0.7-0.8 0.2 0.2 0.3 0.8-0.7 0.8z"/>
	<path id="Layer" class="s2" d="m42.6 21.1q-0.4 0.4-0.9 0.5c-0.4 0.1-0.5-0.3-0.3-0.7 0.2-0.3 0.7-0.7 1-0.7 0.4 0.1 0.4 0.6 0.2 0.9z"/>
	<path id="Layer" class="s3" d="m40.3 19.7c-0.1 0.1-0.1 0.2-0.2 0.2-0.1 0-0.1-0.1-0.1-0.2 0-0.1 0.1-0.2 0.2-0.2 0.1 0 0.1 0.1 0.1 0.2z"/>
	<path id="Layer" class="s3" d="m39.1 19.5c-0.1 0.1-0.1 0.2-0.2 0.1-0.1 0-0.1-0.1-0.1-0.2 0-0.1 0.1-0.2 0.2-0.1 0 0 0.1 0.1 0.1 0.2z"/>
	<path id="Layer" class="s6" d="m39.4 19.6q-0.3 0.5-0.7 0.8 0.1 0.1 0.2 0.2 0.2 0 0.3 0z"/>
	<path id="Layer" class="s3" d="m39.6 21q0.2 0 0.3 0 0.2-0.1 0.4-0.2 0 0 0 0 0 0 0-0.1 0 0 0 0 0 0 0 0 0 0 0 0-0.1 0-0.1 0-0.1 0.2-0.3 0.2-0.2 0.1-0.4 0 0 0-0.1 0 0 0 0 0 0 0 0 0 0 0 0 0 0 0.1 0 0.1 0 0 0 0z"/>
	<path id="Layer" class="s3" d="m40.8 19.4q0 0 0 0 0 0 0 0 0 0 0 0 0 0 0 0 0 0 0-0.1 0-0.1-0.2-0.2-0.1-0.1-0.2-0.1-0.1 0-0.1 0 0 0 0 0 0 0 0 0.1 0 0 0 0 0 0 0 0 0 0 0 0 0.2 0 0.3 0.1 0 0.1 0.1 0.2 0 0 0 0 0 0 0.1 0z"/>
	<path id="Layer" class="s3" d="m38.8 18.8q0 0 0 0 0 0 0-0.1 0.1 0 0.2-0.1 0.2 0 0.3 0 0 0 0 0 0 0 0 0 0 0 0.1 0 0 0 0 0 0 0 0 0 0 0 0-0.1 0 0-0.1 0 0 0 0 0-0.1 0-0.3 0-0.1 0-0.3 0.1 0 0.1 0 0.1 0 0 0 0 0 0.1 0.1 0.1z"/>
	<path id="Layer" class="s3" d="m44.1 25.2l0.1 0.2 0.2 0.2q0.1 0.2 0.2 0.4 0.3 0.4 0.5 0.8 0.5 0.8 0.8 1.6 0.2 0.4 0.4 0.9 0.2 0.4 0.3 0.8 0.3 0.9 0.5 1.8v0.1q0 0.2 0 0.4-0.1 0.2-0.2 0.3-0.3 0.6-0.8 1-0.5 0.5-1.1 0.8-0.6 0.2-1.2 0.3-0.4 0-0.7 0-0.1 0-0.3 0l-0.2-0.1h-0.1q-0.1 0-0.1 0 0-0.1 0-0.1l0.2-1.1c0 0 0.1 0 0.1 0h0.1q0.1 0 0.2-0.1 0.2 0 0.4-0.1 0.4-0.1 0.7-0.4 0.6-0.5 1-1.3l-0.1 0.8q-0.3-0.7-0.6-1.5-0.3-0.8-0.6-1.5-0.4-0.7-0.8-1.5-0.2-0.3-0.4-0.7l-0.2-0.3-0.1-0.2-0.1-0.1-0.1-0.1c-0.2-0.2-0.2-0.5-0.2-0.8 0.1-0.4 0.3-0.6 0.5-0.8 0.3-0.2 0.6-0.3 0.9-0.2 0.3 0 0.6 0.2 0.8 0.5z"/>
	<path id="Layer" class="s2" d="m41.6 34.6l-0.4 0.6h1.8c0 0 0.4-1.2-0.2-1.4l-0.2 0.1c-0.4 0.1-0.8 0.4-1 0.7z"/>
	<path id="Layer" class="s1" d="m42.3 33.7q-0.1 0.1-0.3 0.3c0.5 0.2 1.1 1.1 1.1 1.1l0.2-0.5q0-0.1 0-0.2 0 0-0.1-0.1l-0.2-0.5q-0.1-0.1-0.2-0.1 0-0.1-0.1-0.1-0.1 0-0.2 0-0.1 0-0.2 0.1z"/>
	<path id="Layer" class="s2" d="m41.4 36.2l1.4-0.1 0.2-0.9h-1.8z"/>
	<path id="Layer" class="s1" d="m24.1 13.9l-0.1-0.2q0.4-0.2 0.9-0.4v0.2q-0.4 0.1-0.8 0.4z"/>
	<path id="Layer" class="s1" d="m21.4 17.1l-0.1-0.1c0.4-1.2 1.2-2.2 2.2-3l0.1 0.2c-1 0.7-1.7 1.7-2.2 2.9z"/>
	<path id="Layer" class="s1" d="m27.2 24.8c-3.1 0-5.6-2.5-5.6-5.6 0-3.1 2.5-5.7 5.6-5.7 3.2 0 5.7 2.6 5.7 5.7 0 3.1-2.5 5.6-5.7 5.6z"/>
	<g id="Layer" style="opacity: .6">
		<path id="Layer" class="s5" d="m32 19.2c0 1.1-0.4 2.1-1.1 3-0.7 0.8-1.7 1.4-2.8 1.6-1.1 0.2-2.2 0-3.1-0.5-1-0.5-1.7-1.4-2.1-2.4-0.4-1-0.5-2.2-0.1-3.2 0.3-1.1 1-2 2-2.5 0.9-0.6 2-0.8 3.1-0.7 1.1 0.2 2.1 0.7 2.8 1.5q0 0 0 0 0 0 0 0c0.8 0.9 1.3 2 1.3 3.2z"/>
	</g>
	<path id="Layer" class="s5" d="m32 19.2c0 0.9-0.3 1.8-0.8 2.6-0.5 0.7-1.2 1.3-2.1 1.7-0.8 0.4-1.7 0.5-2.6 0.3-0.9-0.1-1.8-0.5-2.4-1.2-0.9-0.9-1.3-2-1.3-3.2 0-1.3 0.5-2.4 1.4-3.3 0.9-0.8 2-1.3 3.2-1.4 1.3 0 2.4 0.5 3.3 1.3q0 0 0 0 0 0 0 0c0.8 0.9 1.3 2 1.3 3.2z"/>
	<path id="Layer" class="s3" d="m27.3 19.5q-0.1 0-0.2-0.1 0 0 0 0l-2.3-2.3q-0.1-0.1-0.1-0.1 0-0.1 0-0.1 0-0.1 0-0.1 0-0.1 0.1-0.1 0-0.1 0-0.1 0.1 0 0.2 0 0 0 0.1 0 0 0 0 0.1l2.2 2.1 1.2-1.2q0.1-0.1 0.2-0.1 0.1 0 0.1 0.1 0.1 0.1 0.1 0.2 0 0.1 0 0.2l-1.5 1.4q0 0.1-0.1 0.1z"/>
</svg>