<svg width="88" height="62" viewBox="0 0 88 62" fill="none" xmlns="http://www.w3.org/2000/svg" xmlns:xlink="http://www.w3.org/1999/xlink">
<path d="M36.459,5.69C37.685,4.953 39.003,4.381 40.379,3.988L41.186,0.115L47.735,0L48.677,3.842C50.067,4.182 51.405,4.707 52.654,5.404L55.965,3.233L60.677,7.783L58.626,11.167C59.366,12.392 59.938,13.71 60.328,15.087L64.206,15.894L64.321,22.443L60.474,23.391C60.131,24.778 59.606,26.114 58.912,27.363L61.083,30.674L56.528,35.39L53.144,33.339C51.92,34.076 50.603,34.646 49.229,35.036L48.422,38.915L41.868,39.029L40.925,35.187C39.536,34.845 38.199,34.32 36.948,33.626L33.637,35.796L28.925,31.246L30.977,27.862C30.242,26.637 29.675,25.318 29.29,23.942L25.411,23.135L25.281,16.565L29.128,15.623C29.471,14.236 29.996,12.9 30.69,11.651L28.525,8.34L33.075,3.623L36.459,5.675L36.459,5.69ZM39.952,14.421C38.987,15.421 38.34,16.685 38.093,18.053C37.846,19.421 38.011,20.831 38.565,22.106C39.12,23.38 40.04,24.461 41.21,25.213C42.379,25.964 43.745,26.352 45.135,26.328C46.524,26.303 47.875,25.867 49.017,25.074C50.159,24.281 51.04,23.168 51.549,21.874C52.058,20.581 52.172,19.166 51.877,17.807C51.582,16.449 50.89,15.209 49.89,14.244C49.226,13.602 48.442,13.098 47.583,12.759C46.724,12.421 45.807,12.255 44.884,12.272C43.961,12.288 43.05,12.486 42.204,12.855C41.358,13.224 40.592,13.756 39.952,14.421Z" fill="#353537"/>
<path d="M13.149,30.798C18.284,30.798 22.447,26.635 22.447,21.5C22.447,16.365 18.284,12.202 13.149,12.202C8.014,12.202 3.851,16.365 3.851,21.5C3.851,26.635 8.014,30.798 13.149,30.798Z" transform="rotate(-90 13.149 21.5)" fill="#353537"/>
<path d="M14.056,20.98C14.516,20.777 14.907,20.443 15.179,20.02C15.451,19.597 15.593,19.103 15.587,18.6C15.602,18.275 15.551,17.95 15.437,17.644C15.322,17.339 15.147,17.06 14.922,16.824C14.697,16.588 14.427,16.401 14.127,16.272C13.827,16.144 13.505,16.078 13.179,16.078C12.853,16.078 12.53,16.144 12.231,16.272C11.931,16.401 11.66,16.588 11.435,16.824C11.21,17.06 11.035,17.339 10.921,17.644C10.807,17.95 10.756,18.275 10.771,18.6C10.761,19.107 10.902,19.606 11.175,20.033C11.449,20.46 11.842,20.797 12.307,21C8.6,21.557 8.767,25.587 8.767,25.587L17.534,25.629C17.534,25.629 17.742,21.547 14.056,20.98Z" fill="#F4F4F4"/>
<path d="M25.743,56.314C30.878,56.314 35.041,52.151 35.041,47.016C35.041,41.881 30.878,37.718 25.743,37.718C20.608,37.718 16.445,41.881 16.445,47.016C16.445,52.151 20.608,56.314 25.743,56.314Z" transform="rotate(-90 25.743 47.016)" fill="#FF5904"/>
<path d="M26.634,47.214C27.092,47.007 27.479,46.673 27.751,46.25C28.023,45.828 28.166,45.337 28.165,44.835C28.18,44.509 28.129,44.184 28.015,43.879C27.901,43.573 27.726,43.294 27.501,43.059C27.276,42.823 27.005,42.635 26.705,42.507C26.406,42.379 26.083,42.313 25.757,42.313C25.431,42.313 25.109,42.379 24.809,42.507C24.509,42.635 24.239,42.823 24.014,43.059C23.788,43.294 23.614,43.573 23.499,43.879C23.385,44.184 23.334,44.509 23.349,44.835C23.338,45.341 23.478,45.84 23.75,46.267C24.023,46.694 24.416,47.031 24.88,47.235C21.173,47.792 21.345,51.821 21.345,51.821L30.107,51.863C30.107,51.863 30.31,47.781 26.634,47.214Z" fill="#F4F4F4"/>
<path d="M65.23,55.953C70.365,55.953 74.528,51.79 74.528,46.655C74.528,41.52 70.365,37.357 65.23,37.357C60.094,37.357 55.932,41.52 55.932,46.655C55.932,51.79 60.094,55.953 65.23,55.953Z" transform="rotate(-153.22 65.23 46.655)" fill="#FF5904"/>
<path d="M66.119,46.03C66.578,45.828 66.969,45.496 67.241,45.074C67.513,44.651 67.655,44.159 67.649,43.657C67.676,43.324 67.634,42.99 67.525,42.674C67.416,42.359 67.243,42.07 67.017,41.824C66.791,41.579 66.516,41.384 66.21,41.25C65.905,41.116 65.575,41.047 65.241,41.047C64.908,41.047 64.578,41.116 64.272,41.25C63.967,41.384 63.692,41.579 63.466,41.824C63.24,42.07 63.067,42.359 62.958,42.674C62.849,42.99 62.807,43.324 62.834,43.657C62.824,44.163 62.965,44.66 63.238,45.087C63.512,45.513 63.905,45.849 64.369,46.051C60.663,46.614 60.829,50.643 60.829,50.643L69.596,50.679C69.596,50.679 69.794,46.587 66.119,46.03Z" fill="#F4F4F4"/>
<path d="M76.242,29.485C81.377,29.485 85.54,25.322 85.54,20.187C85.54,15.052 81.377,10.889 76.242,10.889C71.107,10.889 66.944,15.052 66.944,20.187C66.944,25.322 71.107,29.485 76.242,29.485Z" transform="rotate(-154.82 76.242 20.187)" fill="#353537"/>
<path d="M77.15,19.698C77.618,19.499 78.017,19.165 78.295,18.739C78.573,18.312 78.718,17.813 78.712,17.304C78.727,16.978 78.676,16.653 78.562,16.347C78.447,16.042 78.272,15.763 78.047,15.527C77.822,15.292 77.552,15.104 77.252,14.976C76.952,14.847 76.63,14.781 76.304,14.781C75.978,14.781 75.655,14.847 75.356,14.976C75.056,15.104 74.785,15.292 74.56,15.527C74.335,15.763 74.16,16.042 74.046,16.347C73.932,16.653 73.881,16.978 73.896,17.304C73.886,17.811 74.027,18.309 74.3,18.736C74.574,19.163 74.967,19.5 75.432,19.704C71.725,20.261 71.892,24.29 71.892,24.29L80.659,24.327C80.659,24.327 80.83,20.219 77.15,19.698Z" fill="#F4F4F4"/>
</svg>
