<svg version="1.2" xmlns="http://www.w3.org/2000/svg" viewBox="0 0 60 42" width="60" height="42">
	<title>group_646_x2-svg</title>
	<style>
		.s0 { fill: #353537;stroke: #353537;stroke-linecap: round;stroke-linejoin: round;stroke-width: .3 } 
		.s1 { fill: #ff5904;stroke: #353537;stroke-linecap: round;stroke-linejoin: round;stroke-width: .3 } 
		.s2 { fill: #f4f4f4;stroke: #353537;stroke-linecap: round;stroke-linejoin: round;stroke-width: .3 } 
		.s3 { fill: #353537 } 
		.s4 { fill: #f4f4f4 } 
		.s5 { mix-blend-mode: multiply;fill: #ff5904 } 
		.s6 { fill: #f4f4f4;stroke: #353537;stroke-miterlimit:10;stroke-width: .3 } 
	</style>
	<path id="Layer" class="s0" d="m42.9 25.1l-28.8-5.3c-0.4-0.1-0.8-0.3-1-0.7-0.3-0.3-0.4-0.8-0.3-1.2l3-16.6c0.1-0.4 0.3-0.8 0.7-1 0.3-0.3 0.7-0.3 1.2-0.3l28.8 5.4c0.4 0 0.8 0.3 1 0.6 0.3 0.4 0.4 0.8 0.3 1.2l-3 16.6c-0.1 0.5-0.3 0.8-0.7 1.1-0.3 0.2-0.7 0.3-1.2 0.2z"/>
	<path id="Layer" class="s1" d="m42.5 4.6c-2.1 1.2-4.5 2.1-7 2.3-6.9 0.4-9.8-2.7-17.5-1.7q-1.5 0.2-3 0.6l-1.3 7.1c2.1-1.6 4.5-2.7 7.1-3.2 6.8-1.5 9.6 1.1 15.8 0.2 3.6-0.5 6.9-2.9 8.9-4.7z"/>
	<path id="Layer" class="s1" d="m15.3 3.9q0.5-0.1 0.9-0.2c6.8-1.4 9.6 1.1 15.8 0.2q1.4-0.2 2.7-0.7l-16.9-3.1c-0.4-0.1-0.9 0-1.3 0.3-0.4 0.2-0.6 0.6-0.7 1.1z"/>
	<path id="Layer" class="s2" d="m21.2 5.9l-2.1-0.8c-0.3-0.1-0.7 0-0.8 0.3l-0.8 2.1c-0.1 0.3 0.1 0.6 0.4 0.8l2.1 0.8c0.3 0.1 0.7-0.1 0.8-0.4l0.7-2c0.2-0.3 0-0.7-0.3-0.8z"/>
	<path id="Layer" class="s2" d="m20 6.7l-0.5-0.2c-0.2-0.1-0.3 0-0.4 0.2l-0.1 0.4c-0.1 0.2 0 0.3 0.1 0.4l0.5 0.2c0.1 0 0.3-0.1 0.4-0.2l0.1-0.4c0.1-0.2 0-0.4-0.1-0.4z"/>
	<path id="Layer" fill-rule="evenodd" class="s3" d="m17.9 5.5c0-0.1 0.1-0.2 0.2-0.2l1 0.2q0.1 0 0.2 0.1 0.1 0 0.1 0.1 0.1 0.1 0.1 0.2 0 0.1 0 0.2l-0.1 0.4c0 0.1-0.1 0.2-0.2 0.2 0-0.1-0.1-0.1-0.1-0.2l0.1-0.4h0.2-0.1 0.1-0.2q0-0.1 0-0.1 0-0.1 0-0.1-0.1 0-0.1 0 0-0.1-0.1-0.1l-1-0.2c-0.1 0-0.1-0.1-0.1-0.1zm1.3 0.6h0.1-0.1zm-0.1-0.4l-0.1 0.1z"/>
	<path id="Layer" fill-rule="evenodd" class="s3" d="m21.6 6.1c0 0.1-0.1 0.2-0.2 0.1l-0.9-0.1q-0.1 0-0.1 0-0.1 0-0.1 0 0 0-0.1 0.1 0 0 0 0l-0.1 0.5c0 0-0.1 0.1-0.1 0.1-0.1 0-0.2-0.1-0.2-0.2l0.1-0.4q0-0.1 0.1-0.2 0-0.1 0.1-0.2 0.1 0 0.2 0 0.1-0.1 0.2 0l1 0.1c0.1 0.1 0.1 0.1 0.1 0.2zm-1.1-0.2v0.2zm-0.5 0.3h0.2z"/>
	<path id="Layer" fill-rule="evenodd" class="s3" d="m17.4 8.1c0-0.1 0.1-0.2 0.2-0.2l1 0.2q0.1 0 0.1 0 0.1-0.1 0.1-0.1h0.3q0 0.2-0.2 0.3-0.2 0.2-0.4 0.1l-1-0.2c-0.1 0-0.1-0.1-0.1-0.1zm1.7-0.7c0.1 0 0.1 0.1 0.1 0.2l-0.1 0.4h-0.3l0.1-0.5c0-0.1 0.1-0.1 0.2-0.1zm0 0.6h-0.1zm-0.6 0.2v0.2z"/>
	<path id="Layer" fill-rule="evenodd" class="s3" d="m21.1 8.8c0 0-0.1 0.1-0.1 0.1l-1-0.2v-0.2 0.1-0.2l1 0.2c0.1 0 0.1 0.1 0.1 0.2zm-1.1-0.1q-0.2 0-0.4-0.2-0.1-0.2 0-0.4v-0.4c0-0.1 0.1-0.2 0.2-0.2 0.1 0.1 0.1 0.1 0.1 0.2v0.4q-0.1 0.1 0 0.2 0 0.1 0.1 0.1zm0-0.2v0.2zm-0.3-0.4h0.2z"/>
	<path id="Layer" class="s3" d="m17.8 6.7c0 0-0.1 0-0.1 0.1-0.1 0.1 0 0.2 0.1 0.2zm1.1 0.5c0.1 0 0.2 0 0.2-0.1 0-0.1-0.1-0.2-0.1-0.2zm-1.2-0.2l1.2 0.2v-0.3l-1.2-0.2z"/>
	<path id="Layer" class="s3" d="m20 7.1c0 0-0.1 0-0.1 0.1-0.1 0.1 0 0.2 0.1 0.2zm1.1 0.5c0.1 0 0.2 0 0.2-0.1 0-0.1-0.1-0.2-0.1-0.2zm-1.2-0.2l1.2 0.2v-0.3l-1.2-0.2z"/>
	<path id="Layer" class="s4" d="m40.4 22.9c0.4 0.1 0.8 0 1.2-0.2 0.3-0.3 0.6-0.7 0.7-1.1 0-0.4-0.1-0.9-0.3-1.2-0.3-0.4-0.6-0.6-1.1-0.7l-2.1-0.4c-0.5-0.1-0.9 0-1.2 0.3-0.4 0.2-0.6 0.6-0.7 1-0.1 0.4 0 0.9 0.2 1.2 0.3 0.4 0.7 0.6 1.1 0.7z"/>
	<path id="Layer" class="s2" d="m1.6 24.7c0 0-1.9 2.3-1.6 5.5 0.4 3.1 3.7 4.8 3.7 4.8l4.1-8c0 0-2.1-2.1-0.6-4.7 0 0-3.4 0.5-5.6 2.4z"/>
	<g id="Layer" style="opacity: .5">
		<path id="Layer" class="s5" d="m1.6 24.7c0 0-1.9 2.3-1.6 5.5 0.4 3.1 3.7 4.8 3.7 4.8l4.1-8c0 0-2.1-2.1-0.6-4.7 0 0-3.4 0.5-5.6 2.4z"/>
	</g>
	<path id="Layer" class="s2" d="m19.1 18.8c0 0-2.5 0.1-3.4 0.5-0.8 0.4-6.4 4.4-9.5 9-1.1 1.6-1.5 2.5-1.6 2.9q-0.2 0.4-0.4 0.8c-0.3 0.8-0.9 2.4-0.7 4.1 0.3 2.3 1.6 4.5 6.8 5.5 5.1 0.9 7.1-2.9 7.2-4.6 0 0 12.5 0.9 20.2 1.8 7.8 0.9 10.4 0.4 13 1.4 2.6 1.1 3.2 1.8 4.3 1.8 1.1 0 4.3-3.6 4.3-4.6 0.1-1.1-0.9-2.5-1.3-2.6-0.3-0.1-4.4-6.2-4.4-6.2 0 0-0.2-1.2-1.9-2.2-1.8-0.9-10.7-3.6-15.5-5-4.8-1.3-14.6-2.6-17.1-2.6z"/>
	<g id="Layer" style="opacity: .5">
		<path id="Layer" class="s5" d="m58.9 35.7q-1.7-0.8-3.4-1.3l-14.7-4-19.3-3.4c0 0-8-1.3-11.6 0.4-2.5 1.3-5.1 5.4-6.4 7.6q-0.1 0.5 0 1.1c0.3 2.3 1.6 4.5 6.8 5.5 5.1 0.9 7.1-2.9 7.2-4.6 0 0 12.5 0.9 20.2 1.8 7.8 0.9 10.4 0.4 13 1.4 2.6 1.1 3.2 1.8 4.3 1.8 1.1 0 4.3-3.6 4.3-4.6 0.1-0.5-0.2-1.2-0.4-1.7z"/>
	</g>
	<path id="Layer" class="s3" d="m4.5 32.8c0 0.1 0 0.2 0.1 0.2 0 0.1 0.1 0 0.2 0zm22.8-4.8c0.1 0 0.1-0.1 0.2-0.2 0 0-0.1-0.1-0.2-0.1zm-22.6 4.8c0.1 0.1 0.1 0.1 0.1 0.1q0 0 0 0 0 0 0 0 0 0 0 0 0 0 0 0 0.1-0.1 0.2-0.2 0.1-0.3 0.4-0.7c0.4-0.6 1-1.3 1.7-2.1 0.7-0.8 1.5-1.5 2.3-2.1 0.9-0.6 1.7-1.1 2.6-1.2v-0.3c-1 0.1-1.9 0.6-2.8 1.2-0.8 0.6-1.7 1.4-2.4 2.2-0.7 0.8-1.2 1.5-1.6 2.1q-0.3 0.4-0.5 0.7-0.1 0.1-0.1 0.2-0.1 0-0.1 0 0 0 0 0.1 0 0 0 0 0 0 0 0 0 0 0 0c0 0 0 0 0.2 0zm7.3-6.2c0.9-0.1 2.3 0 3.9 0.1 1.7 0.1 3.5 0.3 5.1 0.4 1.7 0.2 3.3 0.4 4.5 0.6q0.8 0.1 1.3 0.2 0.3 0 0.4 0.1 0.1 0 0.1 0 0 0 0 0 0 0 0 0 0 0 0 0c0 0 0 0 0.1-0.2 0-0.1 0-0.1 0-0.1q0 0 0 0 0 0 0 0 0 0-0.1 0 0 0-0.1-0.1-0.1 0-0.3 0-0.5-0.1-1.4-0.2c-1.2-0.2-2.7-0.4-4.4-0.6-1.7-0.2-3.5-0.3-5.1-0.4-1.6-0.1-3.1-0.2-4-0.1z"/>
	<path id="Layer" class="s3" d="m28.6 27.9c-0.1 0-0.2 0.1-0.2 0.2 0 0.1 0.1 0.1 0.1 0.2zm30.3 7.9c0 0 0.1 0 0.2 0 0.1-0.1 0-0.2 0-0.3zm-30.3-7.7c0 0.1 0 0.1 0 0.1q0 0 0 0 0 0 0 0 0 0 0 0 0 0 0 0 0 0 0.1 0 0.1 0 0.2 0.1 0.3 0 1 0.1c0.8 0.2 2 0.4 3.5 0.7 2.9 0.5 7.1 1.4 11.8 2.6l0.1-0.3c-4.7-1.2-8.9-2.1-11.9-2.7-1.5-0.2-2.7-0.4-3.5-0.6q-0.6-0.1-0.9-0.1-0.2-0.1-0.3-0.1 0 0 0 0-0.1 0-0.1 0 0 0 0 0c0 0 0 0 0 0.2zm16.6 3.6c4.7 1.2 8 2.1 10.2 2.8q1.6 0.5 2.5 0.9 0.4 0.1 0.7 0.3 0.2 0.1 0.3 0.1l0.2-0.2q-0.1-0.1-0.4-0.2-0.3-0.2-0.7-0.3-0.9-0.4-2.5-0.9c-2.2-0.7-5.5-1.6-10.2-2.8z"/>
	<path id="Layer" class="s2" d="m35.6 22.9c0 0 15.4 4.1 16.3 4.5q0.9 0.3 1.5 1.1z"/>
	<path id="Layer" class="s0" d="m16.3 19.7l-3.9 5.8c0 0 5.5-0.2 20.2 2.2l0.4-5.3c0 0-7.1-2.2-10.1-2.4-2.9-0.3-6.6-0.3-6.6-0.3z"/>
	<path id="Layer" class="s2" d="m12.4 25.4c0.3 0 1.6 0 4.2 0.3l-2.7-2.5-0.2 0.2z"/>
	<path id="Layer" class="s2" d="m16.3 19.7l-0.7 1.1 6.5 5.4q2.5 0.3 5.7 0.8 1.1 0.1 2.4 0.3l-9-7.4c-2.5-0.2-4.9-0.2-4.9-0.2z"/>
	<path id="Layer" class="s6" d="m33.2 23.5v3.2c0.8-0.1 2-0.1 2.8 0.4 0.1-1.1-0.1-2.2-0.5-3.2z"/>
	<path id="Layer" class="s6" d="m35.4 23.6q-0.2-0.5-0.6-1l-1.5-0.3-0.1 1z"/>
	<path id="Layer" class="s6" d="m33.2 27.1v0.9l2.6 0.4q0.1-0.5 0.2-1c-0.5-0.2-1.4-0.4-2.8-0.3z"/>
	<path id="Layer" class="s2" d="m39.2 23.8c0 0-1.5-0.4-1.7-0.4-0.3 0.1-0.3 0.5-0.3 0.5l0.5 1c0 0-0.1 0.2 0.7 0.5 0.7 0.2 1.4 0.3 1.5 0.2 0.1-0.1 0.1-0.4 0.1-0.7 0.1-0.2-0.4-1.1-0.8-1.1z"/>
	<path id="Layer" class="s2" d="m40.2 25.7c0 0-1.5-0.5-1.7-0.5-0.3 0-0.5 0.5-0.5 0.5 0 0 0.1 1.4 0.3 1.5 0.2 0.2 1.8 0.6 2 0.6 0.3 0 0.4-0.3 0.4-0.7 0-0.3-0.2-1.4-0.5-1.4z"/>
	<path id="Layer" class="s2" d="m40.7 27.7c0 0-1.8-0.5-2-0.5-0.2 0-0.4 0.5-0.4 0.6 0 0.1 0 1.1 0 1.1l2.9 0.6-0.2-1.4c0 0 0-0.1-0.3-0.4z"/>
	<path id="Layer" class="s2" d="m40.6 24.2l-0.2 0.4 0.6 1.2c0 0 0 0.2 0.6 0.3 0.6 0.2 1.7 0.4 1.7 0.4 0 0 0.3-0.3 0.3-0.5-0.1-0.1-0.7-1.2-1-1.4-0.3-0.2-1.9-0.6-2-0.4z"/>
	<path id="Layer" class="s2" d="m41.6 26.1q-0.1 0.3-0.2 0.5c0 0.2 0.2 1.3 0.5 1.6 0.3 0.3 2 0.5 2.3 0.5 0.2 0.1 0.3-0.3 0.3-0.6 0.1-0.3-0.3-1.3-0.6-1.5-0.3-0.2-1.9-0.5-1.9-0.5 0 0-0.2-0.2-0.4 0z"/>
	<path id="Layer" class="s2" d="m44.7 28.7q-0.1 0-0.2-0.1c-0.4-0.1-1.9-0.6-2.1-0.5-0.3 0.2-0.4 0.6-0.4 0.9q0 0.4 0 0.7l3.1 0.9-0.2-1.5q-0.1-0.2-0.2-0.4z"/>
	<path id="Layer" class="s2" d="m43.8 25l-0.1 0.6c0 0 0.3 0.9 0.7 1.1 0.3 0.1 1.9 0.5 2.1 0.5 0.1 0 0.3-0.4 0.3-0.6 0-0.2-0.6-1.2-1-1.3-0.3-0.2-1.8-0.4-1.8-0.4 0 0-0.3-0.1-0.2 0.1z"/>
	<path id="Layer" class="s2" d="m45.1 26.8l-0.3 0.7c0 0 0.4 1.3 0.5 1.5 0.1 0.2 2.3 0.6 2.4 0.6 0.1-0.1 0.4-0.2 0.4-0.7-0.1-0.5-0.8-1.7-1-1.8-0.3 0-1.5-0.3-1.6-0.4-0.1 0-0.3-0.1-0.4 0.1z"/>
	<path id="Layer" class="s2" d="m46 29.2c0 0-0.4 0.7-0.3 1.1q0.1 0.4 0.2 0.7l3.1 0.8c0 0-0.4-1.3-0.4-1.8-0.1-0.4-0.9-0.6-1.5-0.8-0.7-0.2-1.2-0.3-1.1 0z"/>
	<path id="Layer" class="s2" d="m47 25.7v0.6c0 0 0.7 1 0.9 1.2 0.2 0.2 1.8 0.6 2 0.5 0.1 0 0.2-0.4 0.1-0.6 0-0.2-0.8-1.1-1.1-1.3-0.3-0.1-1.6-0.5-1.6-0.5 0 0-0.4-0.1-0.3 0.1z"/>
	<path id="Layer" class="s2" d="m48.4 27.6c0 0-0.2 0.9-0.1 0.9 0.1 0.1 0.6 1.3 0.8 1.4 0.2 0.2 2 0.6 2.2 0.5 0.2 0 0.3-0.5 0.2-0.8-0.2-0.4-0.9-1.4-1.3-1.6-0.3-0.1-1.5-0.4-1.5-0.4 0 0-0.2-0.1-0.3 0z"/>
	<path id="Layer" class="s2" d="m51.1 30.3c0 0-1.1-0.4-1.3-0.4-0.2 0.1-0.4 0.7-0.4 0.8 0 0.1 0.4 1.4 0.4 1.4l2.9 0.9c0 0 0-0.1 0-0.6 0-0.5-0.7-1.7-0.9-1.8-0.1-0.2-0.7-0.3-0.7-0.3z"/>
	<path id="Layer" class="s1" d="m50.3 26.7q0 0.3-0.1 0.6c0 0.2 0.6 0.9 0.9 1.1 0.4 0.2 1.9 0.6 2 0.6 0.1 0 0.4-0.3 0.2-0.7q-0.5-0.6-1.2-1.1c-0.3-0.2-1.4-0.5-1.8-0.5z"/>
	<path id="Layer" class="s1" d="m51.9 28.6q-0.1 0.3-0.2 0.5c0 0.1 0.7 1.3 0.9 1.5 0.2 0.2 1.7 0.5 1.9 0.5 0.2 0 0.6 0 0.4-0.5-0.1-0.5-0.6-1.4-1-1.5-0.4-0.1-1.2-0.4-1.5-0.5-0.4-0.1-0.5 0-0.5 0z"/>
	<path id="Layer" class="s1" d="m53.4 30.8q-0.2 0.4-0.3 0.9c0 0.4 0.3 1.3 0.6 1.6 0.3 0.2 2.4 0.8 2.4 0.8 0 0 0.2-0.7 0.2-1.1 0.1-0.4-1-1.6-1.1-1.7-0.1-0.2-1.5-0.5-1.8-0.5z"/>
	<path id="Layer" class="s0" d="m57.4 39.2c-0.8-0.2-1.9-0.4-2.4-1-0.4-0.7-0.9-1.6-5.2-1.9-4.4-0.4-33.9-4.5-36.9-4.7-3-0.2-5.3 3.5-5.3 3.5 0 0-1.9-0.2-3-0.6q-0.5-0.2-1-0.6-0.2 1.1-0.1 2.2c0.3 2.3 1.7 4.5 6.8 5.5 5.1 1 7.1-2.9 7.2-4.6 0 0 12.5 0.9 20.3 1.8 7.7 0.9 10.3 0.4 12.9 1.5 2.6 1 3.2 1.7 4.3 1.7 0.7 0 2.1-1.3 3.1-2.6-0.3-0.1-0.5-0.2-0.7-0.2z"/>
	<path id="Layer" class="s4" d="m7.2 36c0-0.1 0-0.2-0.1-0.2 0-0.1-0.1 0-0.2 0zm-1.5 3c0 0.1 0 0.2 0.1 0.2 0.1 0.1 0.1 0 0.2-0.1zm1.4-3c-0.2-0.1-0.2-0.1-0.2-0.1q0 0 0 0 0 0 0 0 0 0 0 0 0 0.1 0 0.1 0 0.1-0.1 0.2-0.1 0.4-0.4 0.9c-0.2 0.6-0.5 1.4-0.7 1.9l0.3 0.1c0.1-0.5 0.5-1.3 0.7-1.9q0.2-0.5 0.4-0.8 0-0.2 0.1-0.3 0 0 0 0 0 0 0 0 0-0.1 0-0.1 0 0 0 0c0 0 0 0-0.1 0z"/>
	<path id="Layer" class="s4" d="m8.3 35.1c0 0-0.1 0-0.1 0.1-0.1 0.1 0 0.2 0.1 0.2zm8.4 2c0.1 0 0.2-0.1 0.2-0.2 0-0.1 0-0.1-0.1-0.2zm-8.5-1.8c-0.1 0.2-0.1 0.2-0.1 0.2q0 0 0 0 0 0 0 0 0 0 0 0 0 0 0.1 0 0 0 0 0 0.1 0 0.2 0.1 0.2 0 0.6 0.1c0.6 0.1 1.3 0.3 2.2 0.5 1.7 0.3 3.8 0.7 5.5 0.9v-0.3c-1.6-0.2-3.7-0.6-5.5-0.9-0.8-0.2-1.6-0.4-2.1-0.5q-0.4-0.1-0.7-0.1-0.1-0.1-0.1-0.1-0.1 0-0.1 0 0 0 0 0 0 0 0 0 0 0 0 0c0 0 0 0 0 0.1z"/>
	<path id="Layer" class="s2" d="m12.3 25.4c0 0-3.2-2.2-5.9-2.4-2.6-0.2-4.8 1.7-4.8 1.7 0 0 6.6-5.8 8.4-6 1.8-0.2 4.1-0.4 6.3 1z"/>
</svg>