<svg width="76" height="62" viewBox="0 0 76 62" fill="none" xmlns="http://www.w3.org/2000/svg" xmlns:xlink="http://www.w3.org/1999/xlink">
<line x1="3.781" y1="51.734" x2="72.482" y2="51.734" stroke="#353537" stroke-width="1" stroke-miterlimit="3.999327" stroke-linecap="round" stroke-linejoin="round"/>
<line x1="3.781" y1="59.609" x2="72.482" y2="59.609" stroke="#353537" stroke-width="1" stroke-miterlimit="3.999327" stroke-linecap="round" stroke-linejoin="round"/>
<path d="M66.921,15.941C62.327,9.625 55.853,4.924 48.425,2.512C40.997,0.1 32.996,0.1 25.569,2.513C18.141,4.925 11.667,9.627 7.074,15.943C2.481,22.26 0.005,29.868 0,37.677L73.997,37.677C74.106,29.849 71.618,22.205 66.921,15.941Z" fill="#1D7430"/>
<path d="M37,37.674L36.706,37.269C36.531,37.397 36.458,37.623 36.524,37.829C36.591,38.035 36.783,38.174 37,38.174L37,37.674ZM66.899,15.938L67.3,15.638C67.136,15.419 66.826,15.372 66.605,15.533L66.899,15.938ZM73.952,37.674L73.952,38.174C74.225,38.174 74.448,37.955 74.452,37.682L73.952,37.674ZM37.294,38.079L67.193,16.342L66.605,15.533L36.706,37.269L37.294,38.079ZM66.499,16.237C71.122,22.415 73.567,29.951 73.452,37.666L74.452,37.682C74.57,29.745 72.055,21.993 67.3,15.638L66.499,16.237ZM73.952,37.174L37,37.174L37,38.174L73.952,38.174L73.952,37.174Z" fill="#FFFFFF"/>
<path d="M37.001,37.68L36.526,37.834C36.593,38.04 36.785,38.18 37.001,38.18C37.218,38.18 37.41,38.04 37.477,37.834L37.001,37.68ZM25.578,2.532L25.417,2.058C25.158,2.146 25.018,2.426 25.103,2.686L25.578,2.532ZM48.425,2.532L48.9,2.686C48.985,2.426 48.845,2.146 48.586,2.058L48.425,2.532ZM37.477,37.525L26.054,2.377L25.103,2.686L36.526,37.834L37.477,37.525ZM25.739,3.005C33.042,0.519 40.961,0.519 48.264,3.005L48.586,2.058C41.074,-0.499 32.928,-0.499 25.417,2.058L25.739,3.005ZM47.949,2.377L36.526,37.525L37.477,37.834L48.9,2.686L47.949,2.377Z" fill="#FFFFFF"/>
<path d="M37.002,37.674L37.002,38.174C37.218,38.174 37.41,38.035 37.477,37.829C37.544,37.622 37.471,37.397 37.296,37.269L37.002,37.674ZM0.003,37.674L-0.497,37.681C-0.493,37.954 -0.27,38.174 0.003,38.174L0.003,37.674ZM7.079,15.938L7.373,15.533C7.152,15.372 6.843,15.419 6.679,15.638L7.079,15.938ZM37.002,37.174L0.003,37.174L0.003,38.174L37.002,38.174L37.002,37.174ZM0.503,37.667C0.397,29.949 2.85,22.414 7.479,16.237L6.679,15.638C1.917,21.991 -0.606,29.742 -0.497,37.681L0.503,37.667ZM6.785,16.342L36.708,38.079L37.296,37.269L7.373,15.533L6.785,16.342Z" fill="#FFFFFF"/>
<path d="M41.488,37.681C41.492,36.792 41.232,35.921 40.741,35.18C40.25,34.439 39.55,33.86 38.729,33.518C37.908,33.175 37.004,33.085 36.132,33.257C35.26,33.429 34.458,33.857 33.83,34.486C33.201,35.115 32.773,35.916 32.601,36.788C32.428,37.661 32.519,38.565 32.862,39.385C33.204,40.206 33.782,40.906 34.524,41.398C35.265,41.889 36.136,42.148 37.025,42.144C37.612,42.147 38.193,42.034 38.736,41.81C39.279,41.587 39.772,41.259 40.187,40.844C40.602,40.429 40.931,39.935 41.154,39.392C41.377,38.85 41.491,38.268 41.488,37.681Z" fill="#353537"/>
<path d="M36.207,37.126C35.894,37.582 36.01,38.204 36.465,38.516C36.921,38.829 37.543,38.713 37.856,38.258L36.207,37.126ZM53.048,16.128C53.361,15.673 53.245,15.051 52.79,14.738C52.334,14.425 51.712,14.541 51.399,14.997L53.048,16.128ZM37.856,38.258L53.048,16.128L51.399,14.997L36.207,37.126L37.856,38.258Z" fill="#353537"/>
</svg>
