<svg version="1.2" xmlns="http://www.w3.org/2000/svg" viewBox="0 0 70 89" width="70" height="89">
	<title>screen_2_x2-svg</title>
	<style>
		.s0 { fill: #353537;stroke: #353537;stroke-miterlimit:10;stroke-width: .3 } 
		.s1 { fill: #f4f4f4;stroke: #353537;stroke-miterlimit:10;stroke-width: .3 } 
		.s2 { fill: #ff5904;stroke: #353537;stroke-miterlimit:10;stroke-width: .3 } 
		.s3 { fill: #f4f4f4 } 
		.s4 { fill: none;stroke: #353537;stroke-linecap: round;stroke-linejoin: round;stroke-width: .3 } 
		.s5 { fill: #353537 } 
	</style>
	<path id="Layer" class="s0" d="m10.3 14.4h44.1v64 5.8l2.1 4.5-6.7-4.5h-39.5z"/>
	<path id="Layer" class="s1" d="m12.5 12.4h44.1v64 5.7 6.6l-4.6-6.6h-39.5z"/>
	<path id="Layer" class="s2" d="m12.5 12.4h44.1v4.5h-44.1z"/>
	<path id="Layer" class="s0" d="m47.7 14.7q0-0.3-0.1-0.5-0.2-0.3-0.5-0.4-0.2-0.1-0.5 0-0.3 0-0.5 0.2-0.2 0.2-0.3 0.5 0 0.3 0.1 0.6 0.1 0.2 0.3 0.4 0.3 0.2 0.6 0.2 0.2 0 0.3-0.1 0.2-0.1 0.4-0.2 0.1-0.2 0.2-0.3 0-0.2 0-0.4z"/>
	<path id="Layer" class="s1" d="m51.4 14.7q0-0.3-0.2-0.5-0.1-0.3-0.4-0.4-0.2-0.1-0.5 0-0.3 0-0.5 0.2-0.2 0.2-0.3 0.5 0 0.3 0.1 0.6 0.1 0.2 0.3 0.4 0.3 0.2 0.6 0.2 0.1 0 0.3-0.1 0.2-0.1 0.3-0.2 0.2-0.2 0.2-0.3 0.1-0.2 0.1-0.4z"/>
	<path id="Layer" class="s1" d="m55.1 14.7q0-0.3-0.2-0.5-0.1-0.3-0.4-0.4-0.3-0.1-0.6 0-0.2 0-0.4 0.2-0.3 0.2-0.3 0.5-0.1 0.3 0 0.6 0.2 0.2 0.4 0.4 0.2 0.2 0.5 0.2 0.2 0 0.4-0.1 0.2-0.1 0.3-0.2 0.1-0.2 0.2-0.3 0.1-0.2 0.1-0.4z"/>
	<path id="Layer" class="s2" d="m43.1 57.2h-17.3l-2.2-26.1h21.6z"/>
	<path id="Layer" class="s1" d="m43.7 49.6l0.7-9.2h-20l0.7 9.2z"/>
	<path id="Layer" class="s1" d="m21.8 28.9h25.5v3.7h-25.5z"/>
	<path id="Layer" class="s1" d="m24 26.3h21.1v2.7h-21.1z"/>
	<path id="Layer" class="s0" d="m21.7 63.4c0-1.1 0.9-2 2-2h21.7c1.1 0 2 0.9 2 2v5.7c0 1.1-0.9 2-2 2h-21.7c-1.1 0-2-0.9-2-2z"/>
	<path id="Layer" fill-rule="evenodd" class="s3" d="m28 68.6q-0.4 0-0.8-0.2-0.4-0.2-0.5-0.6-0.1-0.4-0.1-0.9v-1.8q0-0.5 0.1-0.9 0.1-0.4 0.5-0.6 0.4-0.2 0.8-0.2 0.5 0 0.9 0.2 0.3 0.2 0.4 0.6 0.2 0.4 0.1 0.9v1.8q0.1 0.5-0.1 0.9-0.1 0.4-0.4 0.6-0.4 0.2-0.9 0.2zm0-0.7q0.2 0 0.3-0.1 0.2-0.1 0.2-0.3 0-0.2 0-0.3v-2.4q0-0.2 0-0.3-0.1-0.2-0.2-0.3-0.1-0.1-0.3-0.1-0.2 0-0.3 0.1-0.1 0.1-0.2 0.3 0 0.2 0 0.4v2.3q0 0.2 0 0.3 0 0.2 0.2 0.3 0.1 0.1 0.3 0.1z"/>
	<path id="Layer" fill-rule="evenodd" class="s3" d="m30.1 68.5v-5h1.2q0.5 0 0.9 0.1 0.3 0.1 0.5 0.4 0.2 0.4 0.2 0.8 0 0.3-0.1 0.6 0 0.2-0.1 0.4-0.2 0.1-0.4 0.2l0.7 2.5h-0.9l-0.6-2.3h-0.5v2.3zm1-2.9h0.2q0.3 0 0.5-0.1 0.1 0 0.2-0.2 0.1-0.2 0.1-0.4 0-0.3-0.2-0.6-0.1-0.1-0.2-0.1-0.2-0.1-0.3-0.1h-0.3z"/>
	<path id="Layer" fill-rule="evenodd" class="s3" d="m33.6 68.5v-5h1.2q0.5 0 0.9 0.2 0.4 0.1 0.5 0.5 0.2 0.4 0.1 0.9v1.8q0.1 0.5-0.1 0.9-0.1 0.4-0.5 0.5-0.4 0.2-0.9 0.2zm0.9-0.6h0.3q0.2 0 0.4-0.1 0.2-0.2 0.2-0.4 0-0.2 0-0.5v-1.9q0-0.3 0-0.5 0-0.2-0.2-0.3-0.2-0.1-0.4-0.1h-0.3z"/>
	<path id="Layer" class="s3" d="m37 68.5v-5h2.2v0.6h-1.2v1.5h0.9v0.6h-0.9v1.7h1.2v0.6z"/>
	<path id="Layer" fill-rule="evenodd" class="s3" d="m39.7 68.5v-5h1.2q0.4 0 0.8 0.1 0.4 0.1 0.6 0.4 0.2 0.4 0.2 0.8 0 0.3-0.1 0.6 0 0.2-0.2 0.4-0.1 0.1-0.3 0.2l0.7 2.5h-1l-0.6-2.3h-0.4v2.3zm0.9-2.9h0.3q0.2 0 0.4-0.1 0.2 0 0.3-0.2 0-0.2 0-0.4 0-0.3-0.1-0.6-0.1-0.1-0.3-0.1-0.1-0.1-0.3-0.1h-0.3z"/>
	<path id="Layer" class="s4" d="m32.3 0v8.4"/>
	<path id="Layer" class="s5" d="m65.5 5.3c0.2-0.1 0.2-0.3 0.1-0.4-0.2-0.2-0.4-0.2-0.5-0.1zm-6.3 5c-0.1 0.1-0.1 0.3 0 0.5 0.1 0.1 0.3 0.1 0.5 0zm5.8-5.5l-5.8 5.5 0.4 0.5 5.8-5.5z"/>
	<path id="Layer" class="s5" d="m6 4.8c-0.1-0.1-0.3-0.1-0.4 0.1-0.2 0.1-0.2 0.3 0 0.4zm5.3 6c0.2 0.1 0.4 0.1 0.5 0 0.1-0.2 0.1-0.4 0-0.5zm-5.8-5.5l5.8 5.5 0.4-0.5-5.8-5.5z"/>
	<path id="Layer" class="s4" d="m0 33.5h7.3"/>
	<path id="Layer" class="s4" d="m61.7 33.5h7.2"/>
</svg>