<svg version="1.2" xmlns="http://www.w3.org/2000/svg" viewBox="0 0 65 58" width="65" height="58">
	<title>speech_bubble_31_x2-svg</title>
	<style>
		.s0 { fill: #f4f4f4 } 
		.s1 { fill: #263238 } 
		.s2 { fill: #ff5904 } 
	</style>
	<path id="Layer" class="s0" d="m8 23.8c1-5.7 3.7-11 7.8-15.2 5.4-5.4 12.7-8.4 20.3-8.4 7.5 0 14.8 3 20.2 8.3 2.7 2.7 4.8 5.8 6.2 9.3 1.5 3.5 2.2 7.2 2.2 11 0 3.8-0.7 7.5-2.1 11-1.4 3.5-3.5 6.6-6.2 9.3-5.4 5.4-12.6 8.4-20.2 8.4-7.6 0.1-14.8-2.9-20.2-8.3-4.6-4.5-7.5-10.4-8.2-16.8l-7.5-4.9z"/>
	<path id="Layer" class="s1" d="m8 23.8l-0.6 0.2-1.5 0.7-5.7 2.7-0.2 0.1 0.2 0.1 7.5 5-0.1-0.2c0.6 5 2.4 9.7 5.4 13.6q1.2 1.8 2.7 3.3 1.6 1.6 3.5 2.9c2.5 1.9 5.4 3.4 8.4 4.3 6.8 2.1 14.2 1.6 20.6-1.4 3.5-1.6 6.7-3.9 9.3-6.8 2.6-2.9 4.6-6.3 5.9-10 2.1-6.1 2.1-12.8 0-18.9-1-2.9-2.4-5.6-4.3-8-1.7-2.4-3.8-4.4-6.2-6.1l-0.9-0.6q-0.4-0.3-0.9-0.6c-0.6-0.3-1.2-0.7-1.8-1q-1.8-0.9-3.8-1.6-1.9-0.6-3.8-1c-0.7-0.1-1.3-0.2-1.9-0.3l-1-0.1h-1c-4.7-0.4-9.4 0.5-13.6 2.6-3.5 1.6-6.7 3.9-9.3 6.8-2 2.1-3.6 4.6-4.8 7.3q-1.1 2.5-1.8 5.2-0.2 0.9-0.2 1.4-0.1 0.2-0.1 0.5 0.1-0.3 0.1-0.5 0.1-0.5 0.4-1.4c1.2-4.6 3.5-8.8 6.7-12.3 2.6-2.8 5.7-5 9.2-6.6q3-1.4 6.3-2.1 3.5-0.6 7.1-0.4h0.9l1 0.1q0.9 0.2 1.9 0.3 1.9 0.4 3.7 1.1 1.9 0.6 3.7 1.6c0.6 0.3 1.2 0.6 1.8 1q0.5 0.2 0.9 0.5l0.9 0.6c2.3 1.7 4.3 3.7 6.1 6 1.8 2.4 3.2 5 4.1 7.9 2.3 6.6 2.1 13.9-0.7 20.4-2.7 6.4-7.8 11.6-14.1 14.5-6.3 3-13.5 3.5-20.2 1.5-3-1-5.8-2.4-8.4-4.3q-1.7-1.3-3.3-2.9-1.5-1.4-2.8-3.1c-2.9-3.9-4.7-8.6-5.4-13.4v-0.1l-7.6-4.9v0.2l5.8-2.8 1.4-0.7q0.3-0.1 0.5-0.3z"/>
	<path id="Layer" class="s2" d="m23.7 27.1c0.2-1.6 0.8-3.1 1.8-4.3 1-1.2 2.3-2.1 3.8-2.5q1.2-0.3 2.4-0.2 1.2 0.2 2.3 0.9c0.8 0.5 1.5 1.2 2 2.1 0.4-0.8 1-1.5 1.7-2q1-0.8 2.2-1.1 1.2-0.3 2.4 0c1.6 0.3 2.9 1 4 2.2 1.1 1.1 1.9 2.5 2.1 4.1 0.4 2 0 4-0.9 5.8-1.1 1.9-2.6 3.4-4.4 4.5-2.9 1.9-6.7 4.4-6.7 4.4 0 0-3.5-2.4-6.5-4.1-1.9-0.9-3.5-2.3-4.8-4.1-1-1.7-1.6-3.7-1.4-5.7z"/>
</svg>