<svg version="1.2" xmlns="http://www.w3.org/2000/svg" viewBox="0 0 45 58" width="45" height="58">
	<title>survey_x2-svg</title>
	<style>
		.s0 { fill: #263238 } 
		.s1 { fill: #ff5904 } 
		.s2 { fill: #353537 } 
		.s3 { fill: #f4f4f4 } 
		.s4 { fill: #e0e0e0 } 
	</style>
	<path id="Layer" class="s0" d="m40.2 2.6h-40.2l3.1 55.1h40.2z"/>
	<path id="Layer" class="s1" d="m41 2.6h-40.2l3.1 55.1h40.2z"/>
	<g id="Layer" style="opacity: .5">
		<path id="Layer" class="s2" d="m38.2 4.5h-35.6l2.6 49.8h36.5z"/>
	</g>
	<path id="Layer" class="s3" d="m2.6 4.5c2.7 16.6 0.9 33.2 3.5 49.8h36.5c-2.6-16.6-0.8-33.2-3.5-49.8z"/>
	<g id="Layer" style="opacity: .3">
		<path id="Layer" fill-rule="evenodd" class="s1" d="m12.7 19.8c0.7 0.7 1.1 1.6 1.1 2.6q0.1 0.7-0.2 1.4-0.3 0.7-0.7 1.2-0.5 0.5-1.2 0.8-0.7 0.3-1.4 0.3c-0.9 0-1.9-0.4-2.6-1.1-0.7-0.7-1.1-1.6-1.1-2.6q0-0.7 0.2-1.4 0.3-0.6 0.7-1.1 0.5-0.6 1.2-0.8 0.6-0.3 1.4-0.3c0.9 0 1.9 0.4 2.6 1zm-2.6-0.4q-0.6 0-1.1 0.2-0.6 0.3-1 0.7-0.4 0.4-0.6 1-0.2 0.5-0.2 1.1c0.1 0.8 0.4 1.6 1 2.1 0.5 0.6 1.3 0.9 2.1 0.9q0.6 0 1.1-0.2 0.6-0.2 1-0.6 0.4-0.5 0.6-1 0.2-0.6 0.2-1.2c0-0.8-0.4-1.5-1-2.1-0.5-0.6-1.3-0.9-2.1-0.9z"/>
	</g>
	<path id="Layer" class="s4" d="m30.3 46.7h-11.6q-0.1 0-0.2 0.1-0.1 0-0.2 0.1-0.1 0.1-0.1 0.3-0.1 0.1-0.1 0.2 0.1 0.3 0.3 0.5 0.2 0.2 0.5 0.2h11.5q0.1 0 0.3-0.1 0.1 0 0.2-0.1 0-0.1 0.1-0.2 0-0.2 0-0.3 0-0.3-0.2-0.5-0.2-0.2-0.5-0.2z"/>
	<path id="Layer" class="s4" d="m36.4 43.9h-17.9q-0.1 0-0.2 0-0.2 0.1-0.3 0.2 0 0.1-0.1 0.2 0 0.1 0 0.2 0 0.3 0.2 0.5 0.2 0.2 0.5 0.2h17.9q0.2 0 0.3 0 0.1-0.1 0.2-0.2 0.1-0.1 0.1-0.2 0.1-0.1 0.1-0.2-0.1-0.3-0.3-0.5-0.2-0.2-0.5-0.2z"/>
	<g id="Layer" style="opacity: .3">
		<path id="Layer" fill-rule="evenodd" class="s1" d="m13 31.6c0.7 0.7 1.1 1.6 1.2 2.6q0 0.7-0.3 1.4-0.2 0.7-0.7 1.2-0.5 0.5-1.2 0.8-0.6 0.2-1.3 0.2c-1 0-1.9-0.3-2.6-1-0.7-0.7-1.1-1.6-1.2-2.6q0-0.7 0.3-1.4 0.2-0.7 0.7-1.2 0.5-0.5 1.2-0.8 0.6-0.2 1.4-0.2c0.9 0 1.8 0.3 2.5 1zm-3.7-0.2q-0.5 0.2-0.9 0.7-0.4 0.4-0.7 0.9-0.2 0.6-0.1 1.2c0 0.8 0.3 1.6 0.9 2.1 0.6 0.6 1.4 0.9 2.2 0.9q0.5 0 1.1-0.2 0.5-0.2 0.9-0.7 0.4-0.4 0.6-0.9 0.3-0.6 0.2-1.2c0-0.8-0.3-1.6-0.9-2.1-0.6-0.6-1.3-0.9-2.1-0.9q-0.6 0-1.2 0.2z"/>
	</g>
	<path id="Layer" class="s4" d="m23.9 21.7h-6.2q-0.3 0-0.5-0.2-0.2-0.2-0.2-0.5 0-0.1 0-0.3 0.1-0.1 0.2-0.2 0.1-0.1 0.2-0.1 0.1-0.1 0.3-0.1h6.1q0.3 0 0.5 0.2 0.2 0.2 0.2 0.5 0 0.1 0 0.2-0.1 0.2-0.2 0.3-0.1 0.1-0.2 0.1-0.1 0.1-0.2 0.1z"/>
	<path id="Layer" class="s4" d="m31 21.7h-4.2q-0.3 0-0.5-0.2-0.2-0.2-0.2-0.5 0-0.1 0.1-0.3 0-0.1 0.1-0.2 0.1-0.1 0.2-0.1 0.1-0.1 0.3-0.1h4.1q0.3 0 0.5 0.2 0.2 0.2 0.2 0.5 0 0.1 0 0.2 0 0.2-0.1 0.3-0.1 0.1-0.3 0.1-0.1 0.1-0.2 0.1z"/>
	<path id="Layer" class="s4" d="m34.4 24.5h-16.6q-0.3 0-0.5-0.2-0.2-0.2-0.2-0.5 0-0.1 0.1-0.2 0-0.1 0.1-0.2 0.1-0.1 0.2-0.2 0.1 0 0.3 0h16.5q0.3 0 0.5 0.2 0.2 0.2 0.2 0.4 0 0.2 0 0.3-0.1 0.1-0.2 0.2-0.1 0.1-0.2 0.2-0.1 0-0.2 0z"/>
	<g id="Layer" style="opacity: .3">
		<path id="Layer" fill-rule="evenodd" class="s1" d="m10.9 42.3c1 0.1 1.9 0.4 2.6 1.1 0.7 0.7 1.2 1.6 1.3 2.6 0.1 2-1.3 3.6-3.3 3.6-2 0-3.8-1.6-4-3.6q0-0.7 0.2-1.4 0.2-0.7 0.7-1.2 0.5-0.5 1.1-0.8 0.7-0.3 1.4-0.3zm-1.1 0.9q-0.5 0.2-0.9 0.6-0.4 0.5-0.6 1-0.2 0.6-0.1 1.2c0.1 0.8 0.4 1.5 1 2.1 0.6 0.6 1.4 0.9 2.3 0.9q0.5 0 1.1-0.2 0.5-0.3 0.9-0.7 0.3-0.4 0.5-1 0.2-0.5 0.1-1.1c0-0.8-0.4-1.6-1-2.1-0.6-0.6-1.4-0.9-2.2-0.9q-0.6 0-1.1 0.2z"/>
	</g>
	<path id="Layer" class="s4" d="m37.2 34.9h-19.1q-0.1 0-0.3 0.1-0.1 0-0.2 0.1-0.1 0.1-0.1 0.3-0.1 0.1-0.1 0.2 0 0.3 0.2 0.5 0.2 0.2 0.5 0.2h19.1q0.2 0 0.3-0.1 0.1 0 0.2-0.1 0.1-0.1 0.1-0.2 0.1-0.1 0.1-0.3 0-0.3-0.2-0.5-0.2-0.2-0.5-0.2z"/>
	<path id="Layer" class="s4" d="m32.7 32.1h-14.7q-0.1 0-0.3 0-0.1 0.1-0.2 0.2-0.1 0.1-0.1 0.2-0.1 0.1-0.1 0.3 0.1 0.2 0.3 0.4 0.2 0.2 0.4 0.2h14.7q0.1 0 0.3 0 0.1-0.1 0.2-0.2 0.1 0 0.1-0.2 0.1-0.1 0.1-0.2-0.1-0.3-0.3-0.5-0.2-0.2-0.4-0.2z"/>
	<path id="Layer" class="s1" d="m10.4 24.6l-0.2-0.5c-0.6-0.9-1.8-1.7-2.2-2l0.3-0.5q1.2 0.7 2.1 1.8c0.9-1.2 2.3-2.5 4.1-3.9l0.4 0.5c-1.9 1.5-3.3 2.9-4.2 4.2q-0.1 0.2-0.3 0.4z"/>
	<path id="Layer" class="s1" d="m10.7 36.3q-0.1-0.2-0.2-0.4c-0.6-0.9-1.8-1.7-2.2-2l0.4-0.5q1.2 0.7 2 1.8c1-1.2 2.3-2.5 4.2-3.9l0.4 0.5c-2 1.5-3.4 2.8-4.3 4.1z"/>
	<path id="Layer" class="s1" d="m11.5 48.1l-0.3-0.4c-0.6-0.9-1.8-1.7-2.3-2l0.3-0.5q1.3 0.7 2.2 1.8c0.9-1.2 2.2-2.5 4-3.9l0.4 0.5c-1.9 1.5-3.3 2.8-4.1 4.1z"/>
	<path id="Layer" class="s1" d="m25.2 8.6q-0.5 1.3-1.1 2.6c0.8 0.4 1.5 1 2 1.8 0.5 0.7 0.9 1.6 0.9 2.5h2.9c-0.2-2.9-2.1-5.5-4.7-6.9z"/>
	<path id="Layer" class="s0" d="m14.2 15.6h2.9c-0.1-0.9 0.1-1.7 0.5-2.4 0.3-0.8 0.8-1.4 1.5-1.9q-0.8-1.2-1.7-2.5c-2.1 1.4-3.4 3.9-3.2 6.8z"/>
	<path id="Layer" class="s1" d="m21.3 7.7c-1.4-0.1-2.7 0.3-3.9 1.1q0.9 1.2 1.7 2.5c0.8-0.5 1.7-0.7 2.6-0.7 0.8 0 1.6 0.2 2.4 0.6q0.6-1.3 1.1-2.6c-1.2-0.6-2.5-0.9-3.9-0.9z"/>
	<g id="Layer" style="opacity: .5">
		<path id="Layer" class="s0" d="m21.3 7.7c-1.4-0.1-2.7 0.3-3.9 1.1q0.9 1.2 1.7 2.5c0.8-0.5 1.7-0.7 2.6-0.7 0.8 0 1.6 0.2 2.4 0.6q0.6-1.3 1.1-2.6c-1.2-0.6-2.5-0.9-3.9-0.9z"/>
	</g>
	<path id="Layer" fill-rule="evenodd" class="s0" d="m22.5 16.2q-0.2 0.1-0.5 0.1-0.3-0.1-0.5-0.3-0.1-0.1-0.1-0.3-0.1-0.1 0-0.2 0-0.2 0.1-0.3 0-0.1 0.1-0.2c0.3-0.2 3.3-1.4 3.3-1.4 0 0-2.1 2.3-2.4 2.6zm-0.7-0.4q0.1 0.1 0.2 0.1 0.2 0 0.3-0.1 0 0 0.1-0.1 0 0 0-0.1 0-0.1 0-0.1 0-0.1-0.1-0.1 0-0.2-0.2-0.2-0.1 0-0.2 0.1-0.1 0-0.1 0.1-0.1 0-0.1 0.1 0 0.1 0 0.1 0.1 0.1 0.1 0.2z"/>
	<path id="Layer" class="s3" d="m28.3 12.2q0 0.2 0 0.4-0.1 0.2-0.2 0.3-0.2 0.1-0.3 0.2-0.2 0.1-0.4 0.1-0.4 0-0.8-0.3-0.3-0.3-0.3-0.7-0.1-0.2 0-0.4 0.1-0.2 0.2-0.4 0.1-0.1 0.3-0.2 0.2-0.1 0.4-0.1 0.4 0 0.8 0.3 0.3 0.3 0.3 0.8z"/>
	<path id="Layer" class="s0" d="m27.1 11.9q0 0.1 0 0.1-0.1 0-0.1 0.1 0 0 0 0-0.1 0-0.1 0-0.1 0-0.1 0-0.1-0.1-0.1-0.2 0 0 0 0 0-0.1 0.1-0.1 0 0 0 0 0.1 0 0.1 0 0.1 0 0.1 0 0.1 0.1 0.1 0.1z"/>
	<path id="Layer" class="s0" d="m27.8 11.9q0 0.1 0 0.1 0 0 0 0.1 0 0-0.1 0 0 0 0 0-0.1 0-0.1 0-0.1-0.1-0.1-0.2 0 0 0 0 0-0.1 0-0.1 0.1 0 0.1 0 0 0 0.1 0 0 0 0.1 0 0 0.1 0 0.1z"/>
	<path id="Layer" class="s0" d="m27.3 12.8q-0.3 0-0.5-0.2-0.1-0.1-0.1-0.1 0 0 0.1 0 0-0.1 0-0.1 0 0 0 0 0 0 0.1 0 0 0 0 0.1 0.2 0.1 0.4 0.1 0.2 0 0.3 0 0.1-0.1 0.2-0.1 0-0.1 0-0.1 0.1 0 0.1 0 0 0 0 0.1 0 0 0 0 0 0 0 0 0 0 0 0 0 0.1 0 0.1-0.1 0.1-0.3 0.1-0.1 0.1-0.3 0.1z"/>
	<path id="Layer" class="s3" d="m22.5 9.1q0.1 0.2 0 0.4-0.1 0.2-0.2 0.3-0.1 0.2-0.3 0.3-0.2 0-0.4 0-0.4 0-0.7-0.3-0.4-0.3-0.4-0.7-0.1-0.2 0-0.4 0.1-0.2 0.2-0.3 0.1-0.2 0.3-0.3 0.2 0 0.4 0 0.4 0 0.7 0.3 0.4 0.3 0.4 0.7z"/>
	<path id="Layer" class="s0" d="m21.3 8.9q0 0-0.1 0 0 0 0 0.1 0 0 0 0-0.1 0-0.1 0-0.1 0-0.1 0-0.1-0.1-0.1-0.1 0-0.1 0-0.1 0 0 0.1-0.1 0 0 0 0 0 0 0.1 0 0 0 0.1 0 0 0.1 0.1 0.2z"/>
	<path id="Layer" class="s0" d="m22 8.9q0 0 0 0 0 0 0 0.1 0 0-0.1 0 0 0 0 0-0.1 0-0.1 0-0.1-0.1-0.1-0.1 0-0.1 0-0.1 0 0 0-0.1 0 0 0.1 0 0 0 0 0 0.1 0 0.2 0 0 0.1 0 0.2z"/>
	<path id="Layer" class="s0" d="m22 9.5h-1q0 0 0 0 0 0 0-0.1 0 0 0 0 0 0 0-0.1h1q0.1 0.1 0.1 0.1 0 0 0 0 0 0.1 0 0.1 0 0-0.1 0z"/>
	<path id="Layer" class="s3" d="m17.4 12.2q0 0.2-0.1 0.4 0 0.2-0.2 0.3-0.1 0.1-0.3 0.2-0.2 0.1-0.4 0.1-0.4 0-0.7-0.3-0.3-0.3-0.4-0.7 0-0.2 0-0.4 0.1-0.2 0.2-0.4 0.2-0.1 0.4-0.2 0.1-0.1 0.3-0.1 0.5 0 0.8 0.3 0.3 0.3 0.4 0.8z"/>
	<path id="Layer" class="s0" d="m16.1 11.9q0 0.1 0 0.1 0 0-0.1 0.1 0 0 0 0 0 0-0.1 0 0 0-0.1 0 0-0.1 0-0.2 0 0 0 0 0-0.1 0-0.1 0 0 0 0 0.1 0 0.1 0 0.1 0 0.1 0 0.1 0.1 0.1 0.1z"/>
	<path id="Layer" class="s0" d="m16.9 11.9q0 0.1 0 0.1-0.1 0-0.1 0.1 0 0 0 0-0.1 0-0.1 0-0.1 0-0.1 0-0.1-0.1-0.1-0.2 0 0 0 0 0-0.1 0.1-0.1 0 0 0 0 0 0 0.1 0 0 0 0.1 0 0.1 0.1 0.1 0.1z"/>
	<path id="Layer" class="s0" d="m15.9 12.8q-0.1 0-0.1 0 0 0 0 0 0-0.1 0-0.1 0 0 0 0 0.1-0.2 0.3-0.2 0.1-0.1 0.3-0.1 0.3 0 0.5 0.3 0.1 0 0.1 0 0 0 0 0 0 0 0 0 0 0.1-0.1 0.1 0 0 0 0-0.1 0-0.1 0-0.2-0.2-0.5-0.2-0.1 0-0.2 0-0.1 0.1-0.2 0.2 0 0 0 0z"/>
	<path id="Layer" fill-rule="evenodd" class="s0" d="m32.4 4.8q0 0.1-0.1 0.2 0 0.1-0.1 0.1-0.1 0.1-0.2 0.1h-22q-0.1 0-0.3-0.2-0.1-0.1-0.1-0.2 0-0.1 0-0.2c0.5-1.4 2-2.4 3.7-2.4h3.5c0.5 0 1-0.2 1.1-0.6 0.4-0.9 1.5-1.6 2.8-1.6 1.3 0 2.5 0.7 3 1.6q0.2 0.3 0.5 0.4 0.3 0.2 0.7 0.2h3.5c1.7 0 3.3 1 3.9 2.4q0.1 0.1 0.1 0.2zm-11.2-2.3q0.2 0 0.3-0.2 0.2-0.1 0.2-0.3 0.1-0.2 0.1-0.4 0-0.4-0.3-0.7-0.3-0.2-0.7-0.2-0.2-0.1-0.4 0-0.2 0.1-0.3 0.2-0.1 0.2-0.2 0.4-0.1 0.1-0.1 0.3 0.1 0.4 0.4 0.7 0.3 0.3 0.7 0.3 0.2 0 0.3-0.1z"/>
</svg>