<svg version="1.2" xmlns="http://www.w3.org/2000/svg" viewBox="0 0 65 48" width="65" height="48">
	<title>virusrafiki_2_x2-svg</title>
	<style>
		.s0 { fill: #ebebeb } 
		.s1 { fill: #f5f5f5 } 
		.s2 { fill: #e6e6e6 } 
		.s3 { fill: #f4f4f4 } 
		.s4 { fill: #ff5904 } 
		.s5 { fill: #353537 } 
		.s6 { fill: #263238 } 
	</style>
	<path id="Layer" class="s0" d="m0 43.1h65-65z"/>
	<path id="Layer" class="s0" d="m41.8 44.9h-4.3 4.3z"/>
	<path id="Layer" class="s0" d="m54 44.5h-1.1v0.1h1.1z"/>
	<path id="Layer" class="s0" d="m51.5 44h-8.9 8.9z"/>
	<path id="Layer" class="s0" d="m29.3 44.7h-4v0.1h4z"/>
	<path id="Layer" class="s0" d="m24.2 44.7h-2.5v0.1h2.5z"/>
	<path id="Layer" class="s0" d="m12.9 44.2h-6.1 6.1z"/>
	<path id="Layer" fill-rule="evenodd" class="s0" d="m30.8 37.2h-25.1q-0.3 0-0.5-0.2-0.2-0.2-0.2-0.5v-35.6q0-0.4 0.2-0.6 0.2-0.2 0.5-0.2h25.1q0.3 0 0.5 0.2 0.2 0.3 0.3 0.6v35.6q-0.1 0.3-0.3 0.5-0.2 0.2-0.5 0.2zm-25.1-37.1q-0.3 0-0.5 0.2-0.2 0.3-0.2 0.6v35.6q0 0.3 0.2 0.5 0.2 0.2 0.5 0.2h25.1q0.3 0 0.5-0.2 0.2-0.2 0.2-0.5v-35.6q0-0.3-0.2-0.6-0.2-0.2-0.5-0.2z"/>
	<path id="Layer" fill-rule="evenodd" class="s0" d="m58.9 37.2h-25.1q-0.3 0-0.5-0.2-0.2-0.2-0.2-0.5v-35.6q0-0.4 0.2-0.6 0.2-0.2 0.5-0.2h25.1q0.3 0 0.5 0.2 0.3 0.2 0.3 0.6v35.6q0 0.3-0.2 0.5-0.3 0.2-0.6 0.2zm-25.1-37.1q-0.3 0-0.5 0.2-0.2 0.3-0.2 0.6v35.6q0 0.3 0.2 0.5 0.2 0.2 0.5 0.2h25.1q0.3 0 0.5-0.2 0.2-0.2 0.2-0.5v-35.6q0-0.3-0.2-0.6-0.2-0.2-0.5-0.2z"/>
	<path id="Layer" class="s1" d="m50.9 19.1c0.5 1.2 0.5 2.4 0.8 3.5 0.3 1.2 0.7 2.4 0.8 3.5q0.1 1.6-0.2 3.2c-0.1 1.1-0.3 2.1-0.7 3.1-0.4 0.9-1 1.7-1.6 2.6q-0.9 1.2-2.1 2.1c-0.8 0.6-1.5 1.3-2.5 1.7-1 0.4-2.1 0.6-3.3 0.8-1.1 0.2-2.3 0-3.5 0-1.2-0.1-2.3 0.1-3.5-0.2-1.3-0.3-2.5-1-3.7-1.5-1.2-0.5-2.5-0.7-3.7-1.4-1.2-0.6-2.4-1.2-3.5-2-1.2-0.9-2-2-3-2.9q-1.5-1.4-2.7-3c-0.8-1-1.3-2.2-1.8-3.3-0.6-1.2-1.8-2.3-2.2-3.5-0.3-1.2 0-2.3-0.1-3.4-0.1-1.2-0.3-2.4-0.1-3.4 0.1-1.1 0.6-2.1 0.9-3 0.4-1 1.2-1.6 1.9-2.4q0.9-1.2 2.1-2.1c0.8-0.6 1.6-1.3 2.6-1.7 0.9-0.4 2.2-0.4 3.3-0.6 1.1-0.2 2.2-0.4 3.4-0.4 1.2 0 2.4 0.3 3.6 0.5 1.3 0.2 2.5 0.3 3.7 0.7 1.3 0.5 2.5 0.9 3.7 1.6 1.2 0.6 2.3 1.5 3.4 2.3 1.1 0.9 2 1.9 2.9 2.9 1 1 2.5 1.7 3.2 2.8 0.8 1.1 1.3 2.4 1.9 3.5z"/>
	<path id="Layer" class="s0" d="m23 6c-0.1 0.1-0.3 0.1-0.5 0.2q0.1-0.4 0.1-0.8 0-0.3-0.1-0.6 0.3 0 0.5 0.1c0.4 0.4 0.8 0.7 0.8-0.5-0.1-0.8-0.5-0.7-0.8-0.3-0.1 0.2-0.3 0.3-0.5 0.4q-0.2-1-0.8-1.7c0.2-0.1 0.4-0.3 0.5-0.3 0.5 0.1 1.1 0.1 0.3-0.9-0.5-0.6-0.8-0.3-0.8 0.3 0.1 0.2-0.1 0.4-0.2 0.6q-0.3-0.3-0.7-0.5c0.2-0.2 0.4-0.4 0.5-0.5 0.3-0.1 0.5-0.2 0-0.4-0.3-0.2-0.3-0.1-0.3 0.2 0 0.1-0.1 0.4-0.3 0.6q-0.4-0.2-0.8-0.4c0.1-0.2 0.2-0.3 0.3-0.4 0.5-0.2 1-0.4-0.2-0.9-0.7-0.3-0.8 0.1-0.5 0.5 0.1 0.2 0.1 0.4 0.1 0.7q-0.9-0.2-1.8-0.1c-0.1-0.2-0.1-0.4-0.1-0.6 0.3-0.4 0.6-0.9-0.7-0.6-0.7 0.2-0.6 0.6-0.1 0.8 0.2 0 0.4 0.3 0.5 0.5q-0.9 0.2-1.5 0.8c-0.2-0.2-0.5-0.5-0.5-0.7 0.1-0.5 0.1-1.1-0.9-0.3-0.6 0.4-0.3 0.8 0.2 0.7 0.3 0 0.7 0.3 0.9 0.5q-0.3 0.4-0.6 0.8c-0.2-0.1-0.6-0.3-0.7-0.4-0.2-0.3-0.3-0.5-0.5 0-0.1 0.4 0.1 0.4 0.3 0.3 0.1-0.1 0.5 0.1 0.8 0.3q-0.2 0.3-0.3 0.7-0.2-0.1-0.4-0.3c-0.2-0.4-0.6-0.9-0.9 0.4-0.2 0.7 0.3 0.8 0.7 0.4 0.1-0.1 0.3-0.1 0.5-0.1q-0.2 0.9 0 1.9-0.1 0-0.3-0.1c-0.4-0.3-0.9-0.6-0.7 0.7 0.2 0.8 0.6 0.6 0.8 0.1q0.1-0.2 0.4-0.3 0.1 0.4 0.4 0.9-0.2 0.1-0.5 0.1c-0.3 0-0.4 0-0.2 0.3 0.2 0.2 0.2 0.2 0.3 0 0-0.1 0.3-0.2 0.5-0.3q0.2 0.3 0.5 0.6-0.2 0.1-0.4 0.2c-0.5 0-1.1 0.1-0.1 0.9 0.6 0.6 0.9 0.2 0.7-0.3-0.1-0.2 0-0.4 0.1-0.6q0.5 0.4 1.2 0.7c-0.1 0.2-0.2 0.5-0.4 0.5-0.5 0.2-1 0.5 0.2 1 0.7 0.3 0.9-0.2 0.5-0.6-0.1-0.2-0.1-0.5 0-0.8q0.4 0.1 0.9 0.1 0 0.3-0.1 0.6c-0.1 0.2-0.2 0.3 0.3 0.2 0.2 0 0.2-0.1 0-0.3 0 0-0.1-0.3-0.1-0.5q0.4 0 0.7-0.1c0.1 0.3 0.2 0.6 0.1 0.8-0.3 0.4-0.5 0.9 0.7 0.6 0.8-0.2 0.6-0.7 0.1-0.8-0.2-0.1-0.4-0.4-0.5-0.6q0.9-0.3 1.6-0.9 0.2 0.1 0.2 0.4c0 0.5 0 1.1 0.9 0.2 0.6-0.5 0.3-0.8-0.2-0.7-0.2 0-0.4-0.1-0.6-0.2q0.3-0.3 0.5-0.7 0.3 0.2 0.5 0.4c0.2 0.3 0.3 0.5 0.4-0.1 0.2-0.3 0-0.3-0.2-0.2-0.1 0-0.4-0.1-0.6-0.2q0.2-0.4 0.3-0.8 0.3 0 0.4 0.2c0.3 0.4 0.6 0.9 0.9-0.4 0.1-0.8-0.3-0.8-0.7-0.4z"/>
	<path id="Layer" class="s2" d="m54.7 31.4q-0.2-0.1-0.3-0.3 0.4-0.1 0.8-0.5 0.1 0.2 0.1 0.4c0 0.3-0.1 0.8 0.7 0.2 0.5-0.3 0.2-0.5-0.1-0.5-0.2 0-0.3-0.1-0.5-0.2q0.5-0.5 0.8-1.2c0.1 0.1 0.3 0.2 0.4 0.3 0.1 0.3 0.3 0.7 0.6-0.2 0.2-0.6-0.1-0.6-0.4-0.4-0.1 0.1-0.3 0.1-0.6 0.1q0.1-0.3 0.2-0.6 0.2 0 0.4 0.1c0.3 0.1 0.3 0.2 0.3-0.2 0-0.2-0.1-0.2-0.2-0.1-0.1 0.1-0.3 0.1-0.5 0.1q0-0.4-0.1-0.7 0.2 0 0.4 0.1c0.3 0.2 0.6 0.4 0.5-0.5-0.1-0.6-0.4-0.5-0.6-0.1 0 0.1-0.2 0.2-0.4 0.2q-0.1-0.6-0.6-1.1c0.1-0.2 0.2-0.3 0.4-0.3 0.3 0 0.8 0 0.1-0.7-0.4-0.4-0.6-0.1-0.5 0.3 0 0.1-0.1 0.3-0.2 0.5q-0.5-0.5-1.1-0.7c0.1-0.2 0.2-0.5 0.3-0.6 0.4-0.1 0.7-0.3-0.1-0.7-0.6-0.2-0.7 0.1-0.4 0.4 0.1 0.2 0 0.6 0 0.8q-0.4-0.1-0.7-0.1c-0.1-0.2-0.1-0.5 0-0.6 0.1-0.3 0.2-0.4-0.2-0.3-0.3 0.1-0.2 0.2-0.1 0.3 0.1 0.1 0.1 0.4 0.2 0.6q-0.3 0-0.6 0.1-0.1-0.2 0-0.4c0.2-0.3 0.3-0.7-0.6-0.4-0.5 0.2-0.4 0.5 0 0.6q0.2 0.1 0.3 0.3-0.3 0.1-0.6 0.3-0.3 0.2-0.6 0.4 0-0.1-0.1-0.2c0.1-0.4 0.1-0.8-0.6-0.2-0.5 0.4-0.2 0.6 0.2 0.6q0.2-0.1 0.3 0.1-0.2 0.2-0.4 0.6-0.1-0.1-0.3-0.3c0-0.2-0.1-0.3-0.2 0-0.1 0.2 0 0.2 0.1 0.2 0.1 0 0.3 0.1 0.4 0.2q-0.1 0.2-0.2 0.5-0.1 0-0.3-0.1c-0.2-0.3-0.4-0.7-0.6 0.3-0.1 0.5 0.3 0.5 0.5 0.2q0.2-0.1 0.4-0.1-0.1 0.5 0 1c-0.2 0-0.4 0.1-0.5 0-0.3-0.2-0.6-0.5-0.5 0.5 0.1 0.5 0.4 0.4 0.6 0.1 0-0.2 0.3-0.3 0.5-0.4q0.1 0.4 0.2 0.7-0.1 0.1-0.3 0.1c-0.2 0.1-0.3 0-0.1 0.3 0.1 0.1 0.2 0.1 0.2-0.1 0 0 0.2-0.2 0.3-0.3q0.1 0.3 0.3 0.5c-0.1 0.1-0.3 0.3-0.4 0.3-0.4 0-0.8 0-0.1 0.7 0.4 0.4 0.6 0.1 0.5-0.3-0.1-0.1 0.1-0.4 0.2-0.5q0.5 0.4 1.2 0.7-0.1 0.1-0.2 0.3c-0.4 0.1-0.7 0.4 0.2 0.6 0.5 0.2 0.6-0.1 0.3-0.4q-0.1-0.2-0.1-0.5 0.3 0.1 0.7 0.1 0 0.2-0.1 0.5c-0.1 0.2-0.2 0.3 0.2 0.2 0.3 0 0.2-0.1 0.1-0.3-0.1 0-0.1-0.2-0.1-0.4q0.3 0 0.6-0.1 0.1 0.2 0 0.4c-0.2 0.3-0.3 0.7 0.6 0.4 0.5-0.2 0.4-0.6 0-0.6z"/>
	<path id="Layer" class="s1" d="m52.5 41.3q0 0-0.1-0.1 0.1 0 0.3-0.1 0-0.1 0.1-0.1 0.1 0.1 0.1 0.1c-0.1 0.2-0.1 0.4 0.3 0.2 0.2-0.2 0.1-0.3-0.1-0.3q-0.1 0-0.2-0.1 0.2-0.2 0.4-0.5 0 0 0.1 0 0 0 0 0.1c0.1 0.1 0.2 0.3 0.4-0.1 0-0.3-0.1-0.3-0.3-0.2q-0.1 0.1-0.2 0.1 0-0.2 0-0.3 0.2 0 0.3 0c0.1 0.1 0.1 0.1 0.1-0.1 0-0.1 0-0.1-0.1 0q-0.1 0-0.3 0 0-0.2 0-0.3 0.1 0 0.2 0c0.1 0.1 0.3 0.2 0.2-0.2 0-0.3-0.2-0.2-0.2-0.1q-0.1 0.1-0.2 0.2-0.1-0.2-0.2-0.4 0-0.1-0.1-0.2 0 0 0.1-0.1 0 0 0.1 0c0.1 0 0.3 0 0-0.3-0.2-0.2-0.3-0.1-0.2 0.1q0 0.1-0.1 0.2-0.2-0.2-0.5-0.3c0-0.1 0-0.3 0.1-0.3 0.2-0.1 0.4-0.1-0.1-0.3-0.2-0.1-0.3 0-0.1 0.2 0 0.1 0 0.3 0 0.4q-0.2-0.1-0.4-0.1 0-0.1 0-0.3c0.1-0.1 0.1-0.2-0.1-0.1-0.1 0-0.1 0.1 0 0.1q0.1 0.2 0.1 0.3-0.2 0-0.3 0.1 0-0.1 0-0.2c0.1-0.2 0.2-0.4-0.3-0.2-0.2 0-0.2 0.2 0 0.2q0.1 0.1 0.2 0.2-0.2 0-0.3 0.1-0.2 0.1-0.3 0.2 0 0 0-0.1c0-0.2 0-0.4-0.4-0.1-0.2 0.2 0 0.3 0.1 0.3q0.1 0 0.2 0-0.1 0.2-0.2 0.3-0.1 0-0.1-0.1c-0.1-0.1-0.1-0.1-0.1 0-0.1 0.1 0 0.1 0 0.1q0.1 0 0.2 0.1 0 0.1-0.1 0.2-0.1 0-0.1 0c-0.1-0.2-0.2-0.3-0.3 0.1-0.1 0.3 0.1 0.3 0.2 0.1q0.1 0 0.2 0 0 0.2 0 0.4 0 0.1-0.1 0.1-0.1 0-0.1-0.1c-0.1-0.1-0.3-0.2-0.3 0.3 0.1 0.2 0.2 0.2 0.3 0 0 0 0.2-0.1 0.3-0.1q0 0.1 0.1 0.3-0.1 0-0.2 0c-0.1 0.1-0.1 0 0 0.2 0 0 0.1 0 0.1-0.1 0 0 0-0.1 0.1-0.1q0.1 0.1 0.2 0.2c-0.1 0.1-0.2 0.1-0.2 0.1-0.2 0-0.4 0.1-0.1 0.4 0.2 0.2 0.3 0 0.2-0.1q0-0.2 0.1-0.3 0.3 0.2 0.6 0.3 0 0.1-0.1 0.2c-0.2 0-0.3 0.2 0.1 0.3 0.3 0.1 0.3-0.1 0.2-0.2q-0.1-0.1-0.1-0.2 0.2 0 0.3 0 0 0.1 0 0.2c-0.1 0.1-0.1 0.2 0.1 0.1 0.1 0 0.1 0 0-0.1q0-0.1 0-0.2 0.1 0 0.3-0.1 0 0.1 0 0.2c-0.1 0.2-0.2 0.4 0.3 0.2 0.2-0.1 0.1-0.2-0.1-0.3z"/>
	<path id="Layer" class="s1" d="m11.6 14.3q-0.1 0.1-0.2 0 0.1-0.1 0.1-0.3 0.1-0.1 0.1-0.3 0.1 0.1 0.2 0.2c0.1 0.2 0.2 0.4 0.4-0.2 0.1-0.3-0.1-0.4-0.3-0.2q-0.1 0.1-0.3 0.1 0.1-0.5-0.1-0.9 0.1-0.1 0.3 0c0.2 0.1 0.5 0.1 0.2-0.4-0.1-0.4-0.3-0.3-0.3 0 0 0.1-0.1 0.2-0.2 0.3q-0.1-0.2-0.2-0.4 0.1-0.1 0.2-0.1c0.2-0.1 0.3 0 0.1-0.2-0.1-0.2-0.1-0.1-0.2 0 0 0.1-0.1 0.2-0.2 0.3q-0.1-0.2-0.3-0.3 0.1-0.2 0.2-0.2c0.3 0 0.5 0 0.1-0.4-0.3-0.3-0.4-0.1-0.3 0.1q0 0.2-0.1 0.4-0.2-0.2-0.5-0.3-0.1 0-0.3-0.1 0-0.1 0.1-0.2c0.2-0.2 0.4-0.4-0.2-0.4-0.4 0-0.4 0.2-0.2 0.3q0.1 0.2 0.1 0.3-0.4 0-0.8 0.2c0-0.2-0.1-0.3-0.1-0.4 0.1-0.3 0.2-0.5-0.3-0.3-0.4 0.1-0.3 0.3 0 0.4 0.1 0 0.2 0.2 0.3 0.3q-0.2 0.1-0.4 0.3-0.2-0.2-0.3-0.3c0-0.2 0-0.3-0.2-0.1-0.1 0.2 0 0.2 0.1 0.2 0.1 0 0.2 0.1 0.3 0.2q-0.1 0.1-0.2 0.3-0.1-0.1-0.2-0.2c0-0.2-0.1-0.5-0.4 0-0.2 0.3 0 0.4 0.2 0.3q0.2 0 0.3 0-0.3 0.4-0.3 0.9-0.1 0-0.1-0.1c-0.2-0.2-0.4-0.4-0.4 0.2-0.1 0.4 0.1 0.4 0.3 0.2q0.1-0.1 0.2-0.1 0 0.2 0.1 0.4-0.2 0.1-0.3 0c-0.1 0-0.2-0.1-0.1 0.1 0 0.2 0.1 0.1 0.1 0.1q0.1-0.1 0.3-0.1 0 0.2 0.1 0.3-0.1 0.1-0.2 0.1c-0.2-0.1-0.5-0.1-0.2 0.4 0.2 0.3 0.4 0.2 0.4-0.1q0-0.1 0.1-0.2 0.2 0.3 0.4 0.5c0 0.1-0.1 0.2-0.2 0.2-0.2 0-0.5 0-0.1 0.4 0.3 0.3 0.4 0.1 0.4-0.2-0.1-0.1 0-0.2 0.1-0.3q0.1 0.1 0.3 0.2 0 0.1-0.1 0.2c0 0.1-0.1 0.1 0.1 0.2 0.1 0 0.1-0.1 0.1-0.2q0-0.1 0-0.2 0.2 0 0.3 0.1 0 0 0 0.1 0 0.1 0 0.2c-0.2 0.2-0.4 0.3 0.2 0.4 0.4 0 0.3-0.2 0.1-0.4 0 0-0.1-0.2-0.1-0.3q0.4 0 0.9-0.2 0 0.2 0 0.3c-0.1 0.2-0.2 0.4 0.4 0.2 0.3-0.1 0.2-0.3-0.1-0.4q-0.1 0-0.2-0.1 0.2-0.1 0.3-0.3 0.2 0.2 0.2 0.3c0.1 0.1 0.1 0.2 0.2 0 0.1-0.1 0.1-0.1-0.1-0.1 0 0-0.1-0.1-0.2-0.2q0.2-0.1 0.3-0.3 0.1 0 0.1 0.1c0.1 0.3 0.2 0.5 0.5 0 0.1-0.3-0.1-0.4-0.3-0.3z"/>
	<path id="Layer" class="s3" d="m35.6 18.4q-0.3-0.1-0.4-0.4 0.3-0.1 0.7-0.3 0.2-0.1 0.4-0.3 0.1 0.2 0.1 0.4c-0.1 0.5-0.1 1.1 0.9 0.4 0.6-0.4 0.3-0.8-0.2-0.8-0.1 0.1-0.4-0.1-0.5-0.2q0.6-0.7 0.9-1.5c0.2 0 0.5 0.1 0.5 0.3 0.2 0.4 0.5 0.9 0.9-0.3 0.3-0.7-0.2-0.8-0.6-0.4-0.1 0.1-0.4 0.1-0.7 0.1q0.1-0.4 0.2-0.9c0.2 0.1 0.5 0.1 0.6 0.2 0.3 0.2 0.4 0.3 0.4-0.2 0-0.4-0.2-0.3-0.4-0.2 0 0.1-0.3 0.1-0.6 0.1q0-0.4-0.1-0.9 0.3 0 0.5 0.1c0.4 0.3 0.8 0.6 0.7-0.6-0.1-0.8-0.5-0.7-0.7-0.2-0.1 0.2-0.3 0.3-0.6 0.4q-0.2-0.9-0.8-1.6c0.1-0.1 0.3-0.3 0.5-0.3 0.5 0 1 0 0.1-0.9-0.5-0.5-0.8-0.2-0.7 0.3 0.1 0.2 0 0.5-0.2 0.7q-0.6-0.6-1.4-0.9c0.1-0.3 0.2-0.7 0.4-0.8 0.4-0.2 0.9-0.4-0.2-0.9-0.7-0.3-0.8 0.2-0.5 0.6 0.1 0.2 0 0.7 0 1q-0.5-0.1-1-0.1c0-0.3 0-0.7 0-0.9 0.2-0.3 0.3-0.4-0.2-0.3-0.4 0.1-0.3 0.2-0.1 0.4 0.1 0.1 0.2 0.5 0.2 0.8q-0.4 0-0.7 0.1-0.1-0.3 0-0.5c0.2-0.4 0.4-0.9-0.8-0.6-0.7 0.2-0.5 0.7 0 0.8 0.1 0 0.3 0.2 0.4 0.4q-0.4 0.1-0.8 0.4-0.4 0.2-0.8 0.6-0.1-0.2-0.1-0.4c0-0.4 0-1-0.9-0.2-0.6 0.5-0.2 0.8 0.3 0.7q0.2 0 0.4 0.2-0.3 0.3-0.4 0.8-0.3-0.2-0.4-0.4c-0.2-0.2-0.2-0.3-0.4 0-0.1 0.3 0 0.3 0.2 0.3 0.1-0.1 0.3 0.1 0.5 0.2q-0.2 0.3-0.2 0.7-0.3 0-0.4-0.2c-0.3-0.4-0.6-0.8-0.9 0.4-0.1 0.8 0.4 0.8 0.7 0.4 0.1-0.1 0.3-0.2 0.5-0.2q-0.1 0.7 0 1.3c-0.2 0.1-0.5 0.1-0.6 0-0.4-0.3-0.9-0.6-0.7 0.6 0.1 0.8 0.6 0.7 0.8 0.2 0-0.2 0.4-0.4 0.6-0.5q0.1 0.5 0.4 0.8-0.2 0.2-0.5 0.3c-0.3 0-0.4 0-0.1 0.3 0.2 0.2 0.2 0.1 0.3-0.1 0-0.1 0.2-0.2 0.3-0.4q0.2 0.3 0.4 0.6c-0.1 0.2-0.3 0.4-0.5 0.4-0.5 0-1.1 0.1-0.1 1 0.5 0.5 0.8 0.1 0.6-0.4 0-0.2 0.1-0.5 0.3-0.7q0.6 0.6 1.5 0.9 0 0.2-0.2 0.4c-0.5 0.2-0.9 0.5 0.3 0.9 0.7 0.2 0.8-0.2 0.4-0.6-0.1-0.1-0.1-0.4-0.1-0.6q0.4 0.1 0.8 0.1 0 0.3 0 0.6c-0.2 0.3-0.3 0.4 0.2 0.3 0.4 0 0.3-0.2 0.1-0.3-0.1-0.1-0.1-0.4-0.1-0.6q0.4 0 0.8-0.2 0.1 0.3 0 0.5c-0.2 0.4-0.4 1 0.8 0.5 0.7-0.2 0.5-0.6 0-0.7z"/>
	<g id="Layer" style="opacity: .2">
		<path id="Layer" class="s4" d="m37.9 25.4c0.7 3.8-0.3 7.6-2.2 10.5-2 3.1-5.2 5.3-8.8 6-3.7 0.8-7.3-0.3-10.2-2.3-3-2-5.5-4.8-6.2-8.6-0.8-3.7 0.2-7.5 2.1-10.5 2-3 5.1-5.1 8.8-5.8 3.8-0.8 7.5-0.2 10.5 1.8 2.9 1.9 5.2 5.1 6 8.9z"/>
	</g>
	<path id="Layer" class="s4" d="m19 37.5c-0.3 1.8-1.7 8.4-2.2 9.1q-1-0.4-2-0.8 0 0-0.1 0 0 0 0 0-0.1 0.1-0.1 0.1 0 0.1 0.1 0.1 1.1 1 2.4 1.5c0.8-1.7 2.8-7.5 2.8-8.3-0.4-0.7-0.9-1.7-0.9-1.7z"/>
	<g id="Layer" style="opacity: .2">
		<path id="Layer" class="s5" d="m19 37.5c-0.1 0.5-0.3 1.4-0.5 2.5q0.6 0.2 1.2 0.4c0.1-0.6 0.2-1 0.2-1.2-0.4-0.7-0.9-1.7-0.9-1.7z"/>
	</g>
	<path id="Layer" class="s4" d="m36.5 28.2c0 3.4-1.5 6.5-3.7 8.8-2.3 2.3-5.4 3.6-8.6 3.6-3.4 0-6.3-1.6-8.5-3.8-2.2-2.3-3.9-5.2-3.9-8.6 0-3.4 1.5-6.5 3.7-8.7 2.2-2.2 5.3-3.5 8.7-3.5 3.3 0 6.5 1.2 8.7 3.4 2.3 2.4 3.6 5.5 3.6 8.8z"/>
	<g id="Layer" style="opacity: .2">
		<path id="Layer" class="s5" d="m27.7 40.1l-1.3-1.3c0.1 0.5 0 1.2 0 1.6q0.6-0.1 1.3-0.3z"/>
	</g>
	<path id="Layer" class="s4" d="m26 38.5c0.6 0.8 2.3 3.2 3.4 5.1 0.4 0.7 3.2 1.2 3.6 1.4q-0.1 1-0.3 2.1-0.1 0.1 0 0.1 0 0 0 0.1 0.1 0 0.1 0 0-0.1 0.1-0.1 0.7-1.3 0.9-2.7c-1.8-0.2-2.5-1-3.6-1.2-1-1.9-1.7-4.2-2-4.5-0.8-0.2-2.2-0.3-2.2-0.3z"/>
	<path id="Layer" class="s4" d="m34.7 16.4c-0.6 1.3-2.1 2.9-2.9 3.6q0 0.2 0.1 0.3 0.2 0.2 0.3 0.2c0 0 2.3-2.4 2.8-3.7-0.2-0.2-0.3-0.4-0.3-0.4z"/>
	<path id="Layer" class="s4" d="m36 16.3q-0.1 0.4-0.3 0.7-0.3 0.3-0.7 0.3-0.2 0-0.3-0.1-0.2-0.1-0.3-0.2-0.3-0.3-0.3-0.7 0-0.4 0.2-0.6 0.3-0.3 0.7-0.3 0.4 0 0.7 0.3 0.3 0.2 0.3 0.6z"/>
	<g id="Layer" style="opacity: .2">
		<path id="Layer" class="s3" d="m36 16.3q-0.1 0.4-0.3 0.7-0.3 0.3-0.7 0.3-0.2 0-0.3-0.1-0.2-0.1-0.3-0.2-0.3-0.3-0.3-0.7 0-0.4 0.2-0.6 0.3-0.3 0.7-0.3 0.4 0 0.7 0.3 0.3 0.2 0.3 0.6z"/>
	</g>
	<path id="Layer" class="s4" d="m26.9 13.6c-0.1 1.9-1.3 4.5-2.1 5.8 0.4 0.5 0.9 0.4 0.9 0.4 0 0 1.7-4 1.8-6-0.3-0.1-0.6-0.2-0.6-0.2z"/>
	<path id="Layer" class="s4" d="m28.5 12.9c0.1 0.3 0.1 0.6-0.1 0.9-0.1 0.3-0.4 0.6-0.7 0.7-0.3 0.1-0.7 0.1-1-0.1-0.3-0.1-0.5-0.4-0.6-0.7-0.1-0.3-0.1-0.7 0-1q0.1-0.2 0.3-0.4 0.2-0.1 0.5-0.2c0.3-0.1 0.6-0.1 0.9 0 0.3 0.2 0.6 0.4 0.7 0.8z"/>
	<g id="Layer" style="opacity: .2">
		<path id="Layer" class="s3" d="m28.5 12.9c0.1 0.3 0.1 0.6-0.1 0.9-0.1 0.3-0.4 0.6-0.7 0.7-0.3 0.1-0.7 0.1-1-0.1-0.3-0.1-0.5-0.4-0.6-0.7-0.1-0.3-0.1-0.7 0-1q0.1-0.2 0.3-0.4 0.2-0.1 0.5-0.2c0.3-0.1 0.6-0.1 0.9 0 0.3 0.2 0.6 0.4 0.7 0.8z"/>
	</g>
	<path id="Layer" class="s4" d="m31 15.5c-0.7 1-1.3 2.7-1.4 3.7q-0.2 0-0.3 0-0.2-0.1-0.3-0.2c0 0 0.8-2.6 1.6-3.6 0.2 0.1 0.4 0.1 0.4 0.1z"/>
	<path id="Layer" class="s4" d="m30.5 14.5q-0.3 0.2-0.3 0.5-0.1 0.3 0 0.6 0.2 0.3 0.5 0.4 0.3 0.1 0.6-0.1 0.3-0.1 0.4-0.5 0.1-0.3-0.1-0.6-0.1-0.3-0.5-0.4-0.3-0.1-0.6 0.1z"/>
	<g id="Layer" style="opacity: .2">
		<path id="Layer" class="s3" d="m30.5 14.5q-0.3 0.2-0.3 0.5-0.1 0.3 0 0.6 0.2 0.3 0.5 0.4 0.3 0.1 0.6-0.1 0.3-0.1 0.4-0.5 0.1-0.3-0.1-0.6-0.1-0.3-0.5-0.4-0.3-0.1-0.6 0.1z"/>
	</g>
	<path id="Layer" class="s4" d="m23.4 14c0.1 1 0.7 2.3 1.2 2.9q-0.1 0.1-0.2 0.2-0.1 0-0.2 0c0 0-1-1.9-1.1-2.9 0.2-0.1 0.3-0.2 0.3-0.2z"/>
	<path id="Layer" class="s4" d="m22.6 13.7q-0.1 0.3 0 0.5 0.1 0.1 0.2 0.2 0.1 0.1 0.2 0.1 0.1 0.1 0.3 0 0.1 0 0.2 0 0.1-0.1 0.2-0.2 0.1-0.1 0.1-0.2 0.1-0.3 0-0.5-0.2-0.2-0.4-0.3-0.3-0.1-0.5 0-0.2 0.2-0.3 0.4z"/>
	<g id="Layer" style="opacity: .2">
		<path id="Layer" class="s3" d="m22.6 13.7q-0.1 0.3 0 0.5 0.1 0.1 0.2 0.2 0.1 0.1 0.2 0.1 0.1 0.1 0.3 0 0.1 0 0.2 0 0.1-0.1 0.2-0.2 0.1-0.1 0.1-0.2 0.1-0.3 0-0.5-0.2-0.2-0.4-0.3-0.3-0.1-0.5 0-0.2 0.2-0.3 0.4z"/>
	</g>
	<path id="Layer" class="s4" d="m20 13.8c0.6 1.2 0.8 3.1 0.7 4.1q0.2 0.1 0.4 0.1 0.1 0 0.3-0.1c0 0-0.3-2.9-1-4.1-0.2 0-0.4 0-0.4 0z"/>
	<path id="Layer" class="s4" d="m20.7 12.8q0.3 0.3 0.3 0.6 0 0.2 0 0.4-0.1 0.2-0.2 0.3-0.3 0.2-0.6 0.3-0.3 0-0.6-0.2-0.3-0.2-0.3-0.6 0-0.4 0.2-0.6 0.2-0.3 0.5-0.4 0.4 0 0.7 0.2z"/>
	<g id="Layer" style="opacity: .2">
		<path id="Layer" class="s3" d="m20.7 12.8q0.3 0.3 0.3 0.6 0 0.2 0 0.4-0.1 0.2-0.2 0.3-0.3 0.2-0.6 0.3-0.3 0-0.6-0.2-0.3-0.2-0.3-0.6 0-0.4 0.2-0.6 0.2-0.3 0.5-0.4 0.4 0 0.7 0.2z"/>
	</g>
	<path id="Layer" class="s4" d="m17.2 15.9c0.3 1.1 1.1 2.4 1.7 3.1q0 0.1-0.2 0.2-0.1 0.1-0.2 0.1c0 0-1.4-2.1-1.6-3.2 0.2-0.1 0.3-0.2 0.3-0.2z"/>
	<path id="Layer" class="s4" d="m16.2 15.6q0 0.3 0.2 0.6 0 0.1 0.2 0.2 0.1 0.1 0.2 0.1 0.3 0 0.6-0.1 0.2-0.2 0.3-0.5 0-0.3-0.1-0.6-0.1-0.1-0.2-0.2-0.2 0-0.3-0.1-0.3 0-0.6 0.1-0.2 0.2-0.3 0.5z"/>
	<g id="Layer" style="opacity: .2">
		<path id="Layer" class="s3" d="m16.2 15.6q0 0.3 0.2 0.6 0 0.1 0.2 0.2 0.1 0.1 0.2 0.1 0.3 0 0.6-0.1 0.2-0.2 0.3-0.5 0-0.3-0.1-0.6-0.1-0.1-0.2-0.2-0.2 0-0.3-0.1-0.3 0-0.6 0.1-0.2 0.2-0.3 0.5z"/>
	</g>
	<path id="Layer" class="s4" d="m14.2 16.8c1.2 0.7 2.6 2.3 3.2 3.3q0.1 0 0.3-0.1 0.2-0.1 0.2-0.3c0 0-2-2.5-3.3-3.2-0.2 0.2-0.4 0.3-0.4 0.3z"/>
	<path id="Layer" class="s4" d="m14.3 15.5q0.3 0 0.6 0.3 0.2 0.4 0.2 0.7 0 0.2-0.1 0.4-0.1 0.2-0.3 0.3-0.1 0.1-0.3 0.1-0.2 0.1-0.4 0.1-0.4-0.1-0.6-0.4-0.2-0.3-0.2-0.7 0.1-0.4 0.4-0.6 0.3-0.3 0.7-0.2z"/>
	<g id="Layer" style="opacity: .2">
		<path id="Layer" class="s3" d="m14.3 15.5q0.3 0 0.6 0.3 0.2 0.4 0.2 0.7 0 0.2-0.1 0.4-0.1 0.2-0.3 0.3-0.1 0.1-0.3 0.1-0.2 0.1-0.4 0.1-0.4-0.1-0.6-0.4-0.2-0.3-0.2-0.7 0.1-0.4 0.4-0.6 0.3-0.3 0.7-0.2z"/>
	</g>
	<path id="Layer" class="s4" d="m10.5 24.3c1.8 0.3 4.3 1.7 5.5 2.7 0.5-0.3 0.5-0.8 0.5-0.8 0 0-3.7-2.2-5.7-2.5-0.1 0.3-0.3 0.5-0.3 0.5z"/>
	<path id="Layer" class="s4" d="m10 22.6c0.3-0.1 0.6 0 0.9 0.1 0.3 0.2 0.5 0.5 0.6 0.8 0 0.4 0 0.7-0.2 1-0.2 0.3-0.4 0.5-0.8 0.6-0.3 0.1-0.6 0-0.9-0.2-0.3-0.2-0.5-0.5-0.6-0.8 0-0.3 0-0.7 0.2-1 0.1-0.2 0.4-0.5 0.8-0.5z"/>
	<g id="Layer" style="opacity: .2">
		<path id="Layer" class="s3" d="m10 22.6c0.3-0.1 0.6 0 0.9 0.1 0.3 0.2 0.5 0.5 0.6 0.8 0 0.4 0 0.7-0.2 1-0.2 0.3-0.4 0.5-0.8 0.6-0.3 0.1-0.6 0-0.9-0.2-0.3-0.2-0.5-0.5-0.6-0.8 0-0.3 0-0.7 0.2-1 0.1-0.2 0.4-0.5 0.8-0.5z"/>
	</g>
	<path id="Layer" class="s4" d="m12.9 20.4c0.8 0.8 2.5 1.5 3.4 1.8q0 0.1 0 0.3-0.1 0.1-0.2 0.2c0 0-2.5-1.1-3.4-2 0.1-0.2 0.2-0.3 0.2-0.3z"/>
	<path id="Layer" class="s4" d="m11.8 20.7q0.2 0.3 0.5 0.4 0.3 0.2 0.6 0 0.3-0.1 0.4-0.4 0.1-0.3 0-0.6-0.1-0.3-0.4-0.5-0.3-0.1-0.6 0-0.3 0.2-0.5 0.5-0.1 0.3 0 0.6z"/>
	<g id="Layer" style="opacity: .2">
		<path id="Layer" class="s3" d="m11.8 20.7q0.2 0.3 0.5 0.4 0.3 0.2 0.6 0 0.3-0.1 0.4-0.4 0.1-0.3 0-0.6-0.1-0.3-0.4-0.5-0.3-0.1-0.6 0-0.3 0.2-0.5 0.5-0.1 0.3 0 0.6z"/>
	</g>
	<path id="Layer" class="s4" d="m10.5 27.8c1 0 2.3-0.5 3-0.8q0.1 0 0.1 0.1 0.1 0.2 0.1 0.3c0 0-2.1 0.7-3 0.7-0.1-0.2-0.2-0.3-0.2-0.3z"/>
	<path id="Layer" class="s4" d="m9.8 27.3h1.2v1.3h-1.2z"/>
	<g id="Layer" style="opacity: .2">
		<path id="Layer" class="s3" d="m9.8 27.3h1.2v1.3h-1.2z"/>
	</g>
	<path id="Layer" class="s4" d="m9.9 31.2c1.2-0.5 3.2-0.5 4.2-0.3q0.1-0.1 0.1-0.3 0-0.2-0.1-0.3c0 0-2.9-0.1-4.2 0.4 0 0.3 0 0.5 0 0.5z"/>
	<path id="Layer" class="s4" d="m9.1 30.4q0.2-0.3 0.6-0.3 0.3 0.1 0.6 0.3 0.1 0.1 0.2 0.3 0 0.2 0 0.3 0 0.2-0.1 0.4 0 0.1-0.1 0.3-0.3 0.2-0.7 0.2-0.3 0-0.6-0.3-0.2-0.3-0.2-0.6 0-0.4 0.3-0.6z"/>
	<g id="Layer" style="opacity: .2">
		<path id="Layer" class="s3" d="m9.1 30.4q0.2-0.3 0.6-0.3 0.3 0.1 0.6 0.3 0.1 0.1 0.2 0.3 0 0.2 0 0.3 0 0.2-0.1 0.4 0 0.1-0.1 0.3-0.3 0.2-0.7 0.2-0.3 0-0.6-0.3-0.2-0.3-0.2-0.6 0-0.4 0.3-0.6z"/>
	</g>
	<path id="Layer" class="s4" d="m11.6 34.2c1.1-0.1 2.6-0.8 3.3-1.3q0.1 0 0.2 0.2 0.1 0.1 0.1 0.3c0 0-2.3 1.1-3.4 1.1-0.1-0.1-0.2-0.3-0.2-0.3z"/>
	<path id="Layer" class="s4" d="m11.3 35.2q0.2 0 0.5-0.1 0.1-0.1 0.2-0.2 0.1-0.1 0.2-0.2 0-0.2 0-0.3 0-0.2-0.1-0.3 0-0.1-0.2-0.2-0.1-0.1-0.2-0.2-0.3 0-0.6 0.1-0.1 0.1-0.2 0.2-0.1 0.1-0.1 0.2-0.1 0.3 0 0.6 0.2 0.3 0.5 0.4z"/>
	<g id="Layer" style="opacity: .2">
		<path id="Layer" class="s3" d="m11.3 35.2q0.2 0 0.5-0.1 0.1-0.1 0.2-0.2 0.1-0.1 0.2-0.2 0-0.2 0-0.3 0-0.2-0.1-0.3 0-0.1-0.2-0.2-0.1-0.1-0.2-0.2-0.3 0-0.6 0.1-0.1 0.1-0.2 0.2-0.1 0.1-0.1 0.2-0.1 0.3 0 0.6 0.2 0.3 0.5 0.4z"/>
	</g>
	<path id="Layer" class="s4" d="m14.9 39.8c0.5-1.3 1.9-2.9 2.8-3.6q0-0.2-0.2-0.4-0.1-0.1-0.3-0.1c0 0-2.2 2.4-2.7 3.8 0.2 0.1 0.4 0.3 0.4 0.3z"/>
	<path id="Layer" class="s4" d="m13.6 39.9q0-0.4 0.2-0.7 0.3-0.2 0.7-0.3 0.2 0 0.4 0.1 0.1 0.1 0.3 0.2 0.1 0.1 0.2 0.3 0.1 0.2 0.1 0.4 0 0.4-0.3 0.7-0.1 0.1-0.3 0.2-0.2 0-0.3 0-0.4 0.1-0.7-0.2-0.2-0.1-0.2-0.3-0.1-0.2-0.1-0.4z"/>
	<g id="Layer" style="opacity: .2">
		<path id="Layer" class="s3" d="m13.6 39.9q0-0.4 0.2-0.7 0.3-0.2 0.7-0.3 0.2 0 0.4 0.1 0.1 0.1 0.3 0.2 0.1 0.1 0.2 0.3 0.1 0.2 0.1 0.4 0 0.4-0.3 0.7-0.1 0.1-0.3 0.2-0.2 0-0.3 0-0.4 0.1-0.7-0.2-0.2-0.1-0.2-0.3-0.1-0.2-0.1-0.4z"/>
	</g>
	<path id="Layer" class="s4" d="m24.5 43.4c-0.3-1.9 0.2-4.7 0.7-6.1-0.4-0.5-0.9-0.2-0.9-0.2 0 0-0.8 4.2-0.4 6.2 0.3 0 0.6 0.1 0.6 0.1z"/>
	<path id="Layer" class="s4" d="m23.1 44.5c-0.2-0.3-0.2-0.7-0.1-1 0-0.3 0.2-0.6 0.5-0.8 0.3-0.2 0.6-0.2 1-0.2 0.3 0.1 0.6 0.3 0.8 0.5 0.1 0.3 0.2 0.7 0.1 1 0 0.3-0.2 0.6-0.5 0.8-0.3 0.2-0.6 0.3-1 0.2-0.3-0.1-0.6-0.3-0.8-0.5z"/>
	<g id="Layer" style="opacity: .2">
		<path id="Layer" class="s3" d="m23.1 44.5c-0.2-0.3-0.2-0.7-0.1-1 0-0.3 0.2-0.6 0.5-0.8 0.3-0.2 0.6-0.2 1-0.2 0.3 0.1 0.6 0.3 0.8 0.5 0.1 0.3 0.2 0.7 0.1 1 0 0.3-0.2 0.6-0.5 0.8-0.3 0.2-0.6 0.3-1 0.2-0.3-0.1-0.6-0.3-0.8-0.5z"/>
	</g>
	<path id="Layer" class="s4" d="m21.4 42.2c0.5-1.1 0.6-3 0.5-3.9q0.2-0.1 0.3-0.1 0.2 0 0.3 0.1c0 0-0.2 2.8-0.7 3.9-0.2 0-0.4 0-0.4 0z"/>
	<path id="Layer" class="s4" d="m22 43q0.3-0.2 0.3-0.5 0-0.4-0.2-0.6-0.1-0.1-0.3-0.2-0.1-0.1-0.3-0.1-0.1 0-0.3 0.1-0.1 0-0.2 0.1-0.3 0.3-0.3 0.6 0 0.3 0.2 0.6 0.2 0.2 0.6 0.3 0.3 0 0.5-0.3z"/>
	<g id="Layer" style="opacity: .2">
		<path id="Layer" class="s3" d="m22 43q0.3-0.2 0.3-0.5 0-0.4-0.2-0.6-0.1-0.1-0.3-0.2-0.1-0.1-0.3-0.1-0.1 0-0.3 0.1-0.1 0-0.2 0.1-0.3 0.3-0.3 0.6 0 0.3 0.2 0.6 0.2 0.2 0.6 0.3 0.3 0 0.5-0.3z"/>
	</g>
	<path id="Layer" class="s4" d="m12 36.3c0.8-0.5 1.7-1.7 2.1-2.3q0.1 0 0.2 0.1 0.1 0 0.2 0.2c0 0-1.4 1.7-2.2 2.2-0.2-0.2-0.3-0.2-0.3-0.2z"/>
	<path id="Layer" class="s4" d="m12.1 37.1q0.2 0 0.4-0.2 0.1-0.2 0.1-0.5 0-0.2-0.2-0.4-0.2-0.2-0.5-0.1-0.3 0-0.4 0.2-0.1 0.1-0.1 0.2-0.1 0.2 0 0.3 0 0.3 0.2 0.4 0.2 0.2 0.5 0.1z"/>
	<g id="Layer" style="opacity: .2">
		<path id="Layer" class="s3" d="m12.1 37.1q0.2 0 0.4-0.2 0.1-0.2 0.1-0.5 0-0.2-0.2-0.4-0.2-0.2-0.5-0.1-0.3 0-0.4 0.2-0.1 0.1-0.1 0.2-0.1 0.2 0 0.3 0 0.3 0.2 0.4 0.2 0.2 0.5 0.1z"/>
	</g>
	<path id="Layer" class="s4" d="m33 42c-0.8-1-1.5-2.9-1.7-3.9q-0.1 0-0.3 0-0.2 0.1-0.3 0.2c0 0 1 2.8 1.9 3.8 0.2-0.1 0.4-0.1 0.4-0.1z"/>
	<path id="Layer" class="s4" d="m32.5 43.1q-0.3-0.2-0.4-0.5-0.1-0.4 0.1-0.7 0.1-0.3 0.5-0.4 0.3-0.1 0.6 0 0.3 0.1 0.4 0.4 0.1 0.2 0.1 0.5 0 0.2-0.2 0.4-0.1 0.2-0.4 0.3-0.3 0.1-0.7 0z"/>
	<g id="Layer" style="opacity: .2">
		<path id="Layer" class="s3" d="m32.5 43.1q-0.3-0.2-0.4-0.5-0.1-0.4 0.1-0.7 0.1-0.3 0.5-0.4 0.3-0.1 0.6 0 0.3 0.1 0.4 0.4 0.1 0.2 0.1 0.5 0 0.2-0.2 0.4-0.1 0.2-0.4 0.3-0.3 0.1-0.7 0z"/>
	</g>
	<path id="Layer" class="s4" d="m35.2 39.3c-0.4-1-1.6-2.1-2.3-2.6q0-0.2 0.1-0.3 0.1-0.1 0.2-0.1c0 0 1.9 1.7 2.3 2.7-0.1 0.2-0.3 0.3-0.3 0.3z"/>
	<path id="Layer" class="s4" d="m36.3 39.4q-0.1-0.3-0.3-0.5-0.2-0.3-0.5-0.2-0.3 0-0.5 0.2-0.2 0.2-0.2 0.5 0 0.3 0.2 0.5 0.2 0.2 0.5 0.2 0.3 0 0.6-0.2 0.2-0.2 0.2-0.5z"/>
	<g id="Layer" style="opacity: .2">
		<path id="Layer" class="s3" d="m36.3 39.4q-0.1-0.3-0.3-0.5-0.2-0.3-0.5-0.2-0.3 0-0.5 0.2-0.2 0.2-0.2 0.5 0 0.3 0.2 0.5 0.2 0.2 0.5 0.2 0.3 0 0.6-0.2 0.2-0.2 0.2-0.5z"/>
	</g>
	<path id="Layer" class="s4" d="m38.3 37.1c-1.4-0.5-3.1-1.7-3.8-2.5q-0.2 0-0.4 0.1-0.1 0.2-0.1 0.4c0 0 2.6 2 4 2.3 0.1-0.2 0.3-0.3 0.3-0.3z"/>
	<path id="Layer" class="s4" d="m38.5 38.4q-0.4 0-0.7-0.3-0.3-0.2-0.3-0.6-0.1-0.4 0.2-0.7 0.2-0.3 0.6-0.4 0.4 0 0.7 0.2 0.3 0.3 0.3 0.7 0.1 0.4-0.1 0.7-0.3 0.3-0.7 0.4z"/>
	<g id="Layer" style="opacity: .2">
		<path id="Layer" class="s3" d="m38.5 38.4q-0.4 0-0.7-0.3-0.3-0.2-0.3-0.6-0.1-0.4 0.2-0.7 0.2-0.3 0.6-0.4 0.4 0 0.7 0.2 0.3 0.3 0.3 0.7 0.1 0.4-0.1 0.7-0.3 0.3-0.7 0.4z"/>
	</g>
	<path id="Layer" class="s4" d="m39.7 29.6c-1.9 0.1-4.6-0.7-6-1.4-0.5 0.4-0.3 0.9-0.3 0.9 0 0 4.1 1.3 6.1 1.2 0.1-0.4 0.2-0.7 0.2-0.7z"/>
	<path id="Layer" class="s4" d="m40.6 31.2c-0.4 0.1-0.7 0.1-1 0q-0.3-0.1-0.5-0.2-0.1-0.2-0.3-0.4c-0.1-0.3-0.1-0.7 0-1 0.1-0.3 0.3-0.6 0.6-0.8 0.3-0.1 0.7-0.1 1 0 0.3 0.1 0.6 0.3 0.7 0.6 0.2 0.3 0.2 0.7 0.1 1-0.1 0.3-0.3 0.6-0.6 0.8z"/>
	<g id="Layer" style="opacity: .2">
		<path id="Layer" class="s3" d="m40.6 31.2c-0.4 0.1-0.7 0.1-1 0q-0.3-0.1-0.5-0.2-0.1-0.2-0.3-0.4c-0.1-0.3-0.1-0.7 0-1 0.1-0.3 0.3-0.6 0.6-0.8 0.3-0.1 0.7-0.1 1 0 0.3 0.1 0.6 0.3 0.7 0.6 0.2 0.3 0.2 0.7 0.1 1-0.1 0.3-0.3 0.6-0.6 0.8z"/>
	</g>
	<path id="Layer" class="s4" d="m38.5 34c-1.1-0.6-2.8-1-3.8-1q0-0.2 0-0.3 0-0.2 0.1-0.3c0 0 2.7 0.5 3.7 1.2 0 0.2 0 0.4 0 0.4z"/>
	<path id="Layer" class="s4" d="m39.4 33.4q-0.2-0.3-0.5-0.3-0.3-0.1-0.6 0.1-0.3 0.2-0.3 0.5-0.1 0.4 0.1 0.6 0.1 0.2 0.4 0.3 0.2 0.1 0.4 0.1 0.3-0.1 0.4-0.3 0.2-0.2 0.2-0.4 0.1-0.3-0.1-0.6z"/>
	<g id="Layer" style="opacity: .2">
		<path id="Layer" class="s3" d="m39.4 33.4q-0.2-0.3-0.5-0.3-0.3-0.1-0.6 0.1-0.3 0.2-0.3 0.5-0.1 0.4 0.1 0.6 0.1 0.2 0.4 0.3 0.2 0.1 0.4 0.1 0.3-0.1 0.4-0.3 0.2-0.2 0.2-0.4 0.1-0.3-0.1-0.6z"/>
	</g>
	<path id="Layer" class="s4" d="m39.1 26.2c-1 0.2-2.2 1-2.7 1.5q-0.1 0-0.2-0.2-0.1-0.1-0.1-0.2c0 0 1.8-1.2 2.8-1.4 0.1 0.2 0.2 0.3 0.2 0.3z"/>
	<path id="Layer" class="s4" d="m39.3 25.3q-0.3 0-0.5 0.2-0.2 0.1-0.3 0.4 0 0.1 0.1 0.2 0 0.1 0.1 0.2 0.1 0.3 0.3 0.3 0.3 0.1 0.5-0.1 0.1-0.1 0.2-0.2 0.1-0.1 0.1-0.2 0-0.1 0-0.3 0-0.1-0.1-0.2-0.1-0.1-0.2-0.2-0.1 0-0.2-0.1z"/>
	<g id="Layer" style="opacity: .2">
		<path id="Layer" class="s3" d="m39.3 25.3q-0.3 0-0.5 0.2-0.2 0.1-0.3 0.4 0 0.1 0.1 0.2 0 0.1 0.1 0.2 0.1 0.3 0.3 0.3 0.3 0.1 0.5-0.1 0.1-0.1 0.2-0.2 0.1-0.1 0.1-0.2 0-0.1 0-0.3 0-0.1-0.1-0.2-0.1-0.1-0.2-0.2-0.1 0-0.2-0.1z"/>
	</g>
	<path id="Layer" class="s4" d="m38.9 22.8c-1.1 0.7-3 1.1-4 1.2q-0.1 0.1 0 0.3 0 0.2 0.1 0.3c0 0 2.9-0.6 4-1.4-0.1-0.2-0.1-0.4-0.1-0.4z"/>
	<path id="Layer" class="s4" d="m39.9 23.3q-0.2 0.3-0.5 0.4-0.2 0-0.4 0-0.1 0-0.3-0.1-0.2-0.2-0.3-0.6-0.1-0.3 0.1-0.6 0.2-0.3 0.5-0.4 0.2 0 0.4 0 0.1 0 0.3 0.1 0.3 0.2 0.4 0.6 0 0.3-0.2 0.6z"/>
	<g id="Layer" style="opacity: .2">
		<path id="Layer" class="s3" d="m39.9 23.3q-0.2 0.3-0.5 0.4-0.2 0-0.4 0-0.1 0-0.3-0.1-0.2-0.2-0.3-0.6-0.1-0.3 0.1-0.6 0.2-0.3 0.5-0.4 0.2 0 0.4 0 0.1 0 0.3 0.1 0.3 0.2 0.4 0.6 0 0.3-0.2 0.6z"/>
	</g>
	<path id="Layer" class="s4" d="m36.6 20.2c-1.1 0.4-2.3 1.4-2.9 2q-0.2 0-0.3-0.1-0.1-0.1-0.1-0.3c0 0 1.9-1.6 3-1.9 0.1 0.2 0.3 0.3 0.3 0.3z"/>
	<path id="Layer" class="s4" d="m36.7 19.2q-0.3 0-0.5 0.2-0.2 0.2-0.3 0.5 0 0.3 0.2 0.5 0.2 0.2 0.5 0.3 0.3 0 0.5-0.2 0.1-0.1 0.2-0.2 0.1-0.2 0.1-0.3 0-0.3-0.2-0.6-0.2-0.2-0.5-0.2z"/>
	<g id="Layer" style="opacity: .2">
		<path id="Layer" class="s3" d="m36.7 19.2q-0.3 0-0.5 0.2-0.2 0.2-0.3 0.5 0 0.3 0.2 0.5 0.2 0.2 0.5 0.3 0.3 0 0.5-0.2 0.1-0.1 0.2-0.2 0.1-0.2 0.1-0.3 0-0.3-0.2-0.6-0.2-0.2-0.5-0.2z"/>
	</g>
	<g id="Layer" style="opacity: .1">
		<path id="Layer" class="s3" d="m34.8 27.8c0 0.8-0.4 1.4-0.6 2.1-0.1 0.7-0.2 1.4-0.5 2.1q-0.4 0.9-1 1.8-0.6 0.9-1.3 1.7-0.8 0.7-1.7 1.3-0.8 0.6-1.8 1c-0.6 0.3-1.3 0.6-2 0.7-0.7 0.1-1.3 0.1-2.1 0.1-0.7 0-1.3-0.2-2-0.4-0.7-0.1-1.4-0.1-2-0.4-0.6-0.3-1.1-0.9-1.7-1.3-0.5-0.4-1.2-0.6-1.7-1.1-0.5-0.5-1.1-1-1.5-1.6-0.4-0.5-0.6-1.3-0.9-1.9q-0.4-0.9-0.7-2c-0.2-0.6-0.1-1.3-0.1-2.1 0-0.7-0.4-1.4-0.2-2.1 0.1-0.7 0.6-1.4 0.9-2 0.3-0.6 0.5-1.4 0.9-2 0.4-0.5 0.9-1.1 1.4-1.6 0.5-0.5 1.2-0.8 1.7-1.1q0.9-0.6 1.9-1c0.6-0.3 1.3-0.6 1.9-0.7 0.7-0.1 1.4 0 2.1 0q1.1 0 2.1 0.1c0.7 0.1 1.3 0.4 2 0.7 0.6 0.2 1.3 0.4 1.9 0.8 0.6 0.3 1.2 0.7 1.7 1.2 0.5 0.5 0.9 1.1 1.3 1.7 0.4 0.6 0.6 1.3 0.9 1.9 0.2 0.7 0.9 1.2 1 2 0.2 0.7 0.1 1.4 0.1 2.1z"/>
	</g>
	<path id="Layer" class="s3" d="m24.2 24.4c-0.9-0.1-1.7 0.3-1.7 0.9-0.1 0.5 0.5 1.1 1.4 1.2 0.9 0.2 1.7-0.2 1.8-0.8 0.1-0.6-0.6-1.2-1.5-1.3z"/>
	<path id="Layer" class="s3" d="m17.8 24.3c-0.9-0.1-1.6 0.3-1.7 0.9-0.1 0.5 0.6 1.1 1.5 1.2 0.9 0.2 1.6-0.2 1.7-0.8 0.1-0.6-0.6-1.2-1.5-1.3z"/>
	<path id="Layer" class="s3" d="m21.4 30.7c4.1 0.2 6.6-2.2 6.7-2.3q0.1-0.1 0.1-0.3 0-0.1-0.1-0.2 0 0-0.1 0 0-0.1-0.1-0.1 0 0-0.1 0.1-0.1 0-0.1 0c0 0.1-2.9 2.9-7.4 2q-0.1 0-0.1 0-0.1 0-0.2 0 0 0.1 0 0.1-0.1 0.1-0.1 0.1 0 0.2 0.1 0.3 0 0.1 0.2 0.1 0.6 0.1 1.2 0.2z"/>
	<path id="Layer" class="s3" d="m24.3 21.7q0 0-0.1 0.1 0 0.1 0 0.2 0.1 0 0.1 0.1 0 0.1 0.1 0.1 0.1 0 0.1 0.1 0.9 0.2 1.7-0.1 0.8-0.2 1.5-0.8 0 0 0-0.1 0.1-0.1 0.1-0.1-0.1-0.1-0.1-0.2 0 0-0.1-0.1-0.1-0.1-0.2-0.1-0.2 0-0.3 0.1c0 0.1-0.9 1-2.4 0.7q-0.1-0.1-0.2 0-0.1 0-0.2 0.1z"/>
	<path id="Layer" class="s3" d="m17.4 21.8q0-0.1-0.1-0.2-0.1 0-0.1 0c-1.7-0.2-2.3-1.3-2.3-1.3q-0.1-0.1-0.1-0.1-0.1-0.1-0.1-0.1-0.1 0-0.2 0-0.1 0-0.1 0-0.1 0.1-0.2 0.3 0 0.1 0.1 0.2c0 0.1 0.8 1.5 2.8 1.7q0.1 0 0.2 0 0.1-0.1 0.1-0.2 0.1 0 0.1-0.1 0-0.2-0.1-0.2z"/>
	<g id="Layer" style="opacity: .2">
		<path id="Layer" class="s6" d="m50.4 4.2c-2-0.2-4 0.4-5.5 1.6-1.5 1.2-2.5 3-2.8 4.9-0.3 2.1 0.4 3.9 1.6 5.5 1.1 1.5 2.7 2.7 4.8 3 2 0.2 4-0.4 5.4-1.6 1.5-1.1 2.5-2.9 2.8-4.9 0.3-2.1-0.2-4.1-1.3-5.6-1.2-1.6-3-2.6-5-2.9z"/>
	</g>
	<path id="Layer" class="s6" d="m51.1 17.4q-0.7 1.5-1.2 3c-0.1 0.4-1.5 1.2-1.7 1.3 0 0.4 0.1 0.8 0.1 1.1q0 0-0.1 0 0 0.1 0 0.1 0 0 0 0-0.1-0.1-0.1-0.1-0.3-0.7-0.3-1.4c0.9 0 1.1-0.8 1.7-1 0.2-1.1 0.3-2.4 0.5-2.6 0.4-0.2 1.1-0.4 1.1-0.4z"/>
	<g id="Layer" style="opacity: .2">
		<path id="Layer" class="s5" d="m50 17.8c-0.1 0.1-0.2 0.4-0.2 0.9q0.4-0.1 0.8-0.2c0.2-0.5 0.4-0.9 0.5-1.1 0 0-0.7 0.2-1.1 0.4z"/>
	</g>
	<path id="Layer" class="s6" d="m49 5c-1.8 0.2-3.4 1.1-4.5 2.4-1.1 1.3-1.7 3-1.6 4.8 0.1 1.8 1.1 3.3 2.3 4.4 1.3 1.1 2.9 1.9 4.7 1.7 1.7-0.1 3.4-0.9 4.5-2.3 1.1-1.2 1.6-2.9 1.5-4.8-0.1-1.8-0.9-3.4-2.1-4.5-1.3-1.2-3.1-1.8-4.8-1.7z"/>
	<g id="Layer" style="opacity: .2">
		<path id="Layer" class="s5" d="m47.6 17.4l-0.5 0.4q0.2 0.1 0.4 0.2 0.1-0.3 0.1-0.6z"/>
	</g>
	<path id="Layer" class="s6" d="m47.6 17.3q-0.9 1.3-1.8 2.8c-0.2 0.3-1.7 0.6-1.9 0.7q0.1 0.6 0.2 1.2 0 0 0 0 0 0 0 0-0.1 0-0.1 0 0 0 0 0-0.4-0.7-0.5-1.5c0.9 0 1.3-0.5 1.9-0.6 0.5-1 1-2.5 1.2-2.7 0.4-0.1 1 0.1 1 0.1z"/>
	<path id="Layer" class="s6" d="m55.3 5.6c-0.7 0.4-1.5 1.2-1.8 1.7q-0.1 0-0.2-0.1 0 0-0.1-0.1c0 0 1.2-1.3 1.9-1.7 0.1 0.1 0.2 0.2 0.2 0.2z"/>
	<path id="Layer" class="s6" d="m55.3 4.9q-0.2 0-0.4 0.2 0 0.1-0.1 0.2 0 0.1 0 0.2 0 0.2 0.2 0.3 0.2 0.1 0.4 0.1 0.1 0 0.2-0.1 0.1-0.1 0.2-0.2 0-0.2 0-0.3 0-0.2-0.1-0.3-0.2-0.1-0.4-0.1z"/>
	<g id="Layer" style="opacity: .2">
		<path id="Layer" class="s3" d="m55.3 4.9q-0.2 0-0.4 0.2 0 0.1-0.1 0.2 0 0.1 0 0.2 0 0.2 0.2 0.3 0.2 0.1 0.4 0.1 0.1 0 0.2-0.1 0.1-0.1 0.2-0.2 0-0.2 0-0.3 0-0.2-0.1-0.3-0.2-0.1-0.4-0.1z"/>
	</g>
	<path id="Layer" class="s6" d="m57.1 9.7c-1 0.1-2.4 0.8-3 1.3q-0.1 0-0.2-0.2-0.1-0.1-0.1-0.2c0 0 2.1-1.1 3.1-1.2 0.1 0.2 0.2 0.3 0.2 0.3z"/>
	<path id="Layer" class="s6" d="m57.4 8.8q-0.1 0-0.3 0-0.1 0-0.2 0.1-0.2 0.1-0.3 0.3-0.1 0.2 0 0.4 0 0.2 0.1 0.3 0.1 0.2 0.3 0.3 0.3 0 0.6-0.1 0.2-0.2 0.3-0.4 0-0.3-0.1-0.5-0.1-0.3-0.4-0.4z"/>
	<g id="Layer" style="opacity: .2">
		<path id="Layer" class="s3" d="m57.4 8.8q-0.1 0-0.3 0-0.1 0-0.2 0.1-0.2 0.1-0.3 0.3-0.1 0.2 0 0.4 0 0.2 0.1 0.3 0.1 0.2 0.3 0.3 0.3 0 0.6-0.1 0.2-0.2 0.3-0.4 0-0.3-0.1-0.5-0.1-0.3-0.4-0.4z"/>
	</g>
	<path id="Layer" class="s6" d="m55.9 7.6c-0.5 0.4-1.4 0.7-1.9 0.8q0 0.1 0 0.2 0.1 0.1 0.1 0.2c0 0 1.4-0.6 1.9-1-0.1-0.1-0.1-0.2-0.1-0.2z"/>
	<path id="Layer" class="s6" d="m56.5 7.8q-0.1 0.1-0.3 0.2-0.2 0-0.3 0-0.1-0.1-0.2-0.1 0-0.1 0-0.2-0.1-0.1-0.1-0.1 0-0.1 0.1-0.2 0-0.2 0.2-0.2 0.2-0.1 0.3 0 0.2 0.1 0.3 0.2 0 0.2 0 0.4z"/>
	<g id="Layer" style="opacity: .2">
		<path id="Layer" class="s3" d="m56.5 7.8q-0.1 0.1-0.3 0.2-0.2 0-0.3 0-0.1-0.1-0.2-0.1 0-0.1 0-0.2-0.1-0.1-0.1-0.1 0-0.1 0.1-0.2 0-0.2 0.2-0.2 0.2-0.1 0.3 0 0.2 0.1 0.3 0.2 0 0.2 0 0.4z"/>
	</g>
	<path id="Layer" class="s6" d="m57 11.6c-0.5 0-1.2-0.3-1.6-0.5q0 0-0.1 0.1 0 0 0 0.1c0 0 1.1 0.4 1.6 0.4q0-0.1 0.1-0.1z"/>
	<path id="Layer" class="s6" d="m57.2 12q-0.1 0-0.2 0 0 0-0.1 0-0.1 0-0.2-0.2 0-0.1 0-0.2 0.1-0.2 0.2-0.2 0.1-0.1 0.3 0 0 0 0.1 0.1 0 0 0 0.1 0.1 0 0.1 0.1 0 0.1-0.1 0.1 0 0.1 0 0.2-0.1 0-0.1 0z"/>
	<g id="Layer" style="opacity: .2">
		<path id="Layer" class="s3" d="m57.2 12q-0.1 0-0.2 0 0 0-0.1 0-0.1 0-0.2-0.2 0-0.1 0-0.2 0.1-0.2 0.2-0.2 0.1-0.1 0.3 0 0 0 0.1 0.1 0 0 0 0.1 0.1 0 0.1 0.1 0 0.1-0.1 0.1 0 0.1 0 0.2-0.1 0-0.1 0z"/>
	</g>
	<path id="Layer" class="s6" d="m57.2 13.4c-0.6-0.2-1.7-0.3-2.2-0.2q-0.1-0.1-0.1-0.2 0-0.1 0.1-0.2c0 0 1.6 0.1 2.2 0.4 0 0.1 0 0.2 0 0.2z"/>
	<path id="Layer" class="s6" d="m57.7 13q-0.1-0.1-0.3-0.1-0.2 0-0.4 0.1-0.1 0.1-0.1 0.3 0 0.2 0.1 0.4 0.2 0.1 0.3 0.1 0.2 0 0.4-0.1 0.1-0.2 0.1-0.4 0-0.1-0.1-0.3z"/>
	<g id="Layer" style="opacity: .2">
		<path id="Layer" class="s3" d="m57.7 13q-0.1-0.1-0.3-0.1-0.2 0-0.4 0.1-0.1 0.1-0.1 0.3 0 0.2 0.1 0.4 0.2 0.1 0.3 0.1 0.2 0 0.4-0.1 0.1-0.2 0.1-0.4 0-0.1-0.1-0.3z"/>
	</g>
	<path id="Layer" class="s6" d="m56.2 15c-0.6-0.1-1.3-0.5-1.7-0.8q-0.1 0-0.1 0.1-0.1 0.1 0 0.1c0 0 1.1 0.7 1.7 0.8 0.1-0.1 0.1-0.2 0.1-0.2z"/>
	<path id="Layer" class="s6" d="m56.4 15.5q-0.2 0-0.3 0-0.1-0.1-0.1-0.1-0.1-0.1-0.1-0.2 0-0.1 0.1-0.3 0-0.1 0.2-0.2 0.1 0 0.1 0 0.1 0 0.2 0.1 0.1 0.1 0.2 0.2 0 0.1 0 0.2 0 0.1-0.1 0.1-0.1 0.2-0.2 0.2z"/>
	<g id="Layer" style="opacity: .2">
		<path id="Layer" class="s3" d="m56.4 15.5q-0.2 0-0.3 0-0.1-0.1-0.1-0.1-0.1-0.1-0.1-0.2 0-0.1 0.1-0.3 0-0.1 0.2-0.2 0.1 0 0.1 0 0.1 0 0.2 0.1 0.1 0.1 0.2 0.2 0 0.1 0 0.2 0 0.1-0.1 0.1-0.1 0.2-0.2 0.2z"/>
	</g>
	<path id="Layer" class="s6" d="m55.8 16.7c-0.4-0.7-1.3-1.3-1.8-1.6q0-0.1 0-0.2 0.1-0.1 0.2-0.1c0 0 1.4 1 1.8 1.6-0.1 0.1-0.2 0.3-0.2 0.3z"/>
	<path id="Layer" class="s6" d="m56.5 16.6q0-0.2-0.2-0.4-0.1-0.1-0.3 0-0.1 0-0.2 0-0.1 0.1-0.2 0.2 0 0.1 0 0.2-0.1 0.1-0.1 0.2 0.1 0.2 0.3 0.3 0.1 0.1 0.3 0.1 0.2-0.1 0.4-0.2 0.1-0.2 0-0.4z"/>
	<g id="Layer" style="opacity: .2">
		<path id="Layer" class="s3" d="m56.5 16.6q0-0.2-0.2-0.4-0.1-0.1-0.3 0-0.1 0-0.2 0-0.1 0.1-0.2 0.2 0 0.1 0 0.2-0.1 0.1-0.1 0.2 0.1 0.2 0.3 0.3 0.1 0.1 0.3 0.1 0.2-0.1 0.4-0.2 0.1-0.2 0-0.4z"/>
	</g>
	<path id="Layer" class="s6" d="m52.3 19.3c-0.3-1-1.1-2.3-1.7-2.9q0-0.1 0.2-0.2 0.1-0.1 0.2-0.1c0 0 1.3 1.9 1.5 3-0.1 0.1-0.2 0.2-0.2 0.2z"/>
	<path id="Layer" class="s6" d="m53.2 19.5q0-0.3-0.2-0.5-0.1-0.2-0.4-0.3-0.3 0-0.5 0.1-0.2 0.2-0.3 0.5 0 0.3 0.1 0.5 0.2 0.2 0.5 0.2 0.3 0.1 0.5-0.1 0.2-0.1 0.3-0.4z"/>
	<g id="Layer" style="opacity: .2">
		<path id="Layer" class="s3" d="m53.2 19.5q0-0.3-0.2-0.5-0.1-0.2-0.4-0.3-0.3 0-0.5 0.1-0.2 0.2-0.3 0.5 0 0.3 0.1 0.5 0.2 0.2 0.5 0.2 0.3 0.1 0.5-0.1 0.2-0.1 0.3-0.4z"/>
	</g>
	<path id="Layer" class="s6" d="m54 17.5c-0.5-0.4-0.9-1.3-1.1-1.8q-0.1 0-0.1 0-0.1 0.1-0.2 0.1c0 0 0.7 1.4 1.2 1.8 0.1-0.1 0.2-0.1 0.2-0.1z"/>
	<path id="Layer" class="s6" d="m53.9 18.1q-0.2-0.1-0.3-0.3-0.1-0.1 0-0.3 0.1-0.1 0.2-0.2 0.2-0.1 0.3-0.1 0.2 0.1 0.3 0.3 0.1 0.1 0 0.3 0 0.1-0.1 0.1 0 0.1-0.1 0.1-0.1 0.1-0.2 0.1-0.1 0-0.1 0z"/>
	<g id="Layer" style="opacity: .2">
		<path id="Layer" class="s3" d="m53.9 18.1q-0.2-0.1-0.3-0.3-0.1-0.1 0-0.3 0.1-0.1 0.2-0.2 0.2-0.1 0.3-0.1 0.2 0.1 0.3 0.3 0.1 0.1 0 0.3 0 0.1-0.1 0.1 0 0.1-0.1 0.1-0.1 0.1-0.2 0.1-0.1 0-0.1 0z"/>
	</g>
	<path id="Layer" class="s6" d="m41.8 10.8c0.5-0.1 1.2 0.1 1.6 0.3q0-0.1 0.1-0.1 0-0.1 0-0.2c0 0-1.2-0.2-1.7-0.2 0 0.1 0 0.2 0 0.2z"/>
	<path id="Layer" class="s6" d="m41.5 10.4q0.1 0 0.2 0 0 0 0.1 0 0.1 0 0.1 0.1 0.1 0 0.1 0 0.1 0.2 0 0.3 0 0.1-0.1 0.2-0.1 0.1-0.2 0.1-0.1 0-0.2-0.1-0.1-0.1-0.1-0.2-0.1-0.1 0-0.2 0-0.1 0.1-0.2z"/>
	<g id="Layer" style="opacity: .2">
		<path id="Layer" class="s3" d="m41.5 10.4q0.1 0 0.2 0 0 0 0.1 0 0.1 0 0.1 0.1 0.1 0 0.1 0 0.1 0.2 0 0.3 0 0.1-0.1 0.2-0.1 0.1-0.2 0.1-0.1 0-0.2-0.1-0.1-0.1-0.1-0.2-0.1-0.1 0-0.2 0-0.1 0.1-0.2z"/>
	</g>
	<path id="Layer" class="s6" d="m48.4 19.5c0.2-0.7 0.1-1.7 0-2.3q0.1 0 0.2 0 0.1-0.1 0.1 0c0 0 0.2 1.6-0.1 2.3-0.1 0-0.2 0-0.2 0z"/>
	<path id="Layer" class="s6" d="m48.9 19.9q0.1-0.1 0.1-0.3-0.1-0.2-0.2-0.3-0.1-0.1-0.2-0.1-0.1 0-0.1 0-0.1 0-0.2 0-0.1 0.1-0.2 0.1-0.1 0.2-0.1 0.4 0.1 0.2 0.2 0.3 0.2 0.1 0.3 0.1 0.2 0 0.4-0.2z"/>
	<g id="Layer" style="opacity: .2">
		<path id="Layer" class="s3" d="m48.9 19.9q0.1-0.1 0.1-0.3-0.1-0.2-0.2-0.3-0.1-0.1-0.2-0.1-0.1 0-0.1 0-0.1 0-0.2 0-0.1 0.1-0.2 0.1-0.1 0.2-0.1 0.4 0.1 0.2 0.2 0.3 0.2 0.1 0.3 0.1 0.2 0 0.4-0.2z"/>
	</g>
	<path id="Layer" class="s6" d="m41.7 9.3c0.6 0 1.4 0.3 1.9 0.5q0-0.1 0.1-0.2 0 0 0-0.1c0 0-1.3-0.4-1.9-0.4 0 0.1-0.1 0.2-0.1 0.2z"/>
	<path id="Layer" class="s6" d="m41.4 8.8q0.1 0 0.2 0 0.1 0 0.1 0 0.1 0 0.2 0.1 0 0.1 0.1 0.1 0 0.2 0 0.3-0.1 0.2-0.2 0.3-0.1 0-0.2 0 0 0-0.1 0-0.2-0.1-0.2-0.2-0.1-0.2-0.1-0.3 0.1-0.1 0.1-0.2 0.1 0 0.1-0.1z"/>
	<g id="Layer" style="opacity: .2">
		<path id="Layer" class="s3" d="m41.4 8.8q0.1 0 0.2 0 0.1 0 0.1 0 0.1 0 0.2 0.1 0 0.1 0.1 0.1 0 0.2 0 0.3-0.1 0.2-0.2 0.3-0.1 0-0.2 0 0 0-0.1 0-0.2-0.1-0.2-0.2-0.1-0.2-0.1-0.3 0.1-0.1 0.1-0.2 0.1 0 0.1-0.1z"/>
	</g>
	<path id="Layer" class="s6" d="m42.2 16c0.7-0.2 1.6-0.8 2.1-1.3q0.1 0.1 0.1 0.2 0.1 0 0.1 0.1c0 0-1.4 1-2.2 1.2-0.1-0.1-0.1-0.2-0.1-0.2z"/>
	<path id="Layer" class="s6" d="m42 16.7q0.2 0 0.4-0.1 0.2-0.1 0.2-0.3 0-0.2-0.1-0.4-0.1-0.2-0.3-0.2-0.2-0.1-0.4 0.1-0.2 0.1-0.2 0.3 0 0.2 0.1 0.4 0.1 0.1 0.3 0.2z"/>
	<g id="Layer" style="opacity: .2">
		<path id="Layer" class="s3" d="m42 16.7q0.2 0 0.4-0.1 0.2-0.1 0.2-0.3 0-0.2-0.1-0.4-0.1-0.2-0.3-0.2-0.2-0.1-0.4 0.1-0.2 0.1-0.2 0.3 0 0.2 0.1 0.4 0.1 0.1 0.3 0.2z"/>
	</g>
	<path id="Layer" class="s6" d="m41.4 12.1c1 0.1 2.5-0.3 3.2-0.6q0.1 0.1 0.2 0.2 0 0.1 0 0.3c0 0-2.3 0.6-3.3 0.4 0-0.2-0.1-0.3-0.1-0.3z"/>
	<path id="Layer" class="s6" d="m40.9 12.9q0.2 0.1 0.5 0 0.3-0.1 0.4-0.3 0.1-0.1 0.1-0.3 0-0.1 0-0.2-0.1-0.2-0.1-0.3-0.1-0.1-0.2-0.1-0.2-0.1-0.4-0.1-0.2 0-0.4 0.1-0.2 0.2-0.2 0.4-0.1 0.1 0 0.3 0 0.3 0.3 0.5z"/>
	<g id="Layer" style="opacity: .2">
		<path id="Layer" class="s3" d="m40.9 12.9q0.2 0.1 0.5 0 0.3-0.1 0.4-0.3 0.1-0.1 0.1-0.3 0-0.1 0-0.2-0.1-0.2-0.1-0.3-0.1-0.1-0.2-0.1-0.2-0.1-0.4-0.1-0.2 0-0.4 0.1-0.2 0.2-0.2 0.4-0.1 0.1 0 0.3 0 0.3 0.3 0.5z"/>
	</g>
	<path id="Layer" class="s6" d="m42.2 13.7c0.5-0.3 1.5-0.4 2-0.4q0-0.1 0-0.2 0-0.1 0-0.1c0 0-1.5 0.2-2.1 0.5 0.1 0.1 0.1 0.2 0.1 0.2z"/>
	<path id="Layer" class="s6" d="m41.7 13.4q0.1-0.1 0.3-0.2 0.1 0 0.3 0.1 0.1 0.1 0.1 0.3 0.1 0.2 0 0.3-0.1 0.1-0.2 0.2-0.2 0-0.3 0-0.1-0.1-0.2-0.2-0.1-0.1-0.1-0.2 0-0.2 0.1-0.3z"/>
	<g id="Layer" style="opacity: .2">
		<path id="Layer" class="s3" d="m41.7 13.4q0.1-0.1 0.3-0.2 0.1 0 0.3 0.1 0.1 0.1 0.1 0.3 0.1 0.2 0 0.3-0.1 0.1-0.2 0.2-0.2 0-0.3 0-0.1-0.1-0.2-0.2-0.1-0.1-0.1-0.2 0-0.2 0.1-0.3z"/>
	</g>
	<path id="Layer" class="s6" d="m44.2 17.6c0.2-0.5 0.8-1 1.1-1.2q0-0.1 0-0.2-0.1 0-0.2 0c0 0-0.8 0.8-1 1.2 0 0.1 0.1 0.2 0.1 0.2z"/>
	<path id="Layer" class="s6" d="m43.7 17.6q0-0.2 0.1-0.3 0.1-0.1 0.3-0.1 0 0 0.1 0.1 0.1 0 0.1 0.1 0.1 0.1 0.1 0.2 0 0.1-0.1 0.2-0.1 0.1-0.3 0.1-0.1 0-0.2-0.1-0.1-0.1-0.1-0.2z"/>
	<g id="Layer" style="opacity: .2">
		<path id="Layer" class="s3" d="m43.7 17.6q0-0.2 0.1-0.3 0.1-0.1 0.3-0.1 0 0 0.1 0.1 0.1 0 0.1 0.1 0.1 0.1 0.1 0.2 0 0.1-0.1 0.2-0.1 0.1-0.3 0.1-0.1 0-0.2-0.1-0.1-0.1-0.1-0.2z"/>
	</g>
	<path id="Layer" class="s6" d="m41.8 7.5c0.6 0.4 1.6 0.6 2.1 0.7q0.1 0.1 0 0.2 0 0.1 0 0.1c0 0-1.6-0.4-2.1-0.8 0-0.1 0-0.2 0-0.2z"/>
	<path id="Layer" class="s6" d="m41.3 7.7q0.1 0.2 0.3 0.3 0.2 0 0.3-0.1 0.2-0.1 0.2-0.3 0.1-0.2 0-0.3-0.1-0.1-0.1-0.2-0.1 0-0.2 0-0.1-0.1-0.2-0.1-0.1 0.1-0.2 0.1 0 0.1-0.1 0.1 0 0.1-0.1 0.2 0 0.2 0.1 0.3z"/>
	<g id="Layer" style="opacity: .2">
		<path id="Layer" class="s3" d="m41.3 7.7q0.1 0.2 0.3 0.3 0.2 0 0.3-0.1 0.2-0.1 0.2-0.3 0.1-0.2 0-0.3-0.1-0.1-0.1-0.2-0.1 0-0.2 0-0.1-0.1-0.2-0.1-0.1 0.1-0.2 0.1 0 0.1-0.1 0.1 0 0.1-0.1 0.2 0 0.2 0.1 0.3z"/>
	</g>
	<path id="Layer" class="s6" d="m43.2 6.1c0.5 0.3 1.2 0.9 1.4 1.2q0.1 0 0.2-0.1 0 0 0.1-0.1c0 0-1-0.9-1.6-1.1-0.1 0.1-0.1 0.1-0.1 0.1z"/>
	<path id="Layer" class="s6" d="m43.1 5.6q0.2 0 0.3 0.1 0.1 0.1 0.1 0.3 0 0.2-0.1 0.3-0.1 0-0.1 0.1-0.1 0-0.2 0-0.1 0-0.1 0-0.1 0-0.2-0.1-0.1-0.1-0.1-0.2 0-0.1 0-0.2 0.1-0.2 0.2-0.2 0.1-0.1 0.2-0.1z"/>
	<g id="Layer" style="opacity: .2">
		<path id="Layer" class="s3" d="m43.1 5.6q0.2 0 0.3 0.1 0.1 0.1 0.1 0.3 0 0.2-0.1 0.3-0.1 0-0.1 0.1-0.1 0-0.2 0-0.1 0-0.1 0-0.1 0-0.2-0.1-0.1-0.1-0.1-0.2 0-0.1 0-0.2 0.1-0.2 0.2-0.2 0.1-0.1 0.2-0.1z"/>
	</g>
	<path id="Layer" class="s6" d="m44.2 4.4c0.3 0.7 1.1 1.6 1.5 2q0 0.1-0.1 0.2-0.1 0-0.2 0.1c0 0-1.1-1.4-1.3-2.1 0.1-0.1 0.1-0.2 0.1-0.2z"/>
	<path id="Layer" class="s6" d="m43.6 4.3q0 0.3 0.1 0.4 0.1 0.1 0.2 0.1 0 0.1 0.1 0.1 0.1 0 0.2-0.1 0.1 0 0.2-0.1 0.1 0 0.1-0.1 0.1-0.1 0.1-0.2 0-0.2-0.2-0.4-0.1-0.1-0.3-0.1-0.1 0-0.2 0-0.1 0-0.2 0.1-0.1 0.1-0.1 0.2 0 0 0 0.1z"/>
	<g id="Layer" style="opacity: .2">
		<path id="Layer" class="s3" d="m43.6 4.3q0 0.3 0.1 0.4 0.1 0.1 0.2 0.1 0 0.1 0.1 0.1 0.1 0 0.2-0.1 0.1 0 0.2-0.1 0.1 0 0.1-0.1 0.1-0.1 0.1-0.2 0-0.2-0.2-0.4-0.1-0.1-0.3-0.1-0.1 0-0.2 0-0.1 0-0.2 0.1-0.1 0.1-0.1 0.2 0 0 0 0.1z"/>
	</g>
	<path id="Layer" class="s6" d="m48.1 3.4c0 1 0.6 2.5 1 3.2q-0.1 0.1-0.2 0.1-0.1 0.1-0.3 0.1c0 0-0.8-2.2-0.8-3.3 0.2 0 0.3-0.1 0.3-0.1z"/>
	<path id="Layer" class="s6" d="m47.3 3q-0.1 0.3 0 0.5 0.1 0.3 0.4 0.4 0.1 0 0.2 0 0.2 0 0.3 0 0.1-0.1 0.2-0.2 0.1-0.1 0.2-0.2 0-0.2 0-0.4-0.1-0.2-0.2-0.3-0.2-0.2-0.4-0.2-0.2-0.1-0.3 0-0.3 0.1-0.4 0.4z"/>
	<g id="Layer" style="opacity: .2">
		<path id="Layer" class="s3" d="m47.3 3q-0.1 0.3 0 0.5 0.1 0.3 0.4 0.4 0.1 0 0.2 0 0.2 0 0.3 0 0.1-0.1 0.2-0.2 0.1-0.1 0.2-0.2 0-0.2 0-0.4-0.1-0.2-0.2-0.3-0.2-0.2-0.4-0.2-0.2-0.1-0.3 0-0.3 0.1-0.4 0.4z"/>
	</g>
	<path id="Layer" class="s6" d="m45.9 4.2c0.3 0.5 0.6 1.5 0.6 2q0.1 0 0.2 0 0.1 0 0.1-0.1c0 0-0.3-1.4-0.7-1.9-0.1 0-0.2 0-0.2 0z"/>
	<path id="Layer" class="s6" d="m46.1 3.7q0.2 0.1 0.2 0.3 0.1 0.1 0 0.3-0.1 0.1-0.1 0.1-0.1 0.1-0.2 0.1-0.2 0-0.3-0.1-0.2-0.1-0.2-0.2 0-0.2 0-0.4 0.1 0 0.2-0.1 0 0 0.1-0.1 0.2 0 0.3 0.1z"/>
	<g id="Layer" style="opacity: .2">
		<path id="Layer" class="s3" d="m46.1 3.7q0.2 0.1 0.2 0.3 0.1 0.1 0 0.3-0.1 0.1-0.1 0.1-0.1 0.1-0.2 0.1-0.2 0-0.3-0.1-0.2-0.1-0.2-0.2 0-0.2 0-0.4 0.1 0 0.2-0.1 0 0 0.1-0.1 0.2 0 0.3 0.1z"/>
	</g>
	<path id="Layer" class="s6" d="m50 3.6c-0.1 0.5-0.5 1.2-0.7 1.5q0 0.1 0 0.1 0.1 0 0.2 0c0 0 0.5-1 0.6-1.5-0.1 0-0.1-0.1-0.1-0.1z"/>
	<path id="Layer" class="s6" d="m50.4 3.4q0 0.1 0 0.2 0 0.1 0 0.1-0.1 0.1-0.1 0.1-0.1 0-0.1 0.1-0.1 0-0.2 0 0 0-0.1-0.1-0.1 0-0.1-0.1-0.1-0.1-0.1-0.2 0.1-0.1 0.1-0.2 0.1-0.1 0.2-0.1 0.1 0 0.1 0 0.1 0 0.2 0 0 0.1 0.1 0.1 0 0.1 0 0.1z"/>
	<g id="Layer" style="opacity: .2">
		<path id="Layer" class="s3" d="m50.4 3.4q0 0.1 0 0.2 0 0.1 0 0.1-0.1 0.1-0.1 0.1-0.1 0-0.1 0.1-0.1 0-0.2 0 0 0-0.1-0.1-0.1 0-0.1-0.1-0.1-0.1-0.1-0.2 0.1-0.1 0.1-0.2 0.1-0.1 0.2-0.1 0.1 0 0.1 0 0.1 0 0.2 0 0 0.1 0.1 0.1 0 0.1 0 0.1z"/>
	</g>
	<path id="Layer" class="s6" d="m51.8 3.6c-0.4 0.6-0.5 1.6-0.5 2.2q-0.1 0-0.2 0-0.1 0-0.2-0.1c0 0 0.3-1.6 0.6-2.2 0.2 0.1 0.3 0.1 0.3 0.1z"/>
	<path id="Layer" class="s6" d="m51.4 3q-0.1 0.2-0.1 0.3-0.1 0.2 0.1 0.4 0.1 0.1 0.3 0.2 0.2 0 0.3-0.1 0.1-0.1 0.1-0.2 0.1 0 0.1-0.1 0-0.1 0-0.2-0.1-0.1-0.1-0.2-0.1-0.1-0.1-0.1-0.1-0.1-0.2-0.1-0.1 0-0.2 0-0.1 0.1-0.2 0.1z"/>
	<g id="Layer" style="opacity: .2">
		<path id="Layer" class="s3" d="m51.4 3q-0.1 0.2-0.1 0.3-0.1 0.2 0.1 0.4 0.1 0.1 0.3 0.2 0.2 0 0.3-0.1 0.1-0.1 0.1-0.2 0.1 0 0.1-0.1 0-0.1 0-0.2-0.1-0.1-0.1-0.2-0.1-0.1-0.1-0.1-0.1-0.1-0.2-0.1-0.1 0-0.2 0-0.1 0.1-0.2 0.1z"/>
	</g>
	<path id="Layer" class="s6" d="m53.2 4.7c-0.1 0.6-0.6 1.3-1 1.7q0.1 0 0.1 0.1 0.1 0 0.2 0c0 0 0.8-1.1 0.9-1.6-0.1-0.1-0.2-0.2-0.2-0.2z"/>
	<path id="Layer" class="s6" d="m53.8 4.6q0 0.1-0.1 0.2 0 0 0 0.1-0.1 0.1-0.2 0.1-0.1 0.1-0.2 0-0.1 0-0.2-0.1-0.1-0.1-0.1-0.2 0-0.1 0-0.3 0.1-0.1 0.3-0.1 0.2 0 0.3 0.1 0.1 0.1 0.2 0.2z"/>
	<g id="Layer" style="opacity: .2">
		<path id="Layer" class="s3" d="m53.8 4.6q0 0.1-0.1 0.2 0 0 0 0.1-0.1 0.1-0.2 0.1-0.1 0.1-0.2 0-0.1 0-0.2-0.1-0.1-0.1-0.1-0.2 0-0.1 0-0.3 0.1-0.1 0.3-0.1 0.2 0 0.3 0.1 0.1 0.1 0.2 0.2z"/>
	</g>
	<g id="Layer" style="opacity: .1">
		<path id="Layer" class="s3" d="m49.2 5.8c-0.3 0-0.7 0.2-1 0.3-0.4 0.1-0.8 0.2-1.1 0.4q-0.5 0.2-0.9 0.6-0.5 0.3-0.9 0.8-0.3 0.4-0.6 0.9-0.3 0.5-0.5 1-0.2 0.5-0.3 1.1 0 0.6 0.1 1.1c0 0.4 0.1 0.8 0.2 1.1 0.1 0.4 0.2 0.8 0.3 1.1 0.2 0.3 0.5 0.6 0.8 0.8 0.2 0.3 0.4 0.7 0.6 0.9q0.4 0.4 0.9 0.8c0.3 0.2 0.7 0.2 1.1 0.4q0.5 0.2 1 0.3c0.4 0.1 0.8 0 1.1 0 0.4-0.1 0.8 0.1 1.2 0 0.4-0.1 0.7-0.4 1-0.5 0.3-0.2 0.7-0.4 1-0.6q0.4-0.4 0.8-0.8c0.3-0.3 0.4-0.7 0.6-1q0.2-0.5 0.4-1c0.1-0.4 0.3-0.7 0.3-1.1 0-0.4 0-0.8-0.1-1.1q0-0.6-0.1-1.2-0.2-0.5-0.4-1c-0.2-0.3-0.3-0.7-0.5-1q-0.3-0.5-0.7-0.9-0.5-0.3-1-0.6c-0.3-0.2-0.7-0.3-1-0.4-0.4-0.1-0.7-0.5-1.1-0.5-0.4-0.1-0.8 0-1.2 0.1z"/>
	</g>
	<path id="Layer" class="s3" d="m48.7 11.3c-0.3 0-0.6-0.4-0.6-0.9 0-0.5 0.3-0.9 0.6-0.9 0.3 0 0.6 0.4 0.6 0.9 0 0.5-0.3 0.9-0.6 0.9z"/>
	<path id="Layer" class="s3" d="m52.1 11.2c-0.3 0-0.6-0.4-0.6-0.9 0-0.5 0.3-0.9 0.6-0.9 0.3 0 0.6 0.4 0.6 0.9 0 0.5-0.3 0.9-0.6 0.9z"/>
	<path id="Layer" class="s3" d="m51.1 14.2q-1 0.1-1.9-0.3-0.9-0.3-1.7-0.9 0-0.1 0-0.2 0 0 0-0.1 0.1 0 0.1 0 0.1 0 0.1 0 0.9 0.7 1.9 1 1.1 0.3 2.1 0.1 0.1 0 0.1 0 0 0 0 0 0.1 0 0.1 0 0 0.1 0 0.1 0 0.1 0 0.1-0.1 0.1-0.1 0.1-0.3 0-0.7 0.1z"/>
	<path id="Layer" class="s3" d="m48.5 8.3q0.1 0 0.1 0.1 0 0 0 0.1 0 0 0 0 0 0.1 0 0.1-0.1 0-0.1 0.1-0.4 0.2-0.9 0.1-0.4 0-0.8-0.2-0.1 0-0.1 0 0-0.1 0-0.1 0 0 0-0.1 0 0 0-0.1 0 0 0.1 0 0.1 0 0.2 0 0.3 0.2 0.6 0.2 0.4 0 0.7-0.2 0.1 0 0.1 0 0.1 0 0.1 0z"/>
	<path id="Layer" class="s3" d="m53.1 8.4q0 0-0.1 0 0-0.1 0-0.1-0.2-0.3-0.6-0.5-0.3-0.2-0.6-0.3-0.1 0-0.1 0 0 0-0.1 0 0 0 0-0.1 0 0 0-0.1 0 0 0-0.1 0.1 0 0.2 0 0.4 0 0.8 0.2 0.4 0.3 0.7 0.7 0 0 0 0.1 0 0.1-0.1 0.1 0 0.1-0.1 0.1z"/>
</svg>